<svg xmlns="http://www.w3.org/2000/svg" viewBox="0 0 277 200" width="277" height="200">
	<style>
		tspan { white-space:pre }
		.shp0 { fill: #fafafa } 
		.shp1 { fill: #ebebeb } 
		.shp2 { fill: #f0f0f0 } 
		.shp3 { fill: #f5f5f5 } 
		.shp4 { fill: #263238 } 
		.shp5 { fill: #e8505b } 
		.shp6 { opacity: 0.8;fill: #ffffff } 
		.shp7 { opacity: 0.302;fill: #000000 } 
		.shp8 { opacity: 0.102;fill: #000000 } 
		.shp9 { fill: #dd4848 } 
		.shp10 { fill: #fcbfb6 } 
		.shp11 { opacity: 0.2;fill: #000000 } 
		.shp12 { opacity: 0.6;fill: #000000 } 
		.shp13 { fill: #ff8186 } 
		.shp14 { fill: #e21f26 } 
		.shp15 { opacity: 0.2;fill: #ffffff } 
	</style>
	<g id="Layer">
		<path id="Layer" class="shp0" d="M230.06 193.65C205.5 199.36 180.21 194.85 155.46 192.89C139.17 191.6 123.53 194.01 107.26 195.46C65.87 199.14 19.81 194.74 5.9 157.69C-5.69 126.8 11.36 80.38 49.52 61.46C62.72 54.92 76.24 53.44 89.48 54.5C97.44 55.14 106.34 57.95 114.84 54.68C123.8 51.23 130.31 41.97 136.3 35.27C145.2 25.31 154.6 14.86 166.66 8.01C194.32 -7.68 211.18 6.86 220 31.09C224.28 42.87 226.66 55.19 230.16 67.18C235.12 84.19 245.44 96.44 257.07 109.99C267.42 122.07 277.15 136.24 275.78 151.81C274.24 169.48 258.18 184.24 240.08 190.71C239.27 191.01 238.44 191.29 237.61 191.56C236.78 191.83 235.95 192.09 235.12 192.33C234.28 192.58 233.45 192.81 232.6 193.03C231.76 193.25 230.91 193.46 230.07 193.65" />
		<g id="Layer">
			<g id="Layer">
				<path id="Layer" class="shp1" d="M21.75 163.81L251.93 163.81L251.93 163.93L21.75 163.93L21.75 163.81Z" />
				<path id="Layer" class="shp1" d="M213.63 171.21L228.87 171.21L228.87 171.32L213.63 171.32L213.63 171.21Z" />
				<path id="Layer" class="shp1" d="M170.24 172.46L174.24 172.46L174.24 172.57L170.24 172.57L170.24 172.46Z" />
				<path id="Layer" class="shp1" d="M204.33 166.94L213.16 166.94L213.16 167.06L204.33 167.06L204.33 166.94Z" />
				<path id="Layer" class="shp1" d="M45.9 167.71L65.79 167.71L65.79 167.83L45.9 167.83L45.9 167.71Z" />
				<path id="Layer" class="shp1" d="M69.89 167.71L72.8 167.71L72.8 167.83L69.89 167.83L69.89 167.71Z" />
				<path id="Layer" class="shp1" d="M82.28 169.66L125.4 169.66L125.4 169.77L82.28 169.77L82.28 169.66Z" />
				<path id="Layer" class="shp2" d="M143.21 114.31C132.14 116.1 121.73 108.61 119.93 97.56C118.14 86.51 125.64 76.13 136.71 74.34C147.78 72.54 158.19 80.02 159.99 91.08C161.78 102.13 154.28 112.51 143.21 114.31Z" />
				<path id="Layer" class="shp1" d="M145.13 106.21C148.96 103.14 160.32 102.99 165.69 107.59C171.05 112.18 178.43 119.68 181.04 120.6C183.65 121.51 192.34 118.15 199.35 117.38C206.36 116.61 209.12 123.81 211.72 127.79C214.33 131.78 217.1 131.93 218.33 137.14C219.56 142.34 221.85 146.17 225.39 150.46C228.92 154.75 239.19 160.56 240.27 163.81L127.02 163.81L125.8 119.53C128.84 116.46 141.27 109.27 145.13 106.21Z" />
				<path id="Layer" class="shp3" d="M54.56 123.81C56.95 121.41 64.63 119.84 69.04 110.34C73.44 100.84 87.92 81.09 93.44 78.35C98.97 75.62 105.07 63.65 107.29 61.95C109.5 60.24 112.35 64.86 113.11 67.61C115.1 74.62 124.62 94.56 130.28 98.39C135.94 102.22 136.34 110.49 137.92 115.24C139.5 119.99 149.18 122.74 151.38 128.86C153.58 134.99 178.08 163.81 178.08 163.81L31.88 163.81C39.17 158.54 45.39 133.05 54.56 123.81Z" />
				<path id="Layer" class="shp2" d="M107.51 68.53C107.51 70.89 106.8 81.81 104.34 84.46C101.88 87.11 104.05 81.19 99.9 84.46C95.75 87.73 93.92 94.46 86.95 96.81C79.99 99.17 80.61 93.24 83.99 89.87C87.36 86.5 91.35 80.58 94.52 78.84C97.7 77.11 107.51 61.28 107.51 68.53Z" />
				<path id="Layer" class="shp2" d="M90.34 117.33C93.66 112.76 78.78 118.05 74.28 116.41C69.78 114.78 73.27 112.54 66.71 118.25C60.16 123.96 48.81 129.49 54.95 131.42C61.08 133.36 84.19 125.81 90.34 117.33Z" />
				<path id="Layer" class="shp2" d="M175.11 119.61C172.57 116.57 169.66 110.88 165.9 109.88C162.14 108.89 159.61 108.27 160.38 110.57C161.14 112.87 179.07 124.32 175.11 119.61Z" />
				<path id="Layer" class="shp2" d="M216.29 135.91C215.64 133.79 213.63 133.85 211.87 130.48C210.1 127.11 207.49 121.36 203.19 121.14C198.89 120.91 192.09 122.59 197.82 126.88C203.56 131.16 218.57 143.34 216.29 135.91Z" />
				<path id="Layer" class="shp2" d="M207.97 38.41L120.5 38.41C109.45 38.41 140.45 36.11 157.48 32.29C174.52 28.46 175.9 27.24 181.57 31.37C187.25 35.51 204.13 26.32 212.27 31.83C220.4 37.34 222.54 38.41 207.97 38.41Z" />
				<path id="Layer" class="shp2" d="M86.74 77.89C97.64 77.89 118.47 77 110.11 73.33C101.76 69.66 95.58 77.01 91.93 73.88C88.29 70.76 82.38 70.33 77.49 73.33C72.59 76.33 74.05 71.66 68.14 73.33C59.85 75.66 33.32 77.89 55.9 77.89L86.74 77.89Z" />
				<path id="Layer" class="shp0" d="M178.84 92.7C187.17 92.7 203.07 92.02 196.69 89.22C190.32 86.42 185.6 92.02 182.82 89.64C180.04 87.27 175.53 86.93 171.77 89.22C168.01 91.51 169.14 87.95 164.63 89.22C158.32 91.01 138.05 92.7 155.29 92.7L178.84 92.7Z" />
			</g>
			<g id="Layer">
				<path id="Layer" class="shp3" d="M136.85 184.56C87.48 184.56 47.58 182.24 47.58 179.36C47.58 176.49 87.48 174.16 136.85 174.16C186.21 174.16 226.1 176.49 226.1 179.36C226.1 182.24 186.21 184.56 136.85 184.56Z" />
			</g>
			<g id="Layer">
				<g id="Layer">
					<path id="Layer" class="shp3" d="M142.3 184.6C91.28 184.6 50.04 182.19 50.04 179.22C50.04 176.25 91.28 173.85 142.3 173.85C193.32 173.85 234.56 176.25 234.56 179.22C234.56 182.19 193.32 184.6 142.3 184.6Z" />
				</g>
				<g id="Layer">
					<path id="Layer" class="shp4" d="M135.67 178.21C141.63 178.21 146.46 168.65 146.46 156.86C146.46 145.08 141.63 135.53 135.67 135.53L121.84 135.53L121.84 178.21L135.67 178.21Z" />
					<path id="Layer" class="shp4" d="M121.77 178.21C115.8 178.21 110.97 168.66 110.97 156.86C110.97 145.06 115.8 135.53 121.77 135.53C127.73 135.53 132.56 145.06 132.56 156.86C132.56 168.66 127.73 178.21 121.77 178.21Z" />
					<path id="Layer" class="shp4" d="M214.83 178.21C220.79 178.21 225.62 168.65 225.62 156.86C225.62 145.08 220.81 135.53 214.83 135.53L200.98 135.53L200.98 178.21L214.83 178.21Z" />
					<path id="Layer" class="shp4" d="M200.92 178.21C194.95 178.21 190.13 168.66 190.13 156.86C190.13 145.06 194.95 135.53 200.92 135.53C206.9 135.53 211.72 145.06 211.72 156.86C211.72 168.66 206.9 178.21 200.92 178.21Z" />
					<path id="Layer" class="shp5" d="M64.9 167.46L57.5 165.64C56.88 165.49 56.27 165.27 55.7 164.99C55.12 164.7 54.58 164.36 54.08 163.96C53.58 163.56 53.12 163.1 52.72 162.6C52.32 162.1 51.97 161.56 51.69 160.99L51.69 160.99C51.56 160.73 51.43 160.48 51.28 160.24C51.13 160 50.96 159.76 50.79 159.54C50.62 159.31 50.44 159.1 50.25 158.89C50.05 158.69 49.85 158.49 49.64 158.3L47.82 156.69C47.3 156.23 46.84 155.71 46.45 155.14C46.05 154.57 45.72 153.96 45.47 153.31C45.22 152.67 45.04 152 44.95 151.32C44.85 150.64 44.84 149.94 44.91 149.25L45.9 138.81C45.99 137.94 46.2 137.08 46.53 136.27C46.87 135.46 47.32 134.71 47.88 134.04C48.44 133.36 49.09 132.77 49.82 132.29C50.55 131.81 51.35 131.44 52.19 131.19L57.48 129.63L76.55 128.27L64.9 167.46Z" />
					<path id="Layer" class="shp4" d="M81.02 178.21C86.99 178.21 91.83 168.65 91.83 156.86C91.83 145.08 86.99 135.53 81.02 135.53L67.18 135.53L67.18 178.21L81.02 178.21Z" />
					<path id="Layer" class="shp4" d="M67.12 178.21C61.15 178.21 56.33 168.66 56.33 156.86C56.33 145.06 61.15 135.53 67.12 135.53C73.1 135.53 77.93 145.06 77.93 156.86C77.93 168.66 73.1 178.21 67.12 178.21Z" />
					<path id="Layer" class="shp5" d="M67.12 173.74C62.94 173.74 59.55 166.19 59.55 156.86C59.55 147.54 62.94 140 67.12 140C71.32 140 74.7 147.54 74.7 156.86C74.7 166.19 71.32 173.74 67.12 173.74Z" />
					<path id="Layer" class="shp5" d="M176.68 167.46L195.32 125.88C195.32 125.88 167.42 105.16 132.04 105.16C74.68 105.16 76.64 112.87 57.45 129.63L65.83 135.53C80.74 135.53 81.98 159.11 84.37 165.74C84.45 165.99 84.58 166.23 84.74 166.44C84.9 166.65 85.09 166.84 85.3 166.99C85.53 167.14 85.76 167.26 86.02 167.34C86.27 167.42 86.54 167.46 86.8 167.46L176.68 167.46Z" />
					<path id="Layer" class="shp4" d="M160.19 178.21C166.15 178.21 170.98 168.65 170.98 156.86C170.98 145.08 166.15 135.53 160.19 135.53L146.34 135.53L146.34 178.21L160.19 178.21Z" />
					<path id="Layer" class="shp4" d="M146.29 178.21C140.32 178.21 135.49 168.66 135.49 156.86C135.49 145.06 140.32 135.53 146.29 135.53C152.26 135.53 157.08 145.06 157.08 156.86C157.08 168.66 152.26 178.21 146.29 178.21Z" />
					<path id="Layer" class="shp5" d="M146.29 173.74C142.09 173.74 138.71 166.19 138.71 156.86C138.71 147.54 142.09 140 146.29 140C150.47 140 153.86 147.54 153.86 156.86C153.86 166.19 150.47 173.74 146.29 173.74Z" />
					<path id="Layer" class="shp5" d="M165.55 164.03C163.83 156.24 155.62 135.54 145.78 135.54L135.11 125.86L195.32 125.86C199.49 125.86 218 128.42 228.49 135.51C236.97 141.24 238.01 149.94 239.23 162.64C239.48 165.23 237.2 167.46 234.33 167.46C210.21 167.46 181.02 167.55 170.38 167.59C169.84 167.61 169.3 167.54 168.78 167.38C168.26 167.22 167.77 166.98 167.34 166.66C166.9 166.34 166.52 165.94 166.22 165.49C165.91 165.04 165.69 164.55 165.55 164.03L165.55 164.03Z" />
					<path id="Layer" class="shp6" d="M190.97 125.88L151.71 125.88C151.26 125.89 150.81 125.83 150.37 125.72C149.93 125.61 149.51 125.46 149.11 125.24C148.71 125.04 148.33 124.78 148 124.48C147.66 124.18 147.36 123.84 147.1 123.46C142.74 117.01 135.01 110.46 129.34 107.36C169.02 107.36 190.97 125.88 190.97 125.88Z" />
					<path id="Layer" class="shp6" d="M128.36 109.3C133.12 112.74 138.54 118.07 141.58 123.36C141.73 123.61 141.81 123.9 141.81 124.19C141.81 124.49 141.74 124.78 141.59 125.03C141.44 125.29 141.23 125.49 140.98 125.64C140.73 125.79 140.45 125.87 140.15 125.88L75.83 125.88C69 125.88 71.27 108.91 106.91 107.64C110.27 107.36 118.1 107.34 122.43 107.36C122.96 107.36 123.49 107.41 124.01 107.49C124.54 107.58 125.05 107.7 125.55 107.86C126.05 108.04 126.55 108.24 127.01 108.48C127.48 108.71 127.94 108.99 128.36 109.3L128.36 109.3Z" />
					<path id="Layer" class="shp4" d="M172.36 158.21L192.97 159.76C193.13 159.78 193.28 159.82 193.43 159.89C193.58 159.96 193.71 160.06 193.81 160.17C193.92 160.29 194.01 160.42 194.06 160.57C194.12 160.72 194.15 160.88 194.15 161.04L194.15 162.46C194.15 162.63 194.12 162.79 194.06 162.95C193.99 163.11 193.9 163.24 193.78 163.36C193.66 163.48 193.52 163.58 193.36 163.64C193.21 163.7 193.05 163.74 192.88 163.74L172.28 163.74C172.11 163.74 171.94 163.7 171.79 163.64C171.63 163.58 171.49 163.48 171.37 163.36C171.25 163.24 171.16 163.11 171.1 162.95C171.03 162.8 171 162.63 171 162.46L171 159.51C171 159.33 171.02 159.16 171.1 158.99C171.17 158.83 171.27 158.69 171.4 158.56C171.52 158.44 171.68 158.35 171.84 158.29C172 158.23 172.18 158.21 172.36 158.21Z" />
					<path id="Layer" class="shp4" d="M237.89 158.5L232.23 159.64C232.09 159.66 231.95 159.72 231.82 159.79C231.7 159.87 231.58 159.96 231.49 160.08C231.4 160.19 231.33 160.32 231.28 160.46C231.23 160.6 231.2 160.74 231.2 160.89L231.2 162.43C231.2 162.6 231.23 162.76 231.3 162.92C231.36 163.07 231.46 163.21 231.58 163.34C231.7 163.45 231.84 163.54 231.99 163.61C232.15 163.67 232.31 163.71 232.48 163.7L238.48 163.7C238.66 163.71 238.84 163.66 239 163.59C239.16 163.52 239.32 163.41 239.44 163.28C239.55 163.14 239.64 162.99 239.7 162.81C239.75 162.64 239.77 162.46 239.74 162.28L239.43 159.6C239.41 159.42 239.35 159.26 239.26 159.1C239.17 158.95 239.05 158.81 238.91 158.71C238.76 158.61 238.59 158.54 238.42 158.5C238.25 158.46 238.06 158.46 237.89 158.5L237.89 158.5Z" />
					<path id="Layer" class="shp6" d="M189.33 134.27L160.54 132.88C160.54 132.88 160.24 137.96 170.91 139.05C172.52 139.19 174.14 139.21 175.76 139.07C177.37 138.94 178.97 138.67 180.54 138.26C182.1 137.86 183.63 137.31 185.1 136.65C186.58 135.98 187.99 135.19 189.33 134.27L189.33 134.27Z" />
					<path id="Layer" class="shp7" d="M45.89 138.8C45.92 138.59 45.94 138.39 45.98 138.18C46.01 137.97 46.05 137.77 46.1 137.56C46.15 137.36 46.21 137.16 46.27 136.96C46.34 136.76 46.41 136.56 46.49 136.37L48.44 136.31C48.44 136.31 48.53 143.79 45.7 143.31C45.69 143.31 45.67 143.31 45.64 143.3C45.63 143.3 45.61 143.29 45.59 143.29C45.57 143.29 45.55 143.28 45.53 143.27C45.52 143.27 45.49 143.26 45.47 143.26L45.89 138.8Z" />
					<path id="Layer" class="shp6" d="M225.66 133.81C225.9 133.94 226.15 134.08 226.38 134.21C226.62 134.35 226.86 134.49 227.1 134.64C227.33 134.77 227.56 134.92 227.8 135.07C228.03 135.21 228.26 135.36 228.49 135.52C228.84 135.75 229.18 135.99 229.51 136.25C229.84 136.5 230.17 136.76 230.48 137.04C230.8 137.31 231.11 137.59 231.41 137.89C231.7 138.18 231.99 138.48 232.27 138.79C232.17 138.81 232.07 138.84 231.97 138.87C231.87 138.89 231.76 138.92 231.66 138.94C231.56 138.96 231.46 138.99 231.36 139.01C231.26 139.03 231.16 139.04 231.05 139.06C224.66 140.16 220.02 134.27 220.02 134.27L225.66 133.81Z" />
					<path id="Layer" class="shp4" d="M198.24 142.3L218.62 142.3C218.79 142.3 218.97 142.31 219.14 142.34C219.32 142.37 219.49 142.41 219.66 142.46C219.82 142.51 219.99 142.59 220.15 142.66C220.31 142.74 220.46 142.83 220.61 142.94L224.16 145.43C224.36 145.56 224.55 145.73 224.72 145.9C224.89 146.08 225.04 146.28 225.16 146.49C225.29 146.69 225.4 146.91 225.49 147.14C225.57 147.37 225.63 147.61 225.66 147.85L226.57 154.58C226.64 155.01 226.61 155.46 226.49 155.89C226.37 156.31 226.15 156.7 225.87 157.04C225.57 157.36 225.21 157.63 224.81 157.81C224.41 157.99 223.97 158.09 223.53 158.08L201.74 158.08C201.42 158.07 201.1 158.02 200.79 157.94C200.48 157.84 200.18 157.71 199.91 157.54C199.63 157.36 199.38 157.16 199.16 156.92C198.94 156.69 198.75 156.41 198.61 156.13L194.54 148.21C194.39 147.94 194.29 147.66 194.22 147.36C194.16 147.06 194.14 146.76 194.16 146.45C194.19 146.14 194.25 145.84 194.36 145.56C194.47 145.27 194.62 145.01 194.79 144.76L195.82 143.46C195.96 143.27 196.13 143.11 196.3 142.96C196.48 142.81 196.68 142.69 196.89 142.59C197.1 142.49 197.32 142.42 197.55 142.37C197.78 142.32 198.01 142.29 198.24 142.3Z" />
					<path id="Layer" class="shp8" d="M90.86 158.71L130.7 158.71C130.83 158.71 130.96 158.74 131.08 158.79C131.2 158.84 131.31 158.92 131.4 159.02C131.49 159.11 131.56 159.23 131.6 159.36C131.64 159.48 131.66 159.61 131.65 159.74L131.44 162.06C131.44 162.17 131.4 162.29 131.35 162.39C131.3 162.5 131.22 162.59 131.13 162.67C131.05 162.75 130.95 162.81 130.84 162.86C130.73 162.9 130.61 162.92 130.49 162.91L90.65 162.91C90.52 162.92 90.39 162.89 90.26 162.84C90.14 162.79 90.04 162.71 89.95 162.61C89.86 162.51 89.79 162.4 89.75 162.28C89.71 162.15 89.69 162.02 89.7 161.89L89.91 159.57C89.91 159.45 89.95 159.34 90 159.24C90.06 159.13 90.13 159.04 90.21 158.96C90.3 158.88 90.41 158.81 90.52 158.77C90.62 158.74 90.74 158.71 90.86 158.71Z" />
					<path id="Layer" class="shp9" d="M103.56 107.36L105.95 106.9L101.07 128.27L98.78 128.27L103.56 107.36Z" />
					<path id="Layer" class="shp4" d="M112.26 130.67L104.1 130.67L103.89 131.53C103.83 131.71 103.81 131.91 103.84 132.11C103.88 132.31 103.96 132.49 104.07 132.65C104.19 132.81 104.35 132.94 104.53 133.02C104.71 133.1 104.91 133.14 105.11 133.14L110.04 133.14C110.27 133.12 110.5 133.07 110.71 132.99C110.93 132.91 111.13 132.8 111.31 132.66C111.49 132.51 111.64 132.34 111.77 132.15C111.9 131.96 111.99 131.75 112.05 131.53L112.26 130.67Z" />
					<path id="Layer" class="shp4" d="M84.2 130.67L76.04 130.67L75.83 131.53C75.76 131.71 75.75 131.91 75.78 132.11C75.81 132.31 75.89 132.49 76.01 132.65C76.13 132.81 76.29 132.94 76.46 133.02C76.64 133.1 76.84 133.14 77.04 133.14L81.98 133.14C82.21 133.12 82.43 133.07 82.65 132.99C82.86 132.91 83.06 132.8 83.24 132.66C83.42 132.51 83.58 132.34 83.7 132.15C83.83 131.96 83.92 131.75 83.99 131.53L84.2 130.67Z" />
					<path id="Layer" class="shp8" d="M100.17 155.95C100.14 155.95 100.1 155.94 100.06 155.93C100.03 155.91 100.01 155.89 99.98 155.87C99.96 155.85 99.93 155.81 99.92 155.79C99.91 155.75 99.9 155.72 99.9 155.69L99.3 127.71C99.3 127.67 99.3 127.64 99.32 127.6C99.33 127.56 99.35 127.54 99.38 127.51C99.4 127.49 99.43 127.46 99.46 127.45C99.49 127.44 99.53 127.43 99.56 127.42L99.56 127.42C99.6 127.42 99.63 127.43 99.67 127.44C99.7 127.46 99.73 127.48 99.76 127.5C99.78 127.53 99.8 127.56 99.81 127.59C99.83 127.62 99.83 127.66 99.83 127.69L100.43 155.67C100.43 155.71 100.42 155.74 100.41 155.78C100.39 155.81 100.37 155.84 100.35 155.86C100.32 155.89 100.29 155.91 100.26 155.93C100.23 155.94 100.19 155.95 100.16 155.95L100.17 155.95Z" />
				</g>
				<g id="Layer">
					<path id="Layer" class="shp10" d="M116.32 176.34L113.51 176.3L112.7 169.79L115.51 169.84L116.32 176.34Z" />
					<path id="Layer" class="shp10" d="M99.2 176.28L96.64 174.85L98.55 168.81L101.12 170.24L99.2 176.28Z" />
					<path id="Layer" class="shp4" d="M96.39 174.51L99.37 176.2C99.39 176.21 99.41 176.23 99.43 176.25C99.46 176.27 99.47 176.29 99.48 176.32C99.48 176.34 99.49 176.37 99.49 176.4C99.5 176.43 99.49 176.46 99.48 176.48L98.73 178.93C98.71 178.99 98.68 179.04 98.64 179.09C98.6 179.13 98.55 179.16 98.49 179.19C98.43 179.21 98.37 179.22 98.3 179.21C98.24 179.21 98.18 179.19 98.13 179.16C97.18 178.6 96.51 178.14 95.3 177.46C94.56 177.04 92.28 175.85 91.25 175.27C90.23 174.69 90.67 173.6 91.14 173.75C93.26 174.4 95 174.64 95.9 174.44C95.94 174.43 95.98 174.43 96.02 174.42C96.06 174.42 96.11 174.42 96.15 174.43C96.19 174.44 96.23 174.44 96.28 174.46C96.31 174.47 96.36 174.49 96.39 174.51Z" />
					<path id="Layer" class="shp4" d="M113.45 175.98L116.52 176.03C116.55 176.03 116.58 176.03 116.6 176.04C116.63 176.05 116.65 176.06 116.67 176.08C116.69 176.1 116.71 176.12 116.73 176.14C116.74 176.17 116.75 176.19 116.76 176.22L117.27 178.72C117.28 178.79 117.28 178.84 117.26 178.9C117.25 178.96 117.22 179.01 117.18 179.06C117.14 179.11 117.09 179.14 117.03 179.16C116.98 179.19 116.92 179.2 116.86 179.2C115.75 179.16 114.15 179.07 112.76 179.05C111.14 179.03 109.73 179.09 107.82 179.05C106.67 179.05 106.39 177.86 106.86 177.76C109.08 177.31 110.87 177.29 112.78 176.16C112.83 176.13 112.89 176.1 112.94 176.08C113 176.06 113.05 176.04 113.1 176.02C113.16 176.01 113.22 176 113.28 175.99C113.33 175.99 113.39 175.98 113.45 175.98L113.45 175.98Z" />
					<path id="Layer" class="shp10" d="M112.12 94.07C111.72 94.4 111.31 94.73 110.9 95.04C110.49 95.36 110.07 95.68 109.65 95.99C109.23 96.29 108.81 96.59 108.38 96.89C107.95 97.19 107.52 97.47 107.09 97.76C106.21 98.32 105.32 98.89 104.37 99.4C104.13 99.54 103.88 99.67 103.62 99.8C103.37 99.93 103.11 100.05 102.86 100.16C102.59 100.28 102.33 100.39 102.07 100.49C101.8 100.6 101.53 100.7 101.27 100.79C101.19 100.81 101.1 100.84 101.02 100.86C100.94 100.89 100.86 100.91 100.78 100.93C100.7 100.95 100.61 100.96 100.54 100.99C100.45 101 100.37 101.02 100.29 101.04C100.11 101.07 99.89 101.09 99.7 101.11C99.64 101.11 99.58 101.12 99.53 101.12C99.47 101.12 99.41 101.13 99.35 101.13C99.3 101.13 99.24 101.12 99.18 101.12C99.13 101.12 99.07 101.11 99.01 101.11C98.89 101.1 98.77 101.09 98.65 101.06C98.52 101.04 98.4 101.01 98.28 100.98C98.16 100.94 98.05 100.9 97.92 100.86C97.81 100.81 97.69 100.76 97.59 100.7C97.48 100.64 97.38 100.58 97.28 100.51C97.18 100.45 97.08 100.38 96.99 100.31C96.89 100.23 96.81 100.15 96.72 100.06C96.64 99.99 96.55 99.9 96.47 99.81C96.36 99.66 96.24 99.51 96.14 99.36C96.03 99.2 95.94 99.04 95.85 98.88C95.76 98.71 95.68 98.54 95.62 98.36C95.55 98.19 95.49 98.01 95.44 97.84C95.4 97.69 95.36 97.54 95.33 97.39C95.29 97.25 95.26 97.1 95.23 96.95C95.2 96.8 95.18 96.65 95.16 96.5C95.14 96.35 95.12 96.2 95.11 96.05C95.07 95.51 95.06 94.97 95.07 94.43C95.07 93.89 95.1 93.35 95.15 92.81C95.2 92.27 95.28 91.74 95.38 91.21C95.47 90.68 95.58 90.15 95.73 89.62L97.81 89.91C97.81 90.39 97.82 90.86 97.84 91.33C97.86 91.79 97.89 92.26 97.94 92.74C97.99 93.21 98.05 93.67 98.12 94.14C98.19 94.61 98.27 95.07 98.36 95.53C98.39 95.63 98.41 95.72 98.44 95.82C98.47 95.91 98.5 96.01 98.52 96.11C98.55 96.21 98.59 96.3 98.62 96.39C98.66 96.49 98.7 96.58 98.74 96.67C98.76 96.73 98.79 96.79 98.82 96.85C98.85 96.91 98.88 96.96 98.92 97.02C98.95 97.07 99 97.13 99.04 97.18C99.08 97.23 99.13 97.27 99.17 97.32C99.23 97.36 99.25 97.35 99.25 97.32C99.26 97.29 99.25 97.3 99.25 97.29C99.32 97.27 99.38 97.26 99.44 97.24C99.5 97.23 99.56 97.21 99.61 97.19C99.68 97.17 99.73 97.15 99.79 97.13C99.85 97.11 99.91 97.09 99.96 97.06C100.16 96.98 100.36 96.89 100.56 96.79C100.77 96.69 100.96 96.59 101.16 96.49C101.35 96.39 101.55 96.28 101.73 96.17C101.92 96.06 102.11 95.94 102.3 95.82C103.1 95.35 103.9 94.79 104.68 94.24C106.27 93.12 107.87 91.93 109.4 90.75L112.12 94.07Z" />
					<path id="Layer" class="shp5" d="M112.98 92.79C111.69 95.66 106.76 98.64 104.03 99.91C103.22 100.28 103.32 101.36 102.84 100.89C102.84 100.89 100.74 97.03 100.74 96.24C100.74 95.45 101.44 95.92 102 95.39C104.06 93.49 108.36 89.31 111.04 88.86C114.56 88.24 114.18 90.09 112.98 92.79Z" />
					<path id="Layer" class="shp4" d="M101.03 95.73C100.76 95.33 99.63 96.37 99.28 96.81C98.92 97.25 99.9 98.84 100.19 99.66C100.49 100.49 99.91 101.36 100.82 101.49C101.29 101.56 102.65 101.39 102.91 101.01C103.52 100.24 101.68 96.69 101.03 95.73Z" />
					<path id="Layer" class="shp11" d="M107.49 98.01C109.79 96.56 112.15 94.65 112.98 92.79C113.03 92.66 113.1 92.54 113.14 92.41L113.19 91.94C110.06 92.47 107.94 95.62 107.49 98.01Z" />
					<path id="Layer" class="shp10" d="M97.41 90.79L99.22 88.1L96.26 86.89C96.26 86.89 94.59 88.79 95.78 90.45L97.41 90.79Z" />
					<path id="Layer" class="shp10" d="M99.98 85.19L97.26 85.09L96.26 86.87L99.22 88.08L99.98 85.19Z" />
					<path id="Layer" class="shp11" d="M112.7 169.79L113.12 173.15L115.92 173.19L115.51 169.84L112.7 169.79Z" />
					<path id="Layer" class="shp11" d="M101.12 170.24L98.55 168.81L97.57 171.93L100.13 173.36L101.12 170.24Z" />
					<path id="Layer" class="shp5" d="M126.75 89.87C123.72 100.53 124.34 111.84 124.06 114.13C121.86 113.97 113.59 113.35 109.07 113.01C107.64 96.99 111.04 88.85 111.04 88.85C111.04 88.85 112 88.66 113.31 88.53C113.73 88.49 114.16 88.45 114.63 88.43C114.89 88.43 115.14 88.4 115.4 88.4C115.94 88.41 116.47 88.42 117.01 88.45C117.54 88.47 118.06 88.5 118.6 88.54C119.13 88.59 119.66 88.63 120.19 88.69C120.72 88.74 121.25 88.8 121.78 88.87C122.18 88.92 122.59 88.98 122.98 89.04C123.37 89.11 123.71 89.17 124.04 89.24C125.57 89.54 126.75 89.87 126.75 89.87Z" />
					<path id="Layer" class="shp4" d="M115.4 88.41C114.14 89.09 113.78 91.55 116.22 91.65C116.76 91.64 117.29 91.58 117.81 91.46C118.34 91.33 118.84 91.14 119.32 90.91C119.8 90.66 120.26 90.37 120.66 90.04C121.08 89.69 121.46 89.31 121.78 88.88L115.4 88.41Z" />
					<path id="Layer" class="shp11" d="M123.55 94.44C123.28 95.48 123.59 100.18 124.67 101.34C124.81 99.84 125.02 98.26 125.27 96.66L123.55 94.44Z" />
					<path id="Layer" class="shp10" d="M121.68 81.66C121.13 83.67 120.45 87.39 121.78 88.86C121.44 89.16 121.08 89.44 120.68 89.66C120.29 89.89 119.88 90.07 119.45 90.21C119.02 90.36 118.57 90.45 118.12 90.5C117.67 90.55 117.21 90.56 116.76 90.51C114.32 90.41 114.7 89.23 115.4 88.39C117.74 88.02 117.79 86.32 117.52 84.7L121.68 81.66Z" />
					<path id="Layer" class="shp11" d="M119.98 82.9L117.52 84.7C117.54 84.79 117.56 84.89 117.57 84.99C117.59 85.08 117.59 85.18 117.61 85.27C117.61 85.36 117.62 85.46 117.63 85.56C117.63 85.65 117.64 85.75 117.64 85.84C118.52 85.79 119.79 84.89 119.95 84.01C119.97 83.91 119.98 83.82 120 83.74C120 83.64 120.01 83.55 120.02 83.46C120.02 83.36 120.02 83.27 120.01 83.18C120.01 83.09 120 82.99 119.98 82.9Z" />
					<path id="Layer" class="shp4" d="M115.33 80.89C115.33 80.89 113.61 78.47 114.11 76.58C114.77 74.16 118.67 77.13 115.33 80.89Z" />
					<path id="Layer" class="shp10" d="M122.16 78.6C121.77 81.36 121.68 82.99 120.19 84.3C117.92 86.29 114.59 84.77 114.14 81.92C113.72 79.39 114.41 75.31 117.21 74.41C117.83 74.2 118.49 74.16 119.12 74.29C119.77 74.41 120.36 74.7 120.86 75.12C121.36 75.54 121.74 76.09 121.97 76.69C122.19 77.3 122.26 77.96 122.16 78.6L122.16 78.6Z" />
					<path id="Layer" class="shp4" d="M115.62 81.51C115.62 81.94 115.22 82.04 114.91 82.23C114.86 82.26 114.8 82.31 114.75 82.35C114.7 82.39 114.66 82.44 114.61 82.49C114.56 82.54 114.52 82.59 114.48 82.64C114.44 82.69 114.41 82.74 114.37 82.8C114.34 82.86 113.97 82.67 114.14 81.95C114.3 81.24 115.62 81.12 115.62 81.51Z" />
					<path id="Layer" class="shp4" d="M115.81 81.53C115.81 82.26 116.61 82.16 117.23 82.36C117.36 82.39 117.49 82.44 117.6 82.5C117.72 82.56 117.84 82.62 117.94 82.7C118.05 82.77 118.15 82.86 118.24 82.95C118.34 83.04 118.43 83.14 118.51 83.24C118.55 83.15 118.58 83.05 118.59 82.95C118.6 82.86 118.6 82.76 118.59 82.66C118.57 82.56 118.54 82.46 118.5 82.37C118.46 82.29 118.4 82.2 118.34 82.13C117.56 81.11 115.81 81.14 115.81 81.53Z" />
					<path id="Layer" class="shp4" d="M120.02 76.11C118.29 76.62 113.43 77.16 114.02 74.68C114.85 71.22 117.04 73.02 117.36 73.51C118.75 72.51 124.9 73.39 123.68 75.38C125.02 75.59 125.79 77.04 124.83 77.75C123.86 78.47 122.7 81.39 122.06 81.31C121.87 81.29 121.67 81.25 121.48 81.21C121.29 81.17 121.09 81.12 120.91 81.07C120.72 81.02 120.53 80.96 120.35 80.89C120.16 80.83 119.98 80.76 119.8 80.68L121.13 78.91C121.13 78.91 119.52 77.39 120.02 76.11Z" />
					<path id="Layer" class="shp4" d="M123.05 75.69C124.01 75.45 124.89 75.34 125.67 76.06C125.61 74.86 123.96 74.69 123.05 75.69Z" />
					<path id="Layer" class="shp10" d="M123.18 81.76C123.08 81.9 122.96 82.03 122.83 82.14C122.7 82.26 122.57 82.36 122.42 82.46C122.27 82.54 122.11 82.62 121.95 82.68C121.79 82.74 121.62 82.78 121.45 82.8C120.53 82.94 120.18 82.09 120.54 81.29C120.86 80.56 121.73 79.61 122.6 79.86C122.8 79.91 122.97 80.01 123.1 80.16C123.25 80.29 123.35 80.46 123.4 80.66C123.46 80.84 123.47 81.04 123.43 81.24C123.39 81.43 123.3 81.61 123.18 81.76L123.18 81.76Z" />
					<path id="Layer" class="shp9" d="M112.07 172.49L116.83 172.56C116.83 172.56 114.08 153.8 114.51 145.07C114.64 142.41 114.21 138.7 114.92 134.72C115.8 129.71 116.23 127.71 117.38 121.36C118.19 116.84 118.92 113.77 118.92 113.77L109.07 113.04C109.07 113.04 105.85 135.64 105.95 144.21C106.05 153.08 112.07 172.49 112.07 172.49Z" />
					<path id="Layer" class="shp12" d="M112.07 172.49L116.83 172.56C116.83 172.56 114.08 153.8 114.51 145.07C114.64 142.41 114.21 138.7 114.92 134.72C115.8 129.71 116.23 127.71 117.38 121.36C118.19 116.84 118.92 113.77 118.92 113.77L109.07 113.04C109.07 113.04 105.85 135.64 105.95 144.21C106.05 153.08 112.07 172.49 112.07 172.49Z" />
					<path id="Layer" class="shp11" d="M114.92 134.72C114.83 135.24 114.76 135.76 114.7 136.29C114.64 136.81 114.59 137.34 114.56 137.86C114.52 138.39 114.5 138.91 114.49 139.44C114.49 139.96 114.49 140.49 114.5 141.02C113.68 143.33 112.97 145.51 112.47 147.46C111.59 150.86 110.22 156.04 108.87 160.99C107.41 155.19 105.99 148.46 105.95 144.18L114.92 134.72Z" />
					<path id="Layer" class="shp9" d="M114.39 113.41C114.39 113.41 107.31 131.26 104.62 139.05C101.68 147.56 96.94 170.53 96.94 170.53L101.42 173.06C101.42 173.06 108.39 154.12 111.28 145.84C114.57 136.4 123.65 121.48 124.06 114.14L114.39 113.41Z" />
					<path id="Layer" class="shp12" d="M114.39 113.41C114.39 113.41 107.31 131.26 104.62 139.05C101.68 147.56 96.94 170.53 96.94 170.53L101.42 173.06C101.42 173.06 108.39 154.12 111.28 145.84C114.57 136.4 123.65 121.48 124.06 114.14L114.39 113.41Z" />
					<path id="Layer" class="shp9" d="M96.35 170.3L101.62 173.29L102.51 171.71L96.68 168.28L96.35 170.3Z" />
					<path id="Layer" class="shp9" d="M111.47 172.59L117.14 172.68L117.17 170.85L110.83 170.65L111.47 172.59Z" />
					<path id="Layer" class="shp4" d="M118.45 79.06C118.45 79.29 118.3 79.46 118.16 79.45C118.01 79.44 117.9 79.24 117.92 79.02C117.94 78.8 118.07 78.62 118.22 78.64C118.37 78.64 118.47 78.84 118.45 79.06Z" />
					<path id="Layer" class="shp4" d="M115.45 78.87C115.45 79.1 115.3 79.27 115.15 79.26C115 79.25 114.89 79.06 114.92 78.84C114.94 78.61 115.06 78.44 115.21 78.44C115.36 78.45 115.47 78.65 115.45 78.87Z" />
					<path id="Layer" class="shp13" d="M116.13 79.04C116.05 79.21 115.96 79.38 115.87 79.54C115.77 79.7 115.68 79.86 115.57 80.01C115.47 80.16 115.37 80.31 115.25 80.46C115.14 80.61 115.02 80.76 114.9 80.89C114.97 80.96 115.05 81.01 115.14 81.05C115.22 81.09 115.31 81.13 115.4 81.16C115.5 81.18 115.59 81.19 115.68 81.2C115.77 81.2 115.87 81.19 115.97 81.18L116.13 79.04Z" />
					<path id="Layer" class="shp4" d="M115.88 82.63C116.01 82.63 116.13 82.61 116.25 82.58C116.38 82.54 116.5 82.5 116.61 82.44C116.73 82.39 116.83 82.32 116.93 82.24C117.04 82.17 117.13 82.08 117.21 81.99C117.23 81.97 117.23 81.96 117.23 81.94C117.23 81.92 117.23 81.9 117.22 81.89C117.21 81.88 117.18 81.87 117.17 81.87C117.15 81.87 117.13 81.88 117.12 81.89C117.03 81.99 116.92 82.09 116.81 82.16C116.69 82.25 116.57 82.31 116.43 82.36C116.3 82.41 116.17 82.45 116.03 82.47C115.89 82.49 115.75 82.49 115.61 82.48C115.6 82.48 115.6 82.48 115.58 82.49C115.57 82.49 115.57 82.49 115.56 82.49C115.55 82.5 115.55 82.51 115.55 82.51C115.55 82.52 115.54 82.53 115.54 82.54C115.54 82.55 115.54 82.56 115.54 82.56C115.55 82.58 115.55 82.59 115.55 82.59C115.56 82.6 115.57 82.6 115.57 82.61C115.58 82.61 115.59 82.61 115.6 82.61C115.62 82.61 115.65 82.61 115.67 82.62C115.7 82.62 115.72 82.62 115.74 82.63C115.76 82.63 115.79 82.63 115.81 82.63C115.83 82.63 115.86 82.63 115.88 82.63Z" />
					<path id="Layer" class="shp4" d="M118.93 78.29C118.94 78.29 118.94 78.29 118.95 78.29C118.95 78.29 118.95 78.29 118.96 78.29C118.97 78.29 118.97 78.29 118.97 78.29C118.98 78.29 118.99 78.29 119 78.29C119.01 78.29 119.02 78.27 119.03 78.26C119.04 78.24 119.05 78.23 119.05 78.21C119.05 78.19 119.05 78.17 119.05 78.16C119.05 78.14 119.04 78.12 119.03 78.11C118.97 78.02 118.91 77.94 118.84 77.86C118.76 77.79 118.68 77.72 118.59 77.67C118.5 77.61 118.4 77.57 118.3 77.54C118.2 77.51 118.1 77.49 117.99 77.48C117.98 77.48 117.96 77.49 117.94 77.49C117.92 77.49 117.91 77.51 117.9 77.52C117.89 77.53 117.88 77.54 117.87 77.56C117.86 77.58 117.86 77.59 117.86 77.61C117.86 77.63 117.86 77.65 117.87 77.66C117.88 77.68 117.89 77.69 117.9 77.71C117.91 77.72 117.93 77.73 117.94 77.74C117.96 77.74 117.98 77.75 117.99 77.75L117.99 77.75C118.08 77.75 118.16 77.77 118.24 77.79C118.32 77.82 118.39 77.86 118.46 77.9C118.53 77.94 118.59 77.99 118.65 78.06C118.72 78.11 118.77 78.18 118.81 78.25C118.82 78.26 118.82 78.26 118.83 78.27C118.85 78.28 118.85 78.29 118.86 78.29C118.87 78.29 118.89 78.29 118.9 78.29C118.91 78.29 118.92 78.29 118.93 78.29L118.93 78.29Z" />
					<path id="Layer" class="shp4" d="M114.34 77.86C114.34 77.87 114.36 77.86 114.36 77.86C114.38 77.86 114.39 77.86 114.4 77.86C114.41 77.85 114.42 77.85 114.43 77.84C114.44 77.84 114.44 77.83 114.45 77.82C114.51 77.76 114.56 77.7 114.63 77.65C114.7 77.6 114.77 77.56 114.84 77.52C114.92 77.49 115 77.46 115.09 77.45C115.17 77.44 115.25 77.43 115.33 77.44C115.37 77.44 115.4 77.43 115.43 77.41C115.46 77.39 115.48 77.36 115.48 77.32C115.49 77.29 115.48 77.25 115.45 77.22C115.43 77.19 115.4 77.17 115.37 77.17C115.26 77.16 115.16 77.16 115.05 77.19C114.95 77.2 114.85 77.23 114.75 77.27C114.66 77.31 114.56 77.36 114.48 77.43C114.4 77.49 114.32 77.56 114.26 77.64C114.24 77.66 114.23 77.67 114.22 77.69C114.21 77.7 114.21 77.72 114.21 77.74C114.21 77.76 114.21 77.77 114.22 77.79C114.23 77.81 114.24 77.82 114.26 77.84C114.26 77.84 114.26 77.84 114.27 77.84C114.28 77.85 114.29 77.85 114.29 77.86C114.3 77.86 114.31 77.86 114.31 77.86C114.32 77.86 114.33 77.86 114.34 77.86L114.34 77.86Z" />
					<path id="Layer" fill-rule="evenodd" class="shp9" d="M95.34 174.49C95.3 174.46 95.25 174.44 95.22 174.41C95.17 174.39 95.14 174.36 95.1 174.33C95.07 174.3 95.04 174.26 95.01 174.22C94.98 174.19 94.95 174.15 94.93 174.11C94.92 174.08 94.91 174.04 94.91 174.01C94.9 173.98 94.9 173.95 94.91 173.91C94.92 173.89 94.92 173.85 94.94 173.82C94.95 173.79 94.97 173.76 94.98 173.74C95 173.72 95 173.71 95.02 173.69C95.03 173.68 95.05 173.66 95.07 173.66C95.08 173.65 95.1 173.64 95.12 173.64C95.14 173.63 95.15 173.63 95.17 173.63C95.53 173.64 96.04 174.57 96.1 174.68C96.1 174.69 96.11 174.69 96.11 174.69C96.11 174.7 96.11 174.71 96.11 174.71C96.11 174.72 96.11 174.73 96.11 174.74C96.11 174.74 96.1 174.75 96.1 174.75C96.09 174.76 96.08 174.76 96.08 174.76C96.08 174.76 96.07 174.76 96.06 174.76C96.06 174.76 96.05 174.76 96.05 174.76C96.04 174.76 96.03 174.76 96.03 174.75C95.97 174.74 95.91 174.72 95.85 174.7C95.79 174.69 95.73 174.66 95.68 174.64C95.62 174.61 95.56 174.59 95.5 174.56C95.45 174.54 95.39 174.51 95.34 174.49ZM95.9 174.58C95.69 174.21 95.35 173.75 95.17 173.74C95.17 173.74 95.16 173.74 95.15 173.74C95.15 173.75 95.14 173.75 95.13 173.76C95.12 173.76 95.12 173.76 95.11 173.77C95.11 173.78 95.1 173.79 95.1 173.79C95.09 173.81 95.07 173.83 95.07 173.85C95.06 173.87 95.05 173.89 95.05 173.91C95.05 173.94 95.05 173.96 95.05 173.98C95.05 174 95.05 174.02 95.06 174.04C95.13 174.24 95.43 174.43 95.9 174.58Z" />
					<path id="Layer" fill-rule="evenodd" class="shp9" d="M96.01 174.74C96.01 174.74 96.01 174.74 96 174.74C96 174.73 96 174.73 96 174.73C95.99 174.72 95.99 174.72 95.99 174.71C95.83 174.44 95.63 173.63 95.83 173.38C95.85 173.36 95.87 173.35 95.89 173.34C95.91 173.33 95.94 173.31 95.96 173.31C95.98 173.31 96.01 173.31 96.03 173.31C96.06 173.31 96.08 173.32 96.11 173.34C96.13 173.34 96.15 173.36 96.17 173.37C96.19 173.39 96.21 173.4 96.23 173.42C96.25 173.44 96.26 173.46 96.28 173.49C96.29 173.51 96.3 173.53 96.31 173.55C96.46 173.94 96.11 174.68 96.11 174.71C96.11 174.71 96.1 174.72 96.1 174.73C96.09 174.73 96.08 174.74 96.08 174.74C96.08 174.74 96.07 174.74 96.06 174.74C96.06 174.75 96.06 174.75 96.05 174.75L96.01 174.75L96.01 174.74ZM96.06 173.48C95.97 173.44 95.94 173.48 95.94 173.48C95.81 173.62 95.9 174.2 96.04 174.54C96.08 174.46 96.11 174.39 96.13 174.31C96.15 174.24 96.17 174.16 96.18 174.09C96.19 174.01 96.2 173.93 96.2 173.84C96.21 173.76 96.2 173.69 96.18 173.61C96.18 173.59 96.18 173.59 96.17 173.57C96.16 173.56 96.16 173.55 96.15 173.54C96.13 173.52 96.13 173.51 96.11 173.51C96.11 173.49 96.09 173.49 96.08 173.48L96.06 173.48Z" />
					<path id="Layer" fill-rule="evenodd" class="shp9" d="M113.15 176.36C112.7 176.44 111.9 176.54 111.59 176.27C111.57 176.25 111.55 176.22 111.54 176.2C111.52 176.17 111.5 176.15 111.49 176.12C111.49 176.09 111.48 176.06 111.47 176.03C111.47 176 111.47 175.97 111.47 175.94C111.47 175.92 111.48 175.91 111.49 175.89C111.49 175.87 111.5 175.85 111.51 175.84C111.52 175.82 111.53 175.81 111.54 175.8C111.56 175.79 111.57 175.77 111.59 175.76C111.93 175.58 113.05 176.17 113.18 176.24C113.19 176.24 113.2 176.26 113.2 176.26C113.21 176.28 113.21 176.29 113.21 176.3C113.21 176.31 113.2 176.33 113.2 176.34C113.19 176.35 113.18 176.36 113.17 176.36L113.15 176.36ZM111.65 175.89C111.64 175.9 111.64 175.9 111.63 175.91C111.63 175.91 111.62 175.91 111.62 175.92C111.62 175.93 111.62 175.94 111.61 175.94C111.61 175.95 111.61 175.96 111.61 175.96C111.61 175.99 111.61 176.01 111.61 176.02C111.61 176.04 111.62 176.06 111.62 176.08C111.63 176.1 111.64 176.11 111.64 176.14C111.66 176.15 111.67 176.16 111.69 176.18C111.78 176.22 111.88 176.26 111.99 176.29C112.09 176.31 112.2 176.33 112.3 176.34C112.41 176.35 112.52 176.35 112.63 176.34C112.73 176.32 112.84 176.31 112.94 176.27C112.85 176.21 112.75 176.16 112.65 176.12C112.54 176.07 112.44 176.04 112.33 176C112.22 175.97 112.12 175.94 112.01 175.92C111.9 175.9 111.79 175.89 111.67 175.89L111.65 175.89Z" />
					<path id="Layer" fill-rule="evenodd" class="shp9" d="M113.17 176.36C113.16 176.36 113.16 176.36 113.15 176.36C113.15 176.36 113.15 176.36 113.14 176.36C113.13 176.36 113.13 176.36 113.13 176.36C113.12 176.36 113.12 176.36 113.11 176.36C112.76 176.22 112.1 175.59 112.16 175.27C112.17 175.19 112.22 175.09 112.4 175.09C112.44 175.09 112.47 175.09 112.5 175.09C112.54 175.09 112.57 175.1 112.6 175.11C112.63 175.12 112.66 175.14 112.69 175.15C112.72 175.16 112.75 175.19 112.78 175.21C112.83 175.29 112.89 175.36 112.94 175.45C112.99 175.54 113.03 175.63 113.07 175.72C113.1 175.81 113.13 175.91 113.15 176C113.18 176.1 113.19 176.2 113.2 176.3C113.2 176.3 113.2 176.31 113.2 176.31C113.19 176.32 113.19 176.33 113.19 176.33C113.18 176.34 113.18 176.34 113.18 176.34C113.18 176.35 113.17 176.36 113.17 176.36ZM112.37 175.23C112.36 175.23 112.35 175.24 112.35 175.24C112.34 175.24 112.33 175.25 112.32 175.26C112.32 175.26 112.32 175.26 112.31 175.28C112.31 175.29 112.31 175.29 112.3 175.3C112.27 175.49 112.72 175.97 113.06 176.19C113.05 176.11 113.05 176.03 113.03 175.95C113.01 175.87 112.98 175.8 112.95 175.72C112.93 175.65 112.89 175.58 112.85 175.51C112.8 175.44 112.76 175.37 112.7 175.31C112.69 175.3 112.67 175.29 112.65 175.27C112.63 175.26 112.6 175.25 112.58 175.24C112.56 175.24 112.53 175.23 112.51 175.23C112.49 175.23 112.46 175.23 112.44 175.23L112.37 175.23Z" />
					<path id="Layer" class="shp10" d="M127.45 91.56C128.06 92.71 128.59 93.85 129.15 95.01C129.7 96.16 130.18 97.34 130.67 98.52C131.15 99.71 131.59 100.9 131.99 102.17L132.28 103.12L132.54 104.07C132.62 104.39 132.69 104.74 132.77 105.06L132.82 105.32L132.88 105.66C132.89 105.71 132.9 105.76 132.9 105.82C132.91 105.87 132.91 105.92 132.92 105.97C132.92 106.03 132.92 106.08 132.93 106.13C132.94 106.19 132.94 106.24 132.94 106.29C132.95 106.47 132.95 106.65 132.95 106.83C132.95 107.01 132.95 107.19 132.94 107.36C132.93 107.54 132.92 107.73 132.91 107.91C132.89 108.09 132.87 108.26 132.85 108.44C132.77 109.11 132.68 109.76 132.56 110.41C132.33 111.69 132.04 112.94 131.72 114.17C131.56 114.79 131.4 115.4 131.23 116.01C131.05 116.62 130.87 117.23 130.68 117.84C130.49 118.44 130.29 119.04 130.08 119.64C129.88 120.24 129.67 120.84 129.45 121.44L127.41 120.88C127.84 118.44 128.25 115.98 128.61 113.56C128.79 112.34 128.94 111.14 129.06 109.94C129.12 109.34 129.16 108.75 129.17 108.18C129.18 108.04 129.19 107.91 129.19 107.78C129.19 107.64 129.19 107.51 129.18 107.38C129.18 107.25 129.17 107.11 129.17 106.99C129.16 106.85 129.14 106.72 129.13 106.59C129.13 106.56 129.13 106.54 129.13 106.51C129.12 106.49 129.12 106.46 129.12 106.44C129.12 106.41 129.11 106.39 129.1 106.36C129.1 106.34 129.09 106.31 129.09 106.29L129.06 106.16L129 105.96C128.92 105.69 128.84 105.42 128.75 105.15L128.47 104.32L128.16 103.49C127.73 102.37 127.26 101.26 126.78 100.16C126.3 99.07 125.77 97.94 125.24 96.84C124.71 95.74 124.16 94.62 123.64 93.54L127.45 91.56Z" />
					<path id="Layer" class="shp5" d="M126.75 89.88C128.77 90.51 131.44 98.85 132.49 102.41C133.16 103.01 132.82 104.11 132.82 104.11L128.72 105.92C127.76 105.45 127.18 104.46 127.53 103.96C125.38 99.91 123.69 96.89 122.88 94.47C121.67 90.89 123.65 88.89 126.75 89.88Z" />
					<path id="Layer" class="shp4" d="M127.71 104.93C127.3 105.17 128.57 106.47 128.98 106.85C129.39 107.24 130.76 106.24 131.61 105.99C132.46 105.74 133.3 106.38 133.48 105.49C133.58 105.01 133.48 103.66 133.15 103.37C132.37 102.71 128.72 104.34 127.71 104.93Z" />
					<path id="Layer" class="shp10" d="M127.95 119.68L125.76 121.5L128.49 123.47C128.49 123.47 130.28 121.57 129.48 120.44L127.95 119.68Z" />
					<path id="Layer" class="shp10" d="M124.51 124.05L127.21 125.36L128.49 123.46L125.76 121.5L124.51 124.05Z" />
				</g>
			</g>
		</g>
		<g id="Layer">
			<path id="Layer" class="shp11" d="M226.78 55.42C226.58 55.44 226.38 55.45 226.18 55.46C225.98 55.47 225.77 55.48 225.57 55.49C225.37 55.49 225.17 55.49 224.97 55.49C224.76 55.49 224.56 55.49 224.36 55.48C224.29 55.46 224.22 55.45 224.15 55.44C224.08 55.43 224 55.42 223.93 55.42C223.85 55.41 223.78 55.41 223.71 55.41C223.64 55.41 223.57 55.42 223.49 55.42L223.4 55.42C222.83 55.39 222.27 55.33 221.7 55.26C221.13 55.19 220.57 55.1 220 54.99C219.45 54.89 218.89 54.78 218.33 54.65C217.78 54.51 217.22 54.37 216.68 54.21C216.45 54.14 216.21 54.07 215.98 53.99L214.09 102.76L226.7 94.36C226.99 94.17 227.25 93.96 227.48 93.71C227.71 93.46 227.91 93.19 228.08 92.89C228.25 92.6 228.39 92.29 228.48 91.96C228.57 91.64 228.63 91.3 228.64 90.96L229.91 58.35C229.93 57.95 229.86 57.54 229.71 57.16C229.55 56.79 229.32 56.45 229.02 56.17C228.73 55.89 228.37 55.68 227.98 55.55C227.6 55.42 227.19 55.38 226.79 55.42L226.78 55.42Z" />
			<path id="Layer" class="shp14" d="M223.75 51.79C223.55 51.8 223.34 51.81 223.14 51.83C222.94 51.84 222.74 51.84 222.54 51.85C222.34 51.85 222.13 51.86 221.93 51.86C221.73 51.86 221.53 51.85 221.33 51.84C221.26 51.83 221.18 51.81 221.11 51.81C221.04 51.79 220.96 51.79 220.89 51.79C220.82 51.78 220.75 51.78 220.68 51.78C220.61 51.78 220.53 51.78 220.45 51.79L220.36 51.79C219.8 51.74 219.22 51.69 218.66 51.61C218.09 51.54 217.53 51.46 216.97 51.36C216.4 51.26 215.85 51.14 215.29 51.01C214.74 50.88 214.18 50.74 213.64 50.57C212.95 50.36 212.28 50.11 211.62 49.83C210.96 49.54 210.32 49.22 209.7 48.87C209.07 48.52 208.47 48.14 207.89 47.71C207.31 47.3 206.74 46.85 206.21 46.37C206.08 46.25 205.94 46.14 205.79 46.04C205.64 45.94 205.48 45.86 205.32 45.8C205.15 45.73 204.98 45.68 204.8 45.65C204.62 45.61 204.45 45.6 204.27 45.6L200.98 45.6C200.79 45.6 200.61 45.62 200.43 45.65C200.26 45.69 200.08 45.74 199.91 45.8C199.73 45.87 199.58 45.95 199.42 46.04C199.26 46.14 199.12 46.25 198.98 46.37C198.42 46.85 197.82 47.29 197.21 47.71C196.6 48.13 195.96 48.51 195.31 48.86C194.66 49.22 193.99 49.54 193.31 49.82C192.63 50.11 191.92 50.36 191.22 50.57C190.66 50.74 190.1 50.88 189.53 51.01C188.98 51.14 188.41 51.26 187.84 51.36C187.27 51.46 186.7 51.54 186.12 51.61C185.55 51.69 184.97 51.74 184.39 51.79L184.3 51.79C184.23 51.78 184.16 51.78 184.09 51.78C184.01 51.78 183.94 51.78 183.87 51.79C183.79 51.79 183.72 51.79 183.65 51.81C183.57 51.81 183.5 51.83 183.43 51.84C183.23 51.85 183.03 51.86 182.83 51.86C182.63 51.86 182.43 51.85 182.22 51.85C182.02 51.84 181.82 51.84 181.62 51.83C181.42 51.81 181.22 51.8 181.02 51.79C180.6 51.76 180.19 51.81 179.79 51.94C179.4 52.07 179.03 52.28 178.73 52.55C178.41 52.82 178.16 53.16 177.98 53.53C177.8 53.91 177.7 54.31 177.67 54.72L176.41 87.34C176.39 87.66 176.42 87.99 176.49 88.31C176.56 88.64 176.66 88.95 176.81 89.24C176.95 89.54 177.14 89.81 177.34 90.06C177.56 90.31 177.8 90.54 178.07 90.73L196.38 103.58C196.55 103.7 196.73 103.8 196.91 103.89C197.09 103.98 197.28 104.06 197.48 104.12C197.67 104.18 197.87 104.23 198.07 104.26C198.27 104.29 198.48 104.3 198.68 104.3L201.97 104.3C202.18 104.3 202.39 104.29 202.6 104.25C202.8 104.22 203 104.17 203.2 104.11C203.41 104.05 203.6 103.98 203.79 103.89C203.98 103.8 204.16 103.69 204.34 103.58L223.63 90.73C223.92 90.54 224.18 90.33 224.41 90.08C224.64 89.83 224.84 89.56 225.01 89.26C225.18 88.97 225.31 88.66 225.41 88.33C225.5 88.01 225.56 87.67 225.57 87.34L226.84 54.72C226.85 54.32 226.78 53.91 226.63 53.54C226.48 53.17 226.25 52.84 225.96 52.56C225.67 52.28 225.31 52.06 224.94 51.93C224.55 51.8 224.15 51.75 223.74 51.79L223.75 51.79Z" />
			<path id="Layer" class="shp6" d="M223.75 51.79C223.55 51.8 223.34 51.81 223.14 51.83C222.94 51.84 222.74 51.84 222.54 51.85C222.34 51.85 222.13 51.86 221.93 51.86C221.73 51.86 221.53 51.85 221.33 51.84C221.26 51.83 221.18 51.81 221.11 51.81C221.04 51.79 220.96 51.79 220.89 51.79C220.82 51.78 220.75 51.78 220.68 51.78C220.61 51.78 220.53 51.78 220.45 51.79L220.36 51.79C219.8 51.74 219.22 51.69 218.66 51.61C218.09 51.54 217.53 51.46 216.97 51.36C216.4 51.26 215.85 51.14 215.29 51.01C214.74 50.88 214.18 50.74 213.64 50.57C212.95 50.36 212.28 50.11 211.62 49.83C210.96 49.54 210.32 49.22 209.7 48.87C209.07 48.52 208.47 48.14 207.89 47.71C207.31 47.3 206.74 46.85 206.21 46.37C206.08 46.25 205.94 46.14 205.79 46.04C205.64 45.94 205.48 45.86 205.32 45.8C205.15 45.73 204.98 45.68 204.8 45.65C204.62 45.61 204.45 45.6 204.27 45.6L200.98 45.6C200.79 45.6 200.61 45.62 200.43 45.65C200.26 45.69 200.08 45.74 199.91 45.8C199.73 45.87 199.58 45.95 199.42 46.04C199.26 46.14 199.12 46.25 198.98 46.37C198.42 46.85 197.82 47.29 197.21 47.71C196.6 48.13 195.96 48.51 195.31 48.86C194.66 49.22 193.99 49.54 193.31 49.82C192.63 50.11 191.92 50.36 191.22 50.57C190.66 50.74 190.1 50.88 189.53 51.01C188.98 51.14 188.41 51.26 187.84 51.36C187.27 51.46 186.7 51.54 186.12 51.61C185.55 51.69 184.97 51.74 184.39 51.79L184.3 51.79C184.23 51.78 184.16 51.78 184.09 51.78C184.01 51.78 183.94 51.78 183.87 51.79C183.79 51.79 183.72 51.79 183.65 51.81C183.57 51.81 183.5 51.83 183.43 51.84C183.23 51.85 183.03 51.86 182.83 51.86C182.63 51.86 182.43 51.85 182.22 51.85C182.02 51.84 181.82 51.84 181.62 51.83C181.42 51.81 181.22 51.8 181.02 51.79C180.6 51.76 180.19 51.81 179.79 51.94C179.4 52.07 179.03 52.28 178.73 52.55C178.41 52.82 178.16 53.16 177.98 53.53C177.8 53.91 177.7 54.31 177.67 54.72L176.41 87.34C176.39 87.66 176.42 87.99 176.49 88.31C176.56 88.64 176.66 88.95 176.81 89.24C176.95 89.54 177.14 89.81 177.34 90.06C177.56 90.31 177.8 90.54 178.07 90.73L196.38 103.58C196.55 103.7 196.73 103.8 196.91 103.89C197.09 103.98 197.28 104.06 197.48 104.12C197.67 104.18 197.87 104.23 198.07 104.26C198.27 104.29 198.48 104.3 198.68 104.3L201.97 104.3C202.18 104.3 202.39 104.29 202.6 104.25C202.8 104.22 203 104.17 203.2 104.11C203.41 104.05 203.6 103.98 203.79 103.89C203.98 103.8 204.16 103.69 204.34 103.58L223.63 90.73C223.92 90.54 224.18 90.33 224.41 90.08C224.64 89.83 224.84 89.56 225.01 89.26C225.18 88.97 225.31 88.66 225.41 88.33C225.5 88.01 225.56 87.67 225.57 87.34L226.84 54.72C226.85 54.32 226.78 53.91 226.63 53.54C226.48 53.17 226.25 52.84 225.96 52.56C225.67 52.28 225.31 52.06 224.94 51.93C224.55 51.8 224.15 51.75 223.74 51.79L223.75 51.79Z" />
			<path id="Layer" class="shp5" d="M178.55 87.27L179.76 56.09C179.77 55.81 179.84 55.53 179.96 55.27C180.08 55.01 180.24 54.78 180.44 54.59C180.65 54.39 180.89 54.23 181.15 54.12C181.42 54.01 181.7 53.96 181.98 53.96L182.69 53.96C183.46 53.95 184.22 53.91 184.99 53.85C185.75 53.79 186.51 53.7 187.27 53.59C188.03 53.47 188.79 53.34 189.53 53.17C190.29 53.01 191.03 52.81 191.77 52.6C192.47 52.39 193.16 52.14 193.84 51.87C194.51 51.6 195.17 51.3 195.83 50.96C196.48 50.64 197.11 50.27 197.73 49.89C198.35 49.49 198.95 49.08 199.53 48.64C199.72 48.48 199.93 48.36 200.17 48.28C200.4 48.19 200.64 48.15 200.89 48.15C201.14 48.15 201.38 48.19 201.61 48.28C201.84 48.36 202.06 48.48 202.25 48.64C202.8 49.08 203.37 49.5 203.96 49.89C204.56 50.28 205.17 50.64 205.79 50.97C206.42 51.31 207.06 51.61 207.71 51.88C208.37 52.15 209.03 52.39 209.71 52.6C210.44 52.81 211.17 53.01 211.92 53.17C212.65 53.34 213.4 53.48 214.15 53.59C214.9 53.71 215.65 53.79 216.41 53.85C217.17 53.91 217.93 53.95 218.69 53.96L219.34 53.96C219.62 53.96 219.9 54.01 220.16 54.12C220.43 54.23 220.66 54.39 220.86 54.59C221.05 54.8 221.21 55.04 221.3 55.3C221.4 55.56 221.45 55.85 221.44 56.13L220.23 87.27C220.21 87.44 220.19 87.62 220.14 87.79C220.09 87.96 220.02 88.11 219.93 88.27C219.85 88.42 219.75 88.56 219.62 88.69C219.5 88.82 219.37 88.94 219.22 89.03L200.05 101.81C199.87 101.94 199.68 102.03 199.47 102.09C199.27 102.16 199.05 102.19 198.84 102.19C198.62 102.19 198.41 102.16 198.21 102.09C198 102.03 197.81 101.94 197.63 101.81L179.43 89.03C179.29 88.94 179.17 88.82 179.06 88.69C178.94 88.56 178.85 88.41 178.77 88.26C178.69 88.11 178.63 87.95 178.6 87.78C178.56 87.61 178.55 87.44 178.55 87.27Z" />
			<path id="Layer" class="shp15" d="M183.88 85.62L184.91 59.11C185.59 59.06 186.28 58.99 186.96 58.9C187.64 58.81 188.32 58.71 189 58.59C189.68 58.46 190.35 58.32 191.02 58.16C191.69 58.01 192.35 57.84 193.01 57.65C193.69 57.44 194.35 57.22 195.01 56.97C195.67 56.72 196.32 56.45 196.96 56.16C197.6 55.86 198.22 55.55 198.85 55.21C199.46 54.88 200.06 54.51 200.66 54.14C201.22 54.52 201.81 54.88 202.4 55.21C202.99 55.56 203.6 55.87 204.21 56.16C204.83 56.46 205.46 56.73 206.1 56.98C206.73 57.22 207.38 57.45 208.04 57.65C208.69 57.84 209.34 58.01 210 58.17C210.66 58.33 211.33 58.46 211.99 58.59C212.66 58.71 213.33 58.81 214.01 58.91C214.68 58.99 215.35 59.06 216.03 59.11L215 85.62L199.02 96.26L183.88 85.62Z" />
			<path id="Layer" class="shp15" d="M189.25 82.85L189.99 63.71C191.42 63.44 192.85 63.11 194.27 62.7C194.79 62.54 195.32 62.37 195.85 62.19C196.37 62.01 196.88 61.81 197.4 61.61C197.91 61.4 198.42 61.19 198.92 60.96C199.43 60.72 199.92 60.48 200.41 60.23C200.89 60.48 201.37 60.72 201.85 60.96C202.34 61.19 202.83 61.41 203.33 61.61C203.83 61.82 204.33 62.01 204.84 62.19C205.35 62.37 205.86 62.54 206.38 62.7C207.78 63.1 209.18 63.44 210.58 63.71L209.83 82.85L199.28 89.91L189.25 82.85Z" />
		</g>
	</g>
</svg>