<svg xmlns="http://www.w3.org/2000/svg" width="187.439" height="122.921" viewBox="0 0 187.439 122.921"><defs><style>.a{fill:#fff;}.b{fill:#ebebeb;}.c{fill:#e0e0e0;}.d{fill:#f5f5f5;}.e{fill:#263238;}.f{fill:#455a64;}.g{fill:#fafafa;}.h{fill:#e8505b;}.i{opacity:0.5;}.j{opacity:0.4;}.k{fill:none;stroke:#4e585d;stroke-miterlimit:10;stroke-width:0.05px;}.l{opacity:0.2;}.m{fill:#b78876;}.n{fill:#aa6550;}.o{opacity:0.3;}</style></defs><g transform="translate(-595.778 -1139.365)"><path class="a" d="M-1965.962,975.87c-15.12,3.321-30.576.21-45.724-1.3-9.973-.992-19.587.359-29.583,1.092-25.412,1.864-53.6-1.415-61.731-24.9-6.774-19.57,4.174-48.607,27.769-60.1,8.161-3.975,16.469-4.759,24.577-3.943,4.868.49,10.3,2.357,15.542.391,5.532-2.075,9.624-7.833,13.363-11.982,5.564-6.177,11.441-12.651,18.906-16.827,17.123-9.577,27.306-.24,32.45,15.111,2.5,7.463,3.829,15.241,5.844,22.831,2.857,10.766,9.054,18.585,16.035,27.248,6.214,7.717,12.031,16.74,11.029,26.53-1.135,11.11-11.145,20.222-22.306,24.106a53.543,53.543,0,0,1-6.171,1.739" transform="translate(2707.979 284.939)"/><g transform="translate(13 -264.734)"><g transform="translate(590.558 1412.083)"><g transform="translate(147.038 42.286)"><g transform="translate(6.032)"><path class="b" d="M673.8,178.24a3.758,3.758,0,0,1,.963,2.78,6.63,6.63,0,0,1-.9,2.862,11.7,11.7,0,0,1-4.39,4.083c-.969-1.939-.371-4.38.01-5.6.6-1.928,2.861-5.046,4.313-4.125" transform="translate(-668.948 -178.073)"/></g><g transform="translate(7.096 10.941)"><path class="b" d="M672.79,220.234a3.206,3.206,0,0,1,2.117-2.425,4.257,4.257,0,0,1,3.277.286,1.792,1.792,0,0,1,1.039,1.1,1.371,1.371,0,0,1-.508,1.293,2.78,2.78,0,0,1-1.336.546,5.51,5.51,0,0,1-4.588-.8" transform="translate(-672.79 -217.602)"/></g><g transform="translate(2.898 12.713)"><path class="c" d="M657.627,229.567a2.31,2.31,0,0,1,.205-.346l.592-.921a11.258,11.258,0,0,1,2.336-2.759,6.89,6.89,0,0,1,3.28-1.488,4.668,4.668,0,0,1,1.1-.029,2.792,2.792,0,0,1,.3.042c.067.012.1.021.1.026a7.311,7.311,0,0,0-1.482.06,7.112,7.112,0,0,0-3.207,1.5,12.109,12.109,0,0,0-2.341,2.7c-.263.38-.476.688-.629.9A2.111,2.111,0,0,1,657.627,229.567Z" transform="translate(-657.626 -224.004)"/></g><g transform="translate(2.774 2.693)"><path class="c" d="M663.771,187.8a.811.811,0,0,1-.048.169l-.163.474c-.143.41-.359,1-.631,1.729-.544,1.456-1.324,3.457-2.235,5.647s-1.782,4.154-2.431,5.567c-.325.706-.592,1.275-.782,1.667l-.221.449a.8.8,0,0,1-.086.153.821.821,0,0,1,.06-.164l.2-.46.74-1.685c.626-1.422,1.481-3.391,2.392-5.58s1.7-4.183,2.272-5.629l.673-1.713.187-.464A.818.818,0,0,1,663.771,187.8Z" transform="translate(-657.175 -187.803)"/></g><g transform="translate(0 6.228)"><path class="b" d="M651.189,207.938a7.5,7.5,0,0,0-1.7-6.637c-.405-.449-1-.878-1.568-.673s-.754.918-.766,1.524a6.407,6.407,0,0,0,3.937,5.919" transform="translate(-647.155 -200.575)"/></g><g transform="translate(1.88 8.755)"><path class="c" d="M653.946,209.7a1.953,1.953,0,0,1,.263.272,3.669,3.669,0,0,1,.283.342c.1.141.231.291.342.479a6.586,6.586,0,0,1,.364.614,7.48,7.48,0,0,1,.352.741,8.347,8.347,0,0,1,.5,1.809,8.177,8.177,0,0,1,.05,1.877,7.163,7.163,0,0,1-.126.811,6.011,6.011,0,0,1-.178.691,5.582,5.582,0,0,1-.2.554,3.428,3.428,0,0,1-.181.405,1.939,1.939,0,0,1-.182.331c-.029-.013.227-.49.465-1.319a6.487,6.487,0,0,0,.159-.686,7.476,7.476,0,0,0,.111-.8,8.5,8.5,0,0,0-.06-1.845,8.684,8.684,0,0,0-.484-1.781,7.785,7.785,0,0,0-.335-.735c-.108-.229-.235-.429-.345-.614C654.292,210.118,653.923,209.724,653.946,209.7Z" transform="translate(-653.945 -209.704)"/></g></g><g transform="translate(0 14.884)"><path class="b" d="M62.042,115.928s-2.547.821-.077,6.281A69.361,69.361,0,0,0,66.2,130.4s.424,1.26-.627,1.4-3.328-.33-3.853.923c-.544,1.3.358,2.593,2.254,3.778s5.955,3.936,6.322,4.187.7.839,0,1.052-5.886.508-5.6,2.961,6.113,4.888,6.745,5.167.773.558.7.909-1.822.286-3.293.43-3.153.57-2.868,1.971,3.658,4.475,12.144,5.711l3.969.315,2.321-3.257c4.543-7.273,4.379-11.834,3.494-12.957s-2.3-.116-3.358.913-2.145,2.408-2.458,2.234-.435-.463-.239-1.125,2.1-6.681.419-8.486-5.264,1.96-5.879,2.357-.845-.249-.8-.682.572-5.316.893-7.529-.082-3.737-1.425-4.163c-1.3-.41-2.406,1.633-3.195,2.342s-1.476-.43-1.476-.43a69.32,69.32,0,0,0-3.512-8.521c-2.569-5.414-4.892-3.955-4.892-3.955" transform="translate(-60.887 -115.77)"/><g transform="translate(3.359 5.052)"><path class="c" d="M91.036,173.353c-1.871-3.984-5.077-11.12-7.862-17.233s-5.309-11.64-7.159-15.633l-2.2-4.726-.6-1.286-.152-.336c-.033-.076-.048-.116-.048-.116s.022.037.06.111l.163.33.617,1.276c.535,1.109,1.3,2.718,2.232,4.71,1.871,3.984,4.409,9.509,7.193,15.619s5.978,13.254,7.828,17.247" transform="translate(-73.022 -134.023)"/></g><g transform="translate(3.989 17.745)"><path class="c" d="M75.3,179.881a1.3,1.3,0,0,1,.273.09c.174.065.421.166.727.294.61.257,1.443.633,2.355,1.065l2.33,1.114.708.333a1.279,1.279,0,0,1,.255.133,1.3,1.3,0,0,1-.274-.088c-.173-.065-.422-.166-.725-.3-.608-.263-1.435-.65-2.347-1.081l-2.337-1.1-.71-.33A1.277,1.277,0,0,1,75.3,179.881Z" transform="translate(-75.298 -179.88)"/></g><g transform="translate(10.92 12.755)"><path class="c" d="M100.341,169.629c-.032-.013.668-1.765,1.563-3.912s1.646-3.878,1.677-3.865-.668,1.765-1.563,3.913S100.373,169.642,100.341,169.629Z" transform="translate(-100.34 -161.851)"/></g><g transform="translate(14.773 24.12)"><path class="c" d="M114.26,208.9a1.346,1.346,0,0,1,.173-.238l.5-.622c.422-.526,1-1.254,1.613-2.082s1.141-1.594,1.52-2.152l.449-.661a1.339,1.339,0,0,1,.177-.235,1.358,1.358,0,0,1-.136.261c-.095.164-.236.4-.416.683-.36.572-.879,1.349-1.493,2.178s-1.205,1.552-1.646,2.064c-.221.255-.4.46-.532.6A1.353,1.353,0,0,1,114.26,208.9Z" transform="translate(-114.259 -202.911)"/></g><g transform="translate(7.948 28.967)"><path class="c" d="M89.6,220.426a1.13,1.13,0,0,1,.271.017l.733.093c.618.084,1.471.208,2.411.353s1.791.283,2.406.389l.727.132a1.169,1.169,0,0,1,.264.065,1.131,1.131,0,0,1-.271-.017l-.733-.093c-.618-.084-1.471-.208-2.412-.353s-1.791-.283-2.406-.389l-.727-.132A1.153,1.153,0,0,1,89.6,220.426Z" transform="translate(-89.602 -220.423)"/></g><g transform="translate(10.274 37.855)"><path class="c" d="M98.007,252.538a1.854,1.854,0,0,1,.347.026l.94.115c.793.1,1.887.254,3.094.428s2.3.339,3.089.463l.934.155a1.832,1.832,0,0,1,.34.073,1.886,1.886,0,0,1-.347-.026l-.94-.116c-.793-.1-1.887-.254-3.095-.428s-2.3-.339-3.089-.464l-.934-.154A1.9,1.9,0,0,1,98.007,252.538Z" transform="translate(-98.007 -252.535)"/></g><g transform="translate(18.818 31.277)"><path class="c" d="M128.873,236.521a2.116,2.116,0,0,1,.211-.307l.607-.812c.512-.686,1.215-1.636,1.962-2.707s1.4-2.056,1.867-2.773l.554-.849a2.132,2.132,0,0,1,.215-.3,2.154,2.154,0,0,1-.174.329c-.119.208-.3.506-.521.871-.449.73-1.09,1.726-1.84,2.8s-1.463,2.016-1.993,2.69c-.266.336-.484.605-.639.788A2.156,2.156,0,0,1,128.873,236.521Z" transform="translate(-128.872 -228.769)"/></g></g><g transform="translate(72.635 0)"><path class="d" d="M334.146,109.784c-7.091-3.569-9.76-11.71-10.59-19.255a8.241,8.241,0,0,1-.03-3.746,2.578,2.578,0,0,1,2.918-1.772c.994.3,1.556,1.327,2.206,2.148A7.407,7.407,0,0,0,332,89.54,2.821,2.821,0,0,0,334.6,89.4c.995-.753.907-2.265.719-3.51q-.526-3.482-1.051-6.963a11.747,11.747,0,0,1-.159-3.757,3.906,3.906,0,0,1,2.052-2.965,2.369,2.369,0,0,1,3.13,1.152,11.62,11.62,0,0,1,.26,1.547,1.325,1.325,0,0,0,.945,1.123c.519.074.966-.351,1.286-.77a16.75,16.75,0,0,0,2.326-4.922,23.218,23.218,0,0,1,2.105-5.037,6.81,6.81,0,0,1,4.2-3.222,4.078,4.078,0,0,1,4.536,2.155c.706,1.692-.061,3.623-.971,5.207a28.107,28.107,0,0,1-4.995,6.36,2.314,2.314,0,0,0-.818,1.182c-.151.87.756,1.582,1.616,1.736a14.551,14.551,0,0,0,2.956-.093,2.832,2.832,0,0,1,2.6,1.116c.695,1.2-.178,2.69-1.1,3.716a24.089,24.089,0,0,1-6.466,5.092,8.12,8.12,0,0,0-2.437,1.653,2.331,2.331,0,0,0-.357,2.749,2.374,2.374,0,0,0,2.7.612,16.768,16.768,0,0,0,2.584-1.44c1.62-.894,3.849-1.1,5.16.226a3.986,3.986,0,0,1,.924,3.427,9.184,9.184,0,0,1-1.444,3.354,24.214,24.214,0,0,1-9.194,8.671c-3.774,1.952-7.4,2.857-11.56,1.984" transform="translate(-323.306 -61.995)"/><g transform="translate(12.097 0.788)"><path class="c" d="M367.012,106.856a112.854,112.854,0,0,1,2.7-12.666l.877-3.284c.291-1.077.578-2.145.924-3.173a56.337,56.337,0,0,1,2.327-5.789c.829-1.806,1.682-3.489,2.491-5.057s1.6-3.013,2.369-4.3a44.708,44.708,0,0,1,4.089-5.8c.534-.645.965-1.131,1.262-1.456l.34-.368a.912.912,0,0,1,.122-.12.887.887,0,0,1-.1.136l-.322.384c-.285.335-.7.831-1.228,1.484a47.281,47.281,0,0,0-4.018,5.827c-.76,1.29-1.535,2.737-2.339,4.305s-1.646,3.255-2.468,5.058a57,57,0,0,0-2.305,5.772c-.343,1.022-.627,2.081-.917,3.161s-.58,2.174-.875,3.282a115.606,115.606,0,0,0-2.708,12.637" transform="translate(-367.012 -64.843)"/></g><g transform="translate(12.853 10.211)"><path class="c" d="M373.549,112.337a2.579,2.579,0,0,1-.2-.514c-.115-.335-.266-.825-.443-1.433-.356-1.216-.789-2.911-1.261-4.782s-.928-3.556-1.3-4.763c-.185-.6-.339-1.091-.451-1.427a2.519,2.519,0,0,1-.148-.531,2.5,2.5,0,0,1,.232.5c.138.327.316.807.521,1.407.415,1.2.9,2.883,1.37,4.757l1.195,4.8c.147.576.272,1.061.372,1.451A2.512,2.512,0,0,1,373.549,112.337Z" transform="translate(-369.744 -98.887)"/></g><g transform="translate(16.658 18.346)"><path class="c" d="M399.082,128.28a3.5,3.5,0,0,1-.628.169c-.406.1-.994.232-1.715.423-1.445.371-3.423.952-5.577,1.69s-4.074,1.5-5.447,2.081c-.689.288-1.24.536-1.622.705a3.514,3.514,0,0,1-.6.244,3.446,3.446,0,0,1,.564-.327c.371-.194.913-.466,1.6-.775,1.36-.626,3.278-1.407,5.438-2.151a57.1,57.1,0,0,1,5.613-1.629c.729-.171,1.324-.283,1.737-.351A3.419,3.419,0,0,1,399.082,128.28Z" transform="translate(-383.489 -128.275)"/></g><g transform="translate(1.224 23.177)"><path class="c" d="M338.755,165.033a.833.833,0,0,1-.138-.179l-.358-.54c-.309-.47-.738-1.163-1.256-2.025-1.038-1.724-2.4-4.151-3.862-6.849s-2.8-5.135-3.8-6.879l-1.192-2.062-.321-.563a.114.114,0,1,1,.04-.025l.358.54c.309.47.737,1.163,1.256,2.025,1.039,1.724,2.4,4.151,3.863,6.85s2.8,5.134,3.8,6.878l1.192,2.061.321.563A.839.839,0,0,1,338.755,165.033Z" transform="translate(-327.727 -145.731)"/></g><g transform="translate(12.252 32.536)"><path class="c" d="M387.873,179.543a.865.865,0,0,1-.2.118l-.588.3-2.174,1.069c-1.835.9-4.356,2.179-7.138,3.592s-5.319,2.668-7.173,3.533c-.927.433-1.681.776-2.206,1l-.607.257a.834.834,0,0,1-.218.075.9.9,0,0,1,.2-.118l.588-.3L370.53,188c1.835-.9,4.356-2.179,7.139-3.593s5.317-2.668,7.172-3.533c.927-.433,1.681-.775,2.207-1l.607-.257A.856.856,0,0,1,387.873,179.543Z" transform="translate(-367.57 -179.542)"/></g></g><g transform="translate(120.493 17.994)"><path class="d" d="M534.718,96.217c0-4.516-4.745-7.377-9.582-5.113a5.494,5.494,0,0,0-2.545,2.44c-1.217,2.358-.68,5.05.424,7.285l3.765,9.542a1.622,1.622,0,0,0,3.023-.013l3.692-9.592A11.8,11.8,0,0,0,534.718,96.217Zm-4.545,3.93c-3.252,1.891-6.548-1.6-4.766-5.054A2.714,2.714,0,0,1,526.44,94c3.253-1.891,6.549,1.6,4.766,5.054A2.711,2.711,0,0,1,530.173,100.147Z" transform="translate(-521.896 -90.312)"/></g></g><g transform="translate(584.787 1517.77)"><g transform="translate(0 0)"><path class="e" d="M225.466,443.9c0,.04-41.513.072-92.71.072-51.215,0-92.719-.032-92.719-.072s41.5-.072,92.719-.072C183.952,443.823,225.466,443.855,225.466,443.9Z" transform="translate(-40.036 -443.823)"/></g></g><g transform="translate(618.662 1409.407)"><g transform="translate(0 0)"><path class="f" d="M207.19,160.759l-36.791-.17a8.014,8.014,0,0,1-7.977-8.048l.39-92.236a8.014,8.014,0,0,1,8.051-7.981l36.791.17a8.014,8.014,0,0,1,7.977,8.048l-.39,92.236A8.014,8.014,0,0,1,207.19,160.759Z" transform="translate(-162.422 -52.325)"/><g transform="translate(2.443 3.184)"><path class="g" d="M213.985,64l-7.133-.033a1.772,1.772,0,0,0-1.739,1.8l-.006,1.294a1.772,1.772,0,0,1-1.74,1.8l-13.9-.064a1.774,1.774,0,0,1-1.724-1.819l.006-1.294a1.773,1.773,0,0,0-1.724-1.819l-2.509-.012-6.243-.029a5.613,5.613,0,0,0-5.639,5.589l-.381,90.029a5.613,5.613,0,0,0,5.587,5.637l36.718.169a5.613,5.613,0,0,0,5.639-5.589l.381-90.029A5.613,5.613,0,0,0,213.985,64Z" transform="translate(-171.248 -63.827)"/></g><g transform="translate(2.778 19.576)"><path class="b" d="M172.458,123.051h6.018l5.371,5.371-5.583,5.583-5.742-5.742Z" transform="translate(-172.458 -123.051)"/></g><g transform="translate(12.376 19.576)"><path class="b" d="M210.151,126.067l-3.015-3.015h6.784Z" transform="translate(-207.135 -123.051)"/></g><g transform="translate(18.03 19.771)"><path class="b" d="M227.561,129.037l5.283-5.283h18.463s2.827,12.62-8.292,20.724Z" transform="translate(-227.561 -123.754)"/></g><g transform="translate(10.115 26.738)"><path class="b" d="M204.619,148.924l-5.654,5.654,15.642,15.642,5.654-5.842Z" transform="translate(-198.965 -148.924)"/></g><g transform="translate(2.71 28.447)"><path class="b" d="M172.213,162.247l3.541-3.675-3.474-3.474Z" transform="translate(-172.213 -155.099)"/></g><g transform="translate(2.93 34.088)"><path class="b" d="M178.449,175.478l-5.442,5.442v7.562l11.237,11.5,9.517-8.857Z" transform="translate(-173.007 -175.478)"/></g><g transform="translate(35.584 19.771)"><path class="b" d="M290.981,146.064s11.657-8.547,7.888-22.31h7.249L306.03,162.6Z" transform="translate(-290.981 -123.754)"/></g><g transform="translate(27.761 44.323)"><path class="b" d="M268.355,212.459l-5.638,5.886L280,235.629l5.287-5.6Z" transform="translate(-262.717 -212.459)"/></g><g transform="translate(16.547 51.82)"><path class="b" d="M231.064,239.542l-8.859,8.8,17.719,17.595,8.843-8.549Z" transform="translate(-222.204 -239.542)"/></g><g transform="translate(20.763 81.853)"><path class="b" d="M237.434,362.086l13.544-14.04,12.885,13.134Z" transform="translate(-237.434 -348.046)"/></g><g transform="translate(36.42 66.067)"><path class="b" d="M294,304.99l14.1-13.974c0,.621-.123,28.984-.123,28.984Z" transform="translate(-294.003 -291.016)"/></g><g transform="translate(9.246 72.191)"><path class="b" d="M210.923,313.139l8,8-15.8,16.3-7.3-8.756Z" transform="translate(-195.826 -313.139)"/></g><g transform="translate(2.723 49.847)"><path class="b" d="M172.261,271.444c.755-.076,20.105-18.2,20.105-18.2l-20.105-20.834Z" transform="translate(-172.261 -232.415)"/></g><g transform="translate(2.443 88.876)"><path class="b" d="M171.248,377.551l4.659-4.129,6.451,7.62h-11.11v-2.915" transform="translate(-171.248 -373.422)"/></g><g transform="translate(7.09 11.581)"><path class="e" d="M189.418,96.676a11.682,11.682,0,0,1-1.382-1.2h0c0-.21,0-.058,0-.105h0l0,0,0,0,.009-.008.017-.016.034-.032.068-.063.133-.124.253-.232.435-.387a2.023,2.023,0,0,1,.426-.33,2.019,2.019,0,0,1-.356.4l-.413.41-.248.238-.132.125-.068.064-.034.032-.017.016-.009.008,0,0,0,0h0c0-.047,0,.105,0-.1h0A11.694,11.694,0,0,1,189.418,96.676Z" transform="translate(-188.035 -94.166)"/><g transform="translate(39.041 0.098)"><path class="e" d="M329.684,94.82a.3.3,0,1,1-.3-.3A.3.3,0,0,1,329.684,94.82Z" transform="translate(-329.083 -94.52)"/><g transform="translate(0 1.033)"><path class="e" d="M329.6,98.339a.3.3,0,1,1-.425,0A.3.3,0,0,1,329.6,98.339Z" transform="translate(-329.084 -98.251)"/></g><g transform="translate(0 2.065)"><path class="e" d="M329.684,102.282a.3.3,0,1,1-.3-.3A.3.3,0,0,1,329.684,102.282Z" transform="translate(-329.083 -101.982)"/></g></g></g><g transform="translate(20.811 13.205)"><rect class="e" width="12.947" height="1.079"/></g><g transform="translate(18.03 25.987)"><path class="h" d="M241.883,152.809c0-5.044-5.3-8.239-10.7-5.711a6.139,6.139,0,0,0-2.843,2.725c-1.359,2.633-.759,5.64.474,8.137l4.205,10.658a1.812,1.812,0,0,0,3.376-.014l4.123-10.713A13.18,13.18,0,0,0,241.883,152.809Zm-5.076,4.39c-3.633,2.112-7.314-1.792-5.323-5.645a3.028,3.028,0,0,1,1.154-1.224c3.633-2.112,7.314,1.792,5.323,5.645A3.029,3.029,0,0,1,236.807,157.2Z" transform="translate(-227.561 -146.213)"/></g></g></g><g transform="translate(597.921 1463.624)"><g transform="translate(0 0)"><g transform="translate(8.221 25.838)"><rect class="h" width="131.202" height="19.251"/><g class="i"><rect width="131.202" height="19.251"/></g></g><g transform="translate(12.379 31.489)"><g transform="translate(0 0)"><g transform="translate(0)"><ellipse class="e" cx="12.651" cy="12.651" rx="12.651" ry="12.651" transform="translate(0 1.699) rotate(-3.849)"/></g></g><g transform="translate(0.821 13.257)"><path class="e" d="M143.307,389.075c0,.011,0,.022,0,.032a12.651,12.651,0,0,0,25.3.365c0-.011,0-.022,0-.033Z" transform="translate(-143.303 -389.075)"/></g><g transform="translate(4.59 4.59)"><path class="g" d="M159.244,361.178a8.882,8.882,0,1,0,9.009-8.753A8.882,8.882,0,0,0,159.244,361.178Z" transform="translate(-159.243 -352.424)"/></g><g transform="translate(4.591 4.59)"><path class="c" d="M168.256,352.425a8.882,8.882,0,0,0-9.009,8.753l17.762.256A8.882,8.882,0,0,0,168.256,352.425Z" transform="translate(-159.247 -352.424)"/></g><g transform="translate(8.062 8.062)"><path class="e" d="M173.923,372.437a5.411,5.411,0,1,0,5.488-5.332A5.41,5.41,0,0,0,173.923,372.437Z" transform="translate(-173.923 -367.105)"/></g></g><g transform="translate(109.233 31.6)"><g transform="translate(0 0)"><g transform="translate(0)"><ellipse class="e" cx="12.651" cy="12.651" rx="12.651" ry="12.651" transform="matrix(0.998, -0.058, 0.058, 0.998, 0, 1.463)"/></g></g><g transform="translate(0.71 13.147)"><path class="e" d="M552.408,389.075c0,.011,0,.022,0,.032a12.651,12.651,0,0,0,25.3.365c0-.011,0-.022,0-.033Z" transform="translate(-552.404 -389.075)"/></g><g transform="translate(4.48 4.48)"><path class="g" d="M568.345,361.178a8.882,8.882,0,1,0,9.009-8.753A8.882,8.882,0,0,0,568.345,361.178Z" transform="translate(-568.344 -352.424)"/></g><g transform="translate(4.481 4.48)"><path class="c" d="M577.357,352.425a8.882,8.882,0,0,0-9.009,8.753l17.762.256A8.882,8.882,0,0,0,577.357,352.425Z" transform="translate(-568.348 -352.424)"/></g><g transform="translate(7.951 7.951)"><path class="e" d="M583.024,372.437a5.411,5.411,0,1,0,5.488-5.332A5.41,5.41,0,0,0,583.024,372.437Z" transform="translate(-583.024 -367.105)"/></g></g><path class="h" d="M129.921,214.862s-18.63,1.374-25.535,2.923c-4.866,1.092-14.25,2.975-14.137,8.879l.744,4.232a6.371,6.371,0,0,0-3.482,5.646c0,4.057-.85,10.35,7.275,10.6,1.339.042,3.882,0,3.882,0s-1.56-17.3,14.338-17.81c16.172-.515,15.1,17.652,15.1,17.652h67.5s-2.77-17.7,14.639-17.725S225,247.1,225,247.1s6.4.554,9.384-4.828,2.2-9.214,2.2-9.214l-.1-3.4a2.2,2.2,0,0,0-2.117-2.137h0s1.163-8.566-.621-10.049-11.569-10.427-11.569-10.427l.466-.293a1.1,1.1,0,0,0-.227-1.967c-3.714-1.277-11.059-3.8-12.786-4.409a3.154,3.154,0,0,0-.8-.169c-1.03-.079-3.948-.264-9.3-.321-6.525-.07-32.429,0-32.429,0s-8.915.733-13.882,2.919C148,205.1,129.921,214.862,129.921,214.862Z" transform="translate(-87.485 -199.855)"/><g class="j" transform="translate(1.911 36.135)"><path d="M98.4,352.743a2.863,2.863,0,0,0-2.226.307,2.132,2.132,0,0,0-.542,1.4,6,6,0,0,0,.047,2.1,2.563,2.563,0,0,0,1.182,1.672,1.651,1.651,0,0,0,1.946-.233,2.539,2.539,0,0,0,.478-1.816,14.645,14.645,0,0,0-.111-2.582,1.262,1.262,0,0,0-.232-.521.7.7,0,0,0-.54-.324" transform="translate(-95.566 -352.659)"/></g><g transform="translate(2.763 26.27)"><path class="g" d="M99.913,315.715c1.978,0,3.9-.109,5.869-.24a.72.72,0,0,0,.808-.9,3.728,3.728,0,0,0-.847-2.955,3.185,3.185,0,0,0-1.81-.614,11.71,11.71,0,0,0-4.764.48Z" transform="translate(-99.169 -310.944)"/></g><g transform="translate(6.692 24.794)"><path class="a" d="M153.664,326.5s-.007-.057-.015-.169-.019-.281-.033-.5l-.1-1.909c-.046-.829-.1-1.843-.22-3.015a23.663,23.663,0,0,0-.7-3.933,17.849,17.849,0,0,0-1.9-4.435,13.933,13.933,0,0,0-3.68-4.105A21.415,21.415,0,0,0,135,304.828a19.471,19.471,0,0,0-11.927,3.755,17.506,17.506,0,0,0-3.872,3.951,18.733,18.733,0,0,0-2.267,4.264,17.362,17.362,0,0,0-.957,3.871,16.267,16.267,0,0,0-.116,3.012,15.181,15.181,0,0,0,.232,1.893l.089.489c.019.11.026.168.026.168s-.015-.056-.038-.165l-.1-.487a14.23,14.23,0,0,1-.255-1.895,16.063,16.063,0,0,1,.1-3.023,17.313,17.313,0,0,1,.944-3.892,18.748,18.748,0,0,1,2.265-4.293A17.568,17.568,0,0,1,123,308.493a19.547,19.547,0,0,1,12-3.787,21.475,21.475,0,0,1,12.077,3.64,14.009,14.009,0,0,1,3.7,4.144,17.872,17.872,0,0,1,1.9,4.465,23.507,23.507,0,0,1,.682,3.949c.113,1.175.161,2.19.2,3.019s.062,1.469.081,1.91c.009.216.016.381.021.5S153.664,326.5,153.664,326.5Z" transform="translate(-115.782 -304.704)"/></g><g transform="translate(44.688 2.282)"><path class="e" d="M277.061,254.1s0-.048-.008-.142l-.015-.419c-.012-.372-.029-.921-.051-1.635-.041-1.434-.1-3.532-.177-6.2s-.162-5.911-.263-9.625q-.038-1.393-.078-2.873a9.7,9.7,0,0,1,.065-1.5q.054-.378.108-.761l.157-.763a15.367,15.367,0,0,1,1.052-3.03,15.151,15.151,0,0,1,1.732-2.878l0-.006.008,0,11.689-7.364,3.156-1.988a24.769,24.769,0,0,1,3.341-1.865,34.1,34.1,0,0,1,3.629-1.449c.621-.218,1.257-.4,1.893-.586.643-.162,1.285-.345,1.941-.477a44.169,44.169,0,0,1,7.533-.951,70.928,70.928,0,0,1,7.293.024l.069,0-.015.069-3.141,14.05,0,.008-.005.009a15.313,15.313,0,0,0-1.409,3.018,8.249,8.249,0,0,0-.477,3.123c.08,1.038.109,2.054.135,3.039s.038,1.943.056,2.872c.054,3.712.069,6.951.079,9.619s0,4.764.006,6.2c0,.714,0,1.262-.006,1.634q0,.275,0,.419c0,.094,0,.142,0,.142s0-.048,0-.142,0-.236,0-.419c0-.372-.006-.92-.01-1.634-.008-1.433-.021-3.53-.036-6.2s-.042-5.906-.1-9.618q-.03-1.392-.062-2.87c-.028-.986-.059-2-.14-3.034a8.342,8.342,0,0,1,.477-3.163,15.411,15.411,0,0,1,1.416-3.043l-.007.017,3.129-14.053.054.073a71,71,0,0,0-7.279-.021,44.115,44.115,0,0,0-7.513.949c-.654.131-1.293.314-1.934.475-.634.189-1.268.367-1.887.584a34.125,34.125,0,0,0-3.616,1.443,24.655,24.655,0,0,0-3.326,1.855L291.351,217l-11.7,7.355.013-.011a15.069,15.069,0,0,0-1.722,2.853,15.276,15.276,0,0,0-1.05,3.008,21.943,21.943,0,0,0-.259,5.878c.092,3.714.172,6.954.238,9.624s.113,4.767.147,6.2l.035,1.635q0,.275.007.419C277.063,254.057,277.061,254.1,277.061,254.1Z" transform="translate(-276.46 -209.503)"/></g><g transform="translate(88.221 2.378)"><path class="e" d="M460.548,210.321s.037,0,.11-.007l.325-.011,1.255-.031,4.656-.092,15.7-.268h.03l.019.023,2.2,2.693,6.282,7.7.714.877a5.032,5.032,0,0,1,.587.942,4.91,4.91,0,0,1,.089,3.992l-.716,1.666-2.17,5.022-.6,1.363-.158.353c-.036.079-.057.119-.057.119s.014-.043.046-.124l.147-.358.575-1.372,2.134-5.037a8.9,8.9,0,0,0,1.074-3.565,4.828,4.828,0,0,0-.465-2.012,4.926,4.926,0,0,0-.577-.92l-.716-.875-6.288-7.694-2.2-2.693.048.022-15.7.227-4.657.055-1.256.009h-.325C460.585,210.324,460.548,210.321,460.548,210.321Z" transform="translate(-460.548 -209.912)"/></g><g transform="translate(73.71 20.918)"><path class="e" d="M405.772,291.057c0-.007.066-.006.188-.028a1.3,1.3,0,0,0,.5-.2,1.274,1.274,0,0,0,.506-.658,1.408,1.408,0,0,0,.064-.52,1.277,1.277,0,0,0-.147-.562,1.253,1.253,0,0,0-1.089-.663l-1.594,0-3.654,0a1.239,1.239,0,0,0-1.228,1.1,1.382,1.382,0,0,0,.151.835,1.253,1.253,0,0,0,.6.538,1.906,1.906,0,0,0,.787.1l.774,0,1.39.007,2.012.02.547.012a1.1,1.1,0,0,1,.191.013,1.128,1.128,0,0,1-.191.012l-.547.012-2.012.02-1.39.007-.774,0c-.135,0-.264.005-.408,0a1.342,1.342,0,0,1-1.085-.68,1.5,1.5,0,0,1-.169-.906,1.36,1.36,0,0,1,1.348-1.208l3.654,0,1.6.007a1.336,1.336,0,0,1,1.312,1.327,1.477,1.477,0,0,1-.078.544,1.309,1.309,0,0,1-.545.676,1.253,1.253,0,0,1-.519.182A.779.779,0,0,1,405.772,291.057Z" transform="translate(-399.187 -288.313)"/></g><g transform="translate(108.693 20.918)"><path class="e" d="M553.7,291.057c0-.007.066-.006.188-.028a1.3,1.3,0,0,0,.5-.2,1.271,1.271,0,0,0,.506-.658,1.415,1.415,0,0,0,.065-.52,1.281,1.281,0,0,0-.147-.562,1.253,1.253,0,0,0-1.089-.663l-1.594,0-3.654,0a1.239,1.239,0,0,0-1.228,1.1,1.385,1.385,0,0,0,.151.835,1.252,1.252,0,0,0,.6.538,1.9,1.9,0,0,0,.786.1l.774,0,1.39.007,2.012.02.547.012a1.1,1.1,0,0,1,.191.013,1.125,1.125,0,0,1-.191.012l-.547.012-2.012.02-1.39.007-.774,0c-.135,0-.264.005-.408,0a1.342,1.342,0,0,1-1.085-.68,1.5,1.5,0,0,1-.169-.906,1.359,1.359,0,0,1,1.348-1.208l3.654,0,1.6.007a1.336,1.336,0,0,1,1.312,1.327,1.476,1.476,0,0,1-.078.544,1.309,1.309,0,0,1-.545.676,1.255,1.255,0,0,1-.52.182A.779.779,0,0,1,553.7,291.057Z" transform="translate(-547.117 -288.313)"/></g><g transform="translate(136.373 17.953)"><path class="g" d="M673.752,275.775h-7a2.583,2.583,0,0,0-2.286,1.381h0a2.583,2.583,0,0,0-.078,2.243l2.745,6.235,7.009-.069S675.633,277.662,673.752,275.775Z" transform="translate(-664.169 -275.775)"/></g><g transform="translate(48.741 2.092)"><path class="e" d="M293.6,223.681l36.118-.665,23.506-.431,7.751-4.475a1.2,1.2,0,0,0,.357-1.771L356.5,210a2.685,2.685,0,0,0-2.115-1.059l-26.291-.214s-9.9-.575-17.7,3.792A167.054,167.054,0,0,0,293.6,223.681Z" transform="translate(-293.596 -208.701)"/></g><g transform="translate(42.243 2.772)"><path class="f" d="M289.169,211.576s1.81.826.632,1.591-19.477,12.3-19.477,12.3l-4.206-1.9C273.569,219.413,281.1,215.381,289.169,211.576Z" transform="translate(-266.118 -211.576)"/></g><g transform="translate(3.11 16.952)"><path class="e" d="M144.566,271.54s-.038.012-.113.029l-.333.073-1.284.266c-1.116.222-2.734.534-4.74.879-4.011.69-9.582,1.495-15.771,2.03-1.548.135-3.06.245-4.522.341s-2.87.185-4.209.307a36.362,36.362,0,0,0-7.025,1.2,19.864,19.864,0,0,0-4.429,1.848c-.5.266-.862.525-1.117.682l-.288.183c-.065.04-.1.059-.1.059s.03-.025.093-.069l.281-.193a13.1,13.1,0,0,1,1.106-.7,19.371,19.371,0,0,1,4.429-1.89,35.872,35.872,0,0,1,7.039-1.233c1.341-.126,2.751-.217,4.212-.315s2.972-.209,4.519-.343c6.185-.535,11.754-1.325,15.768-1.993,2.007-.333,3.626-.632,4.745-.84l1.288-.243.336-.061C144.526,271.544,144.566,271.54,144.566,271.54Z" transform="translate(-100.635 -271.54)"/></g><g transform="translate(138 33.064)"><path class="e" d="M681.8,339.736c0,.034-2.407.061-5.376.061s-5.377-.027-5.377-.061,2.407-.061,5.377-.061S681.8,339.7,681.8,339.736Z" transform="translate(-671.049 -339.674)"/></g><g transform="translate(44.016 39.207)"><path class="e" d="M334.315,365.714c0,.034-13.589.061-30.347.061s-30.351-.027-30.351-.061,13.586-.062,30.351-.062S334.315,365.68,334.315,365.714Z" transform="translate(-273.617 -365.652)"/></g><g transform="translate(0.986 33.267)"><path class="e" d="M100.238,340.6c0,.034-1.921.062-4.291.062s-4.291-.028-4.291-.062,1.921-.061,4.291-.061S100.238,340.561,100.238,340.6Z" transform="translate(-91.655 -340.534)"/></g><g transform="translate(133.379 6.941)"><path class="f" d="M652.635,229.206s-1.613,1.806-.979,3.131,7.185,5.963,7.185,5.963l4.756.892Z" transform="translate(-651.509 -229.206)"/></g><g transform="translate(88.221 3.71)"><path class="f" d="M461.618,215.543l-1.07,11.548,19.136-.545,7.713-4.483-4.993-6.52Z" transform="translate(-460.548 -215.543)"/></g><g transform="translate(53.273 3.686)"><path class="f" d="M312.761,227.6s11.544-8.337,16.1-9.995a29.093,29.093,0,0,1,10.817-2.117c3.947-.112,6.352,0,6.352,0l-3.051,11.741Z" transform="translate(-312.761 -215.442)"/></g><g transform="translate(51.579 11.929)"><g transform="translate(0.004 0.057)"><path class="h" d="M305.616,254.442h0a2.023,2.023,0,0,1,1.032-1.764l2.652-1.49a5.055,5.055,0,0,1,2.476-.648h0a5.051,5.051,0,0,1,1.574.251,2.874,2.874,0,0,1,1.933,2.64h0a2.922,2.922,0,0,1-2.92,3.033h-4.725A2.023,2.023,0,0,1,305.616,254.442Z" transform="translate(-305.616 -250.541)"/></g><path class="e" d="M305.6,254.259c.007,0,.008.089.031.256a2.017,2.017,0,0,0,1.046,1.493,2,2,0,0,0,.682.215,7.869,7.869,0,0,0,.815.015l4.045-.013a3.083,3.083,0,0,0,1.126-.184,2.878,2.878,0,0,0,1-.636,2.845,2.845,0,0,0,.675-1.025,2.93,2.93,0,0,0,.176-1.251,2.866,2.866,0,0,0-1.194-2.117,3.042,3.042,0,0,0-1.1-.462,5.007,5.007,0,0,0-3.221.309c-.305.136-.584.309-.861.459l-.79.439-1.359.753a2.02,2.02,0,0,0-.812.8,2.058,2.058,0,0,0-.235.692c-.024.167-.022.257-.029.256a1.247,1.247,0,0,1,0-.259,1.966,1.966,0,0,1,.218-.712,2.051,2.051,0,0,1,.821-.838l1.351-.769.786-.446c.275-.151.552-.326.865-.468a5.092,5.092,0,0,1,3.29-.33,3.156,3.156,0,0,1,1.138.477,2.982,2.982,0,0,1,1.247,2.206,3.044,3.044,0,0,1-.185,1.3,2.993,2.993,0,0,1-1.749,1.727,3.19,3.19,0,0,1-1.167.188l-4.045-.013a7.842,7.842,0,0,1-.826-.025,2.07,2.07,0,0,1-.7-.232,2.1,2.1,0,0,1-.822-.838,1.967,1.967,0,0,1-.215-.713A1.54,1.54,0,0,1,305.6,254.259Z" transform="translate(-305.598 -250.301)"/></g><g transform="translate(103.861 25.778)"><path class="a" d="M563.351,329.781s0-.056.007-.164.018-.272.032-.48.038-.472.052-.781.023-.666.036-1.066,0-.848-.007-1.336c-.031-.487-.034-1.019-.1-1.586a20.514,20.514,0,0,0-.684-3.8,17.048,17.048,0,0,0-.753-2.117,14.127,14.127,0,0,0-1.141-2.149,14.641,14.641,0,0,0-3.7-3.859,17.465,17.465,0,0,0-5.3-2.614,22.13,22.13,0,0,0-6.3-.84,20.714,20.714,0,0,0-6.291.915,17.739,17.739,0,0,0-2.8,1.156,16.143,16.143,0,0,0-2.431,1.588,20.282,20.282,0,0,0-3.745,3.841,14.988,14.988,0,0,0-1.245,2.09,20.852,20.852,0,0,0-.861,2.078,24.761,24.761,0,0,0-1.365,6.636c-.038.8-.034,1.426-.013,1.848.012.208.021.368.028.48s.005.164.005.164-.008-.055-.018-.163-.022-.272-.04-.48a18.379,18.379,0,0,1-.009-1.851,24.389,24.389,0,0,1,1.33-6.662,20.815,20.815,0,0,1,.858-2.09,15.043,15.043,0,0,1,1.248-2.109,20.316,20.316,0,0,1,3.758-3.87,16.177,16.177,0,0,1,2.446-1.6,17.789,17.789,0,0,1,2.818-1.167,20.772,20.772,0,0,1,6.328-.923,22.184,22.184,0,0,1,6.338.847,17.544,17.544,0,0,1,5.336,2.638,16.14,16.14,0,0,1,2.091,1.834,12.841,12.841,0,0,1,1.624,2.061,14.148,14.148,0,0,1,1.143,2.167,17.054,17.054,0,0,1,.75,2.131,20.4,20.4,0,0,1,.669,3.821c.063.569.062,1.1.09,1.59,0,.49,0,.937,0,1.339s-.034.758-.048,1.068-.047.569-.064.78-.034.367-.044.479S563.351,329.781,563.351,329.781Z" transform="translate(-526.686 -308.862)"/></g><g transform="translate(31.898 25.727)"><path class="k" d="M222.372,308.648" transform="translate(-222.372 -308.648)"/></g><g transform="translate(61.815 17.046)"><path class="a" d="M370.054,271.963a.185.185,0,0,1-.055.006l-.161.007-.617.013-2.268.041c-1.915.036-4.56.106-7.482.186s-5.57.136-7.486.15c-.958.007-1.733.008-2.269,0l-.617-.009-.16-.005a.188.188,0,0,1-.055-.006.191.191,0,0,1,.055-.007l.16-.007.617-.013,2.268-.041c1.915-.036,4.561-.106,7.484-.186s5.568-.136,7.484-.15c.958-.007,1.733-.008,2.269,0l.617.009.16.005A.185.185,0,0,1,370.054,271.963Z" transform="translate(-348.885 -271.938)"/></g><g transform="translate(75.705 20.566)"><path class="a" d="M411.765,286.885a34.931,34.931,0,0,1-4.144,0,34.81,34.81,0,0,1,4.144,0Z" transform="translate(-407.621 -286.823)"/></g><g transform="translate(69.074 7.972)"><path class="a" d="M391.116,233.567c.013.032-2.559,1.1-5.744,2.391s-5.778,2.309-5.791,2.277,2.559-1.1,5.745-2.391S391.1,233.535,391.116,233.567Z" transform="translate(-379.582 -233.566)"/></g><g transform="translate(64.41 8.78)"><path class="a" d="M370.846,236.982c.013.031-2.435,1.11-5.469,2.409s-5.5,2.327-5.518,2.3,2.435-1.11,5.47-2.409S370.833,236.951,370.846,236.982Z" transform="translate(-359.859 -236.981)"/></g><g transform="translate(96.913 7.525)"><path class="a" d="M508.839,231.676c.013.031-2.559,1.1-5.744,2.391s-5.778,2.309-5.791,2.278,2.559-1.1,5.745-2.392S508.827,231.644,508.839,231.676Z" transform="translate(-497.305 -231.675)"/></g><g transform="translate(92.249 8.332)"><path class="a" d="M488.569,235.091c.014.031-2.435,1.11-5.469,2.409s-5.5,2.327-5.518,2.3,2.435-1.11,5.47-2.409S488.556,235.06,488.569,235.091Z" transform="translate(-477.582 -235.09)"/></g><g transform="translate(86.102 17.046)"><path class="a" d="M474.436,271.962c0,.034-5.115.092-11.423.13s-11.425.041-11.425.007,5.114-.092,11.424-.13S474.436,271.928,474.436,271.962Z" transform="translate(-451.588 -271.938)"/></g><g transform="translate(108.206 20.391)"><path class="a" d="M551.468,286.122c0,.034-1.434.075-3.2.092s-3.205,0-3.205-.032,1.434-.075,3.2-.091S551.467,286.088,551.468,286.122Z" transform="translate(-545.059 -286.084)"/></g><g transform="translate(3.934 18.679)"><path class="a" d="M116.863,278.845a.617.617,0,0,1-.139.027l-.4.053c-.174.02-.387.046-.633.087s-.528.075-.835.137c-.618.107-1.347.269-2.147.482s-1.666.5-2.557.845-1.714.739-2.45,1.119-1.377.765-1.9,1.106c-.268.163-.5.329-.705.467s-.382.263-.523.366l-.33.234a.622.622,0,0,1-.12.075.608.608,0,0,1,.1-.095l.316-.253c.137-.11.308-.241.512-.385s.432-.315.7-.484c.521-.352,1.165-.738,1.9-1.133a23.274,23.274,0,0,1,5.031-1.973c.806-.208,1.54-.362,2.162-.459.31-.057.593-.086.84-.119s.462-.054.637-.066l.4-.03A.6.6,0,0,1,116.863,278.845Z" transform="translate(-104.119 -278.842)"/></g><g transform="translate(51.848 12.455)"><path class="a" d="M313.794,253.172c-.009.007-.07-.093-.228-.22a1.569,1.569,0,0,0-.781-.315,3.4,3.4,0,0,0-1.261.136,9.572,9.572,0,0,0-1.489.507,9.746,9.746,0,0,0-2.422,1.506c-.562.472-.859.82-.877.8a1.59,1.59,0,0,1,.2-.252,7.784,7.784,0,0,1,.62-.618,9.1,9.1,0,0,1,3.941-2.057,3.357,3.357,0,0,1,1.3-.112,1.536,1.536,0,0,1,.8.365,1.04,1.04,0,0,1,.158.182C313.785,253.143,313.8,253.17,313.794,253.172Z" transform="translate(-306.736 -252.525)"/></g><g transform="translate(109.963 2.287)"><path class="e" d="M577.567,214.095a3.8,3.8,0,0,1-1.007.1,6.22,6.22,0,0,1-1.181-.146,10.6,10.6,0,0,1-1.5-.464c-.546-.206-1.129-.467-1.757-.736l-.982-.4c-.338-.135-.694-.251-1.055-.382a41.067,41.067,0,0,0-4.82-1.313,55.314,55.314,0,0,0-9.007-1.121c-.581-.031-1.107-.032-1.569-.045H553.5l-.749.017h-.2a.034.034,0,1,1,0-.013l.194-.013.749-.04,1.187-.021c.463.006.99,0,1.572.027a52.542,52.542,0,0,1,9.029,1.088,39.927,39.927,0,0,1,4.831,1.327c.362.134.718.252,1.057.389l.983.4c.628.273,1.207.538,1.748.748a10.856,10.856,0,0,0,1.489.479,6.445,6.445,0,0,0,1.167.165,5.281,5.281,0,0,0,.745-.028l.193-.023A.27.27,0,0,1,577.567,214.095Z" transform="translate(-552.489 -209.524)"/></g></g></g><g transform="translate(591.379 1443.22)"><g transform="translate(0 0)"><g transform="translate(10.824 11.174)"><g transform="translate(0.473)"><path class="h" d="M124.8,192.573a45.613,45.613,0,0,0-2.476-9.07c-.619-2.059-1.619-3.438-2.858-3.915-.835-.321-5-1.824-6.451-1.326a18.067,18.067,0,0,0-4.021,2.02,5.388,5.388,0,0,0-2.1,2.683l-2.229,6.247,3.9,3.888,1.954-4.153,2.12,4.97-.314,5.025,12.162,3.272C125.594,200.443,125.427,196.01,124.8,192.573Z" transform="translate(-104.665 -178.162)"/></g><g transform="translate(9.242 7.805)"><g class="l"><path d="M144.544,206.362c-.537,3.152-.623,3.588-1.159,6.74a7.657,7.657,0,0,1-1.494,3.552,4.138,4.138,0,0,1-1.922,1.325,4.6,4.6,0,0,1-2.551-.112,2.262,2.262,0,0,1-1-2.354c1.031.221,1.349.566,2.239,0a7.767,7.767,0,0,0,2.3-2.4c1.774-3.433,2.262-3.555,3.588-6.751" transform="translate(-136.345 -206.362)"/></g></g><g transform="translate(5.05 8.157)"><path class="e" d="M124.79,213.388a7.391,7.391,0,0,1-.537-.838L123,210.507l-1.284-2.025a7.386,7.386,0,0,1-.516-.85.951.951,0,0,1,.174.2c.1.137.25.338.427.59.353.5.825,1.209,1.322,2s.923,1.53,1.219,2.068c.148.269.265.489.342.643A.973.973,0,0,1,124.79,213.388Z" transform="translate(-121.199 -207.632)"/></g><g transform="translate(9.803 18.231)"><path class="e" d="M145.7,245.366a1.251,1.251,0,0,1-.286.107,3.033,3.033,0,0,1-.345.1c-.136.031-.29.073-.464.1a7.664,7.664,0,0,1-1.231.112,7.986,7.986,0,0,1-2.966-.541,7.642,7.642,0,0,1-1.112-.539c-.155-.084-.284-.178-.4-.255a3.094,3.094,0,0,1-.289-.211,1.222,1.222,0,0,1-.229-.2c.016-.022.358.246.968.579a8.641,8.641,0,0,0,1.109.5,8.536,8.536,0,0,0,2.919.533,8.653,8.653,0,0,0,1.215-.079C145.274,245.47,145.688,245.34,145.7,245.366Z" transform="translate(-138.374 -244.029)"/></g><g transform="translate(0 1.756)"><g transform="translate(0 3.909)"><path class="m" d="M115.2,203.1c-.021.108-1.329,2.71-1.329,2.71l-6.166-3.249-.63-2.658a1.654,1.654,0,0,0-2-1.225l-1.819.745a.486.486,0,0,0-.3.352c-.025.135.008.265.24.247.452-.035,1.393-.135,1.393-.135l-.429,1.514a1.613,1.613,0,0,0,.122,1.187l.273.524.6.972-.012.009s5.994,6.157,9.36,6.558c2.022.241,4.315-5.431,4.315-5.431Z" transform="translate(-102.956 -198.629)"/><g transform="translate(1.468 1.079)"><g transform="translate(0.119)"><path class="n" d="M108.691,202.8c-.007-.01.046-.064.15-.133a.805.805,0,0,1,.467-.144.493.493,0,0,1,.414.265c.056.124.018.208.01.2s-.006-.079-.066-.174a.475.475,0,0,0-.362-.206.923.923,0,0,0-.431.11C108.764,202.779,108.7,202.815,108.691,202.8Z" transform="translate(-108.69 -202.527)"/></g><g transform="translate(0 0.757)"><path class="n" d="M109.156,205.727c-.013,0-.04-.05-.1-.123a.677.677,0,0,0-.64-.253c-.093.012-.15.034-.157.022s.043-.053.143-.084a.614.614,0,0,1,.706.279C109.161,205.658,109.167,205.724,109.156,205.727Z" transform="translate(-108.26 -205.263)"/></g></g></g><g transform="translate(11.855 0.159)"><path class="h" d="M147.458,185.086,145.788,193l4.426,2.66,1.7-4.863S151.211,184.891,147.458,185.086Z" transform="translate(-145.788 -185.081)"/></g><g transform="translate(3.426 0.302)"><path class="b" d="M127.819,185.6a.461.461,0,0,1-.113.071c-.076.042-.189.1-.337.177-.294.15-.724.36-1.264.6a18.594,18.594,0,0,1-4.4,1.387,10.989,10.989,0,0,1-4.6-.156,7.841,7.841,0,0,1-1.319-.474c-.152-.066-.262-.133-.34-.173a.46.46,0,0,1-.113-.07,4.591,4.591,0,0,1,.475.192,9.189,9.189,0,0,0,1.322.426,11.422,11.422,0,0,0,4.551.112,20.165,20.165,0,0,0,4.384-1.338c.543-.227.978-.423,1.28-.557A3.694,3.694,0,0,1,127.819,185.6Z" transform="translate(-115.334 -185.598)"/></g><g transform="translate(2.712 1.176)"><path class="b" d="M127.118,188.757a.589.589,0,0,1-.123.09l-.368.235a6.748,6.748,0,0,1-.6.347c-.238.125-.5.281-.815.415l-.484.222c-.169.076-.351.14-.536.215-.368.154-.777.279-1.2.418a16.651,16.651,0,0,1-5.773.683c-.448-.036-.874-.061-1.268-.125-.2-.029-.389-.049-.571-.083l-.523-.1c-.334-.058-.629-.147-.89-.213a6.772,6.772,0,0,1-.661-.2l-.412-.143a.594.594,0,0,1-.14-.059.619.619,0,0,1,.149.032l.419.117c.18.055.4.118.665.174s.556.14.89.192l.521.093c.181.032.372.048.569.075.392.059.815.079,1.259.111a17.3,17.3,0,0,0,5.728-.678c.424-.135.831-.254,1.2-.4.185-.071.366-.132.535-.205l.484-.213c.313-.128.58-.276.82-.394s.443-.229.606-.324l.381-.211A.618.618,0,0,1,127.118,188.757Z" transform="translate(-112.755 -188.756)"/></g><g transform="translate(11.576)"><path class="e" d="M149.483,195.245a2.57,2.57,0,0,1-.359-.183l-.975-.547L144.82,192.6l-.043-.025.01-.048.378-1.88.568-2.776c.092-.426.166-.832.25-1.213a4.365,4.365,0,0,1,.355-1.029,2.066,2.066,0,0,1,1.145-1.048,1.306,1.306,0,0,1,.423-.07.452.452,0,0,1,.148.016,1.979,1.979,0,0,0-.553.107,2.05,2.05,0,0,0-1.072,1.041,4.361,4.361,0,0,0-.329,1.009l-.236,1.212-.557,2.779-.383,1.879-.033-.073,3.3,1.962.954.582A2.546,2.546,0,0,1,149.483,195.245Z" transform="translate(-144.777 -184.508)"/></g></g><g transform="translate(16.364 7.396)"><path class="e" d="M163.349,204.883a3,3,0,0,1-.022.738,11.4,11.4,0,0,1-.9,3.436,3.017,3.017,0,0,1-.344.653,4.866,4.866,0,0,1,.25-.692,16.266,16.266,0,0,0,.9-3.41A4.909,4.909,0,0,1,163.349,204.883Z" transform="translate(-162.077 -204.883)"/></g></g><g transform="translate(0 26.395)"><g transform="translate(0 36.191)"><g transform="translate(0.002)"><path class="f" d="M68.3,363.905l-.049,4.226s-4.312,1.369-4.4,2.149l8.19.389.346-6.581Z" transform="translate(-63.857 -363.905)"/></g><g transform="translate(6.534 3.973)"><path class="c" d="M87.87,378.278a.335.335,0,0,1,.213.393.322.322,0,0,1-.388.214.353.353,0,0,1-.223-.417.334.334,0,0,1,.428-.179" transform="translate(-87.456 -378.261)"/></g><g transform="translate(0 5.975)"><path class="c" d="M72.042,386.281l.009-.665-7.856-.125s-.372.141-.343.4Z" transform="translate(-63.851 -385.492)"/></g><g transform="translate(4.267 4.146)"><path class="e" d="M79.268,378.916c0,.04.2.068.389.206s.288.311.325.3-.011-.248-.245-.411S79.261,378.879,79.268,378.916Z" transform="translate(-79.267 -378.884)"/></g><g transform="translate(3.391 4.478)"><path class="e" d="M76.1,380.1c-.011.039.159.115.287.29s.159.356.2.357.076-.225-.087-.44S76.105,380.059,76.1,380.1Z" transform="translate(-76.102 -380.083)"/></g><g transform="translate(2.567 4.793)"><path class="e" d="M73.412,381.924c.036.01.1-.187.009-.411s-.275-.32-.294-.288.092.155.165.34S73.373,381.918,73.412,381.924Z" transform="translate(-73.124 -381.22)"/></g><g transform="translate(4.384 3.09)"><path class="e" d="M79.692,375.194c.015.037.2-.009.426.017s.4.106.421.072-.14-.184-.406-.211S79.674,375.161,79.692,375.194Z" transform="translate(-79.691 -375.068)"/></g><g class="o" transform="translate(4.429 0.837)"><path d="M79.861,366.929l-.01.753,4.027.155.037-.677Z" transform="translate(-79.851 -366.929)"/></g><g transform="translate(4.411 1.752)"><path class="e" d="M79.787,370.847a.768.768,0,0,0,.41.017,1.849,1.849,0,0,0,.435-.111,1.933,1.933,0,0,0,.242-.114.5.5,0,0,0,.128-.091.175.175,0,0,0,.029-.212.22.22,0,0,0-.171-.1.531.531,0,0,0-.155.014,1.475,1.475,0,0,0-.259.075,1.451,1.451,0,0,0-.39.23c-.2.167-.27.313-.257.322s.116-.107.316-.243a1.633,1.633,0,0,1,.376-.189,1.532,1.532,0,0,1,.239-.061c.088-.019.162-.016.182.024.007.015.008.021-.011.045a.4.4,0,0,1-.094.066,2.2,2.2,0,0,1-.223.114,2.318,2.318,0,0,1-.4.133A2.854,2.854,0,0,0,79.787,370.847Z" transform="translate(-79.787 -370.236)"/></g><g transform="translate(3.964 1.107)"><path class="e" d="M78.669,369.22a.65.65,0,0,0,.127-.391,1.328,1.328,0,0,0-.127-.706.339.339,0,0,0-.252-.22.192.192,0,0,0-.177.106.559.559,0,0,0-.049.148.912.912,0,0,0-.013.276.945.945,0,0,0,.155.432c.15.22.315.275.319.262s-.122-.1-.234-.313a.947.947,0,0,1-.112-.392.847.847,0,0,1,.019-.237c.017-.086.053-.155.085-.145s.107.07.137.141a1.372,1.372,0,0,1,.091.227,1.486,1.486,0,0,1,.06.413C78.7,369.065,78.647,369.213,78.669,369.22Z" transform="translate(-78.172 -367.903)"/></g></g><g transform="translate(0.323)"><path class="e" d="M85.833,238.757s-12.79-5.365-16.751-5.594c-2.484-.144-4.362,1.451-4.025,4.021.169,1.286,3.7,16.334,3.7,16.334l5.392-2.463-2.589-10.4,10.506,5.108Z" transform="translate(-65.018 -233.154)"/><g transform="translate(4.927 4.863)"><path class="f" d="M82.822,250.725c-.042.035.383.582.828,1.3s.746,1.345.8,1.324a5.883,5.883,0,0,0-1.624-2.629Z" transform="translate(-82.819 -250.723)"/></g><g transform="translate(3.882 5.459)"><path class="f" d="M79.044,252.878a14.994,14.994,0,0,0,1.376,1.015,14.992,14.992,0,0,0,1.38,1.01,7.991,7.991,0,0,0-2.756-2.026Z" transform="translate(-79.043 -252.875)"/></g></g><g transform="translate(3.448 5.603)"><path class="e" d="M103.978,256.626a9.486,9.486,0,0,1-3.143,2.639c-1.928.713-16.18,7.437-16.18,7.437s-2.585,19.2-2.38,18.4l-5.965-.144.649-17.69a8.229,8.229,0,0,1,3.843-6.023L94,253.4Z" transform="translate(-76.309 -253.398)"/><g transform="translate(0.522 0.924)"><path class="f" d="M78.208,272.925a1.168,1.168,0,0,0,.024-.242c.009-.179.022-.409.037-.7a23.359,23.359,0,0,1,.236-2.543,8.773,8.773,0,0,1,1.289-3.507,6.65,6.65,0,0,1,1.533-1.583,18.213,18.213,0,0,1,2.024-1.281c2.87-1.645,5.348-3.321,7.179-4.471.912-.581,1.655-1.044,2.17-1.36l.593-.366a1.176,1.176,0,0,0,.2-.138,1.2,1.2,0,0,0-.22.1c-.141.075-.348.185-.611.335-.528.3-1.282.743-2.2,1.31-1.851,1.122-4.341,2.781-7.2,4.42a17.923,17.923,0,0,0-2.043,1.3,6.764,6.764,0,0,0-1.566,1.634,8.745,8.745,0,0,0-1.276,3.583,19.9,19.9,0,0,0-.178,2.561c0,.287,0,.518,0,.7A1.2,1.2,0,0,0,78.208,272.925Z" transform="translate(-78.195 -256.738)"/></g></g><g transform="translate(24.676 7.005)"><path class="f" d="M154.18,262.312a5.105,5.105,0,0,0-.365-.491,3.566,3.566,0,0,1-.559-2.764,5.011,5.011,0,0,0,.145-.595,1.3,1.3,0,0,0-.274.562,3.182,3.182,0,0,0,.582,2.878A1.3,1.3,0,0,0,154.18,262.312Z" transform="translate(-153.003 -258.462)"/></g><g transform="translate(5.637 6.281)"><path class="f" d="M84.219,286.733a.393.393,0,0,0,.019-.1l.036-.29.119-1.118c.1-.986.235-2.389.4-4.116l.27-2.843c.1-1.022.2-2.115.281-3.266s.2-2.355.408-3.589a14.788,14.788,0,0,1,1.1-3.693,12.386,12.386,0,0,1,2.166-3.175,19.436,19.436,0,0,1,2.7-2.38,54.593,54.593,0,0,1,5.191-3.241c1.514-.87,2.72-1.611,3.523-2.17.4-.276.709-.5.912-.659l.23-.181a.386.386,0,0,0,.074-.067.4.4,0,0,0-.086.051l-.241.166c-.21.147-.522.363-.931.629-.813.539-2.026,1.261-3.548,2.115a52.273,52.273,0,0,0-5.229,3.217,19.4,19.4,0,0,0-2.733,2.394,12.486,12.486,0,0,0-2.2,3.222,14.86,14.86,0,0,0-1.107,3.741c-.209,1.244-.314,2.455-.4,3.607s-.172,2.244-.264,3.266l-.247,2.844c-.144,1.729-.262,3.133-.345,4.12-.036.476-.064.851-.084,1.121-.007.12-.012.216-.017.292A.413.413,0,0,0,84.219,286.733Z" transform="translate(-84.216 -255.847)"/></g></g><g transform="translate(11.858)"><path class="e" d="M114.521,139.326a2.331,2.331,0,0,0-2.666-1.434,2.88,2.88,0,0,1-.743.16,5.358,5.358,0,0,1-.9-.238,1.354,1.354,0,0,0-1.527.99,1.844,1.844,0,0,0-1.521.3,1.2,1.2,0,0,0-.355,1.434c.108.2.285.362.384.569a8.322,8.322,0,0,1,.2,1.11,1.5,1.5,0,0,0,1.29.926,4.4,4.4,0,0,0,1.652-.237" transform="translate(-106.693 -137.791)"/><g transform="translate(1.45 1.157)"><g transform="translate(0.438 0.81)"><path class="m" d="M116.887,155.413c-.07-.536-.116-.911-.116-.911a2.859,2.859,0,0,1-2.5-2.222,24.532,24.532,0,0,1-.74-4.482,2.423,2.423,0,0,1,2.285-2.651l4.738-.248.1.734,1.249,9.111a2.53,2.53,0,0,1-2.178,2.852h0A2.531,2.531,0,0,1,116.887,155.413Z" transform="translate(-113.516 -144.899)"/><g transform="translate(0.558 3.391)"><g transform="translate(0.123 0.504)"><path class="e" d="M115.976,159.284a.294.294,0,0,0,.327.249.281.281,0,0,0,.258-.31.294.294,0,0,0-.327-.249A.281.281,0,0,0,115.976,159.284Z" transform="translate(-115.974 -158.973)"/></g><path class="e" d="M115.538,157.556c.042.032.237-.166.549-.215s.567.071.595.027c.014-.02-.033-.082-.145-.139a.805.805,0,0,0-.484-.069.776.776,0,0,0-.43.218C115.539,157.468,115.517,157.542,115.538,157.556Z" transform="translate(-115.531 -157.15)"/></g><g transform="translate(3.642 2.961)"><g transform="translate(0.011 0.43)"><path class="e" d="M126.717,157.462a.3.3,0,0,0,.327.249.282.282,0,0,0,.258-.31.3.3,0,0,0-.327-.249A.282.282,0,0,0,126.717,157.462Z" transform="translate(-126.715 -157.15)"/></g><path class="e" d="M126.681,156c.042.032.237-.166.549-.215s.567.071.6.027c.014-.02-.033-.082-.145-.139a.808.808,0,0,0-.484-.069.774.774,0,0,0-.43.218C126.682,155.913,126.66,155.987,126.681,156Z" transform="translate(-126.674 -155.595)"/></g><g transform="translate(2.045 3.238)"><path class="e" d="M121.743,159.226a2.093,2.093,0,0,0-.523-.011c-.081,0-.159,0-.181-.052a.411.411,0,0,1,.016-.245l.14-.646a10.571,10.571,0,0,0,.278-1.675,10.6,10.6,0,0,0-.412,1.649l-.129.648a.469.469,0,0,0,.008.32.2.2,0,0,0,.15.1.551.551,0,0,0,.139,0A2.055,2.055,0,0,0,121.743,159.226Z" transform="translate(-120.906 -156.597)"/></g><g transform="translate(3.255 8.311)"><path class="n" d="M125.275,176.216a5.838,5.838,0,0,0,2.907-1.292,2.91,2.91,0,0,1-2.791,1.823Z" transform="translate(-125.275 -174.924)"/></g><g transform="translate(2.972 5.937)"><path class="e" d="M125.12,166.347c-.051.005,0,.345-.25.632s-.62.307-.615.355c0,.022.091.053.244.033a.855.855,0,0,0,.516-.277.745.745,0,0,0,.188-.526C125.194,166.42,125.143,166.342,125.12,166.347Z" transform="translate(-124.255 -166.347)"/></g></g><g transform="translate(3.808 2.617)"><path class="e" d="M125.693,151.773c.045.08.35-.01.724-.024s.687.039.724-.045c.016-.04-.048-.112-.181-.175a1.26,1.26,0,0,0-1.1.053C125.731,151.657,125.673,151.735,125.693,151.773Z" transform="translate(-125.689 -151.427)"/></g><g transform="translate(0.961 3.263)"><path class="e" d="M115.417,154.181c.066.062.27-.046.529-.091s.486-.028.525-.111c.017-.04-.029-.105-.136-.157a.777.777,0,0,0-.849.162C115.405,154.072,115.387,154.15,115.417,154.181Z" transform="translate(-115.403 -153.76)"/></g><path class="e" d="M112.146,144.688a3.262,3.262,0,0,0,2.694-.54c.945-.631,2.09-1.026,2.375-.856s.471,1.2,1.509,1.38c0,0,.183,1.992.965,1.822.557-.122.231-2.32,0-3.573a1.094,1.094,0,0,0-1.034-.891l-1.46-.056-1.822.508-1.954.533-1.486.616Z" transform="translate(-111.932 -141.972)"/><g transform="translate(7.583 3.543)"><path class="m" d="M139.327,154.944c.03-.021,1.239-.657,1.463.663a1.007,1.007,0,0,1-1.156,1.235C139.625,156.8,139.327,154.944,139.327,154.944Z" transform="translate(-139.327 -154.772)"/><g transform="translate(0.558 0.411)"><path class="n" d="M141.409,157.348c.005-.005.026.012.068.024a.234.234,0,0,0,.172-.026.577.577,0,0,0,.177-.555.769.769,0,0,0-.12-.318.268.268,0,0,0-.2-.147.118.118,0,0,0-.125.086c-.012.04,0,.065-.005.068s-.032-.017-.031-.074a.148.148,0,0,1,.038-.091.176.176,0,0,1,.122-.055.329.329,0,0,1,.275.164.791.791,0,0,1,.142.354.605.605,0,0,1-.239.627.25.25,0,0,1-.216,0C141.417,157.379,141.4,157.351,141.409,157.348Z" transform="translate(-141.342 -156.258)"/></g></g></g><g transform="translate(2.297 0.519)"><path class="f" d="M114.995,139.673c.011-.005.046.07.139.177a1.142,1.142,0,0,0,.5.32,1.654,1.654,0,0,0,.879.039,7.868,7.868,0,0,0,1.065-.339,2.918,2.918,0,0,1,1.131-.2,1.242,1.242,0,0,1,.859.386.918.918,0,0,1,.264.578.387.387,0,0,1-.04.229c-.013,0,0-.084-.016-.224a.921.921,0,0,0-.281-.513,1.164,1.164,0,0,0-.794-.325,2.943,2.943,0,0,0-1.076.205,6.98,6.98,0,0,1-1.088.333,1.693,1.693,0,0,1-.938-.074,1.1,1.1,0,0,1-.508-.381A.421.421,0,0,1,114.995,139.673Z" transform="translate(-114.993 -139.665)"/></g><g transform="translate(0.566 1.319)"><path class="f" d="M114.929,143.028c-.01.009-.067-.07-.2-.165a1.225,1.225,0,0,0-.665-.2,2.142,2.142,0,0,0-1.008.246,10.512,10.512,0,0,1-1.2.561,2.987,2.987,0,0,1-2.365-.259,2.593,2.593,0,0,1-.582-.447.808.808,0,0,1-.167-.211,4.842,4.842,0,0,0,.8.568,3.007,3.007,0,0,0,2.272.211,12.4,12.4,0,0,0,1.19-.545,2.161,2.161,0,0,1,1.069-.227,1.2,1.2,0,0,1,.693.254A.5.5,0,0,1,114.929,143.028Z" transform="translate(-108.736 -142.557)"/></g></g><g transform="translate(8.801 17.995)"><path class="h" d="M95.649,202.8" transform="translate(-95.649 -202.803)"/></g><g transform="translate(4.205 12.772)"><g transform="translate(1.765 6.032)"><path class="m" d="M93.967,211.207l-6.428-5.479-2.119.479s2.233,4.643,3.85,6.345a3.8,3.8,0,0,0,4.232,1.214C96.135,212.843,93.967,211.207,93.967,211.207Z" transform="translate(-85.42 -205.728)"/></g><path class="f" d="M82.442,183.934H79.71a.693.693,0,0,0-.634.871l2.747,5.351a.622.622,0,0,0,.553.338l3.331-.007a.477.477,0,0,0,.363-.705l-2.651-5.239A1.088,1.088,0,0,0,82.442,183.934Z" transform="translate(-79.043 -183.934)"/><g transform="translate(0.024 0.322)"><path class="e" d="M82.32,185.1H79.589a.457.457,0,0,0-.408.665L81.863,191a.622.622,0,0,0,.553.338h3.293a.269.269,0,0,0,.241-.39L83.3,185.707A1.089,1.089,0,0,0,82.32,185.1Z" transform="translate(-79.13 -185.098)"/></g><g transform="translate(0.964 2.514)"><path class="m" d="M84.545,193.016l-1.662.664-.357,1.34.8,1.994,2.938.427-.861-.879.111-.766s.82-.257.84-.383-.1-.546-.227-.566a6.291,6.291,0,0,0-.985.3s1.017-.805.989-.935-.138-.46-.341-.5a12.016,12.016,0,0,0-1.845.737l-.267.608-.233-.972S84.906,193.679,84.545,193.016Z" transform="translate(-82.526 -193.016)"/><g transform="translate(2.165 2.114)"><path class="n" d="M90.41,201.68c-.01,0-.041-.058-.056-.166a.9.9,0,0,1,.285-.771c.082-.072.145-.1.151-.089a1.271,1.271,0,0,0-.379,1.025Z" transform="translate(-90.346 -200.653)"/></g><g transform="translate(1.437 1.039)"><path class="n" d="M87.718,198.581a3.62,3.62,0,0,0,.066-.436,1.9,1.9,0,0,1,.084-.482.71.71,0,0,1,.153-.257.757.757,0,0,1,.272-.171c.4-.144.755-.261,1.017-.345a2.316,2.316,0,0,1,.43-.118,2.3,2.3,0,0,1-.409.175c-.255.1-.616.226-1.006.368a.7.7,0,0,0-.244.15.655.655,0,0,0-.139.226,2.109,2.109,0,0,0-.1.462A.891.891,0,0,1,87.718,198.581Z" transform="translate(-87.717 -196.769)"/></g><g transform="translate(1.042 1.908)"><path class="n" d="M86.3,200.552c-.023,0-.019-.151.011-.328s.072-.318.1-.314.019.151-.011.328S86.328,200.556,86.3,200.552Z" transform="translate(-86.29 -199.911)"/></g></g><g transform="translate(1.976 0.984)"><path class="g" d="M86.182,187.836a.348.348,0,1,0,.348-.348A.348.348,0,0,0,86.182,187.836Z" transform="translate(-86.182 -187.488)"/></g></g></g></g><g transform="translate(582.778 1499.926)"><g transform="translate(0 0)"><g transform="translate(3.596)"><path class="h" d="M47.382,379.358a3.374,3.374,0,0,1,2.016,1.709,5.959,5.959,0,0,1,.616,2.622,10.515,10.515,0,0,1-1.525,5.164c-1.636-1.055-2.291-3.216-2.554-4.333-.417-1.766-.1-5.209,1.447-5.162" transform="translate(-45.769 -379.357)"/></g><g transform="translate(8.244 7.966)"><path class="h" d="M62.736,412.267a2.879,2.879,0,0,1,.526-2.843,3.824,3.824,0,0,1,2.664-1.278,1.608,1.608,0,0,1,1.3.372,1.231,1.231,0,0,1,.2,1.232,2.5,2.5,0,0,1-.783,1.034,4.949,4.949,0,0,1-3.91,1.483" transform="translate(-62.561 -408.139)"/></g><g transform="translate(7.32 9.797)"><path class="e" d="M59.231,422.606a2.042,2.042,0,0,1,0-.361l.036-.982a10.1,10.1,0,0,1,.543-3.2,6.186,6.186,0,0,1,1.854-2.651,4.2,4.2,0,0,1,.837-.526,2.5,2.5,0,0,1,.248-.1.277.277,0,0,1,.09-.026,6.6,6.6,0,0,0-1.119.725,6.389,6.389,0,0,0-1.793,2.627,10.884,10.884,0,0,0-.572,3.161c-.03.414-.054.749-.077.981A1.882,1.882,0,0,1,59.231,422.606Z" transform="translate(-59.225 -414.754)"/></g><g transform="translate(5.197 2.645)"><path class="e" d="M51.555,388.912a.743.743,0,0,1,.04.152l.091.44c.077.383.181.938.3,1.625.246,1.374.559,3.278.857,5.387s.524,4.026.668,5.415c.072.694.126,1.257.158,1.646.014.184.025.332.035.448a.729.729,0,0,1,0,.157.728.728,0,0,1-.029-.154c-.015-.115-.034-.263-.058-.446l-.2-1.641c-.167-1.386-.407-3.3-.7-5.407s-.6-4.012-.819-5.39l-.264-1.632-.068-.445A.711.711,0,0,1,51.555,388.912Z" transform="translate(-51.553 -388.912)"/></g><g transform="translate(0 9.034)"><path class="h" d="M38.838,416.471a6.735,6.735,0,0,0-4.35-4.353,1.42,1.42,0,0,0-1.52.2,1.394,1.394,0,0,0,.105,1.528,5.754,5.754,0,0,0,5.751,2.774" transform="translate(-32.778 -411.997)"/></g><g transform="translate(2.183 10.755)"><path class="e" d="M40.666,418.216a1.7,1.7,0,0,1,.327.089,3.274,3.274,0,0,1,.375.135c.142.062.311.119.483.213a5.916,5.916,0,0,1,.562.308,6.654,6.654,0,0,1,.611.412,7.483,7.483,0,0,1,1.216,1.168,7.322,7.322,0,0,1,.9,1.428,6.322,6.322,0,0,1,.274.684,5.459,5.459,0,0,1,.179.616,4.957,4.957,0,0,1,.1.519,3,3,0,0,1,.046.4,1.7,1.7,0,0,1,.011.339c-.029,0-.049-.482-.244-1.232a5.922,5.922,0,0,0-.191-.6,6.717,6.717,0,0,0-.28-.669,7.62,7.62,0,0,0-.89-1.4,7.776,7.776,0,0,0-1.189-1.155,6.922,6.922,0,0,0-.595-.415c-.189-.128-.378-.224-.547-.317C41.122,418.378,40.657,418.242,40.666,418.216Z" transform="translate(-40.666 -418.215)"/></g></g></g></g></g></svg>