<svg xmlns="http://www.w3.org/2000/svg" width="167.607" height="133.286" viewBox="0 0 167.607 133.286"><defs><style>.a{fill:#fff;}.b{fill:#e0e0e0;}.c{fill:#fafafa;}.d{fill:#ebebeb;}.e{fill:#f5f5f5;}.f{fill:#263238;}.g{fill:#e8505b;}.h{opacity:0.24;}.i{opacity:0.3;}.j{fill:#455a64;}.k{fill:#ffbe9d;}.l{fill:#eb996e;}</style></defs><g transform="translate(-599 -1439)"><path class="a" d="M-1965.962,975.87c-15.12,3.321-30.576.21-45.724-1.3-9.973-.992-19.587.359-29.583,1.092-25.412,1.864-53.6-1.415-61.731-24.9-6.774-19.57,4.174-48.607,27.769-60.1,8.161-3.975,16.469-4.759,24.577-3.943,4.868.49,10.3,2.357,15.542.391,5.532-2.075,9.624-7.833,13.363-11.982,5.564-6.177,11.441-12.651,18.906-16.827,17.123-9.577,27.306-.24,32.45,15.111,2.5,7.463,3.829,15.241,5.844,22.831,2.857,10.766,9.054,18.585,16.035,27.248,6.214,7.717,12.031,16.74,11.029,26.53-1.135,11.11-11.145,20.222-22.306,24.106a53.543,53.543,0,0,1-6.171,1.739" transform="translate(2703.979 594.939)"/><g transform="translate(584.62 1398.332)"><g transform="translate(41.146 40.668)"><rect class="b" width="2.321" height="17.38" transform="translate(15.139 114.946) rotate(-90)"/><path class="c" d="M103.811,405.8a5.534,5.534,0,0,1,0,2.176,2.818,2.818,0,0,1-.111-1.087A2.772,2.772,0,0,1,103.811,405.8Z" transform="translate(-86.302 -293.083)"/><path class="c" d="M102.588,405.65a5.534,5.534,0,0,1,0,2.176,5.534,5.534,0,0,1,0-2.176Z" transform="translate(-85.458 -292.979)"/><path class="c" d="M148.088,405.8a5.383,5.383,0,0,1,0,2.176,2.784,2.784,0,0,1-.108-1.087A2.878,2.878,0,0,1,148.088,405.8Z" transform="translate(-116.912 -293.083)"/><path class="c" d="M146.861,405.65a5.534,5.534,0,0,1,0,2.176,2.828,2.828,0,0,1-.111-1.09A2.737,2.737,0,0,1,146.861,405.65Z" transform="translate(-116.062 -292.979)"/><path class="c" d="M119.841,409.238c0,.062-1.991.108-4.445.108s-4.445-.046-4.445-.108,1.991-.108,4.445-.108S119.841,409.176,119.841,409.238Z" transform="translate(-91.313 -295.385)"/><rect class="b" width="4.643" height="17.38" transform="translate(15.065 127.72) rotate(-90)"/><path class="c" d="M113.832,443.574a.553.553,0,0,1-.093.052c-.065.031-.161.077-.29.133a5,5,0,0,1-1.179.336,3.062,3.062,0,0,1-1.911-.272,2.513,2.513,0,0,1-.908-.821,1.917,1.917,0,0,1-.309-1.337,1.411,1.411,0,0,1,.309-.691.9.9,0,0,1,.732-.333,1.05,1.05,0,0,1,.738.4,1.448,1.448,0,0,1,.336.793,2.112,2.112,0,0,1-.6,1.645,2.655,2.655,0,0,1-1.67.818,4.488,4.488,0,0,1-1.939-.241,3.588,3.588,0,0,1-1.695-1.139,1.852,1.852,0,0,1-.4-1,1.306,1.306,0,0,1,.37-1.043.858.858,0,0,1,.543-.238.991.991,0,0,1,.568.161,1.491,1.491,0,0,1,.639.926,2.186,2.186,0,0,1-.685,2.047,3.414,3.414,0,0,1-1.957.8,4.819,4.819,0,0,1-2.028-.2,2.8,2.8,0,0,1-1.544-1.2,2.05,2.05,0,0,1-.191-1.852.96.96,0,0,1,.707-.6,1.124,1.124,0,0,1,.877.21,1.451,1.451,0,0,1,.414,1.565,2.711,2.711,0,0,1-.877,1.235,3.921,3.921,0,0,1-2.383.926,3.806,3.806,0,0,1-2.871-1.158,2.969,2.969,0,0,1-.21-.241.617.617,0,0,1-.062-.09,4.446,4.446,0,0,0,1.293.985,3.782,3.782,0,0,0,1.852.383,3.84,3.84,0,0,0,2.291-.926,2.571,2.571,0,0,0,.815-1.167,1.278,1.278,0,0,0-.361-1.371.948.948,0,0,0-.732-.173.769.769,0,0,0-.568.494,1.852,1.852,0,0,0,.188,1.664,2.6,2.6,0,0,0,1.439,1.105,4.631,4.631,0,0,0,1.939.185,3.232,3.232,0,0,0,1.834-.744,1.979,1.979,0,0,0,.617-1.852,1.287,1.287,0,0,0-.54-.8.664.664,0,0,0-.849.049,1.087,1.087,0,0,0-.309.871,1.649,1.649,0,0,0,.349.889,3.4,3.4,0,0,0,1.59,1.071,4.322,4.322,0,0,0,1.852.238,2.47,2.47,0,0,0,1.544-.747,1.926,1.926,0,0,0,.559-1.5,1.105,1.105,0,0,0-.9-1.04.75.75,0,0,0-.6.272,1.26,1.26,0,0,0-.287.617,1.757,1.757,0,0,0,.281,1.235,2.411,2.411,0,0,0,.849.793,3.007,3.007,0,0,0,1.852.293,5.555,5.555,0,0,0,1.173-.293C113.7,443.624,113.829,443.565,113.832,443.574Z" transform="translate(-81.165 -317.16)"/><rect class="d" width="8.057" height="15.827" transform="translate(16.617 123.068) rotate(-90)"/><path class="b" d="M109.441,414.13a70.4,70.4,0,0,1,0,7.8,35.053,35.053,0,0,1-.111-3.9A34.174,34.174,0,0,1,109.441,414.13Z" transform="translate(-90.194 -298.841)"/><path class="b" d="M113.331,413.8a68.629,68.629,0,0,1,0,7.7,34.177,34.177,0,0,1-.111-3.85A33.32,33.32,0,0,1,113.331,413.8Z" transform="translate(-92.883 -298.613)"/><path class="b" d="M146.4,413a76.138,76.138,0,0,1,0,8.11,37.9,37.9,0,0,1-.111-4.053A37.04,37.04,0,0,1,146.4,413Z" transform="translate(-115.744 -298.06)"/><path class="b" d="M141.831,413.32a72.184,72.184,0,0,1,0,7.9,35.938,35.938,0,0,1-.111-3.948A35.031,35.031,0,0,1,141.831,413.32Z" transform="translate(-112.585 -298.282)"/><path class="d" d="M413.672,354.449a8.7,8.7,0,0,1,5.4-.658,4.48,4.48,0,0,1,2.664,1.192,1.915,1.915,0,0,1,.028,2.658,2.541,2.541,0,0,1-1.682.426c-1.426-.015-3.007-.266-4.146.593-.651.488-1.084,1.3-1.852,1.544a1.822,1.822,0,0,1-2.019-.9,3.137,3.137,0,0,1-.228-2.318A3.535,3.535,0,0,1,413.672,354.449Z" transform="translate(-299.227 -257.025)"/><path class="d" d="M403.768,299.452c1,1.432,2.954.957,3.859.083a7.256,7.256,0,0,0,1.633-3.353c.8-2.76,1.6-5.659,1.006-8.471a4.677,4.677,0,0,0-1.084-2.3,2.47,2.47,0,0,0-2.331-.778,3.638,3.638,0,0,0-2.034,2.139,20.226,20.226,0,0,0-2,8.668,7.053,7.053,0,0,0,.948,4.013" transform="translate(-293.083 -209.286)"/><path class="d" d="M371.122,311.821a5.213,5.213,0,0,0,.812-4.8,9.256,9.256,0,0,0-2.843-4.124,15.3,15.3,0,0,0-5.09-3,5.454,5.454,0,0,0-2.288-.389,2.4,2.4,0,0,0-1.92,1.164c-.537,1.022-.022,2.26.534,3.272a39.026,39.026,0,0,0,3.34,5.087,9.121,9.121,0,0,0,3.677,3.152c1.516.583,3.115.512,3.924-.546" transform="translate(-263.181 -219.599)"/><path class="b" d="M405.631,373.246a3.221,3.221,0,0,0,.093-.651c.046-.472.1-1.068.173-1.775a25.987,25.987,0,0,1,.4-2.609,20.022,20.022,0,0,1,.948-3.087,11.422,11.422,0,0,1,1.571-2.778,5.865,5.865,0,0,1,1.985-1.652,5.7,5.7,0,0,1,1.673-.522,2.953,2.953,0,0,0,.648-.093,3.022,3.022,0,0,0-.661,0,5.073,5.073,0,0,0-1.744.454,5.865,5.865,0,0,0-2.093,1.664,11.085,11.085,0,0,0-1.63,2.84,18.789,18.789,0,0,0-.926,3.127,22.561,22.561,0,0,0-.349,2.639c-.056.753-.077,1.364-.086,1.787A3.111,3.111,0,0,0,405.631,373.246Z" transform="translate(-295.014 -261.464)"/><path class="b" d="M405.76,332.528a1.287,1.287,0,0,0,.018-.309v-.864c0-.747,0-1.834.037-3.173.068-2.68.309-5.557.744-9.632.423-3.822.988-8.273,1.587-11.166.127-.658.256-1.25.38-1.769s.213-.966.309-1.327.148-.617.2-.84a1.737,1.737,0,0,0,.056-.309,1.169,1.169,0,0,0-.1.284c-.068.216-.151.491-.253.827s-.225.8-.355,1.321-.278,1.108-.417,1.766a97.867,97.867,0,0,0-1.67,10.36c-.445,4.075-.645,7.785-.664,10.471-.015,1.343,0,2.43.046,3.18.022.352.04.639.052.864a1.278,1.278,0,0,0,.034.315Z" transform="translate(-295.019 -222.114)"/><path class="b" d="M384.7,330.309a5.757,5.757,0,0,0,0-.9c-.034-.58-.114-1.42-.278-2.445a32.171,32.171,0,0,0-.793-3.562,29.434,29.434,0,0,0-1.491-4.217,22.437,22.437,0,0,0-4.374-6.813,11.705,11.705,0,0,0-1.031-.957c-.157-.133-.309-.265-.438-.37l-.4-.275a5.472,5.472,0,0,0-.763-.488,26.573,26.573,0,0,1,2.491,2.223,23.647,23.647,0,0,1,4.266,6.791,33.085,33.085,0,0,1,1.491,4.174c.392,1.309.651,2.513.849,3.525s.293,1.852.358,2.423A5.578,5.578,0,0,0,384.7,330.309Z" transform="translate(-273.945 -227.05)"/><path class="d" d="M382.17,412.53l.719,9.823h12.617l.719-9.823Z" transform="translate(-278.807 -297.735)"/><rect class="d" width="16.778" height="3.871" transform="translate(102.143 110.923)"/><path class="b" d="M378.22,443.13V444.2h16.5V443.13Z" transform="translate(-276.077 -318.889)"/><path class="b" d="M381.552,448.116l-.772-1.886h15.111l-.9,1.886Z" transform="translate(-277.846 -321.032)"/><path class="e" d="M396.488,419.881a.405.405,0,0,1-.059.09c-.052.068-.114.148-.188.25l-.738.942-.031.043-.031-.046c-.463-.639-1.08-1.491-1.806-2.5h.093l-1.778,2.519-.056.077-.062-.074-2.1-2.516h.12l-.114.145-1.877,2.371-.065.08-.056-.083c-.642-.9-1.235-1.753-1.781-2.516h.1l-2.192,2.5-.037.043-.031-.049L383.122,420c-.074-.127-.13-.228-.176-.309a.508.508,0,0,1-.056-.108.5.5,0,0,1,.074.1l.194.309.719,1.133h-.068l2.161-2.528.052-.062.049.068,1.8,2.507h-.123l1.883-2.368.114-.148.062-.074.062.074,2.1,2.513h-.117l1.8-2.507.052-.074.049.074,1.769,2.525h-.065c.324-.389.577-.695.766-.926l.2-.238C396.461,419.9,396.485,419.878,396.488,419.881Z" transform="translate(-279.305 -301.876)"/><path class="e" d="M396.636,412.147c0,.043-3.164.077-7.063.077s-7.063-.034-7.063-.077,3.161-.077,7.063-.077S396.636,412.1,396.636,412.147Z" transform="translate(-279.042 -297.417)"/><path class="b" d="M135.738,67.318a.2.2,0,0,1-.074-.022l-.2-.08-.778-.324-2.855-1.235-9.385-4.087-.327-.145h.068l-9.2,3.948-2.778,1.167-.759.309a1.621,1.621,0,0,1-.269.1,1.816,1.816,0,0,1,.256-.127l.747-.34,2.778-1.219,9.175-3.979h.068l.327.142,9.366,4.137,2.831,1.269.766.355.2.1A.263.263,0,0,1,135.738,67.318Z" transform="translate(-90.09 -54.917)"/><rect class="b" width="60.286" height="45.142" transform="translate(0 11.055)"/><rect class="c" width="56.298" height="41.187" transform="translate(2.108 13.154)"/><path class="b" d="M94.45,141.57s.059,6.912.411,9.023l8.671-.411s-.759-6.791-.466-8.613Z" transform="translate(-79.907 -110.421)"/><path class="a" d="M103.975,144.7h.127a2.054,2.054,0,0,1,.361.019,2.025,2.025,0,0,1,.549.164,1.824,1.824,0,0,1,.6.475,2.04,2.04,0,0,1,.417.833,2.013,2.013,0,0,1-.09,1.071,3.2,3.2,0,0,1-.244.537,4.939,4.939,0,0,0-.278.54,4.729,4.729,0,0,0-.352,1.235v.028h-1.815v-.031a2.565,2.565,0,0,0-.417-1.185c-.1-.179-.219-.343-.309-.512a5.25,5.25,0,0,1-.309-.5,1.682,1.682,0,0,1-.136-1.056,2.232,2.232,0,0,1,.336-.864,1.7,1.7,0,0,1,.562-.509,2.325,2.325,0,0,1,.889-.262h0a2.375,2.375,0,0,0-.349.068,2.136,2.136,0,0,0-.522.213,1.63,1.63,0,0,0-.546.5,2.241,2.241,0,0,0-.309.849,1.618,1.618,0,0,0,.136,1.022,5.715,5.715,0,0,0,.309.491c.108.164.222.333.327.512a2.581,2.581,0,0,1,.429,1.216l-.034-.034h1.757l-.034.031a4.77,4.77,0,0,1,.358-1.25,5.687,5.687,0,0,1,.284-.546,3.207,3.207,0,0,0,.241-.525,1.969,1.969,0,0,0,.1-1.04,2.068,2.068,0,0,0-.4-.818,1.806,1.806,0,0,0-.583-.472,1.947,1.947,0,0,0-.54-.17,2.731,2.731,0,0,0-.355-.031h-.1C103.987,144.7,103.975,144.7,103.975,144.7Z" transform="translate(-85.159 -112.571)"/><path class="a" d="M106.439,153.226a.2.2,0,0,1,0-.028v-.08c0-.071-.028-.176-.046-.309-.04-.272-.1-.661-.136-1.145,0-.12-.019-.247-.022-.38a3.726,3.726,0,0,1,0-.417,1.139,1.139,0,0,1,.1-.432.658.658,0,0,1,.333-.33.435.435,0,0,1,.472.09.309.309,0,0,1,.1.238.42.42,0,0,1-.086.247.586.586,0,0,1-.21.17,1.081,1.081,0,0,1-.256.083,3.287,3.287,0,0,1-1.1.037.979.979,0,0,1-.262-.074.676.676,0,0,1-.216-.154.5.5,0,0,1-.127-.235.386.386,0,0,1,.031-.256.34.34,0,0,1,.182-.176.309.309,0,0,1,.244,0,.454.454,0,0,1,.185.154.664.664,0,0,1,.093.216,2.812,2.812,0,0,1,.043.445l.043.793c.022.485.043.877.056,1.151v.417a.19.19,0,0,0,0-.028v-.08a2.364,2.364,0,0,0-.019-.309c0-.275-.04-.667-.068-1.151,0-.241-.028-.506-.043-.793a2.4,2.4,0,0,0-.046-.438.58.58,0,0,0-.086-.207.482.482,0,0,0-.176-.148.287.287,0,0,0-.225,0,.324.324,0,0,0-.17.164.377.377,0,0,0-.028.241.5.5,0,0,0,.12.219.79.79,0,0,0,.463.222,3.212,3.212,0,0,0,.546.025,3.149,3.149,0,0,0,.543-.062.994.994,0,0,0,.25-.083.571.571,0,0,0,.2-.161.407.407,0,0,0,.083-.232.309.309,0,0,0-.093-.219.42.42,0,0,0-.445-.086.617.617,0,0,0-.309.309,1.154,1.154,0,0,0-.1.426v.411a2.221,2.221,0,0,0,.022.383c.037.485.093.874.127,1.142.019.136.034.238.043.309v.08A.191.191,0,0,1,106.439,153.226Z" transform="translate(-87.179 -116.283)"/><path class="a" d="M106,160.338a2.361,2.361,0,0,1,.025.287q0,.309.037.75v-.019l.587.682h-.031l.676-.037h-.028l.333-.408.17-.207v.028c0-.4-.019-.772-.025-1.111l.037.034H106a.427.427,0,0,1,.12,0l.355-.019,1.284-.049h.037v.037c0,.343.022.716.034,1.111v0h0c-.056.068-.111.139-.17.207l-.336.411h-.019l-.676.034h-.012l-.574-.682h0v-.772A2.407,2.407,0,0,1,106,160.338Z" transform="translate(-87.892 -123.349)"/><path class="a" d="M107.857,163.164a.129.129,0,0,1-.065-.028,1.8,1.8,0,0,0-.176-.068,1.679,1.679,0,0,0-.617-.093,1.713,1.713,0,0,0-.617.13l-.17.08-.062.031a.189.189,0,0,1,.056-.04,1.576,1.576,0,0,1,.17-.09,1.621,1.621,0,0,1,.617-.139,1.571,1.571,0,0,1,.617.1,1.237,1.237,0,0,1,.173.077Z" transform="translate(-87.995 -125.199)"/><path class="a" d="M107.854,162.288l-.062-.028-.176-.071A1.762,1.762,0,0,0,107,162.1a1.852,1.852,0,0,0-.617.13c-.074.031-.13.059-.17.08l-.062.031.056-.04a1.2,1.2,0,0,1,.17-.086,1.618,1.618,0,0,1,.617-.142,1.692,1.692,0,0,1,.617.1c.074.031.133.059.173.08A.484.484,0,0,1,107.854,162.288Z" transform="translate(-87.995 -124.592)"/><path class="a" d="M107.8,161.455l-.062-.025c-.043-.019-.1-.046-.176-.071a1.768,1.768,0,0,0-.617-.093,1.7,1.7,0,0,0-.617.13,1.876,1.876,0,0,0-.17.08l-.062.031.056-.04a1.325,1.325,0,0,1,.17-.09,1.685,1.685,0,0,1,.617-.139,1.7,1.7,0,0,1,.617.1,1.373,1.373,0,0,1,.173.08A.2.2,0,0,1,107.8,161.455Z" transform="translate(-87.961 -124.018)"/><path class="d" d="M63.17,105s.059,6.915.411,9.023l8.671-.411s-.762-6.791-.469-8.613Z" transform="translate(-58.283 -85.141)"/><path class="a" d="M73.8,114.34a25.186,25.186,0,0,1-2.9.259,23.835,23.835,0,0,1-2.917.09,26.036,26.036,0,0,1,2.9-.259,25.417,25.417,0,0,1,2.917-.09Z" transform="translate(-61.608 -91.591)"/><path class="a" d="M73.809,119.08a24.563,24.563,0,0,1-2.9.262,25.363,25.363,0,0,1-2.914.09,25.1,25.1,0,0,1,2.9-.259A25,25,0,0,1,73.809,119.08Z" transform="translate(-61.615 -94.868)"/><path class="a" d="M74.645,123.666a8.261,8.261,0,0,1-1.655.185,8.2,8.2,0,0,1-1.661,0,8.248,8.248,0,0,1,1.652-.185A8.226,8.226,0,0,1,74.645,123.666Z" transform="translate(-63.924 -98.015)"/><path class="d" d="M61.84,170.85s.059,6.912.411,9.023l8.671-.411s-.762-6.791-.469-8.613Z" transform="translate(-57.364 -130.663)"/><path class="a" d="M72.479,180.23a24.746,24.746,0,0,1-2.9.262,25.377,25.377,0,0,1-2.914.09,24.978,24.978,0,0,1,2.9-.259,25.049,25.049,0,0,1,2.917-.093Z" transform="translate(-60.696 -137.141)"/><path class="a" d="M72.479,184.98a25,25,0,0,1-2.9.259,25.363,25.363,0,0,1-2.914.09,25.088,25.088,0,0,1,2.9-.259A25.37,25.37,0,0,1,72.479,184.98Z" transform="translate(-60.696 -140.424)"/><path class="a" d="M73.315,189.577a8.127,8.127,0,0,1-1.652.182,8.227,8.227,0,0,1-1.664.015,8.247,8.247,0,0,1,1.652-.185,8.08,8.08,0,0,1,1.664-.012Z" transform="translate(-63.005 -143.583)"/><path class="d" d="M138.61,110.89l.858,19.942,24.894.3-1.118-19.979Z" transform="translate(-110.435 -89.212)"/><rect class="e" width="24.73" height="18.673" transform="translate(27.885 21.536)"/><path class="b" d="M162.2,128.931v-1.343c0-.877,0-2.161-.019-3.779,0-3.257-.022-7.915-.037-13.552l.071.068H137.488l.086-.083v18.673l-.077-.077,17.837.037,5.075.022h1.364l-1.358.059-5.053.022-17.9.037h-.077V110.18h24.888v.071c0,5.652-.028,10.329-.037,13.583,0,1.621,0,2.889-.019,3.763v.982C162.206,128.819,162.2,128.931,162.2,128.931Z" transform="translate(-109.584 -88.721)"/><rect class="e" width="10.024" height="12.617" transform="translate(30.87 25.49)"/><path class="b" d="M157.237,135.673a.207.207,0,0,1,0-.065v-.867c0-.617,0-1.485-.019-2.59,0-2.22-.025-5.362-.04-9.094l.077.077H147.232c-.022,0,.161-.161.083-.083h0v12.61l-.068-.071,7.258.037,2.034.019h.732a1.209,1.209,0,0,1-.176,0h-.525l-2.022.019-7.3.037h-.071V123.062h0c-.077.074.1-.108.086-.086h10.1v.077c-.015,3.751-.031,6.912-.04,9.144l-.019,2.571v.846A.379.379,0,0,1,157.237,135.673Z" transform="translate(-116.343 -97.566)"/><rect class="e" width="19.211" height="1.818" transform="translate(31.253 22.604)"/><path class="b" d="M167.638,115.4v-.478c0-.309,0-.762-.022-1.34l.034.034c-3.238.031-10.622.052-19.211.052h0c.17-.173.046-.049.086-.086h0v1.812l-.083-.086,13.617.037,4.087.025h1.4a.684.684,0,0,1,.1,0h-1.463l-4.069.028-13.679.034h-.083v-1.9h0l.086-.086h0c8.588,0,15.972.022,19.211.052h.037v.034c0,.583,0,1.04-.019,1.361v.343A.491.491,0,0,1,167.638,115.4Z" transform="translate(-117.175 -90.975)"/><rect class="e" width="8.344" height="7.603" transform="translate(42.119 25.49)"/><path class="b" d="M191.984,130.557V130c0-.37,0-.892-.019-1.544,0-1.34-.022-3.226-.037-5.495l.071.074h-8.335l.083-.083h0v7.6l-.077-.074,6.02.037,1.707.022h.457a.956.956,0,0,1,.161,0,.789.789,0,0,1-.145,0h-.441l-1.689.019-6.069.037H183.6v-7.677h0c-.077.074.1-.1.086-.086h8.409v.071c-.015,2.287-.028,4.192-.037,5.557,0,.648-.015,1.164-.019,1.544v.4A.617.617,0,0,1,191.984,130.557Z" transform="translate(-141.52 -97.463)"/><rect class="e" width="8.344" height="3.822" transform="translate(42.119 34.285)"/><path class="b" d="M191.99,155.236v-.278l-.015-.766c0-.676-.019-1.618-.034-2.778l.062.062-8.335.025c-.077.077.1-.1.083-.083h0v3.819l-.083-.08,5.967.037,1.741.025h.636a.809.809,0,0,1-.148,0h-.454l-1.719.025-6.023.037h-.08v-3.9h0c-.019,0,.161-.164.086-.086l8.335.022h.04v.062c0,1.176-.025,2.133-.031,2.815v.753A1.511,1.511,0,0,1,191.99,155.236Z" transform="translate(-141.526 -117.129)"/><path class="a" d="M157.107,123.31c-3.106,4.288-6.674,8.307-9.777,12.6" transform="translate(-116.463 -97.798)"/><path class="b" d="M147.34,135.9a.962.962,0,0,1,.08-.142l.262-.383c.228-.333.571-.806,1-1.383.861-1.161,2.093-2.729,3.476-4.442s2.627-3.269,3.51-4.408l1.047-1.349.287-.367c.068-.08.1-.123.111-.12a.735.735,0,0,1-.083.142l-.262.383c-.228.333-.571.806-1,1.386-.861,1.158-2.093,2.726-3.476,4.439s-2.624,3.269-3.51,4.408l-1.047,1.352-.287.364A.693.693,0,0,1,147.34,135.9Z" transform="translate(-116.47 -97.798)"/><line class="a" x2="10.024" y2="12.617" transform="translate(30.87 25.49)"/><path class="b" d="M157.376,135.856c-.037.028-2.312-2.778-5.078-6.254s-4.982-6.331-4.939-6.362,2.309,2.778,5.078,6.257S157.413,135.822,157.376,135.856Z" transform="translate(-116.482 -97.749)"/><path class="b" d="M134.366,119.818a1.568,1.568,0,1,1-1.568-1.568A1.568,1.568,0,0,1,134.366,119.818Z" transform="translate(-105.333 -94.3)"/><path class="b" d="M217.456,107.488a1.568,1.568,0,1,1-1.568-1.568A1.568,1.568,0,0,1,217.456,107.488Z" transform="translate(-162.773 -85.777)"/><rect class="b" width="18.071" height="26.196" transform="translate(97.957 32.634)"/><rect class="e" width="18.071" height="26.196" transform="translate(97.053 32.634)"/><rect class="a" width="13.583" height="20.523" transform="translate(99.297 35.47)"/><path class="b" d="M382.5,175.892v-5.745c0-3.618,0-8.742-.022-14.778l.046.046H368.917l.049-.049v20.523l-.04-.04,9.878.022h.025l-9.909.019h-.04V155.28h13.663v.043c0,6.047-.015,11.181-.022,14.818v5.618Z" transform="translate(-269.62 -119.899)"/><path class="b" d="M414.948,146.38a2.832,2.832,0,0,1-.309.469c-.21.281-.509.661-.849,1.074s-.658.778-.892,1.04a3.036,3.036,0,0,1-.4.4,3.538,3.538,0,0,1,.346-.451l.871-1.056.867-1.056A3.837,3.837,0,0,1,414.948,146.38Z" transform="translate(-299.774 -113.746)"/><path class="a" d="M413.22,221.83a16.717,16.717,0,0,0,2.368,2.964" transform="translate(-300.272 -165.905)"/><path class="b" d="M415.588,224.794a2.524,2.524,0,0,1-.411-.377,12.955,12.955,0,0,1-.9-1.006,13.357,13.357,0,0,1-.787-1.093,2.63,2.63,0,0,1-.275-.488,4.01,4.01,0,0,1,.333.448c.2.281.479.661.806,1.071s.639.766.867,1.022A3.562,3.562,0,0,1,415.588,224.794Z" transform="translate(-300.272 -165.905)"/><path class="a" d="M361.72,224.63l2.368-2.92" transform="translate(-264.67 -165.822)"/><path class="b" d="M364.06,221.71c.019,0-.494.685-1.145,1.491a17.846,17.846,0,0,1-1.235,1.429,35.774,35.774,0,0,1,2.368-2.92Z" transform="translate(-264.643 -165.822)"/><path class="b" d="M361.73,146.38a17.806,17.806,0,0,1,1.148,1.374,16.188,16.188,0,0,1,1.071,1.435,17.022,17.022,0,0,1-1.148-1.383A15.482,15.482,0,0,1,361.73,146.38Z" transform="translate(-264.677 -113.746)"/><rect class="b" width="4.547" height="12.913" transform="translate(104.101 39.638)"/><rect class="b" width="2.587" height="12.873" transform="matrix(1, -0.005, 0.005, 1, 109.278, 4.813)"/><rect class="d" width="6.699" height="7.106" transform="matrix(1, -0.005, 0.005, 1, 86.866, 4.869)"/><rect class="e" width="6.699" height="7.106" transform="matrix(1, -0.005, 0.005, 1, 93.531, 4.836)"/><path class="b" d="M328.622,62.344c4.451.037,8.915,0,13.367-.062a.071.071,0,0,0,0-.142q-6.683-.037-13.367.08a.062.062,0,1,0,0,.123Z" transform="translate(-241.747 -55.505)"/><rect class="d" width="12.172" height="5.791" transform="matrix(1, -0.005, 0.005, 1, 82.687, 11.89)"/><rect class="e" width="12.172" height="5.791" transform="matrix(1, -0.005, 0.005, 1, 94.803, 11.824)"/><path class="b" d="M315.082,83.772c8.088.093,16.2,0,24.286-.12a.071.071,0,1,0,0-.142c-8.088-.043-16.2-.037-24.286.139a.062.062,0,1,0,0,.123Z" transform="translate(-232.387 -70.269)"/><rect class="b" width="47.157" height="2.074" transform="translate(78.145 17.683)"/><rect class="b" width="1.914" height="7.079" transform="translate(85.865 18.68)"/><rect class="b" width="1.914" height="7.079" transform="translate(114.442 18.68)"/><rect class="d" width="2.587" height="17.704" transform="matrix(1, -0.005, 0.005, 1, 111.801, 0.014)"/><rect class="e" width="4.019" height="14.348" transform="matrix(1, -0.005, 0.005, 1, 114.412, 3.318)"/><path class="b" d="M421.9,60.158a28.477,28.477,0,0,1-4.013,0,29.769,29.769,0,0,1,4.013,0Z" transform="translate(-303.5 -54.095)"/><path class="b" d="M421.9,58.208a28.476,28.476,0,0,1-4.013,0,29.77,29.77,0,0,1,4.013,0Z" transform="translate(-303.5 -52.747)"/><path class="b" d="M421.9,90.688a28.479,28.479,0,0,1-4.013,0A29.77,29.77,0,0,1,421.9,90.688Z" transform="translate(-303.5 -75.2)"/><path class="b" d="M421.9,88.738a28.479,28.479,0,0,1-4.013,0A29.769,29.769,0,0,1,421.9,88.738Z" transform="translate(-303.5 -73.852)"/><path class="b" d="M424.431,70.154c-.04,0-.071-1.448-.071-3.232s.031-3.232.071-3.232.068,1.448.068,3.232S424.468,70.154,424.431,70.154Z" transform="translate(-307.973 -56.583)"/><rect class="d" width="4.374" height="10.829" transform="translate(118.446 6.823)"/><path class="c" d="M436.325,84.937a.926.926,0,0,1-.979-.975.846.846,0,0,1,.355-.732l.1.139a.7.7,0,0,0-.287.593.812.812,0,0,0,1.624,0,.7.7,0,0,0-.29-.593l.1-.139a.858.858,0,0,1,.352.732.926.926,0,0,1-.976.975Z" transform="translate(-315.567 -70.091)"/><path class="c" d="M437.057,78.931l-.145-.083a1.136,1.136,0,0,0,.232-.695c0-.4-.145-.568-.361-.568-.562,0-.148,1.278-.9,1.278-.29,0-.528-.244-.528-.732a1.185,1.185,0,0,1,.188-.661l.148.086a.988.988,0,0,0-.173.577c0,.377.154.543.361.543.577,0,.17-1.278.9-1.278.309,0,.525.272.525.763A1.194,1.194,0,0,1,437.057,78.931Z" transform="translate(-315.57 -66.061)"/><path class="c" d="M437.057,73.221l-.145-.083a1.136,1.136,0,0,0,.232-.695c0-.4-.145-.568-.361-.568-.562,0-.148,1.275-.9,1.275-.29,0-.528-.241-.528-.729a1.185,1.185,0,0,1,.188-.661l.148.083a1,1,0,0,0-.173.58c0,.377.154.543.361.543.577,0,.17-1.278.9-1.278.309,0,.525.269.525.759A1.2,1.2,0,0,1,437.057,73.221Z" transform="translate(-315.57 -62.113)"/><circle class="b" cx="0.744" cy="0.744" r="0.744" transform="translate(112.312 2.285)"/><rect class="b" width="0.46" height="10.533" transform="translate(112.824 5.073)"/></g><g transform="translate(38.685 168.184)"><path class="f" d="M172.556,453.82c0,.043-29.818.08-66.59.08s-66.6-.031-66.6-.08,29.811-.08,66.6-.08S172.556,453.783,172.556,453.82Z" transform="translate(-39.37 -453.74)"/></g><g transform="translate(68.959 58.283)"><path class="c" d="M143.351,110.233a23.813,23.813,0,0,0,.784,26.076c3.609,4.989,9.02,8.335,13.317,12.737s7.563,10.9,5.294,16.624c-2.309,5.825-9.073,8.193-14.135,11.885a26.715,26.715,0,0,0-6.446,36.495h52.609s9.243-17.611-2.639-31.037-18.263-13.642-17.824-22.446,6.6-11.66,10.122-14.963,20.683-11,10.561-35.374Z" transform="translate(-137.565 -106.371)"/><path class="f" d="M143.223,110.178h13.839l37.8-.028h.04v.037a48.468,48.468,0,0,1,1.976,5.665A32.946,32.946,0,0,1,198,122.026a24.46,24.46,0,0,1-.333,6.535,21.013,21.013,0,0,1-2.377,6.353,22.769,22.769,0,0,1-1.982,2.874,26.264,26.264,0,0,1-2.423,2.593,35.111,35.111,0,0,1-2.751,2.331c-.957.741-1.957,1.439-2.933,2.179-.488.367-.926.781-1.4,1.195s-.948.8-1.435,1.189c-.972.778-1.954,1.544-2.88,2.4a15.4,15.4,0,0,0-4.322,6.2,15.125,15.125,0,0,0-.815,3.8c-.028.309-.071.648-.083.975a8.685,8.685,0,0,0,0,.982,10.958,10.958,0,0,0,.2,1.957,8.931,8.931,0,0,0,1.562,3.618,19.862,19.862,0,0,0,2.726,2.954c2,1.824,4.118,3.569,6.146,5.452s4.013,3.846,5.927,5.924a35.126,35.126,0,0,1,2.735,3.254,22.667,22.667,0,0,1,2.207,3.677,24.184,24.184,0,0,1,2.266,8.335,30.591,30.591,0,0,1-.512,8.767,36.025,36.025,0,0,1-1.13,4.3,31.648,31.648,0,0,1-1.667,4.152l-.022.043h-52.7l-.022-.034a27.12,27.12,0,0,1-4.405-12.419,26.184,26.184,0,0,1,1.821-12.533,27.289,27.289,0,0,1,6.952-9.934,31.662,31.662,0,0,1,4.748-3.464c1.642-1.019,3.3-1.963,4.865-2.994a22.363,22.363,0,0,0,4.285-3.482,11.749,11.749,0,0,0,2.649-4.593,11.452,11.452,0,0,0,.21-5.128,16.785,16.785,0,0,0-1.627-4.714,23.006,23.006,0,0,0-2.649-4.013,31.707,31.707,0,0,0-3.2-3.343c-2.226-2.05-4.507-3.843-6.557-5.686-1.028-.926-2-1.852-2.9-2.8a26.468,26.468,0,0,1-2.4-2.96,22.683,22.683,0,0,1-3.01-6.239,23.4,23.4,0,0,1-1.025-5.912c-.043-.457-.025-.908-.025-1.349s0-.871.04-1.287.062-.824.093-1.235.114-.778.167-1.151a21.973,21.973,0,0,1,2.062-6.538,8.264,8.264,0,0,1,.475-.926l.38-.645c.2-.343.309-.516.309-.516l-.309.525-.367.636a9.308,9.308,0,0,0-.469.926,22.082,22.082,0,0,0-2.037,6.548c-.052.37-.114.753-.161,1.145s-.062.8-.093,1.219-.031.846-.034,1.284a13.168,13.168,0,0,0,.028,1.346,23.211,23.211,0,0,0,1.034,5.89,22.535,22.535,0,0,0,3.007,6.214,25.964,25.964,0,0,0,2.4,2.945c.9.951,1.868,1.877,2.9,2.778,2.05,1.852,4.322,3.627,6.563,5.68a31.909,31.909,0,0,1,3.229,3.368,23.23,23.23,0,0,1,2.664,4.041,16.85,16.85,0,0,1,1.642,4.745,11.567,11.567,0,0,1-.21,5.183,11.823,11.823,0,0,1-2.673,4.646,22.652,22.652,0,0,1-4.3,3.507c-1.571,1.034-3.229,1.979-4.868,3a31.729,31.729,0,0,0-4.729,3.451,27.184,27.184,0,0,0-6.912,9.878,26.033,26.033,0,0,0-1.806,12.469,27,27,0,0,0,4.384,12.348l-.062-.034h52.609l-.071.043a31.181,31.181,0,0,0,1.661-4.143,35.857,35.857,0,0,0,1.124-4.285,30.4,30.4,0,0,0,.509-8.724,23.931,23.931,0,0,0-2.25-8.289,22.7,22.7,0,0,0-2.189-3.652,36.006,36.006,0,0,0-2.723-3.241q-2.856-3.109-5.918-5.915c-2.025-1.88-4.14-3.621-6.143-5.455a20.226,20.226,0,0,1-2.751-2.976,9.11,9.11,0,0,1-1.6-3.664,11.631,11.631,0,0,1-.2-1.985c-.015-.33,0-.661,0-.991s.056-.658.08-.985a15.337,15.337,0,0,1,.834-3.825,15.513,15.513,0,0,1,4.362-6.251c.926-.858,1.917-1.636,2.889-2.411.488-.389.966-.781,1.432-1.182s.926-.834,1.408-1.2c.982-.741,1.979-1.439,2.933-2.176a35.548,35.548,0,0,0,2.744-2.318,26.692,26.692,0,0,0,2.411-2.578,23.43,23.43,0,0,0,1.973-2.859,20.871,20.871,0,0,0,2.365-6.31,24.307,24.307,0,0,0,.336-6.483,33,33,0,0,0-1.108-6.174A49,49,0,0,0,194.8,110.2l.052.034-37.782-.028H144.124Z" transform="translate(-137.437 -106.316)"/><path class="g" d="M203.905,146.286c7.748,1.275-4.467,15-11.385,20.414-4.013,3.133-8.3,6.535-10.206,11.252-2.161,5.353-.559,11.366-1.6,16.75a.747.747,0,0,1-1.482-.157A59.555,59.555,0,0,0,178.614,184c-.83-4.939-2.726-9.814-6.174-13.429-2.825-2.954-6.526-4.915-9.536-7.674-4.4-4.029-8.912-9.224-9.354-15.17,0,0,8.44-6.791,13.126-5.943,5.476,1,10.866,9.452,19.349,8.486C191.928,149.6,194.919,144.811,203.905,146.286Z" transform="translate(-148.576 -128.135)"/><path class="g" d="M199.8,374.075c-.195-1.939-.713-4.13-2.433-5.044a4.8,4.8,0,0,0-3.451-.194c-1.142.3-2.213.821-3.343,1.158a10.95,10.95,0,0,1-6.844-.219,41.755,41.755,0,0,1-5.865-3.266c-1.96-1.105-4.235-1.914-6.409-1.374-3.748.926-5.7,5.446-9.4,6.535a10.251,10.251,0,0,1-5.09-.167,19.933,19.933,0,0,0-5.069-.8,5.623,5.623,0,0,0-3.686,1.435h0l-.025.028a3.648,3.648,0,0,0-.426.5,6.961,6.961,0,0,0-.979,5.461,19.518,19.518,0,0,0,2.423,5.887,17.312,17.312,0,0,0,4.686,5.816c2.525,1.8,5.7.559,8.786.8a145.886,145.886,0,0,0,22.156.4c3.806-.309,7.372.117,10.391-2.22a12.289,12.289,0,0,0,4.174-6.717A23.081,23.081,0,0,0,199.8,374.075Z" transform="translate(-143.781 -282.468)"/><g class="h" transform="translate(41.288 87.897)"><path d="M272.319,382.46a1.99,1.99,0,0,0-.188,2.087,6.8,6.8,0,0,1,1.093,1.932c.269,1.136-.417,2.247-.926,3.3a10.511,10.511,0,0,0-1.022,6.091,8.286,8.286,0,0,0,3.022,5.319,2.939,2.939,0,0,0,2.565.725,2.517,2.517,0,0,0,1.544-1.957,7.9,7.9,0,0,0-.08-2.6,40.33,40.33,0,0,1,.309-12.064,2.439,2.439,0,0,0-.191-1.951,2.26,2.26,0,0,0-1.108-.617c-1.605-.534-3.337.059-5-.256" transform="translate(-271.184 -382.46)"/></g><path class="f" d="M139.828,445.86s-.145-2.414,3-3.76h55.335s2.886,1.463,3.241,3.7Z" transform="translate(-139.089 -335.792)"/><path class="f" d="M205.558,101.885l-.09.04-52.032-.333s-.185-.117-.46-.336a1.973,1.973,0,0,1,1.235-3.525l50.5.407A1.973,1.973,0,0,1,205.558,101.885Z" transform="translate(-147.656 -97.73)"/><g class="h" transform="translate(15.081 23.349)"><path d="M220.775,174.02c.1.2-.287.617-1.031,1.3s-1.852,1.571-3.229,2.692a42.385,42.385,0,0,1-5.248,3.7,21.057,21.057,0,0,1-3.593,1.652,17.015,17.015,0,0,1-2.065.571,14.09,14.09,0,0,1-2.232.29,11.916,11.916,0,0,1-4.485-.617,16.163,16.163,0,0,1-3.606-1.852c-1.037-.685-1.929-1.364-2.778-2.016s-1.605-1.278-2.291-1.871c-2.732-2.368-4.171-4.109-3.893-4.445s2.223.759,5.248,2.612l2.47,1.513c.886.537,1.834,1.133,2.8,1.682a15.693,15.693,0,0,0,3.041,1.374,9.764,9.764,0,0,0,3.346.4,17.736,17.736,0,0,0,6.662-1.92c1.991-.963,3.794-2.087,5.356-2.964a26.982,26.982,0,0,1,3.865-1.883C220.093,173.891,220.686,173.826,220.775,174.02Z" transform="translate(-186.29 -173.364)"/></g><path class="g" d="M235.6,334.117a.9.9,0,1,1-.043.019" transform="translate(-204.904 -261.1)"/><path class="f" d="M160.182,150.71a1.336,1.336,0,0,1-.185-.185l-.5-.549c-.213-.244-.494-.528-.781-.889l-.982-1.235c-.336-.475-.716-.988-1.1-1.544l-.565-.9c-.1-.154-.2-.309-.29-.472l-.272-.5a20.869,20.869,0,0,1-1.917-4.615,19.448,19.448,0,0,1-.729-4.939c0-.386.022-.759.028-1.127a3.868,3.868,0,0,1,.025-.537c.025-.176.037-.349.056-.519.04-.34.065-.67.111-.985s.111-.617.164-.9c.086-.577.241-1.08.349-1.544.059-.222.1-.432.164-.617l.17-.516.238-.707a1.313,1.313,0,0,1,.093-.244,1.406,1.406,0,0,1-.062.253c-.052.179-.12.417-.21.716l-.154.516c-.052.188-.1.4-.151.617a13.47,13.47,0,0,0-.309,1.544c-.049.284-.1.583-.151.9s-.065.639-.1.979a5.03,5.03,0,0,1-.052.516c-.019.176,0,.355-.019.534,0,.364-.025.735-.022,1.117a19.553,19.553,0,0,0,.719,4.911,21.245,21.245,0,0,0,1.892,4.587c.09.167.179.333.265.5s.194.309.287.469l.556.9c.377.568.75,1.08,1.077,1.544l.963,1.235c.278.367.553.654.756.908l.482.571A2.1,2.1,0,0,1,160.182,150.71Z" transform="translate(-148.099 -118.096)"/><path class="f" d="M167.09,272.026a.619.619,0,0,1,.056-.1l.185-.29c.083-.13.185-.284.309-.469l.194-.309c.077-.1.167-.2.256-.309l.617-.741c.238-.256.509-.522.8-.812a20.887,20.887,0,0,1,2.118-1.784c1.639-1.235,3.754-2.47,6.044-3.917a34.569,34.569,0,0,0,3.467-2.442,16.173,16.173,0,0,0,3.109-3.285,15.549,15.549,0,0,0,2.516-8.282,19.593,19.593,0,0,0-1.185-7.038,26.271,26.271,0,0,0-2.044-4.384c-.287-.5-.522-.874-.682-1.13l-.182-.29c-.04-.065-.059-.1-.059-.1a.458.458,0,0,1,.071.093l.2.284c.17.247.414.617.707,1.114a25.054,25.054,0,0,1,2.1,4.377,19.575,19.575,0,0,1,1.235,7.079,16.671,16.671,0,0,1-.17,2.081,15.205,15.205,0,0,1-.454,2.133,14.454,14.454,0,0,1-1.942,4.158,16.279,16.279,0,0,1-3.143,3.319,35.018,35.018,0,0,1-3.485,2.445c-2.3,1.435-4.418,2.658-6.057,3.883a21.739,21.739,0,0,0-2.124,1.757c-.287.287-.562.546-.8.8l-.617.725c-.093.111-.182.213-.259.309l-.2.293-.309.46-.2.281A.716.716,0,0,1,167.09,272.026Z" transform="translate(-157.936 -193.551)"/><path class="f" d="M151.907,369.61a.975.975,0,0,1-.068.145l-.222.392c-.1.167-.216.377-.336.617s-.275.525-.4.849c-.068.161-.142.327-.216.5s-.136.364-.21.556c-.148.383-.265.8-.4,1.235a16.775,16.775,0,0,0-.546,5.952c.052.457.09.9.17,1.3.034.2.062.4.1.583s.083.364.123.534c.068.343.17.642.244.908s.148.494.216.679l.145.426a.528.528,0,0,1,.04.151.587.587,0,0,1-.071-.139c-.046-.114-.1-.25-.173-.417a6.656,6.656,0,0,1-.244-.673c-.083-.266-.191-.565-.269-.908-.043-.17-.086-.349-.133-.534s-.074-.386-.114-.587c-.086-.407-.13-.846-.185-1.306a16.157,16.157,0,0,1,.549-5.989c.139-.445.262-.867.42-1.25.077-.191.139-.38.219-.556l.228-.5c.136-.309.309-.6.429-.843a6.4,6.4,0,0,1,.361-.617l.247-.38C151.87,369.65,151.9,369.607,151.907,369.61Z" transform="translate(-145.624 -285.68)"/><path class="f" d="M217.364,393.649l-.062.043-.191.12-.75.451-.543.309c-.2.114-.429.219-.67.34-.488.235-1.025.534-1.661.775l-.988.4c-.343.136-.716.244-1.093.374-.75.275-1.584.472-2.451.7a28.737,28.737,0,0,1-11.61.309c-.883-.179-1.723-.333-2.488-.568-.383-.111-.759-.2-1.111-.309l-1.006-.367c-.645-.207-1.2-.475-1.7-.685-.247-.108-.478-.2-.685-.309l-.562-.293-.772-.411-.2-.111-.065-.04a.163.163,0,0,1,.074.028l.2.1.784.383.565.278c.21.1.445.188.691.293.5.2,1.053.46,1.7.658l.994.361c.352.117.729.2,1.111.309.762.228,1.6.374,2.47.549a29.346,29.346,0,0,0,11.552-.309c.864-.222,1.695-.411,2.445-.679.377-.127.747-.228,1.09-.364l.988-.392c.636-.235,1.176-.525,1.664-.75.241-.117.469-.219.673-.309l.549-.309.762-.426.2-.1C217.34,393.655,217.364,393.646,217.364,393.649Z" transform="translate(-172.916 -302.298)"/><path class="f" d="M224.753,182a.328.328,0,0,1-.065.059l-.2.167c-.188.151-.451.364-.787.617-.685.543-1.679,1.33-2.936,2.269a42.447,42.447,0,0,1-4.59,3.062,20.684,20.684,0,0,1-2.957,1.361,13.481,13.481,0,0,1-3.414.759,12.966,12.966,0,0,1-6.557-1.364,22.246,22.246,0,0,1-2.534-1.506c-.753-.531-1.442-1.046-2.05-1.544-1.235-.982-2.179-1.812-2.846-2.38l-.763-.661-.194-.173-.065-.065s.028,0,.074.049l.207.164.781.636c.679.556,1.648,1.371,2.877,2.34.617.485,1.3.994,2.056,1.519a22.536,22.536,0,0,0,2.522,1.482,12.919,12.919,0,0,0,6.483,1.337,13.385,13.385,0,0,0,3.374-.747,20.7,20.7,0,0,0,2.939-1.343,44.393,44.393,0,0,0,4.6-3c1.259-.926,2.263-1.7,2.964-2.226l.806-.617.213-.154A.277.277,0,0,1,224.753,182Z" transform="translate(-177.085 -155.986)"/><g class="h" transform="translate(19.826 92.924)"><path d="M201.66,399.765c1.463-1.13,3.519-.858,5.328-.475s3.63,1,5.461.741c1.38-.194,2.646-.871,4.013-1.167s3.013-.077,3.769,1.093a29.327,29.327,0,0,1-18.562-.191" transform="translate(-201.66 -398.745)"/></g></g><g transform="translate(110.699 102.347)"><path class="g" d="M306.785,324.6l-6.637-7.443-.068,9.048,2,5.8-19.887,3.448-.843-15.691-1.432-12.039a3.272,3.272,0,0,1,2.05-3.43l5.473-2.161,7.718,1.414,3.1,1.179a8.518,8.518,0,0,1,3.377,2.349l9.335,10.675" transform="translate(-277.659 -283.102)"/><path class="a" d="M344,334.61a9.718,9.718,0,0,0,1.121-.08,4.547,4.547,0,0,0,3.738-3.445,10.317,10.317,0,0,0,.17-1.114,1.012,1.012,0,0,1,.028.309,3.762,3.762,0,0,1-.086.834,4.458,4.458,0,0,1-3.831,3.535,3.94,3.94,0,0,1-.837.019A.961.961,0,0,1,344,334.61Z" transform="translate(-321.974 -302.341)"/><path class="f" d="M345.514,347.51c.046,0,.059-3.136.028-7s-.1-7-.142-7-.059,3.133-.028,7S345.468,347.51,345.514,347.51Z" transform="translate(-322.911 -304.788)"/><path class="g" d="M294.525,332.935,282.51,328.1a2.747,2.747,0,0,1-1.713-2.337l-.88-11.521s.1-4.9-2.957-5.14l-1.732.685c-2.25,1.195-2.806,4.473-2.5,7,.435,3.593.617,8.681,1.1,11.8.4,2.553,1.852,4.8,4.359,5.455l14.8,3.2Z" transform="translate(-272.65 -287.913)"/><path class="f" d="M296.749,331.44a1.5,1.5,0,0,1,.037.262c.018.188.046.441.077.759.062.676.148,1.627.253,2.794s.222,2.59.358,4.146c.031.392.065.79.1,1.2a9.3,9.3,0,0,0,.154,1.235,2.041,2.041,0,0,0,.6,1.077,4.014,4.014,0,0,0,1.108.691c3.312,1.432,6.365,2.618,8.582,3.448l2.633.969.716.262a1.722,1.722,0,0,1,.244.1,1.483,1.483,0,0,1-.256-.071l-.725-.235c-.617-.21-1.543-.522-2.649-.926-2.232-.8-5.288-1.97-8.613-3.4a4.2,4.2,0,0,1-1.151-.722,2.2,2.2,0,0,1-.642-1.161,9.008,9.008,0,0,1-.151-1.253c-.034-.411-.065-.809-.1-1.2-.12-1.544-.232-2.964-.309-4.149s-.154-2.121-.2-2.8c-.022-.309-.037-.574-.046-.763A1.572,1.572,0,0,1,296.749,331.44Z" transform="translate(-289.31 -303.357)"/><path class="f" d="M274.424,351.73a.771.771,0,0,1,.022.154l.04.445c.037.411.083.963.142,1.636s.151,1.51.272,2.417a23.382,23.382,0,0,0,.54,2.917,4.394,4.394,0,0,0,.587,1.392,8.5,8.5,0,0,0,.9,1.1,7.717,7.717,0,0,0,1.923,1.442,7.252,7.252,0,0,0,2.112.691.612.612,0,0,1-.157,0,3.459,3.459,0,0,1-.445-.059,5.835,5.835,0,0,1-1.562-.528,7.528,7.528,0,0,1-1.976-1.439,8.186,8.186,0,0,1-.926-1.121,4.483,4.483,0,0,1-.617-1.435,21.838,21.838,0,0,1-.534-2.942c-.111-.926-.185-1.735-.235-2.426s-.077-1.253-.093-1.642v-.448A.5.5,0,0,1,274.424,351.73Z" transform="translate(-273.868 -317.383)"/><path class="f" d="M291.09,371.486a1.778,1.778,0,0,1,.219-.639,4.143,4.143,0,0,1,2.439-2.084,1.744,1.744,0,0,1,.667-.114q-.3.126-.617.222a4.722,4.722,0,0,0-1.361.812,4.782,4.782,0,0,0-1.016,1.216C291.2,371.254,291.115,371.495,291.09,371.486Z" transform="translate(-285.398 -329.079)"/><path class="a" d="M298.75,322.8a.282.282,0,0,1,.074.034l.216.114a7.835,7.835,0,0,0,.858.361,6.791,6.791,0,0,0,3.368.29,6.649,6.649,0,0,0,4.186-2.6,5.529,5.529,0,0,0,1.1-2.723,3.7,3.7,0,0,0-.161-1.544,3.149,3.149,0,0,0-.864-1.324,2.651,2.651,0,0,0-1.411-.685,1.682,1.682,0,0,0-1.414.4.926.926,0,0,0-.278.639,1.117,1.117,0,0,0,.235.661,1.8,1.8,0,0,0,1.235.639,4.948,4.948,0,0,0,5.393-3.47,5.375,5.375,0,0,0,.228-1.448,5.523,5.523,0,0,0-.068-.926c-.018-.1-.034-.176-.043-.238a.435.435,0,0,1,0-.083,3.905,3.905,0,0,1,.185,1.235,5.187,5.187,0,0,1-.2,1.473,5.081,5.081,0,0,1-5.5,3.59,1.942,1.942,0,0,1-1.321-.691,1.262,1.262,0,0,1-.265-.753,1.068,1.068,0,0,1,.309-.75,1.852,1.852,0,0,1,1.543-.445,2.778,2.778,0,0,1,1.5.725,3.253,3.253,0,0,1,.908,1.392,3.859,3.859,0,0,1,.167,1.605,5.653,5.653,0,0,1-1.133,2.778,6.634,6.634,0,0,1-7.7,2.284A4.781,4.781,0,0,1,298.75,322.8Z" transform="translate(-290.693 -289.151)"/><path class="a" d="M273.25,335.511a.984.984,0,0,1,.2-.247,4.437,4.437,0,0,1,.648-.565,5.451,5.451,0,0,1,2.658-.942,5.137,5.137,0,0,1,1.568.065,4.771,4.771,0,0,1,1.207.426,5.556,5.556,0,0,1,.735.445,1.038,1.038,0,0,1,.241.2c-.019.025-.377-.247-1.025-.546a5.032,5.032,0,0,0-2.707-.432,5.7,5.7,0,0,0-2.612.874C273.565,335.19,273.272,335.533,273.25,335.511Z" transform="translate(-273.065 -304.937)"/><path class="a" d="M279.48,307.462a4.751,4.751,0,0,0,.972.707,3.465,3.465,0,0,0,1.235.364,3.291,3.291,0,0,0,1.543-.216,3.242,3.242,0,0,0,1.235-.926,3.551,3.551,0,0,0,.617-1.133,4.94,4.94,0,0,0,.188-1.189,1.081,1.081,0,0,1,.04.327,3.008,3.008,0,0,1-.12.9,3.452,3.452,0,0,1-.617,1.192,3.155,3.155,0,0,1-2.933,1.21,3.427,3.427,0,0,1-1.275-.408,2.972,2.972,0,0,1-.716-.549A.883.883,0,0,1,279.48,307.462Z" transform="translate(-277.371 -285.127)"/><path class="a" d="M313.4,363.953a1.145,1.145,0,0,1,.025-.228,2.454,2.454,0,0,1,.213-.617,3.42,3.42,0,0,1,1.8-1.562,5.263,5.263,0,0,1,3.535-.127,3.434,3.434,0,0,1,1.852,1.043,1.108,1.108,0,0,1,.136,1.13,1.791,1.791,0,0,1-.855.806,2.747,2.747,0,0,1-1.139.284,1.67,1.67,0,0,1-1.093-.34,1.4,1.4,0,0,1-.488-.991,2.49,2.49,0,0,1,.164-1.04,4.674,4.674,0,0,1,2.47-2.507,4.877,4.877,0,0,1,2.365-.408,3.362,3.362,0,0,1,.864.182c0,.022-.309-.08-.871-.12a4.939,4.939,0,0,0-3.667,1.349,4.322,4.322,0,0,0-1.034,1.544,2.337,2.337,0,0,0-.151.979,1.235,1.235,0,0,0,.438.88,1.5,1.5,0,0,0,.988.309,2.55,2.55,0,0,0,1.068-.265,1.649,1.649,0,0,0,.784-.732.96.96,0,0,0-.117-.972,2.225,2.225,0,0,0-.806-.636,5.778,5.778,0,0,0-.948-.355,5.193,5.193,0,0,0-3.451.09,3.414,3.414,0,0,0-1.784,1.485,3.3,3.3,0,0,0-.293.821Z" transform="translate(-300.82 -322.673)"/><path class="a" d="M287.48,375.755c0-.031.457-.068,1.151-.309a5.757,5.757,0,0,0,3.686-4.087c.176-.716.17-1.182.2-1.179a1.068,1.068,0,0,1,.015.324,4.689,4.689,0,0,1-.1.88,5.538,5.538,0,0,1-3.76,4.158,4.749,4.749,0,0,1-.864.194A1.127,1.127,0,0,1,287.48,375.755Z" transform="translate(-282.902 -330.138)"/><path class="a" d="M274.86,357.47a.616.616,0,0,1,.145-.059c.1-.031.241-.074.429-.123a5.3,5.3,0,0,1,1.639-.167,3.446,3.446,0,0,1,1.111.275,2.578,2.578,0,0,1,1.037.815,2.13,2.13,0,0,1,.4,1.4,1.722,1.722,0,0,1-.238.753,1.192,1.192,0,0,1-.617.525.827.827,0,0,1-.812-.161,1.083,1.083,0,0,1-.281-.747,3.216,3.216,0,0,1,.284-1.429,3.133,3.133,0,0,1,3.4-1.824,2.52,2.52,0,0,1,.435.108c.1.037.145.059.142.065a4.948,4.948,0,0,0-.587-.111,3.248,3.248,0,0,0-1.584.2,3.035,3.035,0,0,0-1.658,1.618,3.119,3.119,0,0,0-.262,1.361.926.926,0,0,0,.235.642.67.67,0,0,0,.651.123,1.05,1.05,0,0,0,.543-.457,1.594,1.594,0,0,0,.216-.682,2,2,0,0,0-.367-1.3,2.417,2.417,0,0,0-.972-.778,3.337,3.337,0,0,0-1.068-.284,5.582,5.582,0,0,0-1.611.114C275.073,357.427,274.866,357.482,274.86,357.47Z" transform="translate(-274.178 -320.808)"/><g class="i" transform="translate(7.832 31.51)"><path d="M308.608,354.678c-1.284-.725-2.541-1.284-3.883-1.892a8.8,8.8,0,0,1-3.541-2.581c-1.658-2.235-1.469-5.461-3.164-7.665q.167,2.223.33,4.448c.1,1.358-.1,2.7.769,3.627a8.488,8.488,0,0,0,3.2,1.71c2.047.676,4.251,1.679,6.294,2.352" transform="translate(-298.02 -342.54)"/></g><path class="g" d="M394.788,436.71s10.054,2.778,10.459,2.927c.617.213.5,2.433-.438,2.4-.448-.015-7.718.272-8.644.216a21.972,21.972,0,0,1-3.7-1.151Z" transform="translate(-355.474 -376.13)"/><path class="f" d="M413.529,444.647a8.857,8.857,0,0,1,.445-1.08,9,9,0,0,1,.71-.926,2.223,2.223,0,0,0-1.155,2Z" transform="translate(-370.039 -380.229)"/><path class="f" d="M410.13,443.307c.049,0,.151-.466.42-.991s.583-.892.549-.926a2.516,2.516,0,0,0-.969,1.92Z" transform="translate(-367.69 -379.365)"/><path class="f" d="M406.884,442.263a6.707,6.707,0,0,1,.235-1.062,7.061,7.061,0,0,1,.546-.941,1.886,1.886,0,0,0-.781,2Z" transform="translate(-365.41 -378.584)"/><path class="f" d="M405.761,437.312a1.793,1.793,0,0,0,.108-.747,3.705,3.705,0,0,0-.1-.821,3.278,3.278,0,0,0-.151-.466.531.531,0,0,0-.161-.247.272.272,0,0,0-.346.018.435.435,0,0,0-.133.284,1.542,1.542,0,0,0,0,.265,2.071,2.071,0,0,0,.062.491,3,3,0,0,0,.309.769,2.069,2.069,0,0,0,.451.617c.025,0-.145-.25-.346-.661a3.287,3.287,0,0,1-.262-.747,2.213,2.213,0,0,1-.049-.46c0-.154,0-.346.093-.42a.1.1,0,0,1,.133,0,.454.454,0,0,1,.111.176,3.987,3.987,0,0,1,.151.445,3.925,3.925,0,0,1,.133.784C405.78,437.025,405.733,437.309,405.761,437.312Z" transform="translate(-364.124 -374.932)"/><path class="f" d="M402.993,441.966a1.411,1.411,0,0,0-.648-.1,2.979,2.979,0,0,0-.713.086,1.729,1.729,0,0,0-.414.151.426.426,0,0,0-.225.46.509.509,0,0,0,.361.361.926.926,0,0,0,.451,0,1.685,1.685,0,0,0,.654-.309,1.748,1.748,0,0,0,.466-.46,4.939,4.939,0,0,0-.534.361,1.771,1.771,0,0,1-.617.269.765.765,0,0,1-.374,0,.34.34,0,0,1-.244-.238.262.262,0,0,1,.148-.281,1.489,1.489,0,0,1,.364-.142,3.239,3.239,0,0,1,.679-.117C402.74,441.954,402.987,441.994,402.993,441.966Z" transform="translate(-361.368 -379.688)"/><path class="f" d="M418.388,445.695a5.946,5.946,0,0,1,.2-.908,5.49,5.49,0,0,1,.491-.787A1.448,1.448,0,0,0,418.388,445.695Z" transform="translate(-373.354 -381.169)"/><path class="f" d="M395.81,450.993a1.8,1.8,0,0,0,.389.185,9.318,9.318,0,0,0,1.117.346,16.082,16.082,0,0,0,3.84.364c1.506-.019,2.865-.086,3.85-.127l1.164-.062a2.54,2.54,0,0,0,.426-.043,2.042,2.042,0,0,0-.429-.022H405l-3.846.074a18,18,0,0,1-3.812-.309C396.381,451.206,395.822,450.959,395.81,450.993Z" transform="translate(-357.79 -386.001)"/><path class="f" d="M394.85,449.868c0,.022.287-.139.753-.343a3.482,3.482,0,0,1,1.9-.309,3.025,3.025,0,0,1,1.645.975,5.918,5.918,0,0,0,.577.593,3.086,3.086,0,0,0-.491-.673,4.012,4.012,0,0,0-.667-.617,2.39,2.39,0,0,0-1.04-.438,3.331,3.331,0,0,0-1.979.374A2.571,2.571,0,0,0,394.85,449.868Z" transform="translate(-357.127 -384.648)"/><path class="g" d="M342.9,427.72s-9.514,6.23-9.854,6.483c-.512.386.074,2.229.963,1.911.42-.151,8.4-2.374,9.261-2.707a22.344,22.344,0,0,0,3.17-2.2Z" transform="translate(-314.267 -369.915)"/><path class="f" d="M352.41,440.189a2.226,2.226,0,0,0-1.71-1.559,8.742,8.742,0,0,1,.96.667A9.336,9.336,0,0,1,352.41,440.189Z" transform="translate(-326.606 -377.457)"/><path class="f" d="M355.631,437.723a2.522,2.522,0,0,0-1.5-1.544c-.025.043.392.309.8.716S355.588,437.748,355.631,437.723Z" transform="translate(-328.975 -375.763)"/><path class="f" d="M358.78,435.674a1.874,1.874,0,0,0-1.34-1.664,7.318,7.318,0,0,1,.806.732A6.765,6.765,0,0,1,358.78,435.674Z" transform="translate(-331.265 -374.263)"/><path class="f" d="M358.878,430.239c.025,0-.1-.269-.213-.713a3.876,3.876,0,0,1-.114-.787,3.469,3.469,0,0,1,0-.469.386.386,0,0,1,.052-.2.1.1,0,0,1,.13-.031c.108.043.164.228.216.377a2.385,2.385,0,0,1,.093.451,3.284,3.284,0,0,1-.025.793c-.065.451-.154.725-.13.735a2,2,0,0,0,.247-.716,2.946,2.946,0,0,0,.062-.824,2.33,2.33,0,0,0-.089-.488,2.048,2.048,0,0,0-.093-.25.444.444,0,0,0-.216-.232.269.269,0,0,0-.333.09.549.549,0,0,0-.077.284,3.464,3.464,0,0,0,.148,1.3A1.816,1.816,0,0,0,358.878,430.239Z" transform="translate(-331.913 -370.011)"/><path class="f" d="M359.89,434.305c0,.025.235-.086.617-.182a3.441,3.441,0,0,1,.682-.093,1.507,1.507,0,0,1,.392.025.269.269,0,0,1,.228.222.346.346,0,0,1-.164.309.781.781,0,0,1-.352.117,1.706,1.706,0,0,1-.67-.068,4.5,4.5,0,0,0-.617-.182,1.759,1.759,0,0,0,.587.309,1.692,1.692,0,0,0,.719.108.9.9,0,0,0,.429-.136.5.5,0,0,0,.238-.451.426.426,0,0,0-.355-.37,1.652,1.652,0,0,0-.438-.019,3.034,3.034,0,0,0-.707.133A1.43,1.43,0,0,0,359.89,434.305Z" transform="translate(-332.959 -374.179)"/><path class="f" d="M338.256,448.539c0,.015.161-.1.235-.367a1.426,1.426,0,0,0-.179-1.034,3.974,3.974,0,0,0-.309-.475,1.851,1.851,0,0,0-.324-.346.562.562,0,0,0-.309-.127c-.08,0-.12.015-.12.025a.7.7,0,0,1,.346.194,2.044,2.044,0,0,1,.275.346,5.441,5.441,0,0,1,.309.463,1.47,1.47,0,0,1,.21.926A3.454,3.454,0,0,1,338.256,448.539Z" transform="translate(-317.308 -382.683)"/><path class="f" d="M348.953,442.392a1.164,1.164,0,0,0-.336-.911,1.145,1.145,0,0,0-.837-.491,5.421,5.421,0,0,1,.707.6A5.507,5.507,0,0,1,348.953,442.392Z" transform="translate(-324.587 -379.089)"/><path class="f" d="M346.778,440.07a2.918,2.918,0,0,0-.42.284,12.1,12.1,0,0,1-1.173.719,15.357,15.357,0,0,1-1.852.83c-.722.269-1.544.522-2.383.769-1.713.494-3.263.945-4.38,1.281l-1.331.417a2.912,2.912,0,0,0-.478.173,3.225,3.225,0,0,0,.5-.108l1.337-.374c1.127-.309,2.68-.741,4.393-1.235.855-.25,1.667-.509,2.389-.787a14.14,14.14,0,0,0,1.868-.87,9.415,9.415,0,0,0,1.155-.772A3.025,3.025,0,0,0,346.778,440.07Z" transform="translate(-315.586 -378.453)"/><path class="f" d="M365.062,439.871a2.74,2.74,0,0,0-.806-.216,3.346,3.346,0,0,0-2,.247,2.362,2.362,0,0,0-.846.747,4.017,4.017,0,0,0-.448.8,3,3,0,0,0-.262.79,6.241,6.241,0,0,0,.37-.741,3.022,3.022,0,0,1,1.272-1.432,3.492,3.492,0,0,1,1.908-.275C364.744,439.828,365.056,439.9,365.062,439.871Z" transform="translate(-333.519 -378.127)"/><path class="f" d="M368.82,377.367a4.552,4.552,0,0,1,2.865,4.22c.025,6.128-12.385,12.885-12.385,12.885l-16.516-10.94-1.034-.42S364.054,374.74,368.82,377.367Z" transform="translate(-320.419 -334.754)"/><path class="j" d="M372.2,397.134a3.054,3.054,0,0,0,.432-.29c.269-.2.654-.488,1.127-.855.948-.729,2.232-1.766,3.618-2.954s2.6-2.3,3.467-3.127c.432-.411.778-.75,1.016-.988a2.907,2.907,0,0,0,.352-.38,3.014,3.014,0,0,0-.4.333l-1.05.948c-.886.8-2.115,1.9-3.5,3.087s-2.655,2.235-3.578,2.988l-1.1.9a3.26,3.26,0,0,0-.392.343Z" transform="translate(-341.469 -342.83)"/><path class="j" d="M407.607,385.879a4.1,4.1,0,0,0-3.007.886c.028.046.617-.34,1.463-.58S407.607,385.931,407.607,385.879Z" transform="translate(-363.867 -340.975)"/><path class="j" d="M406.384,382.8a2.525,2.525,0,0,0-1.494,1.852,11.721,11.721,0,0,1,.645-1.006C405.952,383.136,406.412,382.843,406.384,382.8Z" transform="translate(-364.067 -338.862)"/><path class="f" d="M430.315,445.642c0-.019-.2-.059-.426.13a1.519,1.519,0,0,0-.475.957,1.88,1.88,0,0,0,.148,1.059c.117.25.247.367.262.355a2.976,2.976,0,0,0-.151-.4,2.133,2.133,0,0,1-.093-.988,1.655,1.655,0,0,1,.389-.9C430.145,445.676,430.318,445.67,430.315,445.642Z" transform="translate(-381.006 -382.293)"/><path class="j" d="M346.2,346.06l-5.881,14.91L315,361.384l-.469-1.371,8.875-.321,4.266-13.228Z" transform="translate(-301.602 -313.464)"/><path class="d" d="M377.736,366.731a1.13,1.13,0,0,1,1.219.133.979.979,0,0,1,.238,1.077,1.065,1.065,0,0,1-.926.639.963.963,0,0,1-.969-.639,1.09,1.09,0,0,1,.426-1.21" transform="translate(-344.961 -327.67)"/><path class="f" d="M322.381,398.332S299.05,383.027,298.1,382.709s-3.266-1.831-5.572-1.195a8.513,8.513,0,0,0-5.415,5.733,30.82,30.82,0,0,0-1,6.89,10.234,10.234,0,0,0,2.392,7.285,6.51,6.51,0,0,0,2.908,2.065c.244.077.5.142.756.2a10.965,10.965,0,0,0,11.422-4.8l.543-.827s15.265,5.606,15.5,5.529Z" transform="translate(-281.938 -337.866)"/><path class="j" d="M310.16,396.4a1.31,1.31,0,0,0,.127.056l.383.151,1.479.571,5.5,2.071c2.334.871,5.131,1.908,8.27,3.05s6.616,2.392,10.332,3.649l.065.025.034-.065,1.824-3.482.926-1.775.034-.068-.065-.04-17.8-11.3-5.347-3.371-1.451-.908-.38-.232c-.086-.052-.133-.074-.133-.074l.123.09.37.244,1.435.926,5.334,3.423,17.769,11.342-.031-.111c-.293.565-.617,1.167-.926,1.775l-1.821,3.482.1-.04c-3.7-1.253-7.193-2.5-10.335-3.633l-8.282-3.013-5.529-2.031-1.488-.543-.389-.136Z" transform="translate(-298.581 -340.148)"/><path class="f" d="M308.471,242.374a2.988,2.988,0,0,1,2.392-1.812,3.575,3.575,0,0,1,3.2.824c.565.516.979,1.235,1.676,1.544,1.151.522,2.624-.241,3.7.4a1.63,1.63,0,0,1-1.05,3.019,1.444,1.444,0,0,1,.374,2.13,2.173,2.173,0,0,1-2.269.6,4.581,4.581,0,0,1-2.022-1.392c-.562-.617-1.056-1.281-1.667-1.852a3.547,3.547,0,0,0-2.2-1.043,3.25,3.25,0,0,0-2.744,1.667,8.406,8.406,0,0,0-.972,3.2,13.691,13.691,0,0,1-.716,3.278c-.049.123-.123.256-.25.284-.188.04-.324-.167-.4-.343a16.444,16.444,0,0,1-1.315-6.267,5.115,5.115,0,0,1,.9-3.4c.775-.979,2.562-1.587,3.343-.852" transform="translate(-294.472 -240.468)"/><path class="k" d="M305.559,250.657l-1.716,12.465a3.745,3.745,0,0,0,3.4,4.238h0a3.748,3.748,0,0,0,4.038-3.226c.127-.926.235-1.719.256-1.815a3.813,3.813,0,0,0,3.874-2.97c.309-1.5.725-4.652,1.062-7.5a5.921,5.921,0,0,0-4.723-6.483l-.309-.059C308.149,244.835,305.926,247.366,305.559,250.657Z" transform="translate(-294.19 -243.773)"/><path class="l" d="M320.241,295.979A7.409,7.409,0,0,1,316.41,294a3.922,3.922,0,0,0,3.677,2.778Z" transform="translate(-302.901 -277.475)"/><path class="f" d="M338.454,271.68a.451.451,0,0,1-.519.361.429.429,0,0,1-.377-.491.451.451,0,0,1,.519-.364.432.432,0,0,1,.377.494Z" transform="translate(-317.518 -261.699)"/><path class="f" d="M337.645,269.634c-.068.049-.355-.269-.833-.364s-.88.077-.926,0,.059-.123.235-.2a1.21,1.21,0,0,1,.747-.077,1.183,1.183,0,0,1,.648.361C337.648,269.5,337.676,269.616,337.645,269.634Z" transform="translate(-316.357 -260.166)"/><path class="f" d="M323.129,269.163a.451.451,0,0,1-.519.364.438.438,0,0,1-.38-.494.46.46,0,0,1,.519-.364.435.435,0,0,1,.38.494Z" transform="translate(-306.922 -259.96)"/><path class="f" d="M322.335,266.88c-.068.046-.355-.272-.834-.367s-.88.077-.926,0,.059-.124.235-.2a1.247,1.247,0,0,1,1.4.284C322.338,266.759,322.366,266.858,322.335,266.88Z" transform="translate(-305.773 -258.26)"/><path class="f" d="M329.63,271.965a3.1,3.1,0,0,1,.806.015c.127,0,.247,0,.284-.071a.617.617,0,0,0,0-.377c-.056-.309-.114-.654-.176-1.006a16.66,16.66,0,0,1-.327-2.6,15.075,15.075,0,0,1,.534,2.565c.056.352.111.685.16,1.006a.71.71,0,0,1-.034.494.309.309,0,0,1-.235.136.759.759,0,0,1-.213,0A3.277,3.277,0,0,1,329.63,271.965Z" transform="translate(-312.04 -259.452)"/><path class="f" d="M324.524,281.178c.08,0-.025.531.346.988s.926.512.926.587-.142.074-.377.034a1.331,1.331,0,0,1-.781-.457,1.158,1.158,0,0,1-.256-.824C324.406,281.283,324.49,281.166,324.524,281.178Z" transform="translate(-308.409 -268.61)"/><path class="f" d="M322.92,261.076c-.071.123-.537-.034-1.114-.08s-1.059.019-1.111-.114c-.022-.062.083-.167.29-.256a1.883,1.883,0,0,1,.864-.123,1.852,1.852,0,0,1,.834.272C322.87,260.9,322.947,261.021,322.92,261.076Z" transform="translate(-305.861 -254.312)"/><path class="f" d="M338.318,265c-.1.093-.411-.086-.809-.173s-.747-.071-.8-.2c-.025-.062.049-.161.219-.235a1.146,1.146,0,0,1,.695-.046,1.114,1.114,0,0,1,.6.349C338.34,264.833,338.367,264.953,338.318,265Z" transform="translate(-316.931 -256.951)"/><path class="k" d="M303.407,269.793c-.049-.034-2.016-1.062-2.374,1.084a1.634,1.634,0,0,0,1.883,2C302.928,272.815,303.407,269.793,303.407,269.793Z" transform="translate(-292.244 -260.55)"/><path class="l" d="M303.611,273.435a.559.559,0,0,1-.108.04.386.386,0,0,1-.281-.04.926.926,0,0,1-.29-.9,1.235,1.235,0,0,1,.194-.519.441.441,0,0,1,.318-.25.194.194,0,0,1,.2.142.18.18,0,0,1,0,.108s.052-.028.049-.117a.244.244,0,0,0-.062-.148.272.272,0,0,0-.2-.09.531.531,0,0,0-.445.265,1.3,1.3,0,0,0-.232.577.976.976,0,0,0,.392,1.016.4.4,0,0,0,.352,0C303.6,273.487,303.618,273.441,303.611,273.435Z" transform="translate(-293.458 -262.031)"/><path class="f" d="M320.1,250.339a4.593,4.593,0,0,1-3.819-1.7c-.617-.8-1.028-1.837-1.92-2.318a2.59,2.59,0,0,0-1.991-.123,5.029,5.029,0,0,0-1.735,1.056c.284,1.7-.472,3.4-1.21,4.939a.861.861,0,0,1-.349.441c-.29.145-.636-.083-.812-.358a2.692,2.692,0,0,1-.309-1.5,8.987,8.987,0,0,1,.71-3.451,6.09,6.09,0,0,1,2.244-2.686,5.77,5.77,0,0,1,4.263-.707,7.1,7.1,0,0,1,3.738,2.244,4.17,4.17,0,0,1,1.009,1.769" transform="translate(-297.051 -242.766)"/></g><g transform="translate(38.379 108.034)"><path class="f" d="M55.8,311.048a.618.618,0,0,1,.056-.13l.173-.374a9.537,9.537,0,0,0,.516-1.494,13.173,13.173,0,0,0-.046-5.763,30.583,30.583,0,0,0-1.068-3.874c-.454-1.374-.979-2.831-1.408-4.408a17.1,17.1,0,0,1-.695-5.069,19.847,19.847,0,0,1,1.179-5.365,25.858,25.858,0,0,0,1.364-5.282,8.026,8.026,0,0,0-.966-4.877c-.775-1.426-1.744-2.642-2.47-3.905a13.584,13.584,0,0,1-1.488-3.751,14,14,0,0,1-.093-5.813,10.987,10.987,0,0,1,.617-2.053.818.818,0,0,1-.034.139l-.123.392a13.876,13.876,0,0,0-.225,7.3,13.41,13.41,0,0,0,1.491,3.7c.725,1.235,1.7,2.47,2.488,3.9a8.224,8.224,0,0,1,.985,4.97,26.121,26.121,0,0,1-1.371,5.322,19.845,19.845,0,0,0-1.173,5.313,16.978,16.978,0,0,0,.676,5.019c.423,1.568.945,3.025,1.389,4.405a30.369,30.369,0,0,1,1.053,3.9,13.281,13.281,0,0,1,0,5.807,8.477,8.477,0,0,1-.549,1.491c-.08.154-.145.275-.191.367a.808.808,0,0,1-.086.13Z" transform="translate(-46.825 -258.89)"/><path class="g" d="M58.829,283.661s-1.479-4.723,1.173-7.489a.164.164,0,0,1,.281.08C60.425,277.033,60.6,279.41,58.829,283.661Z" transform="translate(-52.232 -270.801)"/><path class="f" d="M60.516,281.39a4.408,4.408,0,0,1-.1.871c-.1.617-.21,1.306-.336,2.084s-.235,1.485-.33,2.084a4.631,4.631,0,0,1-.157.864,3.787,3.787,0,0,1,.028-.88c.049-.54.145-1.281.278-2.1s.275-1.544.392-2.078A3.828,3.828,0,0,1,60.516,281.39Z" transform="translate(-53.032 -274.444)"/><path class="g" d="M65.37,323.046s.9-4.868,4.541-6.066a.164.164,0,0,1,.21.2C69.886,317.93,68.926,320.116,65.37,323.046Z" transform="translate(-57.038 -299.041)"/><path class="f" d="M68.83,321.05a4.4,4.4,0,0,1-.5.722c-.364.488-.8,1.056-1.272,1.686l-1.278,1.689a4.761,4.761,0,0,1-.543.688,3.782,3.782,0,0,1,.435-.766c.309-.454.725-1.065,1.235-1.723s.969-1.235,1.318-1.655A3.816,3.816,0,0,1,68.83,321.05Z" transform="translate(-56.948 -301.861)"/><path class="g" d="M62.107,360.162s-.549-4.921,2.581-7.131a.164.164,0,0,1,.259.136C64.938,353.957,64.657,356.325,62.107,360.162Z" transform="translate(-54.757 -323.948)"/><path class="f" d="M64.132,357.93a4.154,4.154,0,0,1-.265.837l-.729,1.982-.719,1.982a4.569,4.569,0,0,1-.309.818,3.951,3.951,0,0,1,.194-.858c.151-.522.386-1.235.673-2.007s.568-1.466.781-1.963A3.863,3.863,0,0,1,64.132,357.93Z" transform="translate(-54.784 -327.356)"/><path class="g" d="M71.03,400.188s-.374-4.939,2.834-7.032a.164.164,0,0,1,.256.142C74.08,394.085,73.716,396.44,71.03,400.188Z" transform="translate(-60.942 -351.687)"/><path class="f" d="M73.216,398a4.274,4.274,0,0,1-.309.827c-.232.562-.5,1.235-.8,1.951l-.793,1.957a4.708,4.708,0,0,1-.315.79,3.738,3.738,0,0,1,.225-.849c.167-.516.429-1.216.744-1.979s.617-1.448.849-1.936A3.913,3.913,0,0,1,73.216,398Z" transform="translate(-60.93 -355.056)"/><path class="g" d="M42.853,273.019s-4.387-2.291-4.473-6.122a.164.164,0,0,1,.256-.142C39.287,267.206,41.093,268.759,42.853,273.019Z" transform="translate(-38.379 -264.307)"/><path class="f" d="M41.33,271.54a4.293,4.293,0,0,1,.546.685l1.235,1.71,1.235,1.707a4.835,4.835,0,0,1,.5.719,3.5,3.5,0,0,1-.617-.639c-.349-.414-.809-1.006-1.29-1.676s-.9-1.29-1.195-1.747a3.789,3.789,0,0,1-.414-.759Z" transform="translate(-40.419 -267.635)"/><path class="g" d="M57.3,306.53s-4.516-2.019-4.837-5.838a.164.164,0,0,1,.247-.154C53.385,300.936,55.283,302.378,57.3,306.53Z" transform="translate(-48.112 -287.665)"/><path class="f" d="M55.67,305.14a4.39,4.39,0,0,1,.587.651l1.34,1.633,1.343,1.627a4.477,4.477,0,0,1,.537.676,3.974,3.974,0,0,1-.639-.617c-.374-.4-.867-.957-1.389-1.6s-.979-1.235-1.3-1.67A3.774,3.774,0,0,1,55.67,305.14Z" transform="translate(-50.332 -290.862)"/><path class="g" d="M55.154,339.817s-3.1-3.859-1.645-7.409a.164.164,0,0,1,.29-.028C54.215,333.063,55.243,335.208,55.154,339.817Z" transform="translate(-48.569 -309.641)"/><path class="f" d="M55.369,337.75a4.279,4.279,0,0,1,.225.846c.13.6.281,1.293.451,2.065s.309,1.466.454,2.059a4.837,4.837,0,0,1,.17.861,3.535,3.535,0,0,1-.309-.827c-.154-.522-.336-1.235-.509-2.056s-.309-1.544-.4-2.074A4.013,4.013,0,0,1,55.369,337.75Z" transform="translate(-50.124 -313.406)"/><path class="g" d="M59.058,386.131s-4.485-2.093-4.739-5.921a.164.164,0,0,1,.247-.151C55.239,380.481,57.113,381.954,59.058,386.131Z" transform="translate(-49.398 -342.638)"/><path class="f" d="M57.45,384.73a4.32,4.32,0,0,1,.577.661c.377.478.821,1.037,1.312,1.655l1.315,1.652a4.841,4.841,0,0,1,.531.7,3.663,3.663,0,0,1-.617-.617c-.364-.4-.849-.969-1.358-1.618s-.972-1.247-1.281-1.689a4.121,4.121,0,0,1-.478-.741Z" transform="translate(-51.563 -345.883)"/><path class="f" d="M79.423,336.73a.478.478,0,0,1,0,.111v.309c0,.309-.031.7-.052,1.2-.059,1.056-.139,2.525-.235,4.288h0a16.264,16.264,0,0,1-2.47,5.7c-.9,1.42-1.852,2.713-2.652,3.914a27.64,27.64,0,0,0-1.991,3.288,13.8,13.8,0,0,0-.926,2.414c-.08.293-.139.525-.173.682a1.235,1.235,0,0,1-.065.238,1.213,1.213,0,0,1,.028-.244c.022-.16.071-.4.139-.695a12.879,12.879,0,0,1,.883-2.47,26.509,26.509,0,0,1,1.966-3.325c.806-1.21,1.744-2.5,2.639-3.914a16.886,16.886,0,0,0,2.47-5.637h0c.123-1.757.225-3.226.309-4.282.04-.5.074-.9.1-1.2a2.286,2.286,0,0,1,.034-.309A.346.346,0,0,1,79.423,336.73Z" transform="translate(-60.833 -312.701)"/><path class="g" d="M87.748,356.114s1.9-4.572-.491-7.566a.164.164,0,0,0-.287.056C86.744,349.368,86.352,351.73,87.748,356.114Z" transform="translate(-71.812 -320.826)"/><path class="f" d="M88.8,353.86a4.013,4.013,0,0,1,.151.864c.068.537.142,1.281.2,2.105s.086,1.571.086,2.112a3.535,3.535,0,0,1-.052.877,4.541,4.541,0,0,1-.077-.871c-.04-.617-.09-1.318-.142-2.105s-.1-1.5-.145-2.105A4.457,4.457,0,0,1,88.8,353.86Z" transform="translate(-73.229 -324.543)"/><g class="i" transform="translate(14.93 27.658)"><path d="M87.748,356.114s1.9-4.572-.491-7.566a.164.164,0,0,0-.287.056C86.744,349.368,86.352,351.73,87.748,356.114Z" transform="translate(-86.742 -348.483)"/></g><path class="g" d="M67.59,391.969s1.522-4.708-1.1-7.5a.164.164,0,0,0-.281.077C66.055,385.326,65.858,387.7,67.59,391.969Z" transform="translate(-57.55 -345.667)"/><path class="f" d="M68.21,389.69a3.907,3.907,0,0,1,.219.852c.111.528.247,1.263.374,2.081s.213,1.559.256,2.1a3.617,3.617,0,0,1,.019.88,4.89,4.89,0,0,1-.148-.864c-.09-.617-.194-1.306-.309-2.087s-.225-1.485-.309-2.087A4.47,4.47,0,0,1,68.21,389.69Z" transform="translate(-59.001 -349.312)"/><g class="i" transform="translate(8.561 38.751)"><path d="M67.59,391.969s1.522-4.708-1.1-7.5a.164.164,0,0,0-.281.077C66.055,385.326,65.858,387.7,67.59,391.969Z" transform="translate(-66.111 -384.418)"/></g><path class="g" d="M97.78,339.885s4.056-2.84,3.646-6.649a.164.164,0,0,0-.272-.108C100.568,333.677,98.975,335.433,97.78,339.885Z" transform="translate(-79.443 -310.182)"/><g class="i" transform="translate(18.337 22.905)"><path d="M97.78,339.885s4.056-2.84,3.646-6.649a.164.164,0,0,0-.272-.108C100.568,333.677,98.975,335.433,97.78,339.885Z" transform="translate(-97.78 -333.086)"/></g><path class="f" d="M100.784,338.18a3.964,3.964,0,0,1-.336.809c-.232.491-.568,1.158-.96,1.886s-.769,1.374-1.062,1.831a3.373,3.373,0,0,1-.516.71,4.915,4.915,0,0,1,.4-.778l1.009-1.852,1.006-1.852A4.271,4.271,0,0,1,100.784,338.18Z" transform="translate(-79.533 -313.703)"/><path class="g" d="M76.19,383.494s4.881-.763,6.2-4.362a.164.164,0,0,0-.2-.216C81.432,379.132,79.218,380.024,76.19,383.494Z" transform="translate(-64.518 -341.859)"/><g class="i" transform="translate(11.672 37.05)"><path d="M76.19,383.494s4.881-.763,6.2-4.362a.164.164,0,0,0-.2-.216C81.432,379.132,79.218,380.024,76.19,383.494Z" transform="translate(-76.19 -378.91)"/></g><path class="f" d="M81.191,382.72a4.137,4.137,0,0,1-.654.577c-.423.34-1.019.79-1.692,1.269s-1.3.9-1.757,1.179a3.652,3.652,0,0,1-.778.411,4.827,4.827,0,0,1,.7-.522l1.726-1.216,1.719-1.235a4.174,4.174,0,0,1,.732-.463Z" transform="translate(-64.601 -344.493)"/><path class="j" d="M57.886,422.92l-1.426,9.6h8.891l-1.155-9.6Z" transform="translate(-50.879 -372.284)"/><path class="f" d="M66.621,432.318a34.353,34.353,0,0,1-3.587.093,34.267,34.267,0,0,1-3.584-.093,35.376,35.376,0,0,1,3.584-.093A35.41,35.41,0,0,1,66.621,432.318Z" transform="translate(-52.945 -378.709)"/><path class="f" d="M66.659,434.793c0,.049-1.658.093-3.7.093s-3.7-.043-3.7-.093,1.658-.093,3.7-.093S66.659,434.749,66.659,434.793Z" transform="translate(-52.807 -380.427)"/></g></g></g></svg>