<svg xmlns="http://www.w3.org/2000/svg" width="211.654" height="124.558" viewBox="0 0 211.654 124.558"><defs><style>.a{fill:#fff;}.b{fill:#263238;}.c{fill:#455a64;}.d{fill:#e8505b;}.e{opacity:0.3;}.f{opacity:0.7;}.g{fill:#e0e0e0;}.h{fill:#f5f5f5;}.i{fill:#ffbe9d;}.j{fill:#eb996e;}.k{opacity:0.4;}.l{fill:#ebebeb;}</style></defs><g transform="translate(-1002.546 -1142.365)"><path class="a" d="M-1965.962,975.87c-15.12,3.321-30.576.21-45.724-1.3-9.973-.992-19.587.359-29.583,1.092-25.412,1.864-53.6-1.415-61.731-24.9-6.774-19.57,4.174-48.607,27.769-60.1,8.161-3.975,16.469-4.759,24.577-3.943,4.868.49,10.3,2.357,15.542.391,5.532-2.075,9.624-7.833,13.363-11.982,5.564-6.177,11.441-12.651,18.906-16.827,17.123-9.577,27.306-.24,32.45,15.111,2.5,7.463,3.829,15.241,5.844,22.831,2.857,10.766,9.054,18.585,16.035,27.248,6.214,7.717,12.031,16.74,11.029,26.53-1.135,11.11-11.145,20.222-22.306,24.106a53.543,53.543,0,0,1-6.171,1.739" transform="translate(3121.979 287.939)"/><g transform="translate(-1907 24395.781)"><g transform="translate(2934.268 -23236)"><g transform="translate(0 0)"><rect class="b" width="19.608" height="17.845" transform="translate(22.268 21.534)"/><rect class="b" width="19.608" height="17.845" transform="translate(0.001 21.534)"/><path class="b" d="M170.09,125.44H189.7v-17.1a1.527,1.527,0,0,0-1.469-1.578H170.09Z" transform="translate(-147.822 -106.76)"/><path class="b" d="M170.09,297.38V315.1h17.692a1.993,1.993,0,0,0,1.917-2.061V297.38Z" transform="translate(-147.822 -255.146)"/><path class="b" d="M89.2,297.38H69.587v16.15a1.527,1.527,0,0,0,1.469,1.578H89.2Z" transform="translate(-69.586 -255.146)"/><path class="b" d="M89.2,125.44V106.76H71.056a1.527,1.527,0,0,0-1.469,1.578v17.1Z" transform="translate(-69.586 -106.76)"/><path class="a" d="M95.116,117.16a7.755,7.755,0,0,1-7.766,12.775,7.755,7.755,0,1,0,7.766-12.775Z" transform="translate(-83.414 -114.856)"/><circle class="a" cx="0.456" cy="0.456" r="0.456" transform="translate(27.348 6.108)"/><circle class="a" cx="0.456" cy="0.456" r="0.456" transform="translate(3.597 45.243)"/><circle class="a" cx="0.456" cy="0.456" r="0.456" transform="translate(16.771 31.858)"/><circle class="a" cx="0.456" cy="0.456" r="0.456" transform="translate(35.646 26.771)"/><path class="a" d="M226.455,164.1a.253.253,0,1,1-.073-.18A.253.253,0,0,1,226.455,164.1Z" transform="translate(-191.306 -151.201)"/><circle class="a" cx="0.253" cy="0.253" r="0.253" transform="translate(15.005 33.994)"/><path class="a" d="M98.945,233.765a.253.253,0,1,1-.073-.18A.253.253,0,0,1,98.945,233.765Z" transform="translate(-92.047 -205.427)"/><circle class="a" cx="0.253" cy="0.253" r="0.253" transform="translate(31.875 26.975)"/><path class="a" d="M141.14,115.363a.255.255,0,1,1-.255-.253.255.255,0,0,1,.255.253Z" transform="translate(-124.889 -113.26)"/></g></g><g transform="translate(2909.546 -23210.859)"><g transform="translate(3.842 76.607)"><path class="b" d="M273.242,429.083c0,.045-46.525.083-103.9.083s-103.912-.038-103.912-.083S111.945,429,169.342,429,273.242,429.035,273.242,429.083Z" transform="translate(-65.43 -429)"/></g><g transform="translate(0 16.705)"><rect class="c" width="142.02" height="21.019" transform="matrix(-1, -0.002, 0.002, -1, 152.301, 49.982)"/><path class="d" d="M213.159,255.44s-3.552.4-4.183,0c-1.428-.919-32.513-13.451-59.223-13.48-21.422-.029-40.712,5.653-59.473,18.178,0,0-22.848,2.517-31.77,9.2-2.085,1.211-6.341,5.982-4.717,16.82,1.034,6.911,6.181,7.2,13.211,7.046,0,0-2.617-20.993,16.093-19.389,15.9,1.361,12.855,20.769,12.855,20.769l79.659.125s.349-8.621.689-10.71c.676-4.183,5.874-11.036,15.578-10.018,10.646,1.118,14.188,10.831,13.505,19.03,0,0,11.232,2.428,12.75-6.607l2.681-.833s1.031-18.742-8.327-26.62l2.008-1.336Z" transform="translate(-53.432 -241.96)"/><path class="c" d="M489.563,266.7a2.746,2.746,0,0,1-2.946,1.6c-1.861-.163-12.49-4.192-16.365-5.678a3.757,3.757,0,0,1-2.316-2.479,1.448,1.448,0,0,1-.051-.74S484.41,263.371,489.563,266.7Z" transform="translate(-335.133 -253.815)"/><path class="c" d="M194.818,257.67h0a4.039,4.039,0,0,1-2.3,3.629L169.78,272.133l-1.3-1.4s2.376-1.71,5.483-3.558c2.882-1.707,6.405-3.523,8.509-4.548A92.406,92.406,0,0,1,194.818,257.67Z" transform="translate(-131.635 -252.639)"/><g class="e" transform="translate(40.697 14.486)"><path class="a" d="M278.485,287.19a1.4,1.4,0,0,1,0,2.127c-1.127,1.15-6.5,5.143-8.993,5.387s-78.259,5.3-82.743,4.016-7.11-3.558-5.982-4.865l2.034-.673,35.716.73Z" transform="translate(-180.506 -287.19)"/></g><g class="f" transform="translate(155.983 16.84)"><path class="a" d="M550.732,308.3s-4.41,1.307-6.293-2.171-3.958-7.155-3.958-7.949c0-1,.714-4.2,3.071-3.548C543.551,294.627,550.107,299.85,550.732,308.3Z" transform="translate(-540.48 -294.54)"/></g><g class="f" transform="translate(3.067 24.856)"><path class="a" d="M63.08,328.877s17.076-6.831,14.313-9.159c-1.457-1.23-15.5,5.534-14.313,9.159" transform="translate(-63.009 -319.57)"/></g><path class="b" d="M84.931,353.834v-.17c0-.112-.019-.282-.022-.506,0-.442-.019-1.092,0-1.922A31.252,31.252,0,0,1,86,344.214a22.435,22.435,0,0,1,1.816-4.577,15.923,15.923,0,0,1,3.459-4.445l.567-.5.612-.452a15.1,15.1,0,0,1,1.3-.845c.221-.138.464-.24.7-.362a7.8,7.8,0,0,1,.717-.346l.746-.295.378-.147.388-.118a14.4,14.4,0,0,1,1.6-.42l.813-.17c.275-.042.554-.07.829-.109s.557-.074.839-.1l.845-.042a14.526,14.526,0,0,1,1.713-.038,18.089,18.089,0,0,1,6.565,1.217,14.21,14.21,0,0,1,5.124,3.5,17.556,17.556,0,0,1,3.081,4.717,24.387,24.387,0,0,1,1.547,4.666,34.038,34.038,0,0,1,.807,7.046c0,.842-.022,1.5-.048,1.938a3.8,3.8,0,0,1-.042.5c-.013.112-.026.17-.026.17v-.17a4.623,4.623,0,0,1,.022-.5c.019-.442.032-1.092,0-1.922a34.646,34.646,0,0,0-.855-7.046,24.572,24.572,0,0,0-1.556-4.634,17.413,17.413,0,0,0-3.068-4.669,14.025,14.025,0,0,0-5.086-3.449,17.934,17.934,0,0,0-6.508-1.2,21.137,21.137,0,0,0-6.572.871l-.388.115-.372.147-.74.288c-.247.1-.474.231-.708.343a6.724,6.724,0,0,0-.692.359,14.26,14.26,0,0,0-1.281.83l-.609.448-.56.49a15.85,15.85,0,0,0-3.44,4.4,22.258,22.258,0,0,0-1.835,4.529,31.949,31.949,0,0,0-1.14,6.995c-.042.839-.048,1.489-.045,1.922v.5A1,1,0,0,1,84.931,353.834Z" transform="translate(-74.821 -302.647)"/><path class="b" d="M426.324,356.589a.974.974,0,0,0-.022-.17,4.636,4.636,0,0,1-.035-.493c-.029-.436-.054-1.082-.048-1.922a33.2,33.2,0,0,1,.772-6.979,24.2,24.2,0,0,1,1.505-4.615,16.946,16.946,0,0,1,3.052-4.653,13.8,13.8,0,0,1,5.073-3.443,18.3,18.3,0,0,1,6.5-1.2,21.22,21.22,0,0,1,6.559.765c.128.038.259.067.384.109l.375.138.746.279c.487.192.961.442,1.416.66.439.269.89.512,1.3.8l.605.445c.1.074.2.144.3.224l.279.247a15.577,15.577,0,0,1,3.472,4.346,20.947,20.947,0,0,1,1.774,4.519,28.659,28.659,0,0,1,.961,6.95c.016.829,0,1.476-.035,1.922a3.853,3.853,0,0,1-.038.5,1.594,1.594,0,0,1-.026.167.857.857,0,0,1,0-.17,3.907,3.907,0,0,1,.026-.5c0-.436.029-1.079,0-1.906a29.552,29.552,0,0,0-1-6.924,21.261,21.261,0,0,0-1.784-4.484,15.462,15.462,0,0,0-3.462-4.295l-.275-.243c-.1-.077-.2-.144-.295-.221l-.6-.439c-.407-.285-.855-.525-1.281-.791-.464-.215-.919-.461-1.4-.641l-.737-.272-.371-.135c-.125-.045-.256-.074-.384-.109a21.041,21.041,0,0,0-6.5-.775,18.162,18.162,0,0,0-6.431,1.191,13.672,13.672,0,0,0-5.031,3.395,16.874,16.874,0,0,0-3.039,4.605,24.662,24.662,0,0,0-1.512,4.586,34.507,34.507,0,0,0-.82,6.953c-.016.829,0,1.473.016,1.922a3.024,3.024,0,0,0,.022.5C426.349,356.551,426.324,356.589,426.324,356.589Z" transform="translate(-306.828 -303.909)"/><path class="c" d="M279.322,265.032S272.7,270.8,269.83,270.8s-78.5,4.586-81.865,3.225a34.481,34.481,0,0,1-5.124-2.472s24.679-17.775,53.439-16.923C257.391,255.252,279.322,265.032,279.322,265.032Z" transform="translate(-141.396 -250.55)"/><path class="b" d="M214.553,281.03l-5,11.209-2.536,0,4.128-9.6Z" transform="translate(-157.832 -268.517)"/><g class="e" transform="translate(110.801 26.7)"><path d="M0,0H8.967V1.79a.407.407,0,0,1-.407.407H.407A.407.407,0,0,1,0,1.79V0Z" transform="matrix(-1, -0.002, 0.002, -1, 8.967, 2.211)"/></g><g class="e" transform="translate(75.85 26.662)"><path d="M0,0H8.971V1.774a.407.407,0,0,1-.407.407H.407A.407.407,0,0,1,0,1.774V0Z" transform="matrix(-1, -0.002, 0.002, -1, 8.971, 2.195)"/></g><path class="b" d="M408.165,262.679,416,275.986l-7.3.391.942-6.4-4.791-8.064Z" transform="translate(-292.304 -255.521)"/><path class="b" d="M323.47,254.933l-1.22,18.178,2.661-.131,1.15-18.21Z" transform="translate(-236.158 -250.667)"/><path class="b" d="M214.022,317.228l1.137-1.175-1.809-2.3-1.556,1.489a1.15,1.15,0,0,0-.4.781A1.529,1.529,0,0,0,214.022,317.228Z" transform="translate(-160.792 -290.758)"/><path class="d" d="M222.644,309.043c2.764.093,4.938-2.725,3.789-5.243a1.922,1.922,0,0,0-1.451-1.195c-2.882-.5-6.613-.689-7.619,3.392-.295,1.207.381,1.954,1.486,2.405A11.771,11.771,0,0,0,222.644,309.043Z" transform="translate(-164.815 -283.005)"/><circle class="b" cx="12.673" cy="12.673" r="12.673" transform="matrix(0.069, -0.998, 0.998, 0.069, 14.083, 58.693)"/><path class="g" d="M121.685,362.11a8.442,8.442,0,1,0,8.42,8.458A8.442,8.442,0,0,0,121.685,362.11Zm-6.774,8.436a6.761,6.761,0,1,1,6.751,6.77,6.761,6.761,0,0,1-6.751-6.77Z" transform="translate(-94.072 -323.63)"/><path class="h" d="M125.243,367.33a6.767,6.767,0,1,0,6.751,6.783A6.767,6.767,0,0,0,125.243,367.33Z" transform="translate(-97.634 -327.179)"/><path class="b" d="M133.37,384.305a2,2,0,1,0,2-2A2,2,0,0,0,133.37,384.305Z" transform="translate(-107.769 -337.361)"/><circle class="b" cx="12.673" cy="12.673" r="12.673" transform="translate(118.716 47.374) rotate(-45)"/><path class="g" d="M462.145,363.52a8.442,8.442,0,1,0,8.42,8.461A8.442,8.442,0,0,0,462.145,363.52Zm-6.761,8.439a6.761,6.761,0,1,1,6.726,6.767A6.761,6.761,0,0,1,455.384,371.959Z" transform="translate(-325.496 -324.589)"/><path class="h" d="M465.7,368.75a6.767,6.767,0,1,0,6.748,6.783A6.767,6.767,0,0,0,465.7,368.75Z" transform="translate(-329.051 -328.144)"/><path class="b" d="M473.83,385.765a2,2,0,1,0,2-2A2,2,0,0,0,473.83,385.765Z" transform="translate(-339.192 -338.353)"/><path class="b" d="M490.45,311.3a1.97,1.97,0,1,1-1.941-2A1.97,1.97,0,0,1,490.45,311.3Z" transform="translate(-347.812 -287.74)"/><path class="b" d="M269.713,392.439h-.749l-2.152.042-7.91.128-26.1.32c-10.2.106-19.43.173-26.111.183-3.34,0-6.047,0-7.914-.032a18.034,18.034,0,0,1-2.882-.135,3.917,3.917,0,0,0,.743.048c.49,0,1.217.019,2.149.022,1.867,0,4.573,0,7.914-.019l26.108-.237,26.1-.275,7.914-.074h2.713Z" transform="translate(-150.265 -344.226)"/><path class="b" d="M325.471,342.555c-.048,0,0-6.725.131-15.007s.256-15.011.3-15.008,0,6.726-.135,15.008S325.516,342.555,325.471,342.555Z" transform="translate(-238.335 -289.936)"/><path class="h" d="M360.558,271.249c.029.035-2.037,1.922-4.615,4.215s-4.692,4.122-4.724,4.087,2.037-1.922,4.615-4.211S360.526,271.217,360.558,271.249Z" transform="translate(-255.849 -261.868)"/><path class="h" d="M358.306,282.59a3.069,3.069,0,0,1-.32.32c-.211.2-.522.487-.913.833-.778.7-1.867,1.64-3.1,2.652s-2.367,1.9-3.2,2.533c-.416.32-.756.564-.993.733a2.434,2.434,0,0,1-.381.25,2.5,2.5,0,0,1,.339-.3l.961-.775c.813-.641,1.922-1.556,3.167-2.562s2.328-1.941,3.126-2.613l.961-.791A2.1,2.1,0,0,1,358.306,282.59Z" transform="translate(-254.613 -269.578)"/><path class="h" d="M267.09,272.5c.026.038-2.988,2.139-6.726,4.7s-6.8,4.6-6.825,4.557,2.985-2.139,6.726-4.7S267.064,272.46,267.09,272.5Z" transform="translate(-189.453 -262.718)"/><path class="h" d="M283.117,272.1a2.824,2.824,0,0,1-.388.32l-1.089.839-3.6,2.761-3.565,2.8-1.079.852a2.815,2.815,0,0,1-.41.295,3.042,3.042,0,0,1,.368-.346c.243-.215.6-.519,1.047-.894.89-.743,2.136-1.755,3.523-2.841s2.687-2.046,3.629-2.725c.471-.339.855-.608,1.124-.791A2.82,2.82,0,0,1,283.117,272.1Z" transform="translate(-202.674 -262.447)"/><path class="h" d="M95.521,300.869a.319.319,0,0,1-.09.019l-.256.038-.993.135c-.862.118-2.107.295-3.638.557a94.765,94.765,0,0,0-11.811,2.815c-2.267.7-4.4,1.451-6.312,2.2a41.076,41.076,0,0,0-4.977,2.223,14.374,14.374,0,0,0-2.978,2.13c-.163.144-.295.285-.41.4a3.857,3.857,0,0,0-.288.32l-.176.192a.643.643,0,0,1-.061.064s0-.029.048-.074l.163-.2c.07-.09.16-.2.275-.32s.243-.269.4-.42a13.856,13.856,0,0,1,2.966-2.184,39.407,39.407,0,0,1,4.98-2.261c1.922-.756,4.048-1.518,6.319-2.213a88.712,88.712,0,0,1,11.834-2.773c1.537-.247,2.786-.407,3.651-.506l1-.1.259-.022A.276.276,0,0,1,95.521,300.869Z" transform="translate(-60.296 -282.003)"/><path class="h" d="M304.47,244.585h-.131l-.387-.064-1.48-.256c-1.281-.218-3.151-.512-5.467-.791a92.735,92.735,0,0,0-18.185-.461,111.684,111.684,0,0,0-17.935,3.081c-2.264.564-4.087,1.054-5.345,1.4l-1.451.394-.378.1a.068.068,0,1,1,0-.016l.371-.115,1.441-.426c1.255-.365,3.075-.874,5.336-1.451a109.359,109.359,0,0,1,17.957-3.132,90.063,90.063,0,0,1,18.21.509c2.319.295,4.183.608,5.467.845.641.115,1.137.221,1.473.285l.384.08A.6.6,0,0,1,304.47,244.585Z" transform="translate(-189.48 -242.397)"/><path class="h" d="M226.284,305.319a2.49,2.49,0,0,1-.42-.042c-.266-.032-.641-.08-1.131-.1a11.283,11.283,0,0,0-3.7.394,5.7,5.7,0,0,0-1.819.91,4.185,4.185,0,0,0-1.089,1.246,4.092,4.092,0,0,0-.474,1.46s0-.038,0-.109a2.089,2.089,0,0,1,.019-.32,3.344,3.344,0,0,1,.359-1.1,4.164,4.164,0,0,1,1.1-1.31,5.7,5.7,0,0,1,1.867-.961,10.587,10.587,0,0,1,3.757-.352,9.435,9.435,0,0,1,1.137.157A1.941,1.941,0,0,1,226.284,305.319Z" transform="translate(-165.057 -284.81)"/><path class="h" d="M273.73,319.559c0,.048-4.657.362-10.405.7s-10.412.583-10.415.538,4.653-.362,10.405-.7S273.727,319.514,273.73,319.559Z" transform="translate(-189.025 -294.703)"/><path class="h" d="M106.812,330.1a.384.384,0,0,1-.083,0l-.234-.051c-.2-.038-.5-.131-.894-.192a19.047,19.047,0,0,0-3.347-.32,21.174,21.174,0,0,0-4.951.493,16.567,16.567,0,0,0-5.621,2.28,16.167,16.167,0,0,0-4.279,4.295,17.351,17.351,0,0,0-2.178,4.464,16.438,16.438,0,0,0-.695,3.286c-.061.394-.058.7-.08.913l-.019.237a.355.355,0,0,1,0,.083.243.243,0,0,1,0-.083v-.237a7.212,7.212,0,0,1,.048-.919,15.719,15.719,0,0,1,.641-3.315,17.188,17.188,0,0,1,2.162-4.516,16.116,16.116,0,0,1,4.311-4.384,16.487,16.487,0,0,1,5.675-2.293,21.018,21.018,0,0,1,4.99-.461,17.962,17.962,0,0,1,3.356.388c.394.07.685.176.89.224l.231.067Z" transform="translate(-74.502 -301.379)"/></g><g transform="translate(140.524 0)"><path class="i" d="M505.8,262.06l-3.936,8.327-2.114,1.313a1.009,1.009,0,0,0-.544.452l-.679,1.739,2.04.275.416-.871a2.056,2.056,0,0,0,2.293-.641l6.011-9.332Z" transform="translate(-496.506 -238.918)"/><path class="i" d="M497.67,296.839s1.323,3.075,1.717,2.962.541-.355.448-.58-.842-1.793-.842-1.793.765,1.476,1.028,1.512.519-.157.448-.375-.641-1.476-.641-1.476.641,1.409.862,1.323.372,0,.336-.32a8.93,8.93,0,0,0-.781-1.56l-2.21-.122Z" transform="translate(-495.921 -262.267)"/><path class="b" d="M505.664,338.782h-.032a9.341,9.341,0,0,1-6.034-3.667c-1.131-1.739-1.214-4.051-1.281-5.906-.256-7.18-.724-25.1-.858-30.425a2.306,2.306,0,0,0-4.609.061V302.1h-.641v-3.254a2.946,2.946,0,0,1,5.89-.08c.134,5.323.6,23.245.855,30.425.064,1.777.144,3.987,1.179,5.579a8.559,8.559,0,0,0,5.585,3.382l16.859-.16a7.907,7.907,0,0,0,5.339-3.132,11.409,11.409,0,0,0,1.8-4.429,56.91,56.91,0,0,0,.868-12.7,83.686,83.686,0,0,1,.269-9.035,9.567,9.567,0,0,1,1.127-4.09c.708-1.14,2.12-2.136,3.555-1.6l-.221.6a2.538,2.538,0,0,0-2.79,1.348,9.026,9.026,0,0,0-1.034,3.818,82.974,82.974,0,0,0-.266,8.967,57.612,57.612,0,0,1-.881,12.846,11.826,11.826,0,0,1-1.922,4.669,8.461,8.461,0,0,1-5.765,3.385h-.061Z" transform="translate(-492.21 -261.955)"/><path class="i" d="M504.77,294.51a14.183,14.183,0,0,0-.4,2.716c0,.118,0,.259.1.32s.25-.112.339-.218c.163-.186.772-1.227.772-1.227a1.733,1.733,0,0,0,1.572-1.681" transform="translate(-500.476 -260.914)"/><path class="j" d="M507,294.42a.512.512,0,0,1,0,.189,1.637,1.637,0,0,1-.128.512,1.717,1.717,0,0,1-.49.641,1.9,1.9,0,0,1-.961.4l.048-.029c-.2.32-.4.692-.641,1.06-.038.054-.074.109-.119.163s-.08.1-.128.147a.375.375,0,0,1-.189.122.211.211,0,0,1-.215-.128.823.823,0,0,1-.029-.387c0-.118.016-.234.026-.346a11.634,11.634,0,0,1,.16-1.185c.061-.336.125-.605.176-.788a1,1,0,0,1,.093-.282,1.356,1.356,0,0,1-.045.291c-.032.189-.083.458-.131.791s-.1.737-.131,1.182c0,.112-.016.227-.022.343a.753.753,0,0,0,.022.32c.019.038.054.064.074.058a.32.32,0,0,0,.118-.086c.038-.042.08-.093.118-.141a1.81,1.81,0,0,0,.109-.151c.237-.362.452-.724.641-1.05l.016-.029h.032a1.794,1.794,0,0,0,.9-.355,1.733,1.733,0,0,0,.487-.6,2.825,2.825,0,0,0,.211-.663Z" transform="translate(-500.316 -260.914)"/><path class="d" d="M588.25,422.75l.413,1.736s2.841,3.689,3.718,3.523c.573-.118-.131-1.082-1.214-3.882l-.227-1.159Z" transform="translate(-557.492 -348.145)"/><path class="b" d="M593.236,430.252a.166.166,0,0,1-.022.051.321.321,0,0,1-.122.112.457.457,0,0,1-.253.054.641.641,0,0,1-.32-.118,13.558,13.558,0,0,1-1.432-1.332,17.789,17.789,0,0,1-1.281-1.489c-.151-.2-.272-.362-.349-.477l-.093-.135c-.019-.029-.029-.048-.026-.048l.035.042.1.128.362.468c.32.391.756.919,1.281,1.473a15.683,15.683,0,0,0,1.412,1.339.525.525,0,0,0,.541.077A.394.394,0,0,0,593.236,430.252Z" transform="translate(-558.232 -350.945)"/><path class="b" d="M597.66,433.635h-.231a1.344,1.344,0,0,0-.509.2,1.014,1.014,0,0,0-.384.381c-.067.125-.087.211-.1.211a.531.531,0,0,1,.061-.227.961.961,0,0,1,.391-.413,1.2,1.2,0,0,1,.535-.186A.5.5,0,0,1,597.66,433.635Z" transform="translate(-563.059 -355.517)"/><path class="b" d="M589.834,427.3a3.194,3.194,0,0,0,.051-.32,1.32,1.32,0,0,0-.144-.759,1.236,1.236,0,0,0-.541-.548,1.8,1.8,0,0,0-.32-.112.275.275,0,0,1,.09,0,.9.9,0,0,1,.234.074,1.2,1.2,0,0,1,.576.557,1.306,1.306,0,0,1,.131.791,1.341,1.341,0,0,1-.058.237A.275.275,0,0,1,589.834,427.3Z" transform="translate(-557.92 -350.054)"/><path class="b" d="M588.815,423.67a1.9,1.9,0,0,1,.157.544c.051.32.106.551.093.557a1.923,1.923,0,0,1-.147-.548C588.873,423.917,588.8,423.676,588.815,423.67Z" transform="translate(-557.875 -348.77)"/><path class="b" d="M596.045,427.714a3.352,3.352,0,0,0-.352.058,1.852,1.852,0,0,1-.343.1.825.825,0,0,1,.695-.16Z" transform="translate(-562.318 -351.501)"/><path class="b" d="M596.477,428.627c0,.016-.138,0-.295.042s-.272.109-.282.1a.42.42,0,0,1,.269-.151.438.438,0,0,1,.307.013Z" transform="translate(-562.692 -352.116)"/><path class="b" d="M597.139,429.711a1.7,1.7,0,0,0-.32,0,1.488,1.488,0,0,0-.279.122.375.375,0,0,1,.266-.176A.391.391,0,0,1,597.139,429.711Z" transform="translate(-563.127 -352.829)"/><path class="b" d="M594.708,425.875a.359.359,0,0,1-.1,0,2.03,2.03,0,0,1-.25-.067,2.21,2.21,0,0,1-.355-.16c-.064-.035-.128-.074-.2-.119a.3.3,0,0,1-.141-.221.17.17,0,0,1,.218-.135.436.436,0,0,1,.2.135,3.318,3.318,0,0,1,.263.282c.07.086.122.157.157.208a.336.336,0,0,1,.045.083s-.086-.1-.234-.266c-.07-.08-.16-.173-.266-.272a.413.413,0,0,0-.173-.115c-.064-.016-.147.016-.151.083a.246.246,0,0,0,.119.173c.064.045.128.083.189.122a2.482,2.482,0,0,0,.343.163C594.576,425.84,594.708,425.866,594.708,425.875Z" transform="translate(-561.176 -349.787)"/><path class="b" d="M596.435,425.29a.372.372,0,0,1,0-.086,1.174,1.174,0,0,1,.019-.237,1.234,1.234,0,0,1,.09-.343.739.739,0,0,1,.112-.183.189.189,0,0,1,.227-.07.218.218,0,0,1,.077.224.907.907,0,0,1-.061.2,1.06,1.06,0,0,1-.2.291,1.218,1.218,0,0,1-.179.154c-.045.032-.074.048-.077.045s.1-.08.227-.224a1.157,1.157,0,0,0,.186-.285.782.782,0,0,0,.055-.192.167.167,0,0,0-.051-.17c-.051-.032-.115,0-.16.061a.822.822,0,0,0-.106.167,1.365,1.365,0,0,0-.1.32,2.493,2.493,0,0,1-.058.323Z" transform="translate(-563.054 -349.238)"/><g class="k" transform="translate(30.973 75.508)"><path d="M589.119,426.4l-.2-.833s.695.128.874.641a2.163,2.163,0,0,1,.138.89l1.512,1.63s.381-.743,1.067-.564a7.141,7.141,0,0,1,.525,1.486c-.016.3-.365.263-.487.208a6.212,6.212,0,0,1-1.355-1.07A30.446,30.446,0,0,1,589.119,426.4Z" transform="translate(-588.92 -425.57)"/></g><path class="d" d="M537.995,420.467v-2.316l4.34-.051.055,3.385-.269.022a52.326,52.326,0,0,1-6.889.093C534.318,421.341,537.995,420.467,537.995,420.467Z" transform="translate(-521.354 -344.984)"/><g class="k" transform="translate(19.446 75.233)"><path d="M552.93,425.965a1.505,1.505,0,0,1,.541-.932,1.454,1.454,0,0,1,1.012-.32l.016,1.211Z" transform="translate(-552.93 -424.71)"/></g><g class="k" transform="translate(13.707 75.966)"><path d="M536.146,427s-1.281.388-1.124.6,5.124.147,7.3-.074v-.1l-5.765.125S536.4,427.016,536.146,427Z" transform="translate(-535.008 -427)"/></g><path class="b" d="M542.373,428.36H542.3l-.215.016-.788.045c-.666.032-1.585.064-2.6.077s-1.922,0-2.6,0l-.788-.022h3.417c1,0,1.922-.042,2.6-.064l.791-.029h.288Z" transform="translate(-521.303 -351.958)"/><path class="b" d="M538.886,427.566a1.77,1.77,0,0,0-.154-.375,2,2,0,0,0-.272-.3.592.592,0,0,1,.32.272A.6.6,0,0,1,538.886,427.566Z" transform="translate(-523.648 -350.959)"/><path class="b" d="M543.259,426.128a1.036,1.036,0,0,1-.141-.167c-.067-.1-.106-.186-.093-.192s.074.064.138.163S543.271,426.118,543.259,426.128Z" transform="translate(-526.749 -350.197)"/><path class="b" d="M544.263,425.776a.569.569,0,0,1-.154-.1c-.074-.067-.131-.128-.122-.141s.08.035.154.1S544.273,425.766,544.263,425.776Z" transform="translate(-527.405 -350.037)"/><path class="b" d="M544.562,424.952a.531.531,0,0,1-.224.032c-.125,0-.227,0-.227-.022s.1-.029.224-.032A.942.942,0,0,1,544.562,424.952Z" transform="translate(-527.488 -349.626)"/><path class="b" d="M544.662,424.1a.64.64,0,0,1-.512.045,1.8,1.8,0,0,1,.256-.019,1.564,1.564,0,0,1,.256-.026Z" transform="translate(-527.516 -349.063)"/><path class="b" d="M541.54,424.893a.839.839,0,0,1-.279,0,1.569,1.569,0,0,1-.3-.064.671.671,0,0,1-.17-.067.144.144,0,0,1-.07-.083.106.106,0,0,1,.042-.112.518.518,0,0,1,.733.323v.077a.78.78,0,0,0-.128-.237.5.5,0,0,0-.24-.151.429.429,0,0,0-.32.026c-.042.035-.026.086.026.115a.847.847,0,0,0,.157.064,1.782,1.782,0,0,0,.288.07C541.45,424.887,541.54,424.883,541.54,424.893Z" transform="translate(-525.184 -349.34)"/><path class="b" d="M542.974,424.6a.272.272,0,0,1-.035-.2.458.458,0,0,1,.074-.2.275.275,0,0,1,.231-.147.112.112,0,0,1,.086.128.288.288,0,0,1-.045.125.761.761,0,0,1-.131.17c-.086.086-.154.122-.157.115s.054-.051.131-.138a1.106,1.106,0,0,0,.115-.17c.035-.061.061-.167,0-.179s-.141.067-.182.122a.544.544,0,0,0-.077.183A.989.989,0,0,0,542.974,424.6Z" transform="translate(-526.689 -349.035)"/><path class="b" d="M554.465,424.608h-.32a1.4,1.4,0,0,0-.7.295,1.445,1.445,0,0,0-.429.625c-.061.186-.067.32-.077.32a.207.207,0,0,1,0-.087,1.284,1.284,0,0,1,.042-.237,1.335,1.335,0,0,1,.432-.641,1.352,1.352,0,0,1,.724-.295,1.409,1.409,0,0,1,.24,0,.24.24,0,0,1,.087.019Z" transform="translate(-533.487 -349.392)"/><path class="b" d="M556.2,419a7.367,7.367,0,0,1,.048.89,7.226,7.226,0,0,1,0,.894,8.372,8.372,0,0,1-.048-.894A7.993,7.993,0,0,1,556.2,419Z" transform="translate(-535.701 -345.596)"/><path class="b" d="M548.491,427.323a2.506,2.506,0,0,1-.641.07,2.467,2.467,0,0,1-.641-.042c0-.016.285,0,.641,0S548.488,427.307,548.491,427.323Z" transform="translate(-529.596 -351.251)"/><path class="b" d="M553.6,427.287s-.022.061-.048.125-.045.125-.061.125-.022-.07,0-.144S553.588,427.277,553.6,427.287Z" transform="translate(-533.854 -351.228)"/><path class="b" d="M554.5,426a.318.318,0,0,1-.061.1c-.042.045-.09.077-.1.064s0-.054.061-.1A.472.472,0,0,1,554.5,426Z" transform="translate(-534.442 -350.354)"/><path class="b" d="M555.748,425.4a.252.252,0,0,0-.122.038c-.061.038-.109.058-.122.048s.022-.07.1-.1S555.754,425.379,555.748,425.4Z" transform="translate(-535.232 -349.925)"/><path class="b" d="M557.009,425.14a.114.114,0,0,1-.054.051c-.035.013-.07.016-.077,0s.019-.038.054-.051S557,425.127,557.009,425.14Z" transform="translate(-536.167 -349.763)"/><path class="c" d="M558.278,327.328l-7.731-45.458-11.927,1.816,1.384,43.3,5.521.471-.423-38.121,8.5,38.162Z" transform="translate(-523.757 -252.384)"/><path class="b" d="M538.951,247.305,537.369,233.9l2.392,3.737,3.824-3.308-4.484-6.043h0a7.533,7.533,0,0,0-2.937-1.9,6.086,6.086,0,0,0-1.841-.352h0a7.388,7.388,0,0,1-4.445,0c-.253.029-.641.064-1.147.135a6.472,6.472,0,0,0-4.34,2.562l-4.6,8.836,3.942,1.492,2.088-3.747-.388,12.439,3.712.813,2.831-2.046,3.907,2.046Z" transform="translate(-510.957 -214.427)"/><path class="c" d="M538.489,240.35c.042,0,0,2.072-.093,4.621s-.208,4.618-.253,4.615,0-2.069.1-4.621S538.447,240.35,538.489,240.35Z" transform="translate(-523.42 -224.161)"/><path class="c" d="M573.84,242.9a22.433,22.433,0,0,1,.32,2.674,23.488,23.488,0,0,1,.182,2.687,23.256,23.256,0,0,1-.336-2.674A23.521,23.521,0,0,1,573.84,242.9Z" transform="translate(-547.697 -225.894)"/><path class="b" d="M554.45,190.186a6.959,6.959,0,0,1,1.864-.256,2.354,2.354,0,0,1,1.691.721,6.084,6.084,0,0,0,.717.913c.381.3.986.4,1.115.868s-.378.926-.343,1.422a1.6,1.6,0,0,0,.371.753.913.913,0,0,1,.2.791c-.08.215-.295.352-.4.557-.163.32-.032.695-.083,1.044a1.364,1.364,0,0,1-1.044,1.031,4.054,4.054,0,0,1-1.547,0" transform="translate(-534.517 -189.888)"/><path class="b" d="M545.41,191.195a3.078,3.078,0,0,0-1.281-.061,1.1,1.1,0,0,0-.874.839c-.038.263.045.557-.1.778s-.538.263-.73.493c-.407.487.378,1.335-.032,1.822-.109.131-.282.2-.4.32a.66.66,0,0,0-.026.81,1,1,0,0,0,.762.381,2.146,2.146,0,0,0,.858-.167,3.978,3.978,0,0,0,2.242-1.861,2.62,2.62,0,0,0-.24-2.8" transform="translate(-525.942 -190.679)"/><path class="i" d="M551.594,194.917l.115,8.417-4.218.086c-.074-.487-.231-2.38-.231-2.38a2.1,2.1,0,0,1-1.963-1.835c-.1-.845-.151-2.6-.179-4.192a3.238,3.238,0,0,1,3.1-3.3h0a3.241,3.241,0,0,1,3.372,3.2Z" transform="translate(-528.174 -191.1)"/><path class="j" d="M551.8,218.941a4.054,4.054,0,0,0,2.2-.871,2.151,2.151,0,0,1-2.162,1.323Z" transform="translate(-532.716 -209.016)"/><path class="b" d="M547.589,204.689a.25.25,0,0,0,.266.227.24.24,0,0,0,.234-.25.253.253,0,0,0-.266-.227.237.237,0,0,0-.234.25Z" transform="translate(-529.853 -199.751)"/><path class="b" d="M546.54,204.013c.035.029.208-.131.477-.157s.477.09.5.054-.026-.074-.115-.125A.7.7,0,0,0,547,203.7a.669.669,0,0,0-.375.163C546.546,203.936,546.524,204,546.54,204.013Z" transform="translate(-529.137 -199.248)"/><path class="b" d="M556,204.189a.25.25,0,0,0,.266.227.237.237,0,0,0,.234-.25.253.253,0,0,0-.266-.227.24.24,0,0,0-.234.25Z" transform="translate(-535.57 -199.411)"/><path class="b" d="M554.77,203.333c.035.029.208-.128.477-.154s.477.086.5.051-.026-.07-.119-.125a.679.679,0,0,0-.4-.083.691.691,0,0,0-.378.163C554.776,203.262,554.754,203.333,554.77,203.333Z" transform="translate(-534.731 -198.785)"/><path class="b" d="M550.9,205.752a1.668,1.668,0,0,0-.442-.035c-.07,0-.135,0-.151-.051a.339.339,0,0,1,.026-.208c.045-.173.1-.352.147-.541a8.539,8.539,0,0,0,.32-1.406,9.708,9.708,0,0,0-.429,1.377c-.048.189-.1.371-.141.544a.388.388,0,0,0,0,.269.163.163,0,0,0,.122.09.5.5,0,0,0,.115,0A1.678,1.678,0,0,0,550.9,205.752Z" transform="translate(-531.631 -199.119)"/><path class="b" d="M553.231,210.84c-.045,0,0,.291-.243.522s-.541.231-.538.272.074.051.2.042a.743.743,0,0,0,.452-.211.64.64,0,0,0,.186-.436C553.289,210.891,553.267,210.837,553.231,210.84Z" transform="translate(-533.157 -204.102)"/><path class="b" d="M554.234,200.182c.032.07.295,0,.615,0s.58.067.615,0-.035-.1-.144-.16a1.08,1.08,0,0,0-.468-.112,1,1,0,0,0-.471.106C554.269,200.086,554.218,200.146,554.234,200.182Z" transform="translate(-534.368 -196.672)"/><path class="b" d="M546.6,201.538c.051.054.231-.026.452-.051s.413,0,.452-.067-.022-.093-.109-.141a.666.666,0,0,0-.727.1C546.591,201.445,546.572,201.509,546.6,201.538Z" transform="translate(-529.172 -197.557)"/><path class="i" d="M563.91,205.8c.029,0,1.163-.474,1.243.721a.9.9,0,0,1-1.137,1C564.012,207.488,563.91,205.8,563.91,205.8Z" transform="translate(-540.947 -200.615)"/><path class="j" d="M565.279,207.823a.111.111,0,0,1,.058.026.224.224,0,0,0,.157,0,.519.519,0,0,0,.205-.48.667.667,0,0,0-.077-.291c-.045-.086-.1-.144-.17-.151a.106.106,0,0,0-.118.067v.058s-.026,0-.022-.067a.15.15,0,0,1,.045-.077.144.144,0,0,1,.112-.038.3.3,0,0,1,.231.17.721.721,0,0,1,.093.32.538.538,0,0,1-.269.538.221.221,0,0,1-.192-.019C565.282,207.852,565.275,207.823,565.279,207.823Z" transform="translate(-541.877 -201.402)"/><path class="b" d="M550.865,190.5a1.822,1.822,0,0,1,.509-.461,1.688,1.688,0,0,1,.756-.224,4.362,4.362,0,0,1,1.6.147,2.076,2.076,0,0,1,1.23.961,4.11,4.11,0,0,0,.544,1.124c.24.237.618.349.756.66.243.551-.487,1.182-.25,1.736a.855.855,0,0,1,.115.295.32.32,0,0,1-.211.291.976.976,0,0,1-.375.054c-.448,0-1-.054-1.185-.464s.058-.878-.2-1.2-.6-.17-.9-.349a1.765,1.765,0,0,1-.359-.272,2.379,2.379,0,0,1-.6-.109,1.006,1.006,0,0,1-.589-.455c-.135-.247-.135-.567-.32-.765s-.6-.234-.7-.512A.41.41,0,0,1,550.865,190.5Z" transform="translate(-531.95 -189.8)"/><path class="b" d="M518.851,260.73l-.372.727a.791.791,0,0,0,.355,1.066l2.581,1.262a.785.785,0,0,0,1.038-.32l.57-1.05Z" transform="translate(-510.008 -238.014)"/><path class="i" d="M589.728,221.574l-2.354.6-.131-.608a1.368,1.368,0,0,1,.054-.9.561.561,0,0,0,.032-.157,10.2,10.2,0,0,0-.6-1.364c-.186-.378,0-.641.122-.484.211.272.865,1.483,1.018,1.576s-.038-.554-.038-.554c-.458-1.377-.583-1.569-.343-1.665s.961,1.938.961,1.938-.1-.288.119-.388.371.173.371.173c-.054-.144.157-.2.157-.2.544-.019.641,2.059.641,2.059l-2.364.58.256,8.167-.858-.919-2.882,2.37,2.882,2.636a2.562,2.562,0,0,0,2.2.548h0a2.562,2.562,0,0,0,2.021-2.825Z" transform="translate(-554.528 -208.975)"/><path class="j" d="M595.307,226.966s.093-.144.224-.381a3.132,3.132,0,0,0,.2-.436c.032-.083.061-.173.086-.266a.566.566,0,0,0,.032-.272.109.109,0,0,0-.086-.086.208.208,0,0,0-.131.045,1.509,1.509,0,0,0-.237.208,1.532,1.532,0,0,0-.275.42l-.019.048-.029-.038a.9.9,0,0,0-.234-.208.406.406,0,0,1,.279.173h-.048a1.374,1.374,0,0,1,.266-.455,1.31,1.31,0,0,1,.25-.224.279.279,0,0,1,.192-.064.2.2,0,0,1,.16.151.618.618,0,0,1-.035.32,2.919,2.919,0,0,1-.32.711A1.3,1.3,0,0,1,595.307,226.966Z" transform="translate(-561.971 -214.018)"/><path class="j" d="M598.274,224.077a2.115,2.115,0,0,1,.077.439c.016.147.035.32.058.477a1.54,1.54,0,0,0,.038.272c.022.083.109.141.163.1a.4.4,0,0,0,.08-.247,2.765,2.765,0,0,0,0-.282v-.48a2.038,2.038,0,0,1,.026-.442,2.5,2.5,0,0,1,.038.442v.769a.429.429,0,0,1-.115.32.173.173,0,0,1-.2,0,.259.259,0,0,1-.1-.147,1.626,1.626,0,0,1-.038-.288q-.019-.259-.038-.48A2.155,2.155,0,0,1,598.274,224.077Z" transform="translate(-564.294 -212.986)"/><path class="j" d="M599.815,224.873c.016,0,0,.1.035.256a.468.468,0,0,0,.115.227c.035.022.054.019.077-.019a1.058,1.058,0,0,0,.051-.16,5.669,5.669,0,0,0,.112-.878,1.646,1.646,0,0,1-.022.9.827.827,0,0,1-.064.183.144.144,0,0,1-.1.074.15.15,0,0,1-.109-.035.368.368,0,0,1-.093-.144.838.838,0,0,1-.035-.135C599.764,224.969,599.805,224.87,599.815,224.873Z" transform="translate(-565.329 -213.251)"/><path class="b" d="M585.294,251.27l-4.144,3.456.064.07a1.31,1.31,0,0,0,1.829.1l2.293-2a1.012,1.012,0,0,0,.151-1.358Z" transform="translate(-552.666 -231.584)"/><path class="b" d="M550.47,223.165l.285-1.252a2.4,2.4,0,0,1,2.03,1.521,3.091,3.091,0,0,1,2.447-1.774l.375,1.6-2.966,1.239-2.171-1.332" transform="translate(-531.811 -211.457)"/><path class="c" d="M524.514,262.748a18.874,18.874,0,0,1-1.8-.868,18.473,18.473,0,0,1-1.784-.9A13.409,13.409,0,0,1,524.514,262.748Z" transform="translate(-511.732 -238.184)"/><path class="c" d="M585.726,251.117a2.381,2.381,0,0,1-.381.612,9.355,9.355,0,0,1-1.169,1.281,9.238,9.238,0,0,1-1.387,1.047,2.657,2.657,0,0,1-.641.32c-.029-.048.929-.589,1.922-1.5S585.684,251.079,585.726,251.117Z" transform="translate(-553.344 -231.479)"/><path class="c" d="M557.549,227.2a.736.736,0,0,1,0,.2c0,.147,0,.32.019.567,0,.516.019,1.223.032,2.088,0,1.784.026,4.211.045,6.892s0,5.124,0,6.892c0,.868,0,1.576-.019,2.091,0,.231,0,.42-.016.567a.1.1,0,1,1-.032,0c0-.147,0-.336-.019-.57,0-.512-.019-1.223-.032-2.088,0-1.784-.026-4.208-.042-6.892s0-5.108,0-6.892c0-.865.016-1.572.022-2.088V227.4a.967.967,0,0,1,.042-.2Z" transform="translate(-536.575 -215.222)"/><path class="c" d="M552.482,225.591a.181.181,0,0,0-.122,0c-.074.022-.141.1-.215.237a2.482,2.482,0,0,0-.32,1.1v.192l-.134-.138h0c-.641-.673-1.252-1.137-1.223-1.175a4.742,4.742,0,0,1,1.345,1.06h0l-.144.054a2.264,2.264,0,0,1,.388-1.159c.083-.125.2-.24.32-.237S552.492,225.588,552.482,225.591Z" transform="translate(-531.809 -214.087)"/><path class="c" d="M560.9,221.75a9.542,9.542,0,0,1,.407,1.5v.048l-.042.032c-.266.183-.567.375-.89.567s-.669.375-.961.519l-.112.054v-.122a1.768,1.768,0,0,0-.3-.99c-.144-.215-.263-.32-.25-.32a.888.888,0,0,1,.32.279,1.72,1.72,0,0,1,.375,1.041l-.109-.067c.291-.154.615-.32.961-.528s.621-.378.887-.551l-.032.08A10.025,10.025,0,0,1,560.9,221.75Z" transform="translate(-537.444 -211.518)"/><path class="c" d="M558.974,238.092a.31.31,0,0,0,0,.131.094.094,0,0,0,.151.067c.074-.048.054-.118,0-.167s-.109-.032-.119-.054.045-.086.167-.051a.227.227,0,0,1,.154.154.237.237,0,0,1-.106.256.231.231,0,0,1-.275,0,.237.237,0,0,1-.086-.2C558.875,238.1,558.968,238.069,558.974,238.092Z" transform="translate(-537.513 -222.569)"/><path class="c" d="M559.344,255.15a.31.31,0,0,0,0,.131.094.094,0,0,0,.151.067c.074-.048.054-.118,0-.167s-.109-.035-.118-.054.045-.09.167-.051a.221.221,0,0,1,.154.154.237.237,0,0,1-.106.256.231.231,0,0,1-.275,0,.237.237,0,0,1-.086-.2C559.245,255.156,559.338,255.127,559.344,255.15Z" transform="translate(-537.765 -234.163)"/><path class="c" d="M559.439,274.063c.016.019,0,.067,0,.131a.092.092,0,0,0,.151.067c.077-.051.051-.118,0-.163s-.106-.035-.119-.054.045-.09.17-.054a.231.231,0,0,1,.151.157.247.247,0,0,1-.381.253.227.227,0,0,1-.083-.2C559.34,274.073,559.433,274.044,559.439,274.063Z" transform="translate(-537.831 -247.02)"/><path class="h" d="M527.825,257.627c-.045,0-.131-.234-.2-.541s-.074-.567-.029-.576.131.234.192.544S527.87,257.627,527.825,257.627Z" transform="translate(-516.248 -235.145)"/><path class="h" d="M529.675,249.279c0,.045-.243.138-.564.208s-.592.093-.6.048.243-.141.564-.211S529.666,249.234,529.675,249.279Z" transform="translate(-516.884 -230.214)"/><path class="h" d="M533.531,255.4c.035.032-.07.2-.231.368s-.32.288-.352.256.07-.2.231-.368S533.5,255.367,533.531,255.4Z" transform="translate(-519.897 -234.386)"/><path class="h" d="M535.15,240.887a2.988,2.988,0,0,1-.042-1.387A2.882,2.882,0,0,1,535.15,240.887Z" transform="translate(-521.327 -223.583)"/><path class="h" d="M540.152,233.949a2.8,2.8,0,0,1-1.342,0,1.473,1.473,0,0,1,.673-.08A1.428,1.428,0,0,1,540.152,233.949Z" transform="translate(-523.886 -219.748)"/><path class="h" d="M548.42,231.055a1.617,1.617,0,0,1,.154-.695,1.59,1.59,0,0,1,.32-.641,1.618,1.618,0,0,1-.154.695C548.606,230.786,548.465,231.072,548.42,231.055Z" transform="translate(-530.418 -216.935)"/><path class="h" d="M545.066,243.436c-.038.022-.211-.221-.381-.544s-.275-.6-.234-.625.211.224.381.548S545.107,243.414,545.066,243.436Z" transform="translate(-527.714 -225.463)"/><path class="h" d="M553.581,239.646c-.045,0-.054-.234,0-.5s.1-.487.151-.484.051.234,0,.506S553.626,239.653,553.581,239.646Z" transform="translate(-533.901 -223.012)"/><path class="h" d="M550.723,248.916c0,.048-.208.112-.48.147s-.5.026-.5-.019.208-.112.48-.147S550.717,248.874,550.723,248.916Z" transform="translate(-531.315 -229.956)"/><path class="h" d="M542.7,256.171c-.048,0-.106-.224-.131-.509a.938.938,0,0,1,.038-.522c.038-.006.1.224.128.509S542.754,256.165,542.7,256.171Z" transform="translate(-526.433 -234.214)"/><path class="h" d="M549.305,261.119c.035.029-.125.285-.359.57s-.452.49-.487.461.125-.285.359-.567S549.27,261.078,549.305,261.119Z" transform="translate(-530.442 -238.275)"/><path class="h" d="M543.029,269.559c-.042.019-.176-.2-.3-.48s-.189-.532-.147-.551.176.2.3.484S543.083,269.54,543.029,269.559Z" transform="translate(-526.443 -243.313)"/><path class="h" d="M552.681,272.879c.045,0,.032.275-.032.6s-.151.576-.2.567-.032-.275.032-.6S552.636,272.87,552.681,272.879Z" transform="translate(-533.142 -246.272)"/><path class="h" d="M542.861,284.253c-.035.029-.24-.154-.458-.407s-.365-.484-.32-.512.24.151.458.4S542.9,284.221,542.861,284.253Z" transform="translate(-526.105 -253.376)"/><path class="h" d="M542.532,291.207c0,.045-.247.122-.567.173s-.586.054-.6,0,.25-.125.57-.176S542.532,291.159,542.532,291.207Z" transform="translate(-525.625 -258.704)"/><path class="h" d="M552.835,284.452c.032.032-.2.3-.522.6s-.605.516-.641.48.2-.3.522-.6S552.8,284.417,552.835,284.452Z" transform="translate(-532.627 -254.136)"/><path class="h" d="M546.612,277.07c.048,0,.064.16.035.346s-.083.32-.128.32-.061-.16-.035-.346S546.567,277.063,546.612,277.07Z" transform="translate(-529.094 -249.12)"/><path class="h" d="M553.282,254.67c0,.045-.224.022-.471-.054s-.436-.17-.423-.211.224-.022.471.051S553.3,254.628,553.282,254.67Z" transform="translate(-533.115 -233.699)"/><path class="h" d="M562.092,247.152a1.467,1.467,0,0,1,.029-.682c.061-.372.147-.666.2-.66a1.458,1.458,0,0,1-.032.685A1.56,1.56,0,0,1,562.092,247.152Z" transform="translate(-539.693 -227.872)"/><path class="h" d="M568.853,252.74c-.035.032-.243-.163-.471-.432s-.378-.512-.343-.544.247.167.471.436S568.891,252.711,568.853,252.74Z" transform="translate(-543.75 -231.916)"/><path class="h" d="M564.34,258.909a1.342,1.342,0,0,1-.17.641c-.134.32-.279.589-.32.573a1.343,1.343,0,0,1,.17-.641C564.151,259.149,564.3,258.892,564.34,258.909Z" transform="translate(-540.906 -236.775)"/><path class="h" d="M564.091,268.214c-.032.032-.269-.157-.525-.42s-.436-.5-.4-.532.269.154.525.416S564.123,268.182,564.091,268.214Z" transform="translate(-540.436 -242.452)"/><path class="h" d="M572.431,268.217c-.045,0-.022-.288.054-.621s.17-.6.215-.586.022.288-.051.621S572.476,268.226,572.431,268.217Z" transform="translate(-546.724 -242.282)"/><path class="h" d="M564.448,279.122c-.035.029-.234-.151-.48-.365s-.448-.394-.423-.432.279.08.535.32S564.484,279.094,564.448,279.122Z" transform="translate(-540.698 -249.969)"/><path class="h" d="M564.495,286.985c.029.032-.167.247-.471.426s-.589.24-.605.2.231-.173.519-.343S564.463,286.944,564.495,286.985Z" transform="translate(-540.613 -255.856)"/><path class="h" d="M574.865,288.24c.048,0,.093.247.106.557s0,.56-.061.56-.093-.247-.106-.554A1.106,1.106,0,0,1,574.865,288.24Z" transform="translate(-548.351 -256.713)"/><path class="h" d="M571.833,277.047a2.523,2.523,0,0,1-.064-.9,2.454,2.454,0,0,1,.1-.89,2.508,2.508,0,0,1,.064.894A2.382,2.382,0,0,1,571.833,277.047Z" transform="translate(-546.279 -247.89)"/><path class="h" d="M571.952,259.716c.019.042-.151.167-.4.218s-.455,0-.455-.038.192-.077.42-.125S571.929,259.675,571.952,259.716Z" transform="translate(-545.834 -237.314)"/><path class="h" d="M570.395,238.39a3.144,3.144,0,0,1-.192,1.432,1.624,1.624,0,0,1,0-.727A1.57,1.57,0,0,1,570.395,238.39Z" transform="translate(-545.196 -222.829)"/><path class="h" d="M564.38,235.86c.045,0,.154.2.243.49s.125.522.08.538-.151-.2-.24-.49S564.335,235.876,564.38,235.86Z" transform="translate(-541.254 -221.109)"/><path class="h" d="M564.669,230.377c.019.038-.234.2-.586.32a1.076,1.076,0,0,1-.663.061c0-.048.275-.122.615-.221S564.65,230.333,564.669,230.377Z" transform="translate(-540.614 -217.375)"/><path class="h" d="M572.047,230.66c-.042-.016,0-.269.125-.567s.234-.525.279-.506,0,.269-.125.564S572.092,230.68,572.047,230.66Z" transform="translate(-546.467 -216.844)"/><path class="h" d="M579.447,236.7c-.026.038-.291-.122-.589-.355s-.512-.455-.484-.49.292.125.589.359S579.476,236.66,579.447,236.7Z" transform="translate(-550.777 -221.098)"/><path class="h" d="M578.12,241.492a1.54,1.54,0,0,1-.106-.714,1.563,1.563,0,0,1,.061-.717A3.119,3.119,0,0,1,578.12,241.492Z" transform="translate(-550.522 -223.964)"/><path class="h" d="M579.439,251.532c0,.045-.247.061-.541.035s-.535-.086-.528-.131.247-.064.541-.035S579.446,251.484,579.439,251.532Z" transform="translate(-550.776 -231.663)"/><path class="h" d="M585.491,248.106a1.729,1.729,0,0,1-.247-1.476,3.69,3.69,0,0,1,.122.74A3.6,3.6,0,0,1,585.491,248.106Z" transform="translate(-555.403 -228.43)"/><path class="h" d="M583.348,257.543c0,.045-.192.122-.452.173s-.477.054-.487,0,.2-.122.455-.173S583.341,257.5,583.348,257.543Z" transform="translate(-553.522 -235.823)"/><path class="h" d="M561.1,225.609c-.032.035-.16-.035-.243-.186s-.07-.3-.026-.3.1.1.173.224S561.136,225.577,561.1,225.609Z" transform="translate(-538.833 -213.808)"/><path class="h" d="M563.838,224.476c-.042.022-.144-.1-.231-.275s-.125-.32-.083-.349.144.1.231.275S563.88,224.457,563.838,224.476Z" transform="translate(-540.673 -212.944)"/><path class="h" d="M552.291,225.029c0,.045-.147.07-.32.061s-.32-.061-.32-.106.147-.074.32-.061S552.294,224.981,552.291,225.029Z" transform="translate(-532.614 -213.673)"/><path class="c" d="M558.377,196.1h-.093a1.1,1.1,0,0,1-.25-.118,1.217,1.217,0,0,1-.557-.829,5.387,5.387,0,0,0-.109-.663.519.519,0,0,0-.2-.269,1.153,1.153,0,0,0-.349-.141,1.6,1.6,0,0,1-.42-.154.753.753,0,0,1-.3-.384c-.115-.295-.122-.641-.3-.849-.388-.448-1.195,0-1.656-.535a2.271,2.271,0,0,1-.282-.756,1.038,1.038,0,0,0-1.281-.669,3.158,3.158,0,0,0-.32.138s0-.029.067-.067a.961.961,0,0,1,.243-.131,1.092,1.092,0,0,1,.99.122,1.147,1.147,0,0,1,.439.564,2.281,2.281,0,0,0,.269.7.961.961,0,0,0,.743.231,3.055,3.055,0,0,1,.471.042.791.791,0,0,1,.452.256,3.073,3.073,0,0,1,.32.9.615.615,0,0,0,.234.32,1.446,1.446,0,0,0,.375.141,1.214,1.214,0,0,1,.394.17.663.663,0,0,1,.24.343,4.318,4.318,0,0,1,.093.689,1.208,1.208,0,0,0,.477.8C558.268,196.049,558.384,196.084,558.377,196.1Z" transform="translate(-533.035 -190.345)"/><path class="b" d="M549.076,336.96a.532.532,0,0,1,0-.1v-.32c0-.279-.026-.673-.045-1.175-.035-1.034-.083-2.511-.144-4.33-.128-3.664-.3-8.7-.493-14.277s-.3-10.626-.32-14.284v-5.829a.436.436,0,0,1,0-.1.365.365,0,0,1,0,.1v1.5c.016,1.031.032,2.508.058,4.327.055,3.657.189,8.7.372,14.284s.352,10.623.445,14.277c.045,1.829.077,3.308.09,4.33v1.483A.657.657,0,0,1,549.076,336.96Z" transform="translate(-530.18 -262.355)"/><path class="b" d="M577.445,337.271c-.045,0-1.745-9.14-3.8-20.43s-3.68-20.455-3.648-20.462,1.745,9.137,3.8,20.433S577.49,337.252,577.445,337.271Z" transform="translate(-545.086 -262.247)"/><path class="b" d="M556.854,295.532a.306.306,0,0,1-.192.029.737.737,0,0,1-.458-.275,1.675,1.675,0,0,1-.288-.727c-.061-.282-.119-.592-.167-.922a13.744,13.744,0,0,1-.154-1.691,2.741,2.741,0,0,1,.026-.7c.051,0,.1,1.07.292,2.373.051.32.1.641.154.913a1.707,1.707,0,0,0,.231.689.72.72,0,0,0,.378.282C556.786,295.528,556.854,295.516,556.854,295.532Z" transform="translate(-535.287 -258.753)"/><path class="b" d="M557.389,291.776c.019.019,0,.074.019.147a.125.125,0,1,0,.192-.131c-.058-.051-.119-.048-.125-.07s.061-.083.186-.029a.253.253,0,0,1,.147.176.263.263,0,0,1-.118.266.256.256,0,0,1-.292,0,.263.263,0,0,1-.109-.2C557.29,291.8,557.38,291.776,557.389,291.776Z" transform="translate(-536.447 -259.046)"/></g><g transform="translate(183.097 12.455)"><path class="d" d="M672.478,326.832l-19.088.208V279.03h19.088Z" transform="translate(-644.343 -262.908)"/><g class="e" transform="translate(9.047 16.122)"><path d="M672.478,326.832l-19.088.208V279.03h19.088Z" transform="translate(-653.39 -279.03)"/></g><path class="d" d="M645.618,326.925l-19.088.115V279.03h19.088Z" transform="translate(-626.085 -262.908)"/><path class="b" d="M625.14,240.764v.57H645.4l8.2-11.847-.2-.8Z" transform="translate(-625.14 -228.69)"/><rect class="b" width="0.653" height="3.616" transform="translate(6.178 12.506)"/><path class="b" d="M692.92,258.149v6.232h.791v-6.9Z" transform="translate(-671.213 -248.26)"/><path class="c" d="M633.432,228.69l-8.292,12.074H645.1l8.292-12.074Z" transform="translate(-625.14 -228.69)"/><path class="l" d="M646.429,240.77c-.038-.026,1.832-2.751,4.163-6.085s4.272-6.015,4.307-5.986-1.829,2.748-4.163,6.085S646.467,240.8,646.429,240.77Z" transform="translate(-639.61 -228.696)"/><path class="l" d="M667.289,240.77c-.035-.026,1.832-2.751,4.163-6.085s4.272-6.015,4.311-5.986-1.832,2.748-4.163,6.085S667.327,240.8,667.289,240.77Z" transform="translate(-653.79 -228.696)"/><path class="l" d="M638.73,247.363c0-.045,4.432-.083,9.9-.083s9.9.038,9.9.083-4.432.083-9.9.083S638.73,247.411,638.73,247.363Z" transform="translate(-634.378 -241.326)"/><rect class="l" width="10.94" height="12.337" transform="translate(4.724 21.246)"/><path class="b" d="M642.657,342.085a1.118,1.118,0,0,1-1.118,1.118c-.279,0-.99-.029-.99-.029a1.56,1.56,0,0,1-.589-1.153,1.172,1.172,0,0,1,.682-1.041h.9a1.118,1.118,0,0,1,1.118,1.105Z" transform="translate(-635.214 -305.018)"/><circle class="c" cx="1.118" cy="1.118" r="1.118" transform="translate(4.461 35.949)"/><path class="b" d="M655.377,342.085a1.118,1.118,0,0,1-1.118,1.118c-.279,0-.99-.029-.99-.029a1.56,1.56,0,0,1-.589-1.153,1.172,1.172,0,0,1,.682-1.041h.9a1.118,1.118,0,0,1,1.118,1.105Z" transform="translate(-643.86 -305.018)"/><circle class="c" cx="1.118" cy="1.118" r="1.118" transform="translate(8.535 35.949)"/><path class="b" d="M667.967,342.1a1.118,1.118,0,0,1-1.118,1.118c-.279,0-.99-.029-.99-.029a1.559,1.559,0,0,1-.589-1.153,1.172,1.172,0,0,1,.682-1.034h.9a1.118,1.118,0,0,1,1.118,1.1Z" transform="translate(-652.418 -305.031)"/><path class="c" d="M666.615,342.058a1.118,1.118,0,1,1-1.118-1.118A1.118,1.118,0,0,1,666.615,342.058Z" transform="translate(-651.813 -304.991)"/><path class="d" d="M652.508,303.15l-2.488.035,2.3,3.532-1.739.022,2.437,4.855-.839-3.609,2.293-.029Z" transform="translate(-642.052 -279.303)"/><path class="b" d="M649.559,379.914v-1.435c0-.935,0-2.283-.022-3.99,0-3.414-.022-8.24-.038-13.931l.077.077H636.582c-.019.019.157-.154.083-.077h0V379.9l-.067-.064,9.448.035,2.617.016h-2.575l-9.489.035h-.067v-19.36h0c-.074.07.1-.109.083-.09h13.07v.074c0,5.71-.029,10.569-.038,13.983,0,1.7,0,3.043-.019,3.971v1.316A.365.365,0,0,1,649.559,379.914Z" transform="translate(-632.87 -318.27)"/><path class="b" d="M671.3,390.432c.019.019-.074.115-.038.295a.342.342,0,0,0,.154.237.32.32,0,0,0,.445-.32.349.349,0,0,0-.179-.221c-.16-.086-.282-.029-.291-.051s.112-.134.339-.058a.451.451,0,0,1,.279.291.429.429,0,0,1-.179.464.435.435,0,0,1-.5.029.458.458,0,0,1-.189-.355C671.133,390.515,671.29,390.413,671.3,390.432Z" transform="translate(-656.407 -338.534)"/></g></g></g></g></svg>