<svg xmlns="http://www.w3.org/2000/svg" width="167.607" height="129.114" viewBox="0 0 167.607 129.114"><defs><style>.a,.m{fill:#fff;}.b{fill:#e0e0e0;}.c{fill:#ebebeb;}.d{fill:#455a64;}.e{fill:#e8505b;}.f,.h{opacity:0.1;}.g,.o{fill:#37474f;}.i{fill:#fafafa;}.j{fill:#f5f5f5;}.k{opacity:0.05;}.l{fill:#263238;}.m{opacity:0.4;}.n{opacity:0.15;}.o{opacity:0.5;}.p{fill:#b16668;}.q{opacity:0.35;}.r{fill:#9a4a4d;}.s{opacity:0.2;}.t{fill:#ffa8a7;}.u{fill:#f28f8f;}</style></defs><g transform="translate(-1012 -1446.171)"><path class="a" d="M-1965.962,975.87c-15.12,3.321-30.576.21-45.724-1.3-9.973-.992-19.587.359-29.583,1.092-25.412,1.864-53.6-1.415-61.731-24.9-6.774-19.57,4.174-48.607,27.769-60.1,8.161-3.975,16.469-4.759,24.577-3.943,4.868.49,10.3,2.357,15.542.391,5.532-2.075,9.624-7.833,13.363-11.982,5.564-6.177,11.441-12.651,18.906-16.827,17.123-9.577,27.306-.24,32.45,15.111,2.5,7.463,3.829,15.241,5.844,22.831,2.857,10.766,9.054,18.585,16.035,27.248,6.214,7.717,12.031,16.74,11.029,26.53-1.135,11.11-11.145,20.222-22.306,24.106a53.543,53.543,0,0,1-6.171,1.739" transform="translate(3116.979 597.939)"/><g transform="translate(991.435 1406.426)"><g transform="translate(119.335 137.458)"><ellipse class="b" cx="13.961" cy="8.061" rx="13.961" ry="8.061" transform="translate(0 12.049)"/><ellipse class="b" cx="12.349" cy="7.129" rx="12.349" ry="7.129" transform="translate(27.122 0)"/></g><g transform="translate(137.754 51.907)"><g transform="translate(0 0)"><path class="c" d="M370.2,76.551l2.185,1.26a2.113,2.113,0,0,1-.021-.29v-.632c0-1.127.792-1.581,1.765-1.024a3.352,3.352,0,0,1,1.052,1.024c.16-1.417,1.27-1.943,2.619-1.164a5.835,5.835,0,0,1,2.639,4.572v.946a2.5,2.5,0,0,1-.222,1.1l1.813,1.045a2.171,2.171,0,0,1,.98,1.707c0,.625-.44.877-.98.563L370.2,78.828a2.168,2.168,0,0,1-.976-1.707C369.22,76.49,369.657,76.237,370.2,76.551Z" transform="translate(-360.114 -75.365)"/><path class="c" d="M343.291,95.734l1.649.949a1.568,1.568,0,0,1-.017-.218V95.99c0-.85.6-1.195,1.335-.772a2.629,2.629,0,0,1,.792.765c.119-1.069.959-1.465,1.977-.877a4.4,4.4,0,0,1,1.991,3.452v.714a1.865,1.865,0,0,1-.167.826l1.366.789a1.639,1.639,0,0,1,.737,1.28c0,.471-.341.662-.737.427l-8.928-5.155a1.622,1.622,0,0,1-.737-1.277C342.553,95.689,342.881,95.5,343.291,95.734Z" transform="translate(-342.55 -88.186)"/></g></g><g transform="translate(31.849 126.491)"><g transform="translate(0 14.189)"><path class="d" d="M48.1,356c-.215.116-4.237,1.26-5.726-.71s.983-5.033-.417-6.163-5.309,0-6.251-2.373,1.85-3.414.28-5.8c-.99-1.509-3.756-2.342-3.629-3.756.184-2.049,3.964-2.608,7.269-.406s4.841.4,5.893.249,3.308.178,3.233,3.858S48.1,356,48.1,356Z" transform="translate(-32.358 -335.377)"/><path class="a" d="M52.513,352.475a.219.219,0,0,1-.215-.184c-1.151-6.985-9.27-12.67-13.493-13.889a.225.225,0,0,1-.15-.273.219.219,0,0,1,.273-.147c4.316,1.246,12.632,7.071,13.8,14.237a.222.222,0,0,1-.181.253Z" transform="translate(-36.5 -337.086)"/><path class="a" d="M50.8,360.071a.218.218,0,0,1-.188-.106.222.222,0,0,1,.075-.3c.133-.079,3.257-1.905,6.333-1.052a.219.219,0,0,1,.154.27.215.215,0,0,1-.27.154c-2.9-.8-5.961.987-5.992,1A.215.215,0,0,1,50.8,360.071Z" transform="translate(-44.36 -350.53)"/></g><g transform="translate(132.197)"><path class="e" d="M420.766,310.084l-1.058-.5a36.13,36.13,0,0,1,0-6.371c.683-4.749,4-8.843,6.951-9.324,3.8-.618,3.127,2.882.953,4.394A15.963,15.963,0,0,0,420.766,310.084Z" transform="translate(-419.556 -293.818)"/><g class="f"><path d="M420.766,310.084l-1.058-.5a36.13,36.13,0,0,1,0-6.371c.683-4.749,4-8.843,6.951-9.324,3.8-.618,3.127,2.882.953,4.394A15.963,15.963,0,0,0,420.766,310.084Z" transform="translate(-419.556 -293.818)"/></g><path class="a" d="M421.341,310.444h.027a.184.184,0,0,0,.147-.215c-.737-3.9,2.475-11.137,6.774-13.192a.189.189,0,1,0-.16-.341c-4.438,2.117-7.737,9.56-6.979,13.6a.184.184,0,0,0,.191.154Z" transform="translate(-420.534 -295.701)"/><path class="e" d="M419.744,317c-.079-.567-.113-1.393-.123-1.6a5.2,5.2,0,0,1,.311-2.117,4.175,4.175,0,0,1,1.765-2.141,3.431,3.431,0,0,0,1.25-.864,2.758,2.758,0,0,0,.324-1.267,2.747,2.747,0,0,1,.884-1.905,2.859,2.859,0,0,1,2.049-.372,5.1,5.1,0,0,0,2.94-.222,20.079,20.079,0,0,1,2.363-1.065c1.024-.341,3.315-.854,3.8.584a1.383,1.383,0,0,1-.208,1.171,4.191,4.191,0,0,1-.86.877l-1.6,1.332a2.047,2.047,0,0,0-.488.509c-.311.533-.089,1.205-.157,1.816a2.168,2.168,0,0,1-.983,1.53,2.912,2.912,0,0,1-1.789.434c-.836-.058-2.2-.7-2.714.287a3.192,3.192,0,0,0-.246,1.058,1.587,1.587,0,0,1-1.786,1.615,8.224,8.224,0,0,0-2.2.341c-.287.113-.468.478-.635.72C421.11,317.546,420.536,317.337,419.744,317Z" transform="translate(-419.592 -301.229)"/><path class="a" d="M421.01,318.571a.16.16,0,0,1-.078,0,.174.174,0,0,1-.1-.225c2.151-5.343,9.013-9.171,13.1-10.441a.171.171,0,0,1,.215.116.174.174,0,0,1-.113.215c-4.025,1.25-10.779,5.005-12.885,10.243A.177.177,0,0,1,421.01,318.571Z" transform="translate(-420.391 -303.09)"/></g></g><g transform="translate(71.417 131.07)"><g transform="translate(0)"><path class="e" d="M278.832,308.585a4.227,4.227,0,0,0,1.915,3.315,1.54,1.54,0,0,0,1.1.232.96.96,0,0,1-.208.164l.461-.263.024-.017.068-.044a.609.609,0,0,0,.085-.075l.051-.051h0c0-.017.031-.034.044-.055a1.364,1.364,0,0,0,.157-.287l.034-.092a.253.253,0,0,0,0-.048.725.725,0,0,0,.02-.082,2.071,2.071,0,0,0,.051-.478,4.227,4.227,0,0,0-1.912-3.312,1.707,1.707,0,0,0-.857-.263h-.119l-.109.02-.065.017h-.041a.372.372,0,0,0-.078.031h0l-.072.038-.4.229a.81.81,0,0,1,.2-.072A1.523,1.523,0,0,0,278.832,308.585Zm3.151,3.5h0Z" transform="translate(-234.246 -307.23)"/><path class="c" d="M162.43,331.1l2.7,4.691.458-.266,39.393-22.742a.959.959,0,0,0,.208-.164,1.523,1.523,0,0,0,.341-1.075,4.24,4.24,0,0,0-1.915-3.315,1.731,1.731,0,0,0-.857-.259.962.962,0,0,0-.242.027.809.809,0,0,0-.2.072l-.034.017h0Z" transform="translate(-157.589 -307.717)"/><path class="e" d="M162.705,375.6c-1.058-.611-1.915-.116-1.915,1.1a4.227,4.227,0,0,0,1.915,3.315c1.055.611,1.912.116,1.912-1.106a4.227,4.227,0,0,0-1.912-3.312Z" transform="translate(-156.509 -352.088)"/><path class="b" d="M154.025,378.458a.249.249,0,0,1,.048-.055l2.441-2.687h0l.02-.021.044-.048.024-.027h0a1.223,1.223,0,0,1,1.53,0,4.227,4.227,0,0,1,1.912,3.312,1.251,1.251,0,0,1-.737,1.318h-.027a1.029,1.029,0,0,1-.14.031h-.031l-3.537.772a.857.857,0,0,1-.618-.133,2.414,2.414,0,0,1-1.1-1.891.887.887,0,0,1,.167-.57Z" transform="translate(-151.942 -352.097)"/><path class="d" d="M188.045,333.278h0l.065-.038a.5.5,0,0,1,.444.065,1.5,1.5,0,0,1,.683,1.178.5.5,0,0,1-.16.41h0l-.085.048-29.079,16.788L158,350.622Z" transform="translate(-154.671 -324.343)"/><path class="g" d="M162.6,379.659l-2.7,1.56-1.912-1.106L161.647,378A4.633,4.633,0,0,1,162.6,379.659Z" transform="translate(-154.665 -353.838)"/><path class="e" d="M151.31,382.952h0l2.209-2.448.058-.065a.861.861,0,0,1,1.093,0,2.984,2.984,0,0,1,1.366,2.342.884.884,0,0,1-.516.929h-.02l-.089.02-3.257.717h0a.522.522,0,0,1-.341-.075,1.366,1.366,0,0,1-.615-1.069.485.485,0,0,1,.113-.352Z" transform="translate(-150.19 -355.318)"/><path class="h" d="M151.31,382.952h0l2.209-2.448.058-.065a.861.861,0,0,1,1.093,0,2.984,2.984,0,0,1,1.366,2.342.884.884,0,0,1-.516.929h-.02l-.089.02-3.257.717h0a.522.522,0,0,1-.341-.075,1.366,1.366,0,0,1-.615-1.069.485.485,0,0,1,.113-.352Z" transform="translate(-150.19 -355.318)"/><path class="e" d="M151.165,385.831a1.366,1.366,0,0,0,.615,1.069.5.5,0,0,0,.341.072h0l1.639-.359c.259-.055.43-.3.43-.683a2.175,2.175,0,0,0-.983-1.707.632.632,0,0,0-.789,0l-.044.048-1.1,1.209h0A.471.471,0,0,0,151.165,385.831Z" transform="translate(-150.168 -357.845)"/><path class="h" d="M151.815,388c-.341-.195-.615-.038-.615.341a1.366,1.366,0,0,0,.615,1.069c.341.195.615.034.615-.358A1.366,1.366,0,0,0,151.815,388Z" transform="translate(-150.193 -360.367)"/><path class="i" d="M253.34,321.064a.474.474,0,0,1,.481.048,1.5,1.5,0,0,1,.683,1.171.468.468,0,0,1-.2.437h0l-7.17,4.131a.5.5,0,0,0,.16-.41,1.5,1.5,0,0,0-.683-1.178.5.5,0,0,0-.444-.065Z" transform="translate(-212.738 -316.312)"/><path class="j" d="M266.573,321.471a1.505,1.505,0,0,0,.683,1.174.413.413,0,0,0,.683-.393,1.5,1.5,0,0,0-.683-1.171.413.413,0,0,0-.683.389Z" transform="translate(-226.17 -316.282)"/><path class="e" d="M270.086,310.591h.024l.027-.017,2.824-1.629.068-.038h0a1.236,1.236,0,0,1,1.168.147,3.8,3.8,0,0,1,1.707,2.981,1.212,1.212,0,0,1-.509,1.12h0l-2.858,1.649h-.017a1.236,1.236,0,0,1-1.195-.133,3.81,3.81,0,0,1-1.707-2.984A1.233,1.233,0,0,1,270.086,310.591Z" transform="translate(-228.176 -308.279)"/><path class="k" d="M270.086,310.591h.024l.027-.017,2.824-1.629.068-.038h0a1.236,1.236,0,0,1,1.168.147,3.8,3.8,0,0,1,1.707,2.981,1.212,1.212,0,0,1-.509,1.12h0l-2.858,1.649h-.017a1.236,1.236,0,0,1-1.195-.133,3.81,3.81,0,0,1-1.707-2.984A1.233,1.233,0,0,1,270.086,310.591Z" transform="translate(-228.176 -308.279)"/><path class="h" d="M271.4,313.776c-.949-.55-1.707-.1-1.707.994a3.81,3.81,0,0,0,1.707,2.984c.953.55,1.724.1,1.724-.993A3.807,3.807,0,0,0,271.4,313.776Z" transform="translate(-228.228 -311.386)"/><path class="d" d="M148.478,389.774h0l1.168-.7h0a.212.212,0,0,1,.229.017.683.683,0,0,1,.317.546.232.232,0,0,1-.092.2h0l-1.164.7h0a.471.471,0,0,1-.219.055.446.446,0,0,1-.239-.823Z" transform="translate(-148.263 -361.112)"/><path class="l" d="M148.4,391.212h0l.061-.051h0a.235.235,0,0,1,.2.034.683.683,0,0,1,.314.546.222.222,0,0,1-.089.2h-.048a.342.342,0,0,1-.143.024.447.447,0,0,1-.447-.447A.454.454,0,0,1,148.4,391.212Z" transform="translate(-148.25 -362.499)"/></g></g><g transform="translate(47.152 39.745)"><g transform="translate(0)"><path class="e" d="M79.054,162.851l-1.192-.683a1.506,1.506,0,0,1-.683-1.178V72.709a1.5,1.5,0,0,1,.683-1.178l54.764-31.619a1.5,1.5,0,0,1,1.366,0l1.192.683a1.506,1.506,0,0,1,.683,1.178v88.281a1.5,1.5,0,0,1-.683,1.178l-54.77,31.619A1.492,1.492,0,0,1,79.054,162.851Z" transform="translate(-77.18 -39.747)"/><path class="m" d="M136.225,41.666c-.044-.341-.341-.481-.683-.283L80.8,73a1.431,1.431,0,0,0-.481.505L77.76,72.035a1.43,1.43,0,0,1,.481-.505l54.767-31.619a1.492,1.492,0,0,1,1.366,0l1.195.683A1.513,1.513,0,0,1,136.225,41.666Z" transform="translate(-77.562 -39.745)"/><path class="n" d="M80.32,225.169a.106.106,0,0,1-.041,0l-.068.024h-.027a.618.618,0,0,0-.126.031h0a1.54,1.54,0,0,1-.809-.065,1.241,1.241,0,0,1-.15-.068l-1.195-.683a1.516,1.516,0,0,1-.683-1.178V134.973a1.437,1.437,0,0,1,.2-.683l2.554,1.472a1.366,1.366,0,0,0-.2.683v88.281a.553.553,0,0,0,.106.358.341.341,0,0,0,.362.116A.447.447,0,0,0,80.32,225.169Z" transform="translate(-77.206 -102.011)"/><path class="d" d="M153.215,74.174l-.1-.061-1.13-.649A4.183,4.183,0,0,0,150.664,73c-.195-.044-.369-.1-.522-.147a3.97,3.97,0,0,1-.5-.2l.082-.106h0l-1.27-.741h0a1.341,1.341,0,0,0-.341-.133c-.481-.119-1.2.16-1.919.079a1.786,1.786,0,0,1-1.3-.775,15.7,15.7,0,0,1-1.086-2.468l.341-.5a1.05,1.05,0,0,0-.106-.058l-1.171-.683a1.284,1.284,0,0,0-.652-.178,2.5,2.5,0,0,0-1.229.4c-2.8,1.622-2.9,5.463-3.909,8s-2.441,3.322-3.22,4.411-.833,1.895-2.557,4.271-1.792,2.957-1.792,3.414v3.541l1.277.737L153.737,78.6ZM132.17,87.831c-.3.167-.543-.061-.543-.522a1.451,1.451,0,0,1,.543-1.151c.3-.171.539.065.539.526a1.441,1.441,0,0,1-.539,1.14Zm10.082-9.939a1.154,1.154,0,0,1-1.765-.539c-.891.171-1.553-.683-1.553-2.165a5.4,5.4,0,0,1,2.049-4.333,1.154,1.154,0,0,1,1.765.543c.891-.178,1.55.683,1.55,2.161a5.387,5.387,0,0,1-2.045,4.326Zm7.624-.287c-.3.174-.543-.058-.543-.519a1.417,1.417,0,0,1,.543-1.151c.3-.174.543.058.543.519a1.42,1.42,0,0,1-.543,1.144Z" transform="translate(-111.644 -57.754)"/><path class="o" d="M132.08,126.924l-2.468-1.424a1.762,1.762,0,0,0-.082.55v3.541l1.277.737,1.273-.737Z" transform="translate(-111.657 -96.222)"/><path class="o" d="M139.958,108.755l1.277-2.946-2.028-1.188h0c-.594.823-.768,1.489-1.567,2.8Z" transform="translate(-116.998 -82.471)"/><path class="o" d="M153.505,84.161l.164-.86c-.563-.236-.939-1-.939-2.107a5.871,5.871,0,0,1,1.553-3.95l-1.769-1.024c-.751,1.707-1.024,3.756-1.646,5.282a8.613,8.613,0,0,1-.41.9Z" transform="translate(-125.441 -63.767)"/><path class="g" d="M155.665,75.636l-.1-.061a5.145,5.145,0,0,0-1.178-.382,3.66,3.66,0,0,1-1.8-.867,2.612,2.612,0,0,0-.417-.307,1.188,1.188,0,0,0-.341-.137c-.772-.188-2.178.656-3.189-.656a.184.184,0,0,1-.031-.041c-.707-.949-.966-3.073-2.025-3.7a1.048,1.048,0,0,0-.106-.058,1.9,1.9,0,0,0-1.782.277c-2.8,1.622-2.9,5.463-3.909,8s-2.438,3.322-3.216,4.411-.83,1.895-2.557,4.271-1.789,2.96-1.789,3.414v3.544l22.95-13.257V76.527A.888.888,0,0,0,155.665,75.636ZM135.883,90.031c-.3.174-.543-.058-.543-.522a1.427,1.427,0,0,1,.543-1.147c.3-.174.539.061.539.522A1.427,1.427,0,0,1,135.883,90.031Zm8.809-10.673a1.154,1.154,0,0,1-1.765-.539,3.25,3.25,0,0,1-.28-1.431,5.387,5.387,0,0,1,2.049-4.329,1.618,1.618,0,0,1,.5-.195c.891-.178,1.55.683,1.55,2.161a5.361,5.361,0,0,1-2.038,4.322Zm8.908.43c-.3.174-.543-.058-.543-.516a1.417,1.417,0,0,1,.543-1.147c.3-.174.539.058.539.519A1.424,1.424,0,0,1,153.6,79.788Z" transform="translate(-114.093 -59.216)"/><path class="l" d="M165.464,81.79a5.384,5.384,0,0,1-2.049,4.333,1.154,1.154,0,0,1-1.765-.539,1.707,1.707,0,0,0,.5-.195,5.4,5.4,0,0,0,2.049-4.333,3.274,3.274,0,0,0-.28-1.427C164.8,79.458,165.464,80.315,165.464,81.79Z" transform="translate(-132.81 -65.998)"/><path class="l" d="M139.952,126.67c-.3.171-.543-.061-.543-.519a1.434,1.434,0,0,1,.543-1.151c.3-.174.539.065.539.522a1.437,1.437,0,0,1-.539,1.147" transform="translate(-118.163 -95.855)"/><path class="l" d="M191.842,96.672c-.3.171-.543-.058-.543-.519A1.434,1.434,0,0,1,191.842,95c.3-.171.539.065.539.526a1.434,1.434,0,0,1-.539,1.144" transform="translate(-152.337 -76.1)"/><path class="j" d="M96.27,108.077l47.655-27.515a.9.9,0,0,1,.816,0l.461.266a.9.9,0,0,1,.406.707v72.7a.9.9,0,0,1-.406.707L97.547,182.459a.9.9,0,0,1-.816,0l-.461-.266a.9.9,0,0,1-.41-.707v-72.7A.9.9,0,0,1,96.27,108.077Z" transform="translate(-89.482 -66.563)"/><path class="i" d="M145.825,81.413c-.051-.167-.208-.222-.393-.113L97.777,108.815a.778.778,0,0,0-.29.3l-1.277-.734a.84.84,0,0,1,.29-.307l47.655-27.515a.9.9,0,0,1,.816,0l.461.266A.9.9,0,0,1,145.825,81.413Z" transform="translate(-89.713 -66.563)"/><path class="b" d="M97.454,236.359a.969.969,0,0,1-.15.041h-.079a1.219,1.219,0,0,1-.249,0,1.085,1.085,0,0,1-.15-.041l-.092-.044-.458-.263a.9.9,0,0,1-.406-.707V162.639a.792.792,0,0,1,.116-.4l1.277.734a.857.857,0,0,0-.119.4v72.7C97.143,236.3,97.28,236.41,97.454,236.359Z" transform="translate(-89.489 -120.418)"/><path class="d" d="M154.269,86.555,153,85.821a1.366,1.366,0,0,0-1.274.038c-1.482.652-2.124.949-2.888,1.27l-.553.222c-.3.119-.9.017-.714-1.024l1.97-5.3h-.031l-1.246-.72a.519.519,0,0,0-.208-.075h-.137c-.806-.02-1.024-5.22-1.041-5.381h0l-.058-.031-1.232-.71a1.366,1.366,0,0,0-.7-.178,2.591,2.591,0,0,0-1.171.341c-1.936,1.024-3.892,4.032-4.37,6.74a13,13,0,0,1-3.011,5.306,3.174,3.174,0,0,0-1.062,1.775l-.772,4.377-.249,1.4A4.541,4.541,0,0,1,133,95.92l-4,2.957a10.135,10.135,0,0,0-3.687,6.77v.02c0,.092,0,.154.044.178a.041.041,0,0,0,.044,0h0l.512-.29,27.5-15.862a.594.594,0,0,0,.249-.382h0c.157-.946.615-2.731.615-2.731Zm-7.952-8.034a6.411,6.411,0,0,1-2.687,4.145c-.823.43-1.424.164-1.625-.594a.946.946,0,0,1-.9-.116c-.382-.3,3.121-6.316,3.414-6.183a1.024,1.024,0,0,1,.529.717C146.031,76.193,146.58,77.026,146.318,78.521Z" transform="translate(-108.877 -62.258)"/><path class="o" d="M129.328,153.327l-2-1.157a11.092,11.092,0,0,0-1.973,5.005v.02c0,.092,0,.154.044.178a.041.041,0,0,0,.044,0h0l1.581-1.25Z" transform="translate(-108.904 -113.786)"/><path class="o" d="M151.1,119.627l2.827,1.629,1.273-7.364-2.547-1.472a2.424,2.424,0,0,0-.4.973l-.772,4.377-.249,1.4a2.219,2.219,0,0,1-.133.454Z" transform="translate(-125.862 -87.608)"/><path class="o" d="M165.825,84.23a11.035,11.035,0,0,0-1.338,3.517,8.849,8.849,0,0,1-1,2.5l2.421,1.4,1.205-2.783a.935.935,0,0,1-.867-.123c-.2-.157.635-1.82,1.526-3.383Z" transform="translate(-134.022 -69.042)"/><path class="g" d="M154.484,87.963h-.017A1.393,1.393,0,0,0,153.2,88c-1.816.8-2.366,1.065-3.445,1.492-.287.116-.871.024-.717-.959a.464.464,0,0,1,0-.068l.249-1.4.683-3.814s.157-.6-.239-.826H149.7a.741.741,0,0,0-.318-.068,1.553,1.553,0,0,1-1.137-.727,2.868,2.868,0,0,1-.427-2.182c.29-1.635-.027-2.783-.751-3.209l-.058-.034a1.943,1.943,0,0,0-1.83.178c-1.939,1.024-3.9,4.032-4.37,6.74a13.018,13.018,0,0,1-3.015,5.306,3.142,3.142,0,0,0-1.058,1.775l-.748,4.353-.246,1.4a4.566,4.566,0,0,1-1.256,2.049l-3.995,3a9.638,9.638,0,0,0-3.288,4.974s-1.5,1.164-1.591,1.256h0l.512-.29,27.583-15.855s.314-.174.386-.219,1.181-1.093,1.181-1.093A2.2,2.2,0,0,0,154.484,87.963Zm-7.969-8.044a6.411,6.411,0,0,1-2.687,4.145c-.823.43-1.424.164-1.625-.594a3.12,3.12,0,0,1,0-1.291,6.39,6.39,0,0,1,2.69-4.141,2.145,2.145,0,0,1,.341-.15C146.228,77.591,146.778,78.424,146.515,79.919Z" transform="translate(-109.075 -63.656)"/><path class="l" d="M178.522,83.346a6.411,6.411,0,0,1-2.687,4.145c-.823.43-1.424.164-1.625-.594a2.354,2.354,0,0,0,.341-.143,6.4,6.4,0,0,0,2.687-4.148,3.131,3.131,0,0,0,0-1.291C178.235,81.018,178.785,81.851,178.522,83.346Z" transform="translate(-141.082 -67.083)"/><path class="l" d="M177.241,81.456h0a.649.649,0,0,1,.574.28c.5.7.02,2.492-.184,3.073-.283.8-2.134,2.666-2.643,2.666a1.256,1.256,0,0,1-.836-.536,3.1,3.1,0,0,1,0-1.243,6.347,6.347,0,0,1,2.649-4.1,2.268,2.268,0,0,1,.324-.14h.113m0-.079h-.126a2.142,2.142,0,0,0-.341.15,6.4,6.4,0,0,0-2.69,4.141,3.12,3.12,0,0,0,0,1.291,1.345,1.345,0,0,0,.9.58h0c.553,0,2.414-1.888,2.711-2.731s.942-3.452-.464-3.452Z" transform="translate(-140.952 -67.152)"/><path class="l" d="M125.56,133.74l28.092-16.149.389-.215c.068-.041,1.178-1.1,1.178-1.1l-28.071,16.2S125.447,133.8,125.56,133.74Z" transform="translate(-109.038 -90.15)"/><path class="b" d="M114.54,157.225v.638c0,.341.246.488.546.314l37.167-21.462a1.209,1.209,0,0,0,.546-.942v-.642c0-.341-.246-.488-.546-.314l-37.167,21.465a1.205,1.205,0,0,0-.546.942Z" transform="translate(-101.785 -102.31)"/><path class="b" d="M114.54,168.532v.638c0,.341.246.488.546.314l37.167-21.465a1.205,1.205,0,0,0,.546-.942v-.642c0-.341-.246-.485-.546-.314l-37.167,21.468a1.205,1.205,0,0,0-.546.942Z" transform="translate(-101.785 -109.755)"/><path class="b" d="M114.54,179.775v.635c0,.341.246.488.546.314l37.167-21.458a1.209,1.209,0,0,0,.546-.942v-.642c0-.341-.246-.488-.546-.314l-37.167,21.465a1.205,1.205,0,0,0-.546.942Z" transform="translate(-101.785 -117.161)"/><path class="b" d="M114.54,204.7v.638c0,.341.246.488.546.314L152.253,184.2a1.205,1.205,0,0,0,.546-.942v-.642c0-.341-.246-.485-.546-.314l-37.167,21.458a1.205,1.205,0,0,0-.546.942Z" transform="translate(-101.785 -133.582)"/><path class="b" d="M114.54,215.985v.642c0,.341.246.485.546.314l37.167-21.465a1.205,1.205,0,0,0,.546-.942v-.642c0-.341-.246-.488-.546-.314l-37.167,21.465A1.209,1.209,0,0,0,114.54,215.985Z" transform="translate(-101.785 -141.008)"/><path class="b" d="M114.54,227.232v.638c0,.341.246.488.546.314l37.167-21.465a1.205,1.205,0,0,0,.546-.942v-.642c0-.341-.246-.485-.546-.314l-37.167,21.468a1.205,1.205,0,0,0-.546.942Z" transform="translate(-101.785 -148.413)"/><path class="b" d="M114.54,252.135v.642c0,.341.246.485.546.314l37.167-21.465a1.205,1.205,0,0,0,.546-.942v-.642c0-.341-.246-.488-.546-.314l-37.167,21.465a1.209,1.209,0,0,0-.546.942Z" transform="translate(-101.785 -164.816)"/><path class="b" d="M114.54,263.445v.638c0,.341.246.488.546.314l37.167-21.465a1.2,1.2,0,0,0,.546-.939v-.642c0-.341-.246-.488-.546-.314L115.086,262.5a1.205,1.205,0,0,0-.546.942Z" transform="translate(-101.785 -172.264)"/><path class="b" d="M114.54,274.7v.642c0,.341.246.485.546.314L152.253,254.2a1.205,1.205,0,0,0,.546-.942v-.642c0-.341-.246-.488-.546-.314l-37.167,21.458A1.209,1.209,0,0,0,114.54,274.7Z" transform="translate(-101.785 -179.68)"/><path class="b" d="M170.58,298.255l19.137-11.045v.369L170.58,298.624Z" transform="translate(-138.691 -202.721)"/><path class="d" d="M179.126,289.789a2.858,2.858,0,0,0,1.54-2.492.815.815,0,0,0-1.205-.666c-1.164.447-1.9,2.2-2.3,3.257-.341.925-.809,2.67.58,2.967,1.629.341,2.888-2.048,3.257-3.291.051-.174-.232-.27-.314-.113-.143.283-1.1,2.154-.048,1.919.376-.082.591-.666.727-.963a7.627,7.627,0,0,1,.734-1.731l-.277-.126a1.6,1.6,0,0,0,.341,1.209.167.167,0,0,0,.232.038c.539-.5.577-1.318,1.171-1.772l-.242-.116c0,.157-.072.6-.082.813a.166.166,0,0,0,.212.133.464.464,0,0,0,.341-.294l-.259-.1c.225,1.205,1.253,0,1.6-.458a7.736,7.736,0,0,0,1.782-4.578c0-.14-.263-.212-.266-.044a14.58,14.58,0,0,1-.99,3.848c-.406,1.366-.744,2.762-1.024,4.169l.242.089a8.372,8.372,0,0,1,.751-2.875,5.685,5.685,0,0,1,1.294-2.158l-.225-.085a2.438,2.438,0,0,1-.546,1.987c-.072.092.089.266.16.174.376-.471.994-.621,1.4-1.079a11.951,11.951,0,0,0,1.007-1.625l-.184-.092c-.024,1.147,1.058-.642,1.205-.833l-.178-.068c.072.236.167.393.434.4.529,0,.727-.772,1.127-.86a.932.932,0,0,0,.236.154,1,1,0,0,0,.638-.12,2.97,2.97,0,0,0,1.045-1.168c.061-.109-.147-.246-.215-.126-.263.444-1.082,1.622-1.676,1.045-.038-.034-.116-.068-.157-.02-.16.2-1.079,1.25-1.25.683-.02-.068-.12-.143-.174-.068-.14.184-.253.389-.382.584-.072.106-.471.778-.458.437,0-.082-.126-.178-.184-.092a8.389,8.389,0,0,1-1.164,1.782c-.386.341-.891.471-1.226.884l.16.174a2.615,2.615,0,0,0,.625-2.158.143.143,0,0,0-.225-.085,5.845,5.845,0,0,0-1.314,2.206,8.627,8.627,0,0,0-.765,2.933c0,.106.215.225.242.089A40.565,40.565,0,0,1,186,287.01a12.822,12.822,0,0,0,.908-3.6l-.266-.044a6.62,6.62,0,0,1-1.185,3.653c-.191.3-.393.594-.611.874-.1.126-.942,1.233-1.052.591-.017-.092-.2-.222-.259-.1l-.246.219.212.13c.017-.277.072-.536.085-.816a.164.164,0,0,0-.242-.113c-.6.461-.649,1.277-1.192,1.779l.232.038a1.847,1.847,0,0,1-.259-1.024c0-.12-.184-.236-.277-.126a8.523,8.523,0,0,0-.819,1.874c-.15.318-.683,1.164-.512.263a4.44,4.44,0,0,1,.481-1.062l-.314-.113c-.321,1.086-1.178,2.731-2.349,3.073-1.5.447-1.236-1.407-.963-2.233a9.2,9.2,0,0,1,1.427-2.67,2.975,2.975,0,0,1,.386-.444c.3-.273.393-.341.816-.1s.444.376.341.833a2.516,2.516,0,0,1-.28.645,4.285,4.285,0,0,1-1,1.072c-.055.044.024.191.085.147Z" transform="translate(-142.786 -199.991)"/></g></g><g transform="translate(123.244 85.456)"><g transform="translate(0 0)"><path class="p" d="M306.178,240.273c-1.236-.294-2.6.587-3.394,2.526s-2.39,6.9-2.731,8.194c-.15.58,4.261,5.722,4.1,5.647-.048-.024,1.437-2.509,1.437-2.509l-2.141-3.295,1.366-3.575Z" transform="translate(-300.049 -217.484)"/><path class="l" d="M309.126,369.446c-.167.065-.212.382-.236,1.024-.02.481-.123,1.318.44,1.485a1.766,1.766,0,0,0,1.748-.369,22.2,22.2,0,0,1,1.4-1.751,4.894,4.894,0,0,0,1.383-2c.2-.758.034-1.086-.481-1.308-.714-.3-1.83.683-2.39.843C310.512,367.5,309.293,369.385,309.126,369.446Z" transform="translate(-305.858 -300.633)"/><path class="p" d="M309.62,372.913v.778a1.912,1.912,0,0,0,1.97.055c.034-.075.2-1.116.2-1.116Z" transform="translate(-306.352 -304.688)"/><path class="l" d="M325.658,387.31a13.082,13.082,0,0,0-.341,1.27,3.36,3.36,0,0,0-.068,1.611c.167.352.806.584,1.806.577a5.923,5.923,0,0,1,2.342.819,3.612,3.612,0,0,0,2.236.311,2.828,2.828,0,0,0,1.953-.987c.143-.365-.041-.546-2.134-1.437a11.817,11.817,0,0,1-3.22-2.113Z" transform="translate(-316.593 -314.356)"/><path class="p" d="M326.6,384.84v.908c0,.331.389.823,1.4.789.71-.027,1.205-.219,1.175-.8v-.84Z" transform="translate(-317.535 -312.729)"/><path class="e" d="M307.236,300.5a18.515,18.515,0,0,1,.953-4.008s-.44-3.448-.683-6.76c-.454-5.937-.089-7.877,1.079-10.54,0,0,9.959-1.024,10.263,3.131a165.264,165.264,0,0,1-.259,16.938,63.439,63.439,0,0,1-.949,6.446c-.492,2.9-1.25,9.536-1.25,9.536a2.731,2.731,0,0,1-2.574-.055s-.813-8.29-.727-10.389a17.848,17.848,0,0,1,.782-4.578s-.618-8.4-.8-9.741c0,0-.314,2.666-.451,4.486s-.683,3.561-1.2,6.944c-.457,2.933-1.308,9.491-1.308,9.491a1.733,1.733,0,0,1-2.11-.092S306.881,303.046,307.236,300.5Z" transform="translate(-304.737 -243.079)"/><g class="q" transform="translate(2.43 36.004)"><path d="M307.236,300.5a18.515,18.515,0,0,1,.953-4.008s-.44-3.448-.683-6.76c-.454-5.937-.089-7.877,1.079-10.54,0,0,9.959-1.024,10.263,3.131a165.264,165.264,0,0,1-.259,16.938,63.439,63.439,0,0,1-.949,6.446c-.492,2.9-1.25,9.536-1.25,9.536a2.731,2.731,0,0,1-2.574-.055s-.813-8.29-.727-10.389a17.848,17.848,0,0,1,.782-4.578s-.618-8.4-.8-9.741c0,0-.314,2.666-.451,4.486s-.683,3.561-1.2,6.944c-.457,2.933-1.308,9.491-1.308,9.491a1.733,1.733,0,0,1-2.11-.092S306.881,303.046,307.236,300.5Z" transform="translate(-307.167 -279.083)"/></g><path class="p" d="M325.481,235.047l-.468,3.848-3.383-.3.386-4.271Z" transform="translate(-314.262 -213.599)"/><path class="c" d="M308.61,242.274a2.9,2.9,0,0,1,2.94-1.9l.956.174c.027.888,1.707,1.345,3.366.809.5.143.959.29,1.366.437,1.192.427,1.67,2.39,1.707,5.715s.379,11.564.379,11.564l-1.41.447-.649-2.414L317,260a10.369,10.369,0,0,1-4.811-.024c-3.578-.782-4.691-2.711-4.691-2.711a17.463,17.463,0,0,1,2.561-6.258C308.272,246.237,308.06,243.786,308.61,242.274Z" transform="translate(-304.956 -217.565)"/><path class="l" d="M322.1,213.264a2.974,2.974,0,0,0-.256-2.861c-1.137-1.782-3.325-2.086-5.92-1.39a4.6,4.6,0,0,0-3.247,4.179c-.126,1.9,5.183,3.3,5.06,4.609Z" transform="translate(-308.363 -196.705)"/><path class="r" d="M340.61,224.25s.72,1.154.618,1.273a1.8,1.8,0,0,1-.58.232Z" transform="translate(-326.762 -206.967)"/><path class="p" d="M324.358,212.882c.717.4,1.96,1.127,2.212,3.824.259,2.766-.382,3.708-.768,4.06a3.555,3.555,0,0,1-2.25.061,7.122,7.122,0,0,1-3.506-2.7c-.976-1.707-1.127-3.943.075-4.78A4.4,4.4,0,0,1,324.358,212.882Z" transform="translate(-312.705 -199.256)"/><path class="l" d="M320.22,211.8s.567,2.533-.239,4.1c0,0-.417-.994-1.27-.734s-.809,1.4-.157,1.994a1.263,1.263,0,0,0,1.311.314,5.671,5.671,0,0,1-1.267,1.912,4.152,4.152,0,0,1-4.7-1.342c-1.984-2.236-1.615-6.146,1.42-7.057A5.188,5.188,0,0,1,320.22,211.8Z" transform="translate(-308.355 -198.058)"/><path class="l" d="M312.116,214.38a.594.594,0,0,1,.065.836l-.9-.775a.591.591,0,0,1,.837-.061Z" transform="translate(-307.445 -200.372)"/><path class="p" d="M361.13,255.007c.492-.56.683-1.81,1.332-2.663s.895-1.478,1.154-1.106c.341.5-.43,1.482-.259,1.581a5.137,5.137,0,0,1,.877,2.124c.065.724-1.85,2.54-1.85,2.54Z" transform="translate(-340.276 -224.669)"/><path class="p" d="M367.49,255.58a11.776,11.776,0,0,1,2.653,0c.338.2.236,1.2,0,1.816s-1.417,1.024-2.513,1.755C367.63,259.042,367.49,255.58,367.49,255.58Z" transform="translate(-344.464 -227.543)"/><path class="p" d="M333.351,244.33a4.366,4.366,0,0,1,2.793,2.492c1.192,2.243,3.363,6.634,3.363,6.634l2.7-2.926s.393-.553,1.123.656.41,1.543.41,1.543-3.145,4.213-3.721,4.749-1.526.119-2.148-.724-4.524-5.729-4.524-5.729A6.246,6.246,0,0,1,333.351,244.33Z" transform="translate(-321.356 -220.192)"/><path class="s" d="M318.24,306.352l-.191-2.011a7.641,7.641,0,0,1-3.039-1.151,4.2,4.2,0,0,0,2.424,1.509l.184,2.561.109,4.2Z" transform="translate(-309.902 -258.956)"/><path class="l" d="M303.7,225.493h0a3.506,3.506,0,0,0,3.517-3.5v-5.323h0a2.677,2.677,0,0,0-3.5,2.547Z" transform="translate(-302.453 -201.888)"/><path class="b" d="M336.294,264.773s-1.943-2.506-2.564-3.513l2.632,5.558Z" transform="translate(-322.231 -231.341)"/><path class="t" d="M376.411,207.437c-.737,2.175-2.311,8.662-2.311,8.662s-3,3.991-3.827,4.753c-.457.423-1.492,1.185-1.492,1.185l.86.635s1.434-.437,1.553.341a43.677,43.677,0,0,0,4.234-3.892,2.731,2.731,0,0,0,.683-1.25l1.28-5.507s0-4.438.683-5.019.413-1.895.413-1.895C378.019,205.464,376.991,205.733,376.411,207.437Z" transform="translate(-345.314 -194.586)"/><path class="e" d="M382.264,204.81a12.333,12.333,0,0,0,.758,1.707c.3.516-2,9.785-2.151,10.475s-4.609,4.708-4.609,4.708a3.346,3.346,0,0,1-1.782-1.789l3.216-4.186s1-4.391,1.526-6.405S380.308,205.029,382.264,204.81Z" transform="translate(-349.068 -194.165)"/><path class="h" d="M382.264,204.81a12.333,12.333,0,0,0,.758,1.707c.3.516-2,9.785-2.151,10.475s-4.609,4.708-4.609,4.708a3.346,3.346,0,0,1-1.782-1.789l3.216-4.186s1-4.391,1.526-6.405S380.308,205.029,382.264,204.81Z" transform="translate(-349.068 -194.165)"/><rect class="t" width="2.219" height="3.803" transform="translate(40.387 54.207)"/><path class="t" d="M393.748,327.342l-2.219.078-.109-4.025,2.328-.075Z" transform="translate(-360.224 -272.213)"/><path class="g" d="M402,252.021c0,2.12.147,14.452.147,14.452a17.081,17.081,0,0,1,.683,3.892c.065,3.189-.427,10.7-.427,10.7a2.922,2.922,0,0,1-2.472.048s-1.745-10.618-2.141-13.776c-.341-2.752-1.547-10.1-1.547-10.1l-1.707,9.307a12.633,12.633,0,0,1,.277,3.53c-.106,1.458-1.458,8.768-1.458,8.768a3.032,3.032,0,0,1-2.564.2s-.133-11.475-.157-12.813c-.031-1.526.635-14.661.635-14.661Z" transform="translate(-359.709 -224.953)"/><path class="l" d="M412.849,339.713V339.4c-.12,0-.191.116-.239.4a5.749,5.749,0,0,1-.13.628,7.459,7.459,0,0,1-.386,1.137,6.884,6.884,0,0,1-1.3,1.967,8.414,8.414,0,0,0-.683.8c-.133.239-.181.9.048,1.055a3.857,3.857,0,0,0,3.011.311,1.823,1.823,0,0,0,1.308-1.468c.034-.2.021-.417.044-.621a2.964,2.964,0,0,1,.556-1.291,3.977,3.977,0,0,0,.427-.7,2.291,2.291,0,0,0-.082-1.424c-.1-.393-.215-.823-.341-.785v.239a1.741,1.741,0,0,1-1.113.376C413.634,340.024,412.846,339.959,412.849,339.713Z" transform="translate(-372.462 -282.799)"/><path class="l" d="M381.484,333.041c-.116,0-.208.167-.464.444a4.905,4.905,0,0,1-1.3.939c-.833.417-2.448,1.055-3.182,1.386-.458.2-.434.758.038,1.072a4.294,4.294,0,0,0,2.984.236c.744-.167,1.707-.857,2.332-.819a4.565,4.565,0,0,0,2.219-.287c.454-.314.273-.98.143-1.553-.14-.625-.314-1.6-.522-1.56v.215a2.409,2.409,0,0,1-2.229.273Z" transform="translate(-350.203 -278.519)"/><path class="l" d="M401.1,264.765A8.246,8.246,0,0,1,398,263a6.361,6.361,0,0,0,2.39,2.158l-.86,8.279Z" transform="translate(-364.558 -232.487)"/><path class="j" d="M399.03,205.059c.758.184,2.281.434,2.622,1.939a44.008,44.008,0,0,1,.543,5.743l.14,8.761c-1.53,1.113-7.146,1.707-10.365-.632,0,0,.4-10.516.4-12.155a3.527,3.527,0,0,1,3.414-3.756Z" transform="translate(-360.586 -194.263)"/><path class="e" d="M395.38,204.059a4.472,4.472,0,0,0-1.434,2.219c-.307,1.325-.341,16.118-.341,16.118a6.713,6.713,0,0,1-2.3-.867s.092-11.677.242-13.609c.229-2.926.2-3.756,3.848-4.08Z" transform="translate(-360.145 -193.526)"/><path class="e" d="M410.184,203.84s-2.093,1.287-2.117,6.412c-.02,4.438-.167,12.144-.167,12.144s3.465.509,5.661-.8c0,0,.263-10.741.219-12.4-.048-1.905-.492-4.367-1.1-4.613A17.437,17.437,0,0,0,410.184,203.84Z" transform="translate(-371.078 -193.526)"/><path class="t" d="M424.7,216.461c-2.083-8.515-3.622-11.356-6.146-11.321-.741.881-.536,3.551.632,5.169a59.257,59.257,0,0,1,3.018,7.443,27.591,27.591,0,0,1,.755,5.35,1.075,1.075,0,0,1-.29.7,5.552,5.552,0,0,0-.785,1.5c-.242.444-.505.611-.43.714a.58.58,0,0,0,.782.058,2.984,2.984,0,0,0,.591-.57,5.946,5.946,0,0,1-.468,1.581c-.536,1.205-.406,1.82,1.222,1.39,1.024-.27,1.659-1.116,1.81-3.568a18.572,18.572,0,0,0,.027-2.711A47.16,47.16,0,0,0,424.7,216.461Z" transform="translate(-377.807 -194.381)"/><path class="e" d="M417.579,204.727a3.883,3.883,0,0,1,2.585.843c.908.918,2.134,2.851,3.322,7.074a38.826,38.826,0,0,1,1.611,9.686,3.408,3.408,0,0,1-2.861-.1s-.608-3.677-1.147-5.633a52.9,52.9,0,0,0-2.55-6.077S416.616,207.667,417.579,204.727Z" transform="translate(-377.274 -194.109)"/><path class="h" d="M417.579,204.727a3.883,3.883,0,0,1,2.585.843c.908.918,2.134,2.851,3.322,7.074a38.826,38.826,0,0,1,1.611,9.686,3.408,3.408,0,0,1-2.861-.1s-.608-3.677-1.147-5.633a52.9,52.9,0,0,0-2.55-6.077S416.616,207.667,417.579,204.727Z" transform="translate(-377.274 -194.109)"/><path class="h" d="M411.928,212.05l-.959,1.185.481,1.352-1.26,3.23,1.516-3.23-.529-1.277Z" transform="translate(-372.586 -198.933)"/><path class="h" d="M394.281,210.93l.208,1.226-.83,1.082,1.154,3.633-.895-3.592.765-1.011Z" transform="translate(-361.699 -198.195)"/><circle class="l" cx="3.052" cy="3.052" r="3.052" transform="translate(31.353 6.026) rotate(-80.78)"/><path class="l" d="M415.091,190.23s-.5,2.325-.683,2.707a1.055,1.055,0,0,1-.608.488l.034-1.635Z" transform="translate(-374.963 -184.562)"/><path class="l" d="M415.134,180.466a1.144,1.144,0,0,1,.949.341c.406.417.181,1.707-.341,2.994l-.932.106Z" transform="translate(-375.628 -178.128)"/><path class="t" d="M401.216,181.141c.188.109.454-.249.683-.488a.809.809,0,0,1,1.366.219,1.69,1.69,0,0,1-.922,2.048c-1.024.321-1.174-.341-1.174-.341l-.075,3.793h0c-.707.9-2.291,1.97-3.144,1.816-.683-.12-.83-1.27-.178-2.025V185.05a6.354,6.354,0,0,1-1.366.068,1.87,1.87,0,0,1-1.451-1.519,10.907,10.907,0,0,1-.195-4.923c.341-2.813,3.612-2.841,5.377-1.731S401.216,181.141,401.216,181.141Z" transform="translate(-362.311 -175.364)"/><path class="l" d="M400.448,179.741c.1,0,.454-.591.683-.8.321-.294-.1-2.95-.1-2.95a1.287,1.287,0,0,0-.222-1.434c-.44-.485-1.055-1.079-3.073-.84-1.427.167-2.981.611-4.237,0a2.137,2.137,0,0,0,.744,2.27,4.258,4.258,0,0,0,1.649.437,17.643,17.643,0,0,0,3.312-.061c.341-.048.42.287.608,1.205C400.007,178.368,400.144,179.734,400.448,179.741Z" transform="translate(-361.543 -173.65)"/><path class="l" d="M415.627,179.231l1.13-.608a.625.625,0,0,0-.857-.283A.683.683,0,0,0,415.627,179.231Z" transform="translate(-376.121 -176.684)"/><path class="u" d="M403.93,199.2a12.938,12.938,0,0,0,2.26-.649,1.926,1.926,0,0,0,.809-.8,2.619,2.619,0,0,1-.461.946c-.427.546-2.608.949-2.608.949Z" transform="translate(-368.463 -189.515)"/><path class="l" d="M405.11,188.661a.341.341,0,1,0,.341-.341A.341.341,0,0,0,405.11,188.661Z" transform="translate(-369.24 -183.305)"/><path class="l" d="M406.15,185.175l.717.4A.434.434,0,0,0,406.7,185a.4.4,0,0,0-.55.178Z" transform="translate(-369.925 -181.085)"/><path class="u" d="M402.895,196.11l-.765.287a.4.4,0,0,0,.519.256.43.43,0,0,0,.246-.543Z" transform="translate(-367.278 -188.435)"/><path class="l" d="M396.186,185.126l.656-.505a.4.4,0,0,0-.57-.089.437.437,0,0,0-.085.594Z" transform="translate(-363.31 -180.756)"/><path class="l" d="M396.93,188.341a.341.341,0,1,0,.341-.341A.341.341,0,0,0,396.93,188.341Z" transform="translate(-363.853 -183.094)"/><path class="u" d="M399.694,188.11l-.109,2.018-1.055-.359Z" transform="translate(-364.907 -183.166)"/><path class="e" d="M400.87,208.89c.2.492.587.683,1.273.768a2.564,2.564,0,0,0,1.905-.683l-.854-.85-1.089.816-.092-.912Z" transform="translate(-366.448 -196.285)"/><path class="h" d="M400.87,208.89c.2.492.587.683,1.273.768a2.564,2.564,0,0,0,1.905-.683l-.854-.85-1.089.816-.092-.912Z" transform="translate(-366.448 -196.285)"/><path class="e" d="M402.217,209.77a2.253,2.253,0,0,0-.113.918,1.56,1.56,0,0,0,.307.761.833.833,0,0,0,.737.082,2.028,2.028,0,0,0,.707-1.533l-.942.106Z" transform="translate(-367.255 -197.431)"/><path class="e" d="M400.757,214.69s-1.116,6.146-1.161,6.651.638,2.26,1.065,2.274,1.26-1.581,1.27-2.049-.437-6.811-.437-6.811Z" transform="translate(-365.607 -200.671)"/><path class="h" d="M403.757,214.772a.737.737,0,0,1-.737-.082v.1a.847.847,0,0,0,.768.15Z" transform="translate(-367.864 -200.671)"/><path class="b" d="M404.49,204.77l3.141-2.39v-.71s.731.277.895,1.564a5.511,5.511,0,0,1-2.448,2.605l-.659-1.174Z" transform="translate(-368.832 -192.097)"/><path class="b" d="M401.473,202.62a1.574,1.574,0,0,0-1.024.625,7.837,7.837,0,0,0-.242,2.5l.751-.683.683.341c-.065-.659-.195-1.861-.195-1.861Z" transform="translate(-366.006 -192.722)"/><path class="t" d="M368,261.6a2.7,2.7,0,0,0,.5-1.4c.089-.645,1.857-1.338,1.915-.857a1.4,1.4,0,0,1-.341,1.465C369.509,261.389,368.823,262.034,368,261.6Z" transform="translate(-344.8 -229.971)"/><path class="t" d="M365.983,252.835a15.381,15.381,0,0,0-.908,1.967c-.225.359-.492.683,0,.734s1.205-.891,1.472-1.471a1.571,1.571,0,0,1,.458-.587,1.025,1.025,0,0,1,.256-.15c-.229-.079-.109-1-.27-1.127C366.99,252.2,366.157,252.541,365.983,252.835Z" transform="translate(-342.691 -225.375)"/></g></g></g></g></svg>