<svg xmlns="http://www.w3.org/2000/svg" width="169.853" height="122.921" viewBox="0 0 169.853 122.921"><defs><style>.a,.m{fill:#fff;}.b{fill:#e0e0e0;}.c{fill:#ebebeb;}.d{fill:#fafafa;}.e{fill:#f5f5f5;}.f{fill:#e8505b;}.g{fill:#263238;}.h{fill:#455a64;}.i{opacity:0.4;}.j{fill:#ffbe9d;}.k{fill:#eb996e;}.l{opacity:0.3;}.m{font-size:22px;font-family:Lato-Black, Lato;font-weight:800;}</style></defs><g transform="translate(-214.828 -1139.365)"><path class="a" d="M-1965.962,975.87c-15.12,3.321-30.576.21-45.724-1.3-9.973-.992-19.587.359-29.583,1.092-25.412,1.864-53.6-1.415-61.731-24.9-6.774-19.57,4.174-48.607,27.769-60.1,8.161-3.975,16.469-4.759,24.577-3.943,4.868.49,10.3,2.357,15.542.391,5.532-2.075,9.624-7.833,13.363-11.982,5.564-6.177,11.441-12.651,18.906-16.827,17.123-9.577,27.306-.24,32.45,15.111,2.5,7.463,3.829,15.241,5.844,22.831,2.857,10.766,9.054,18.585,16.035,27.248,6.214,7.717,12.031,16.74,11.029,26.53-1.135,11.11-11.145,20.222-22.306,24.106a53.543,53.543,0,0,1-6.171,1.739" transform="translate(2321.979 284.939)"/><g transform="translate(-401 35)"><g transform="translate(616.032 1114.027)"><g transform="translate(130.336 13.871)"><path class="b" d="M564.3,118.658l.242.868-.782,5.516-1.455.4.769-5.273-1.918.533.262.943-1.191.331-.565-2.034Z" transform="translate(-559.665 -115.683)"/><path class="b" d="M587.387,117.46c.285,1.025-.219,2.127-1.872,2.587a4.151,4.151,0,0,1-2.38-.006l.244-1.172a2.89,2.89,0,0,0,1.79.063c.67-.186,1-.582.874-1.053-.127-.455-.507-.67-1.557-.378l-1.48.412-.608-3.34,3.53-.982.3,1.075-2.414.671.215,1.125.471-.131C586.21,115.855,587.1,116.435,587.387,117.46Z" transform="translate(-576.818 -111.86)"/><path class="b" d="M602.021,109.542a1.379,1.379,0,1,1,1.743,1.208A1.43,1.43,0,0,1,602.021,109.542Zm2.2-.611c-.209-.752-.689-1.1-1.226-.95s-.766.7-.56,1.447.681,1.1,1.226.95S604.429,109.683,604.22,108.93Zm2.187-2.256.487-.136-2.342,6.886-.487.136Zm-.081,4.609a1.379,1.379,0,1,1,1.743,1.208A1.435,1.435,0,0,1,606.326,111.284Zm2.2-.611c-.207-.744-.681-1.1-1.226-.95s-.769.695-.56,1.447.689,1.1,1.226.95S608.732,111.416,608.525,110.672Z" transform="translate(-591.56 -106.539)"/></g><g transform="translate(134.682 62.766)"><g transform="translate(12.896 12.846)"><rect class="c" width="17.282" height="21.814" transform="translate(17.282 21.949) rotate(-179.553)"/></g><g transform="translate(20.553 13.599)"><path class="d" d="M664.146,361.172l-.307,21.122-2.73-.021.585-21.12Z" transform="translate(-661.108 -361.153)"/></g><g transform="translate(2.985 13.459)"><path class="b" d="M589.695,360.581l9.915.077,17.282.135-17.3,2.276-.146,18.712-9.911-.077Z" transform="translate(-589.534 -360.581)"/></g><g transform="translate(5.207 13.479)"><path class="d" d="M601.924,360.684,601.53,381.8l-2.942-.023.481-21.12Z" transform="translate(-598.587 -360.661)"/></g><g transform="translate(8.789)"><g transform="translate(0 0.871)"><path class="b" d="M620.78,315.5c0,.044-.291.1-.823.149a21.908,21.908,0,0,1-2.266.1,12.737,12.737,0,0,1-3.383-.444,2.417,2.417,0,0,1-.5-.221,1.345,1.345,0,0,1-.452-.427,1.2,1.2,0,0,1-.182-.632,2.378,2.378,0,0,1,.073-.58,13.066,13.066,0,0,1,.64-2.077,5.4,5.4,0,0,1,.56-1,3.138,3.138,0,0,1,.822-.813,1.738,1.738,0,0,1,.571-.236,1.461,1.461,0,0,1,.628.011,2.51,2.51,0,0,1,.955.522,9.9,9.9,0,0,1,2.253,2.566,8.232,8.232,0,0,1,.911,2.1c.135.525.15.825.112.834a22.584,22.584,0,0,0-1.4-2.693,10.426,10.426,0,0,0-2.236-2.347,1.982,1.982,0,0,0-.73-.392.929.929,0,0,0-.725.158,2.577,2.577,0,0,0-.644.658,4.892,4.892,0,0,0-.489.878,13.554,13.554,0,0,0-.617,1.966.971.971,0,0,0,.017.743,1.177,1.177,0,0,0,.621.415,7.831,7.831,0,0,0,.851.227c.284.064.563.112.834.156.543.084,1.055.133,1.525.166.94.064,1.709.077,2.241.1S620.779,315.451,620.78,315.5Z" transform="translate(-613.18 -309.293)"/></g><g transform="translate(7.243)"><path class="d" d="M642.691,312.977a2.715,2.715,0,0,1,.9-.269c.582-.135,1.429-.306,2.461-.555a23.33,23.33,0,0,0,3.53-1.115,3.924,3.924,0,0,0,.885-.47,1,1,0,0,0,.284-.314.529.529,0,0,0,.049-.357,1.955,1.955,0,0,0-.168-.467l-.25-.528a8.939,8.939,0,0,0-.565-1.017,4.419,4.419,0,0,0-.725-.857,2.792,2.792,0,0,0-.878-.565,1.392,1.392,0,0,0-.911-.04,2.367,2.367,0,0,0-.816.5,12.432,12.432,0,0,0-2.365,2.785,10.634,10.634,0,0,0-1.049,2.245,3.743,3.743,0,0,1-.307.876,2.1,2.1,0,0,1,.067-.94,8.548,8.548,0,0,1,.9-2.408,11.762,11.762,0,0,1,2.367-3,2.909,2.909,0,0,1,1.019-.634,2,2,0,0,1,1.309.032,2.8,2.8,0,0,1,.585.292,4.343,4.343,0,0,1,.506.389,4.958,4.958,0,0,1,.834.978,9.171,9.171,0,0,1,.6,1.092l.252.542a2.489,2.489,0,0,1,.212.629,1.156,1.156,0,0,1-.121.75,1.592,1.592,0,0,1-.461.509,4.37,4.37,0,0,1-1.033.53,20.057,20.057,0,0,1-3.657,1.012c-1.058.2-1.92.3-2.516.358A2.657,2.657,0,0,1,642.691,312.977Z" transform="translate(-642.691 -305.746)"/></g></g><g transform="translate(0 6.214)"><rect class="b" width="25.403" height="7.22" transform="matrix(-1, -0.008, 0.008, -1, 25.402, 7.418)"/></g><g transform="translate(9.341 6.287)"><rect class="c" width="22.962" height="7.22" transform="translate(22.961 7.399) rotate(-179.553)"/></g><g transform="translate(22.474 6.391)"><path class="d" d="M671.775,331.8l-.162,7.254L668.936,339l.187-7.219Z" transform="translate(-668.936 -331.784)"/></g><g transform="translate(3.084 6.239)"><path class="d" d="M593.139,331.226l-.259,7.189-2.944-.023.158-7.225Z" transform="translate(-589.936 -331.166)"/></g></g><g transform="translate(154.868 81.681)"><g transform="translate(5.891 6.035)"><rect class="c" width="7.894" height="9.964" transform="translate(7.894 10.026) rotate(-179.553)"/></g><g transform="translate(9.388 6.38)"><path class="d" d="M699.251,408.81l-.14,9.648-1.247-.01.267-9.647Z" transform="translate(-697.864 -408.802)"/></g><g transform="translate(1.364 6.316)"><path class="b" d="M665.243,408.54l4.529.035,7.894.062-7.9,1.04-.067,8.547-4.527-.035Z" transform="translate(-665.17 -408.54)"/></g><g transform="translate(2.379 6.325)"><path class="d" d="M670.829,408.587l-.18,9.648-1.344-.01.22-9.647Z" transform="translate(-669.305 -408.577)"/></g><g transform="translate(3.846)"><g transform="translate(0 0.398)"><path class="b" d="M678.925,387.431c0,.082-.526.2-1.416.237a5.5,5.5,0,0,1-1.592-.174.932.932,0,0,1-.521-.36.713.713,0,0,1-.111-.374,1.255,1.255,0,0,1,.036-.306,5.883,5.883,0,0,1,.3-.979,2.606,2.606,0,0,1,.275-.486,1.586,1.586,0,0,1,.424-.414.874.874,0,0,1,.676-.121,1.279,1.279,0,0,1,.5.274,4.414,4.414,0,0,1,1.034,1.232c.445.811.44,1.4.364,1.408-.1.024-.25-.5-.744-1.163a4.956,4.956,0,0,0-1.017-1.012.739.739,0,0,0-.272-.144.263.263,0,0,0-.2.054,1.038,1.038,0,0,0-.245.258,2.111,2.111,0,0,0-.2.369,6.336,6.336,0,0,0-.275.868c-.036.136-.028.2-.017.213a.379.379,0,0,0,.2.126,5.256,5.256,0,0,0,.737.183c.241.044.471.073.682.1C678.376,387.3,678.924,387.337,678.925,387.431Z" transform="translate(-675.285 -384.431)"/></g><g transform="translate(3.46)"><path class="d" d="M689.4,386.28c-.016-.092.577-.247,1.508-.5a11.89,11.89,0,0,0,1.578-.537,1.646,1.646,0,0,0,.364-.2.28.28,0,0,0,.082-.091c.008-.02.008-.02,0-.056a2.743,2.743,0,0,0-.178-.407,4.044,4.044,0,0,0-.248-.444,1.862,1.862,0,0,0-.3-.359,1.123,1.123,0,0,0-.343-.227.475.475,0,0,0-.308-.02.921.921,0,0,0-.317.189,5.921,5.921,0,0,0-1.079,1.214c-.519.78-.627,1.381-.726,1.364-.041-.005-.068-.164-.035-.446a3.546,3.546,0,0,1,.369-1.144,5.236,5.236,0,0,1,1.082-1.43,1.467,1.467,0,0,1,.521-.327,1.081,1.081,0,0,1,.706.013,1.431,1.431,0,0,1,.3.15,2.105,2.105,0,0,1,.253.193,2.414,2.414,0,0,1,.41.479,4.3,4.3,0,0,1,.287.52l.115.251a1.3,1.3,0,0,1,.108.331.7.7,0,0,1-.075.449.886.886,0,0,1-.259.285,2.09,2.09,0,0,1-.512.258,8.476,8.476,0,0,1-1.705.434A3.625,3.625,0,0,1,689.4,386.28Z" transform="translate(-689.381 -382.809)"/></g></g><g transform="translate(0 3.006)"><rect class="b" width="11.604" height="3.298" transform="translate(11.603 3.389) rotate(-179.553)"/></g><g transform="translate(4.267 3.04)"><rect class="c" width="10.489" height="3.298" transform="translate(10.488 3.38) rotate(-179.553)"/></g><g transform="translate(10.266 3.087)"><path class="d" d="M702.736,395.4l-.074,3.313-1.223-.025.085-3.3Z" transform="translate(-701.439 -395.387)"/></g><g transform="translate(1.409 3.018)"><path class="d" d="M666.817,395.132l-.118,3.284-1.345-.011.072-3.3Z" transform="translate(-665.354 -395.104)"/></g></g><g transform="translate(0 68.882)"><g transform="translate(10.564 10.888)"><rect class="c" width="14.158" height="17.87" transform="translate(14.157 17.98) rotate(-179.553)"/></g><g transform="translate(16.837 11.506)"><path class="d" d="M99.743,377.556l-.252,17.3-2.237-.017.479-17.3Z" transform="translate(-97.255 -377.54)"/></g><g transform="translate(2.446 11.39)"><path class="b" d="M38.753,377.071l8.123.063,14.157.111L46.86,379.11l-.12,15.328-8.119-.063Z" transform="translate(-38.621 -377.071)"/></g><g transform="translate(4.266 11.407)"><path class="d" d="M48.771,377.156l-.323,17.3-2.41-.019.394-17.3Z" transform="translate(-46.038 -377.138)"/></g><g transform="translate(6.834)"><g transform="translate(0 0.715)"><path class="b" d="M63.094,339.021c0,.088-.235.181-.67.269a11.843,11.843,0,0,1-1.871.2,11.224,11.224,0,0,1-1.322-.032c-.239-.021-.487-.048-.742-.092a6.21,6.21,0,0,1-.81-.177,2.282,2.282,0,0,1-.479-.209,1.447,1.447,0,0,1-.489-.46,1.347,1.347,0,0,1-.209-.7,2.321,2.321,0,0,1,.066-.565,10.5,10.5,0,0,1,.538-1.766,4.713,4.713,0,0,1,.5-.885,4.2,4.2,0,0,1,.336-.4,2.454,2.454,0,0,1,.444-.36,1.8,1.8,0,0,1,.591-.239,1.555,1.555,0,0,1,.67.016,2.342,2.342,0,0,1,.916.5,7.887,7.887,0,0,1,1.856,2.232,5.854,5.854,0,0,1,.661,1.82c.07.453.035.712-.047.73-.189.047-.483-.88-1.374-2.061a8.98,8.98,0,0,0-1.821-1.794,1.257,1.257,0,0,0-.465-.243.408.408,0,0,0-.313.09,1.266,1.266,0,0,0-.207.181,3.281,3.281,0,0,0-.215.266,3.739,3.739,0,0,0-.359.649,11.47,11.47,0,0,0-.492,1.545,1.3,1.3,0,0,0-.046.259.189.189,0,0,0,.006.074.61.61,0,0,0,.316.2,6.09,6.09,0,0,0,.65.19c.223.057.444.1.659.143.43.081.84.136,1.219.18.757.086,1.385.137,1.821.2S63.092,338.932,63.094,339.021Z" transform="translate(-56.502 -333.577)"/></g><g transform="translate(6.25)"><path class="d" d="M82.017,336.953c-.032-.183,1.03-.477,2.695-.936a21.805,21.805,0,0,0,2.817-.974,2.868,2.868,0,0,0,.638-.35.433.433,0,0,0,.129-.143c.007-.024,0-.006,0-.061a1.393,1.393,0,0,0-.112-.287l-.2-.425a7.18,7.18,0,0,0-.44-.788,3.305,3.305,0,0,0-.53-.631,2.82,2.82,0,0,0-.3-.241,1.46,1.46,0,0,0-.29-.154.786.786,0,0,0-.512-.037,1.582,1.582,0,0,0-.548.323,10.722,10.722,0,0,0-1.936,2.154c-.936,1.384-1.147,2.454-1.342,2.424-.083-.011-.14-.3-.087-.808a6.251,6.251,0,0,1,.647-2.069,9.346,9.346,0,0,1,1.941-2.587,2.683,2.683,0,0,1,.955-.6,2,2,0,0,1,1.307.022,2.642,2.642,0,0,1,.558.275,3.878,3.878,0,0,1,.461.351,4.381,4.381,0,0,1,.747.872,7.617,7.617,0,0,1,.519.94l.207.452a2.4,2.4,0,0,1,.2.61,1.321,1.321,0,0,1-.141.846,1.649,1.649,0,0,1-.483.532,3.8,3.8,0,0,1-.933.469,14.99,14.99,0,0,1-3.071.767,16,16,0,0,1-2.093.177C82.311,337.081,82.03,337.04,82.017,336.953Z" transform="translate(-81.967 -330.665)"/></g></g><g transform="translate(0 5.456)"><rect class="b" width="20.81" height="5.915" transform="matrix(-1, -0.008, 0.008, -1, 20.81, 6.077)"/></g><g transform="translate(7.652 5.515)"><rect class="c" width="18.811" height="5.915" transform="matrix(-1, -0.008, 0.008, -1, 18.81, 6.061)"/></g><g transform="translate(18.411 5.6)"><path class="d" d="M105.993,353.5l-.133,5.942-2.194-.045.153-5.914Z" transform="translate(-103.667 -353.481)"/></g><g transform="translate(2.526 5.476)"><path class="d" d="M41.575,353.024l-.212,5.889-2.412-.019.129-5.918Z" transform="translate(-38.951 -352.975)"/></g></g><g transform="translate(22 0)"><path class="b" d="M123.077,65.36l.24.934-3.744.961-.191-.743,1.447-2.3c.332-.53.344-.805.282-1.046-.1-.389-.427-.547-.951-.412a1.25,1.25,0,0,0-.9.759l-.973-.324a2.376,2.376,0,0,1,1.731-1.425c1.1-.283,1.986.094,2.217.993a2.04,2.04,0,0,1-.427,1.777l-.863,1.368Z" transform="translate(-118.289 -58.817)"/><path class="b" d="M137.674,60.136c-.42-1.635.248-2.795,1.466-3.107s2.361.382,2.781,2.017-.241,2.793-1.466,3.107S138.094,61.771,137.674,60.136Zm3.093-.794c-.289-1.125-.806-1.49-1.379-1.343s-.843.714-.554,1.839.805,1.491,1.372,1.346S141.056,60.467,140.767,59.342Z" transform="translate(-132.821 -55.255)"/><path class="b" d="M156.313,52.5a1.219,1.219,0,0,1,.773-1.632c.658-.169,1.254.244,1.463,1.058a1.219,1.219,0,0,1-.773,1.632C157.112,53.73,156.521,53.308,156.313,52.5Zm1.883-.484c-.165-.644-.568-.948-1.028-.83s-.664.585-.5,1.223.561.95,1.028.83S158.361,52.662,158.2,52.018Zm1.9-1.884.418-.107L158.4,55.85l-.417.107Zm-.147,3.923a1.223,1.223,0,0,1,.773-1.632c.665-.171,1.256.251,1.463,1.058a1.174,1.174,0,1,1-2.236.574Zm1.883-.483c-.163-.637-.561-.95-1.028-.83s-.666.579-.5,1.222.568.948,1.028.83S162,54.211,161.832,53.574Z" transform="translate(-146.933 -50.027)"/></g><g transform="translate(68.529 17.687)"><path class="b" d="M312.613,127.113c.017,1.012-.747,1.953-2.454,1.982a4.128,4.128,0,0,1-2.3-.6l.522-1.073a2.917,2.917,0,0,0,1.725.511c.695-.012,1.119-.3,1.11-.791-.008-.455-.347-.732-1.136-.718l-.635.011-.016-.918,1.211-1.419-2.557.044-.019-1.115,4.2-.072.016.9-1.329,1.568A1.706,1.706,0,0,1,312.613,127.113Z" transform="translate(-307.857 -122.736)"/><path class="b" d="M329.771,125.432c-.034-1.982,1.044-3.125,2.52-3.15s2.593,1.079,2.627,3.061-1.036,3.125-2.52,3.15S329.8,127.413,329.771,125.432Zm3.749-.065c-.024-1.364-.514-1.922-1.209-1.91s-1.157.586-1.133,1.95.514,1.922,1.2,1.91S333.543,126.731,333.52,125.367Z" transform="translate(-324.391 -122.233)"/><path class="b" d="M353.509,123.767c-.017-.978.521-1.64,1.327-1.653s1.367.62,1.384,1.606-.529,1.64-1.327,1.654S353.526,124.745,353.509,123.767Zm2.282-.039c-.013-.781-.391-1.238-.948-1.228s-.918.488-.9,1.26.382,1.238.948,1.228S355.8,124.508,355.791,123.728Zm2.683-1.634.507-.009-4,6.076-.506.009Zm-1.236,4.441c-.017-.978.529-1.64,1.327-1.654s1.367.629,1.384,1.607-.521,1.639-1.327,1.653S357.255,127.513,357.238,126.535Zm2.282-.039c-.013-.772-.382-1.238-.948-1.228s-.918.479-.905,1.26.391,1.238.948,1.228S359.533,127.267,359.52,126.5Z" transform="translate(-342.303 -122.085)"/></g><g transform="translate(98.733 0.096)"><path class="e" d="M434.511,53.832c-.117.767-.782,1.349-2.02,1.16a3.024,3.024,0,0,1-1.581-.716l.513-.707a2.109,2.109,0,0,0,1.172.578c.5.076.843-.087.9-.439s-.137-.6-.922-.717l-1.107-.169.595-2.4,2.642.4-.123.8-1.807-.276-.194.812.352.054C434.209,52.412,434.628,53.065,434.511,53.832Z" transform="translate(-430.911 -50.418)"/><path class="e" d="M447.618,55.22c.218-1.429,1.134-2.119,2.2-1.956s1.732,1.094,1.514,2.523-1.128,2.119-2.2,1.956S447.4,56.649,447.618,55.22Zm2.7.413c.15-.984-.134-1.445-.635-1.522s-.9.28-1.054,1.263.134,1.445.629,1.521S450.171,56.617,450.321,55.633Z" transform="translate(-443.486 -52.548)"/><path class="e" d="M465.508,56.581c.108-.705.576-1.115,1.157-1.026a1.044,1.044,0,0,1,.8,1.325c-.109.711-.582,1.114-1.157,1.026A1.044,1.044,0,0,1,465.508,56.581Zm3.776-.594.365.056-3.619,3.879-.365-.055Zm-2.13.846c.086-.563-.129-.938-.531-1s-.72.238-.805.8.123.937.531,1S467.067,57.4,467.153,56.833Zm.7,2.2c.108-.705.581-1.114,1.157-1.026a1.044,1.044,0,0,1,.8,1.325c-.108.705-.576,1.115-1.157,1.026A1.047,1.047,0,0,1,467.85,59.028Zm1.645.251c.085-.557-.123-.937-.531-1s-.719.232-.805.8.129.938.531,1S469.41,59.836,469.5,59.28Z" transform="translate(-457 -54.285)"/></g><g transform="translate(2.003 23.953)"><path class="e" d="M38.642,148l-.9,3.837-.888-.208.731-3.124-.767-.18.167-.712Z" transform="translate(-36.82 -147.615)"/><path class="e" d="M44.884,152.585c.3-1.266,1.166-1.82,2.109-1.6s1.476,1.1,1.18,2.369-1.161,1.821-2.109,1.6A1.766,1.766,0,0,1,44.884,152.585Zm2.4.561c.2-.872-.018-1.305-.462-1.409s-.83.187-1.034,1.058.018,1.305.457,1.408S47.075,154.017,47.279,153.145Z" transform="translate(-42.843 -150.123)"/><path class="e" d="M64.373,154.608l.324.076-3.518,3.223-.323-.076Zm-3.427.267c.146-.625.595-.959,1.11-.839a.939.939,0,0,1,.622,1.244c-.148.63-.6.958-1.11.838A.938.938,0,0,1,60.946,154.875Zm1.458.341c.117-.5-.05-.85-.406-.933s-.662.163-.778.656.044.849.406.933S62.287,155.715,62.4,155.216Zm.47,2.018a.9.9,0,1,1,1.732.405c-.146.625-.595.959-1.11.838A.942.942,0,0,1,62.874,157.234Zm1.458.341c.115-.493-.044-.849-.406-.933s-.661.158-.778.656.05.85.406.933S64.216,158.068,64.332,157.575Z" transform="translate(-54.956 -152.442)"/></g></g><g transform="translate(620.484 1143.607)"><g transform="translate(0 0)"><g transform="translate(5.733 29.254)"><path class="f" d="M87.027,294.919a17.69,17.69,0,0,0-16.872-4.631,30.729,30.729,0,0,0,17.072,5.334" transform="translate(-70.155 -289.729)"/></g><g transform="translate(11.926)"><path class="f" d="M100.343,184.721a17.119,17.119,0,0,0-4.952-14.179,23.1,23.1,0,0,0,4.952,14.179" transform="translate(-95.386 -170.542)"/></g><g transform="translate(7.667 11.919)"><path class="f" d="M90.226,230.752A26.55,26.55,0,0,0,78.033,219.1a16.754,16.754,0,0,0,12.239,11.705" transform="translate(-78.033 -219.1)"/></g><g transform="translate(3.912 20.048)"><path class="f" d="M79.3,257.555a31.5,31.5,0,0,1-8.946-.79,14.809,14.809,0,0,1-7.618-4.546,29.894,29.894,0,0,1,16.52,5.043" transform="translate(-62.734 -252.22)"/></g><g transform="translate(18.952 6.548)"><path class="f" d="M124.01,210.084c1.524-5.713,4.039-9.665,8.53-12.866a11.881,11.881,0,0,1-8.53,12.866" transform="translate(-124.01 -197.218)"/></g><g transform="translate(25.15 21.434)"><path class="f" d="M154.4,265.7a8.458,8.458,0,0,0-5.137-7.832A11.141,11.141,0,0,0,154.4,265.7" transform="translate(-149.262 -257.867)"/></g><g transform="translate(31.722 13.701)"><path class="f" d="M176.038,237.11a12.6,12.6,0,0,1,8.255-10.748,14.733,14.733,0,0,1-8.255,10.748" transform="translate(-176.038 -226.362)"/></g><g transform="translate(29.56 29.525)"><path class="f" d="M167.229,294.3a7.948,7.948,0,0,1,4.575-2.925,23.644,23.644,0,0,1,5.5-.548,12.869,12.869,0,0,1-9.939,4.14" transform="translate(-167.229 -290.83)"/></g><g transform="translate(27.414 44.558)"><path class="f" d="M158.485,352.694A14.1,14.1,0,0,1,175.7,360.85a36.835,36.835,0,0,1-17.218-8.157" transform="translate(-158.485 -352.077)"/></g><g transform="translate(18.63 40.943)"><g transform="translate(0)"><path class="f" d="M124.617,337.349a9.632,9.632,0,0,1-1.47,9.43,11.267,11.267,0,0,1,1.47-9.43" transform="translate(-122.697 -337.349)"/></g></g><g transform="translate(9.262 39.237)"><path class="f" d="M91.762,330.4a11.554,11.554,0,0,1-6.381,9.375.719.719,0,0,1-.564.093c-.282-.115-.307-.5-.272-.8.452-3.935,3.368-7.74,7.218-8.668" transform="translate(-84.532 -330.398)"/></g><g transform="translate(0 38.407)"><path class="f" d="M60.639,327.448a9.475,9.475,0,0,1-13.842.071,52.865,52.865,0,0,1,13.842-.071" transform="translate(-46.797 -327.016)"/></g><g transform="translate(12.528 3.664)"><g transform="translate(0.656)"><path class="g" d="M100.507,185.471a.783.783,0,0,0,.04.129l.134.372.531,1.425c.237.616.51,1.376.826,2.259l.51,1.413.55,1.591c.779,2.228,1.645,4.9,2.579,7.879.917,2.983,1.881,6.276,2.829,9.75s1.764,6.809,2.47,9.849c.686,3.044,1.276,5.793,1.7,8.114l.312,1.654.252,1.48c.16.924.3,1.72.388,2.373l.231,1.5.064.39a.78.78,0,0,0,.027.132.788.788,0,0,0-.011-.134l-.048-.392-.2-1.508c-.082-.656-.209-1.453-.36-2.379l-.239-1.483-.3-1.658c-.411-2.326-.989-5.079-1.667-8.127-.7-3.044-1.523-6.378-2.459-9.858s-1.917-6.77-2.843-9.752c-.943-2.977-1.821-5.649-2.615-7.873l-.561-1.588-.522-1.409c-.325-.88-.607-1.637-.853-2.25l-.56-1.414-.15-.366A.8.8,0,0,0,100.507,185.471Z" transform="translate(-100.507 -185.471)"/></g><g transform="translate(12.759 12.585)"><path class="g" d="M161.882,236.746a.479.479,0,0,0-.076.071l-.21.221c-.184.2-.45.488-.782.875a30.793,30.793,0,0,0-2.59,3.454,23.191,23.191,0,0,0-2.709,5.8,56.713,56.713,0,0,0-1.625,7.67c-.895,5.486-1.992,10.4-2.787,13.954l-.953,4.207-.254,1.146-.062.3a.491.491,0,0,0-.015.1.468.468,0,0,0,.032-.1l.078-.3.284-1.138,1.005-4.2c.824-3.548,1.941-8.462,2.837-13.953a58.012,58.012,0,0,1,1.607-7.651,23.452,23.452,0,0,1,2.661-5.777,33.208,33.208,0,0,1,2.54-3.476c.324-.392.582-.692.757-.895l.2-.232A.472.472,0,0,0,161.882,236.746Z" transform="translate(-149.818 -236.746)"/></g><g transform="translate(0 34.981)"><path class="g" d="M97.836,327.993a.581.581,0,0,0,.159.029l.455.05.329.032.389.059c.279.041.6.082.945.159l.546.109.585.148c.407.092.828.241,1.277.377a18.752,18.752,0,0,1,2.786,1.227,15.744,15.744,0,0,1,2.5,1.735,12.6,12.6,0,0,1,.958.92,10.012,10.012,0,0,1,.758.875,9.138,9.138,0,0,1,.561.774,5.7,5.7,0,0,1,.385.612l.233.394a.6.6,0,0,0,.092.133.557.557,0,0,0-.061-.148l-.207-.411a5.071,5.071,0,0,0-.363-.631,8.462,8.462,0,0,0-.546-.8,9.544,9.544,0,0,0-.751-.9,11.984,11.984,0,0,0-.958-.942,15.187,15.187,0,0,0-2.518-1.765,17.916,17.916,0,0,0-2.818-1.227c-.454-.133-.88-.278-1.292-.365l-.592-.14-.552-.1c-.35-.07-.672-.1-.954-.136l-.393-.045-.332-.018L98,327.988A.59.59,0,0,0,97.836,327.993Z" transform="translate(-97.836 -327.987)"/></g></g><g transform="translate(11.274 16.354)"><path class="g" d="M92.73,237.173a2.191,2.191,0,0,0,.317.305l.905.785c.769.658,1.84,1.557,3.029,2.543s2.272,1.872,3.061,2.506l.94.744a2.2,2.2,0,0,0,.359.255,2.211,2.211,0,0,0-.318-.306l-.906-.786c-.769-.658-1.84-1.557-3.028-2.543s-2.27-1.87-3.059-2.5l-.94-.744A2.22,2.22,0,0,0,92.73,237.173Z" transform="translate(-92.73 -237.173)"/></g><g transform="translate(10.193 22.173)"><path class="g" d="M88.324,260.88c-.013.045,2.3.767,5.159,1.612s5.194,1.5,5.207,1.451-2.3-.766-5.16-1.612S88.337,260.836,88.324,260.88Z" transform="translate(-88.324 -260.878)"/></g><g transform="translate(18.722 11.633)"><g transform="translate(0)"><path class="g" d="M123.075,226.161a1.907,1.907,0,0,0,.239-.332l.609-.928c.516-.782,1.25-1.847,2.117-2.983s1.7-2.123,2.32-2.829l.731-.835a1.881,1.881,0,0,0,.256-.319,1.914,1.914,0,0,0-.3.274c-.188.183-.452.457-.772.8-.64.687-1.493,1.667-2.365,2.806s-1.591,2.221-2.083,3.021c-.246.4-.439.728-.565.958A1.9,1.9,0,0,0,123.075,226.161Z" transform="translate(-123.074 -217.935)"/></g></g><g transform="translate(26.745 23.088)"><path class="g" d="M155.761,264.607a7.57,7.57,0,0,0,.542.891c.345.543.813,1.3,1.3,2.149s.894,1.64,1.184,2.214a7.61,7.61,0,0,0,.489.921,5.533,5.533,0,0,0-.382-.972c-.263-.589-.658-1.39-1.145-2.246s-.974-1.6-1.346-2.132A5.521,5.521,0,0,0,155.761,264.607Z" transform="translate(-155.76 -264.606)"/></g><g transform="translate(29.491 30.269)"><path class="g" d="M166.947,296.751c.012.023.453-.193,1.174-.517s1.728-.749,2.867-1.148,2.191-.694,2.957-.89,1.245-.3,1.24-.328a1.362,1.362,0,0,0-.344.036c-.22.033-.536.093-.924.176a25.775,25.775,0,0,0-5.847,2.047c-.356.176-.64.327-.832.438A1.363,1.363,0,0,0,166.947,296.751Z" transform="translate(-166.947 -293.864)"/></g><g transform="translate(27.33 45.191)"><path class="g" d="M158.144,354.659a.51.51,0,0,0,.142.048l.416.106,1.537.355a50.673,50.673,0,0,1,5.018,1.324,22.279,22.279,0,0,1,4.682,2.2c.56.356,1,.671,1.29.9a4.584,4.584,0,0,0,.465.344s-.032-.042-.1-.109-.176-.168-.321-.286a13.455,13.455,0,0,0-1.266-.947,20.53,20.53,0,0,0-4.692-2.259,41.98,41.98,0,0,0-5.048-1.282l-1.548-.3A3.869,3.869,0,0,0,158.144,354.659Z" transform="translate(-158.144 -354.657)"/></g><g transform="translate(19.509 40.897)"><path class="g" d="M126.286,344.427c.046.007.321-1.614.615-3.619s.494-3.637.448-3.644-.321,1.614-.614,3.619S126.24,344.42,126.286,344.427Z" transform="translate(-126.279 -337.164)"/></g><g transform="translate(11.379 39.264)"><path class="g" d="M93.157,336.451a8.535,8.535,0,0,0,.733-.871c.44-.547,1.049-1.3,1.738-2.121s1.327-1.55,1.791-2.077a8.491,8.491,0,0,0,.731-.872,1.08,1.08,0,0,0-.233.2c-.142.136-.343.338-.586.592-.487.508-1.141,1.228-1.832,2.049s-1.286,1.59-1.7,2.157c-.208.283-.373.516-.482.679A1.079,1.079,0,0,0,93.157,336.451Z" transform="translate(-93.156 -330.509)"/></g><g transform="translate(15.606 52.751)"><path class="h" d="M127.682,385.46v4.02h-1.005L123.1,400.758H115.18l-3.462-11.167-1.34-.112v-4.02Z" transform="translate(-110.378 -385.46)"/></g><g transform="translate(16.276 56.799)"><g transform="translate(0)"><path class="g" d="M113.108,402.034c0,.046,3.5.084,7.814.084s7.815-.038,7.815-.084-3.5-.084-7.815-.084S113.108,401.988,113.108,402.034Z" transform="translate(-113.108 -401.95)"/></g></g><g transform="translate(10.577 31.022)"><path class="g" d="M89.888,296.933a3.115,3.115,0,0,0,.508.137l1.391.335c1.172.29,2.782.731,4.528,1.317s3.3,1.21,4.4,1.687l1.311.573a3.129,3.129,0,0,0,.487.2,3.155,3.155,0,0,0-.459-.257c-.3-.157-.741-.37-1.291-.623a45.7,45.7,0,0,0-8.954-3.011c-.591-.131-1.071-.227-1.4-.284A3.158,3.158,0,0,0,89.888,296.933Z" transform="translate(-89.888 -296.931)"/></g><g transform="translate(18.907 63.062)"><g transform="translate(0)"><path class="d" d="M123.826,427.551c0,.046,2.455.084,5.483.084s5.483-.038,5.483-.084-2.454-.084-5.483-.084S123.826,427.5,123.826,427.551Z" transform="translate(-123.826 -427.467)"/></g></g><g transform="translate(18.598 62.13)"><path class="d" d="M122.57,423.753c0,.047,2.6.084,5.81.084s5.811-.038,5.811-.084-2.6-.084-5.811-.084S122.57,423.707,122.57,423.753Z" transform="translate(-122.57 -423.669)"/></g></g></g><g transform="translate(682.8 1127.707)"><g transform="translate(0 0)"><g transform="translate(0 31.922)"><path class="f" d="M383.02,256.912l-16.363-18.383a6.928,6.928,0,0,0-5.125-2.321l-53.874-.392a6.929,6.929,0,0,0-6.979,6.945l.09,38.148a6.929,6.929,0,0,0,6.958,6.912l53.686-.226a6.927,6.927,0,0,0,5.225-2.412L383.1,266.035A6.929,6.929,0,0,0,383.02,256.912Zm-9.1,6.618a5.714,5.714,0,1,1-3.143-7.445A5.714,5.714,0,0,1,373.916,263.53Z" transform="translate(-300.68 -235.815)"/><g class="i"><path d="M383.02,256.912l-16.363-18.383a6.928,6.928,0,0,0-5.125-2.321l-53.874-.392a6.929,6.929,0,0,0-6.979,6.945l.09,38.148a6.929,6.929,0,0,0,6.958,6.912l53.686-.226a6.927,6.927,0,0,0,5.225-2.412L383.1,266.035A6.929,6.929,0,0,0,383.02,256.912Zm-9.1,6.618a5.714,5.714,0,1,1-3.143-7.445A5.714,5.714,0,0,1,373.916,263.53Z" transform="translate(-300.68 -235.815)"/></g></g><g transform="translate(2.836 31.922)"><path class="f" d="M394.575,256.912l-16.363-18.383a6.927,6.927,0,0,0-5.124-2.321l-53.874-.392a6.929,6.929,0,0,0-6.979,6.945l.09,38.148a6.929,6.929,0,0,0,6.958,6.912l53.686-.226a6.928,6.928,0,0,0,5.225-2.412l16.46-19.147A6.928,6.928,0,0,0,394.575,256.912Zm-9.1,6.618a5.714,5.714,0,1,1-3.143-7.445A5.715,5.715,0,0,1,385.471,263.53Z" transform="translate(-312.235 -235.815)"/></g><g transform="translate(41.257 53.115)"><path class="a" d="M385.237,290.494c.026-2.768,1.731-4.512,4.124-4.49s4.043,1.774,4.017,4.566-1.708,4.513-4.1,4.49S385.212,293.262,385.237,290.494Zm5.795.054c.016-1.759-.656-2.61-1.689-2.62-1.009-.009-1.721.852-1.737,2.588s.68,2.611,1.688,2.62C390.328,293.146,391.016,292.307,391.032,290.548Zm8.111-4.265,2.792.026-11.367,16.318-2.792-.026Zm-2.81,12.057c.026-2.768,1.731-4.512,4.1-4.49,2.393.022,4.066,1.8,4.04,4.566s-1.731,4.512-4.124,4.49C397.98,302.883,396.307,301.108,396.333,298.34Zm5.771.054c.016-1.736-.656-2.61-1.689-2.62-1.009-.009-1.72.828-1.737,2.588s.68,2.611,1.688,2.62C401.4,300.991,402.088,300.129,402.1,298.393Z" transform="translate(-385.237 -286.004)"/></g><g transform="translate(69.742 58.932)"><path class="g" d="M598.462,351.295a2.557,2.557,0,0,1,.536.385c.336.269.827.672,1.449,1.2s1.376,1.19,2.228,1.984,1.8,1.722,2.784,2.815a28.322,28.322,0,0,1,2.928,3.821l.348.557.33.581a12.224,12.224,0,0,1,.623,1.228,7.645,7.645,0,0,1,.709,2.829,4.432,4.432,0,0,1-.227,1.545,4,4,0,0,1-.808,1.391,5.239,5.239,0,0,1-2.809,1.606,7.647,7.647,0,0,1-3.316-.078A14.519,14.519,0,0,1,600.074,370a19.656,19.656,0,0,1-5.279-3.934,25.412,25.412,0,0,1-2.041-2.373q-.925-1.211-1.758-2.407a45.432,45.432,0,0,1-5.006-9q-.4-1.025-.706-1.976c-.1-.317-.191-.626-.268-.931a5.76,5.76,0,0,1-.177-.907,2.246,2.246,0,0,1,.4-1.646,2.4,2.4,0,0,1,1.165-.81,3.275,3.275,0,0,1,.585-.135,3.2,3.2,0,0,1,.525-.011,2.42,2.42,0,0,1,.8.175,1.489,1.489,0,0,1,.427.262q.126.114.115.126c-.007.008-.06-.017-.153-.073a1.928,1.928,0,0,0-.433-.194,2.511,2.511,0,0,0-.76-.106,2.626,2.626,0,0,0-1.02.19,2.168,2.168,0,0,0-1,.756,1.932,1.932,0,0,0-.295,1.423,5.5,5.5,0,0,0,.192.852c.082.294.181.6.285.9.212.617.458,1.264.738,1.933a47.278,47.278,0,0,0,5.069,8.835q.834,1.177,1.76,2.373a25.249,25.249,0,0,0,2,2.307,19.264,19.264,0,0,0,5.117,3.8,14.024,14.024,0,0,0,3.018,1.114,7.055,7.055,0,0,0,3.043.087,4.642,4.642,0,0,0,2.485-1.4,3.6,3.6,0,0,0,.9-2.52,7.131,7.131,0,0,0-.636-2.617,11.873,11.873,0,0,0-.587-1.189l-.315-.572-.333-.549a28.917,28.917,0,0,0-2.818-3.8c-.95-1.1-1.87-2.042-2.692-2.856s-1.551-1.5-2.146-2.056l-1.368-1.293A2.578,2.578,0,0,1,598.462,351.295Z" transform="translate(-584.818 -345.858)"/></g><g transform="translate(43.328)"><g transform="translate(11.539 4.797)"><path class="g" d="M527.168,146.775c-.035,0-.723-4.8-1.537-10.727s-1.445-10.741-1.41-10.746.723,4.8,1.537,10.728S527.2,146.77,527.168,146.775Z" transform="translate(-524.219 -125.302)"/></g><g transform="translate(24.393)"><path class="g" d="M586.919,105.758a.36.36,0,0,1-.023.075l-.079.214-.315.816-1.17,3c-.985,2.533-2.326,6.04-3.753,9.933s-2.668,7.439-3.553,10.009l-1.044,3.045-.287.827-.078.214a.336.336,0,0,1-.031.072.372.372,0,0,1,.018-.076l.065-.218.264-.835c.231-.724.574-1.769,1.006-3.058.863-2.578,2.091-6.127,3.518-10.023s2.783-7.4,3.789-9.922c.5-1.263.916-2.282,1.208-2.984l.338-.808.091-.209A.343.343,0,0,1,586.919,105.758Z" transform="translate(-576.586 -105.758)"/></g><g transform="translate(33.454 18.89)"><path class="g" d="M629.276,182.717c.022.028-3.492,2.78-7.847,6.145s-7.9,6.073-7.926,6.045,3.491-2.779,7.847-6.146S629.255,182.689,629.276,182.717Z" transform="translate(-613.504 -182.717)"/></g><g transform="translate(0 19.355)"><path class="g" d="M483.173,192.424c-.028.022-1.387-1.71-3.034-3.867s-2.96-3.924-2.932-3.945,1.386,1.71,3.034,3.867S483.2,192.4,483.173,192.424Z" transform="translate(-477.206 -184.612)"/></g><g transform="translate(37.988 37.902)"><path class="g" d="M641.556,262.971c-.01.034-2.163-.564-4.808-1.335s-4.782-1.424-4.772-1.458,2.162.564,4.808,1.335S641.566,262.938,641.556,262.971Z" transform="translate(-631.976 -260.177)"/></g></g></g><g transform="translate(59.966 38.065)"><path class="a" d="M544.99,263.394l1.6-.919.848-1.634.919,1.6,1.634.848-1.6.919-.848,1.634-.919-1.6Z" transform="translate(-544.99 -260.841)"/></g><g transform="translate(51.341 37.191)"><path class="a" d="M509.852,258.172l.559-.322.3-.572.322.559.572.3-.559.322-.3.572-.322-.559Z" transform="translate(-509.852 -257.278)"/></g><g transform="translate(56.849 47.63)"><path class="a" d="M532.291,301.539l1.08-.622.574-1.106.622,1.08,1.106.574-1.08.622-.574,1.106-.622-1.08Z" transform="translate(-532.291 -299.811)"/></g></g><g transform="translate(615.828 1211.594)"><g transform="translate(0 0)"><path class="g" d="M196.938,447.592c0,.035-37.86.064-84.551.064-46.708,0-84.559-.029-84.559-.064s37.851-.064,84.559-.064C159.078,447.528,196.938,447.557,196.938,447.592Z" transform="translate(-27.828 -447.528)"/></g></g><g transform="translate(643.261 1145.16)"><g transform="translate(0 0)"><g transform="translate(10.826 61.597)"><g transform="translate(0 0.548)"><path class="h" d="M194.748,430.061s-10.25,2.837-10.661,2.981c-.618.217-.514,2.48.447,2.444.455-.017,7.873.276,8.81.218a19.391,19.391,0,0,0,3.46-1.055Z" transform="translate(-183.7 -430.061)"/></g><g transform="translate(5.6 2.411)"><path class="g" d="M207.692,439.7a4.5,4.5,0,0,0-1.176-2.044,2.279,2.279,0,0,1,1.176,2.044Z" transform="translate(-206.514 -437.652)"/></g><g transform="translate(6.858 2.015)"><path class="g" d="M212.63,438c-.05.009-.154-.476-.427-1.011s-.595-.91-.558-.945A2.572,2.572,0,0,1,212.63,438Z" transform="translate(-211.642 -436.04)"/></g><g transform="translate(8.049 1.661)"><path class="g" d="M217.292,436.642a3.6,3.6,0,0,0-.8-2.041,1.925,1.925,0,0,1,.8,2.041Z" transform="translate(-216.491 -434.597)"/></g><g transform="translate(8.557)"><path class="g" d="M218.673,430.211a1.812,1.812,0,0,1-.11-.763,3.6,3.6,0,0,1,.1-.836,3.549,3.549,0,0,1,.152-.476.576.576,0,0,1,.164-.251.274.274,0,0,1,.352.017.453.453,0,0,1,.137.29,2,2,0,0,1,.013.271,2.262,2.262,0,0,1-.063.5,3.054,3.054,0,0,1-.315.783,2.068,2.068,0,0,1-.46.617c-.024-.016.148-.255.353-.673a3.369,3.369,0,0,0,.269-.762,2.242,2.242,0,0,0,.049-.468c0-.158,0-.354-.094-.43a.1.1,0,0,0-.135-.012.434.434,0,0,0-.112.179,3.788,3.788,0,0,0-.155.452,4.107,4.107,0,0,0-.136.8C218.654,429.917,218.7,430.207,218.673,430.211Z" transform="translate(-218.563 -427.829)"/></g><g transform="translate(8.68 2.171)"><path class="g" d="M219.063,436.78a1.434,1.434,0,0,1,.661-.107,2.986,2.986,0,0,1,.727.089,1.609,1.609,0,0,1,.419.154.433.433,0,0,1,.231.469.512.512,0,0,1-.369.366.936.936,0,0,1-.46,0,1.762,1.762,0,0,1-.666-.327,1.8,1.8,0,0,1-.477-.469,4.585,4.585,0,0,1,.546.37,1.825,1.825,0,0,0,.629.272.809.809,0,0,0,.38-.005.347.347,0,0,0,.249-.243.264.264,0,0,0-.152-.286,1.562,1.562,0,0,0-.372-.145,3.434,3.434,0,0,0-.691-.121C219.319,436.766,219.067,436.807,219.063,436.78Z" transform="translate(-219.063 -436.673)"/></g><g transform="translate(4.497 2.837)"><path class="g" d="M202.726,441.119a2.765,2.765,0,0,0-.7-1.727,1.47,1.47,0,0,1,.7,1.727Z" transform="translate(-202.02 -439.388)"/></g><g transform="translate(1.358 5.039)"><path class="g" d="M200.229,448.362a2.159,2.159,0,0,1-.4.187,8.849,8.849,0,0,1-1.141.353,16.268,16.268,0,0,1-3.913.371c-1.536-.017-2.92-.087-3.924-.127l-1.188-.063a.219.219,0,1,1,0-.067l1.189.008,3.921.077a18.336,18.336,0,0,0,3.885-.318C199.645,448.582,200.217,448.33,200.229,448.362Z" transform="translate(-189.232 -448.359)"/></g><g transform="translate(7.682 4.404)"><path class="g" d="M219.975,446.642c-.014.024-.294-.14-.768-.348a3.569,3.569,0,0,0-1.94-.322,3.072,3.072,0,0,0-1.677,1,6.043,6.043,0,0,1-.591.6,3.162,3.162,0,0,1,.5-.686,4.078,4.078,0,0,1,.68-.635,2.439,2.439,0,0,1,1.059-.449,3.391,3.391,0,0,1,2.018.382A2.707,2.707,0,0,1,219.975,446.642Z" transform="translate(-214.999 -445.771)"/></g><g transform="translate(1.907 3.185)"><path class="g" d="M191.939,443.338c-.019-.013.069-.148.15-.387a1.877,1.877,0,0,0-.339-1.836c-.161-.195-.291-.29-.278-.309s.161.054.351.242a1.747,1.747,0,0,1,.358,1.938C192.07,443.23,191.951,443.348,191.939,443.338Z" transform="translate(-191.47 -440.804)"/></g></g><g transform="translate(30.755 61.676)"><g transform="translate(0 0.773)"><path class="h" d="M266.708,431.3s10.514,1.6,10.94,1.693c.639.142.8,2.4-.153,2.48-.453.038-7.784,1.21-8.722,1.264a22.628,22.628,0,0,1-3.878-.717Z" transform="translate(-264.895 -431.298)"/></g><g transform="translate(6.476 1.976)"><path class="g" d="M291.32,438.374a4.493,4.493,0,0,1,.925-2.169,2.277,2.277,0,0,0-.925,2.169Z" transform="translate(-291.277 -436.202)"/></g><g transform="translate(5.368 1.733)"><path class="g" d="M286.8,437.272c.051,0,.1-.491.3-1.055s.483-.974.442-1a2.57,2.57,0,0,0-.746,2.06Z" transform="translate(-286.764 -435.21)"/></g><g transform="translate(4.245 1.523)"><path class="g" d="M282.317,436.477a3.6,3.6,0,0,1,.55-2.122,1.924,1.924,0,0,0-.55,2.122Z" transform="translate(-282.19 -434.353)"/></g><g transform="translate(3.362)"><path class="g" d="M279.625,430.461a1.815,1.815,0,0,0,.018-.77,3.59,3.59,0,0,0-.2-.818,3.551,3.551,0,0,0-.208-.454.575.575,0,0,0-.193-.23.274.274,0,0,0-.348.059.454.454,0,0,0-.1.3,2.009,2.009,0,0,0,.019.271,2.28,2.28,0,0,0,.122.491,3.05,3.05,0,0,0,.406.741,2.069,2.069,0,0,0,.531.558c.021-.019-.178-.236-.431-.626a3.364,3.364,0,0,1-.358-.725,2.252,2.252,0,0,1-.1-.459c-.014-.157-.04-.352.042-.438a.1.1,0,0,1,.133-.027.431.431,0,0,1,.133.164,3.8,3.8,0,0,1,.208.431,4.129,4.129,0,0,1,.23.779C279.608,430.166,279.6,430.46,279.625,430.461Z" transform="translate(-278.591 -428.15)"/></g><g transform="translate(2.393 2.163)"><path class="g" d="M276.62,437.008a1.433,1.433,0,0,0-.669-.027,2.979,2.979,0,0,0-.711.175,1.6,1.6,0,0,0-.4.2.433.433,0,0,0-.174.493.511.511,0,0,0,.41.319.937.937,0,0,0,.456-.056,1.766,1.766,0,0,0,.622-.4,1.8,1.8,0,0,0,.418-.523,4.5,4.5,0,0,0-.5.432,1.818,1.818,0,0,1-.592.345.808.808,0,0,1-.378.04.348.348,0,0,1-.277-.212.264.264,0,0,1,.117-.3,1.567,1.567,0,0,1,.352-.188,3.443,3.443,0,0,1,.672-.2C276.365,437.025,276.619,437.036,276.62,437.008Z" transform="translate(-274.643 -436.962)"/></g><g transform="translate(7.96 2.268)"><path class="g" d="M297.459,439.194a2.768,2.768,0,0,1,.494-1.8,1.471,1.471,0,0,0-.494,1.8Z" transform="translate(-297.324 -437.392)"/></g><g transform="translate(1.049 4.748)"><path class="g" d="M269.171,448.137a2.138,2.138,0,0,0,.416.138,8.784,8.784,0,0,0,1.174.216,16.285,16.285,0,0,0,3.93-.1c1.523-.2,2.889-.433,3.881-.593l1.172-.2a.219.219,0,1,0-.01-.066l-1.18.15-3.884.542a18.332,18.332,0,0,1-3.9.147C269.777,448.286,269.179,448.1,269.171,448.137Z" transform="translate(-269.171 -447.495)"/></g><g transform="translate(0.776 4.498)"><path class="g" d="M268.057,447.635c.016.022.275-.174.721-.437a3.57,3.57,0,0,1,1.888-.551,3.072,3.072,0,0,1,1.783.791,6.027,6.027,0,0,0,.658.529,3.181,3.181,0,0,0-.579-.621,4.078,4.078,0,0,0-.75-.55,2.435,2.435,0,0,0-1.105-.32,3.391,3.391,0,0,0-1.958.619A2.717,2.717,0,0,0,268.057,447.635Z" transform="translate(-268.057 -446.475)"/></g></g><g transform="translate(41.318 13.999)"><path class="j" d="M331.881,239.154a.657.657,0,0,0-.308-.3l.25-.5a1.418,1.418,0,0,0-.145-.5c-.121-.211-.551-.194-.551-.194l.065-.141a.623.623,0,0,0-.053-.618c-.019-.027-.04-.055-.063-.083a1.029,1.029,0,0,0-.544-.276s.245-.471.136-.668a1.019,1.019,0,0,0-1.045-.413,15.078,15.078,0,0,0-1.9.907.447.447,0,0,1-.637-.234,6.461,6.461,0,0,0-.93-1.747.966.966,0,0,0-1.146-.414.208.208,0,0,0-.1.3,11.208,11.208,0,0,1,.668,1.217c.12.32.254,2.74.254,2.74l-.663,1.262-6.7,10.571s-10.1-6.808-10.06-6.977l-.476,7.8,7.613,5.056a5.359,5.359,0,0,0,7.874-2.316l5.123-11.117.621-.909,2.413-1.546S331.967,239.357,331.881,239.154Z" transform="translate(-307.929 -233.905)"/><g transform="translate(19.881 1.904)"><path class="k" d="M391.888,242.4a.259.259,0,0,1-.048.044l-.145.117-.54.419-.806.615c-.154.113-.305.243-.487.353a.71.71,0,0,1-.641.084.481.481,0,0,1-.238-.244.681.681,0,0,1-.056-.323.925.925,0,0,1,.256-.55,3.651,3.651,0,0,1,.4-.368l.363-.3.529-.433.146-.115a.256.256,0,0,1,.053-.037.263.263,0,0,1-.045.046l-.138.124-.516.448-.358.307a3.68,3.68,0,0,0-.392.366.874.874,0,0,0-.238.516.508.508,0,0,0,.259.508.52.52,0,0,0,.3.03.855.855,0,0,0,.283-.11c.174-.1.329-.235.483-.347l.813-.6.552-.4.152-.107A.265.265,0,0,1,391.888,242.4Z" transform="translate(-388.927 -241.66)"/></g><g transform="translate(20.689 3.779)"><path class="k" d="M394.908,249.3a.644.644,0,0,1-.112.093c-.074.056-.184.136-.321.232-.274.191-.66.445-1.1.7a3.3,3.3,0,0,1-.329.18.7.7,0,0,1-.351.066.546.546,0,0,1-.454-.365.536.536,0,0,1,.031-.4.459.459,0,0,1,.06-.091c.017-.018.027-.027.028-.025s-.031.042-.067.126a.533.533,0,0,0-.012.373.505.505,0,0,0,.419.323.654.654,0,0,0,.321-.065,3.5,3.5,0,0,0,.322-.177c.438-.258.826-.506,1.106-.687l.331-.215A.673.673,0,0,1,394.908,249.3Z" transform="translate(-392.219 -249.301)"/></g><g transform="translate(21.221 4.887)"><path class="k" d="M396.857,253.815a.56.56,0,0,1-.116.068l-.327.164c-.277.136-.661.321-1.088.522a3.114,3.114,0,0,1-.318.138.612.612,0,0,1-.331.027.362.362,0,0,1-.246-.177.407.407,0,0,1-.038-.26.556.556,0,0,1,.192-.316.361.361,0,0,1,.112-.075s-.036.032-.1.093a.557.557,0,0,0-.166.305.365.365,0,0,0,.04.229.31.31,0,0,0,.214.146.564.564,0,0,0,.3-.028,3.384,3.384,0,0,0,.311-.137c.426-.2.813-.379,1.1-.506l.335-.147A.558.558,0,0,1,396.857,253.815Z" transform="translate(-394.387 -253.815)"/></g><g transform="translate(21.705 5.722)"><path class="k" d="M398.519,257.413a2.542,2.542,0,0,1-.384.1c-.239.054-.569.125-.935.2l-.267.054a1.117,1.117,0,0,1-.258.031.374.374,0,0,1-.229-.082.244.244,0,0,1-.087-.2.349.349,0,0,1,.147-.257.185.185,0,0,1,.1-.044c0,.005-.034.019-.084.063a.337.337,0,0,0-.119.238.2.2,0,0,0,.076.155.325.325,0,0,0,.2.065,1.106,1.106,0,0,0,.244-.034l.267-.055c.366-.074.7-.138.939-.181A2.525,2.525,0,0,1,398.519,257.413Z" transform="translate(-396.359 -257.219)"/></g><g transform="translate(19.883 5.294)"><path class="k" d="M390.3,255.608a2.358,2.358,0,0,0-1.364.064,1.516,1.516,0,0,1,1.364-.064Z" transform="translate(-388.935 -255.475)"/></g></g><g transform="translate(22.893)"><g transform="translate(0.878)"><path class="g" d="M239.169,193.982s-3.4-2.866-2.61-4.839,2.967-2.952,4.039-6.54c.857-2.867,5.96-8.39,12.007-4.238a4.786,4.786,0,0,1,3.211.609c1.165.932,1.444,2.793,1.939,4.942.762,3.311,1.179,5.857-.3,7.475s-2.012,2.056-1.934,3.9c.1,2.4,1.163,2.082.249,3.833l-5.072-1.655-.052-1.4-.514,1.314-2.951-1.061Z" transform="translate(-236.441 -176.871)"/></g><g transform="translate(4.414 2.454)"><g transform="translate(7.572 2.574)"><path class="g" d="M290.206,197.356a3.148,3.148,0,0,0,.254,2.4,4.3,4.3,0,0,1,.518,2.384c-.281,1.436-2.063,2.237-2.261,3.687-.106.777.284,1.568.133,2.337a2.686,2.686,0,0,1-1.428,1.68c-.66.375-1.391.623-2.011,1.06,0,0-1.365,1.119-3.715-.726" transform="translate(-281.695 -197.356)"/></g><g transform="translate(0 0.666)"><path class="j" d="M257.3,189.613a1.25,1.25,0,0,0-1.472.83h0l-4.874,16.176c-.629,1.892,1.751,3.911,3.781,4.57h0c2.051.665,2.466-.31,3.118-2.091,1.089-2.976,1.479-4.1,1.474-4.082,0,0,2.721.467,4.42-2.7a37.971,37.971,0,0,0,2.35-6.629c.573-2.058.1-4.992-1.982-5.477Z" transform="translate(-250.847 -189.58)"/><g transform="translate(12.501 6.396)"><g transform="translate(0.127 0.841)"><path class="g" d="M303.19,219.624a.456.456,0,0,1-.566.29.436.436,0,0,1-.309-.542.456.456,0,0,1,.565-.29A.436.436,0,0,1,303.19,219.624Z" transform="translate(-302.297 -219.063)"/></g><path class="g" d="M303.474,216.453c-.073.038-.315-.317-.779-.477s-.884-.046-.914-.12c-.016-.034.074-.116.259-.172a1.25,1.25,0,0,1,.756.027,1.2,1.2,0,0,1,.6.45C303.5,216.319,303.509,216.437,303.474,216.453Z" transform="translate(-301.78 -215.638)"/></g><g transform="translate(7.88 5.01)"><g transform="translate(0.155 0.76)"><path class="g" d="M284.477,213.649a.456.456,0,0,1-.566.29.436.436,0,0,1-.309-.542.456.456,0,0,1,.566-.29A.436.436,0,0,1,284.477,213.649Z" transform="translate(-283.583 -213.087)"/></g><path class="g" d="M284.646,210.805c-.073.038-.316-.317-.779-.477s-.884-.046-.914-.12c-.016-.034.073-.116.259-.172a1.251,1.251,0,0,1,.756.027,1.2,1.2,0,0,1,.6.45C284.667,210.671,284.68,210.789,284.646,210.805Z" transform="translate(-282.951 -209.99)"/></g><g transform="translate(10.061 5.912)"><path class="g" d="M291.839,217.6a3.228,3.228,0,0,1,.8.126c.122.029.243.044.291-.029a.636.636,0,0,0,.043-.378q-.018-.487-.037-1.022a16.418,16.418,0,0,1,.033-2.629,16.4,16.4,0,0,1,.178,2.625c.007.357.014.7.02,1.023a.723.723,0,0,1-.1.485.314.314,0,0,1-.255.105.842.842,0,0,1-.211-.042A3.2,3.2,0,0,1,291.839,217.6Z" transform="translate(-291.838 -213.665)"/></g><g transform="translate(4.398 12.675)"><path class="k" d="M272.843,243.982a9.04,9.04,0,0,1-4.078-2.762s.332,2.7,3.8,3.556Z" transform="translate(-268.765 -241.22)"/></g><g transform="translate(7.969 10.3)"><path class="k" d="M284.822,232.135a.885.885,0,0,0-.64-.57.807.807,0,0,0-.624.1.511.511,0,0,0-.229.539.593.593,0,0,0,.554.365,1.86,1.86,0,0,0,.715-.148.541.541,0,0,0,.18-.091.164.164,0,0,0,.059-.173" transform="translate(-283.313 -231.543)"/></g><g transform="translate(7.681 3.925)"><path class="g" d="M284.378,206.147c-.072.122-.541-.032-1.12-.071s-1.065.027-1.117-.1c-.023-.063.08-.171.289-.262a1.951,1.951,0,0,1,1.7.134C284.326,205.966,284.411,206.089,284.378,206.147Z" transform="translate(-282.138 -205.573)"/></g><g transform="translate(12.958 4.841)"><path class="g" d="M305.544,210.134c-.13.079-.488-.142-.956-.279s-.886-.172-.946-.31c-.025-.066.068-.155.27-.208a1.587,1.587,0,0,1,.829.044,1.561,1.561,0,0,1,.7.431C305.579,209.969,305.6,210.094,305.544,210.134Z" transform="translate(-303.638 -209.301)"/></g></g><g transform="translate(0.776)"><path class="g" d="M254.01,198.18,256.751,189a3.135,3.135,0,0,1,.926-1.693,2.994,2.994,0,0,1,1.774-.43,33.665,33.665,0,0,1,7.951.785,1.367,1.367,0,0,1-1.016,1.417,6.1,6.1,0,0,1-1.892.138,2.37,2.37,0,0,0-1.757.588c-.457.5-.5,1.267-.934,1.787-.744.894-2.3.705-3.038,1.6-.558.68-.408,1.673-.592,2.533a6.422,6.422,0,0,1-.971,2.409c-.468.88.71,2.559-.464,4.737l-2.277-.648,1-3.364-1.355,3.155Z" transform="translate(-254.01 -186.868)"/></g><g transform="translate(8.377 10.449)"><path class="g" d="M285.284,229.443c.048.028.023.15.02.326a1.191,1.191,0,0,0,.576,1.1c.147.1.261.147.257.2s-.139.1-.36.048a1.077,1.077,0,0,1-.738-1.408C285.123,229.5,285.242,229.417,285.284,229.443Z" transform="translate(-284.974 -229.439)"/></g></g><g transform="translate(8.619 5.529)"><path class="g" d="M271.783,199.4a.618.618,0,0,1-.126.072,3.987,3.987,0,0,0-.362.2,4.364,4.364,0,0,0-2.009,3.032,4.965,4.965,0,0,0,.01,1.319,8,8,0,0,1,.086,1.443,2.607,2.607,0,0,1-.157.728,4.374,4.374,0,0,1-.326.639,3.214,3.214,0,0,0-.514,1.2,4.111,4.111,0,0,0,.03,1.19c.052.374.118.722.145,1.048a2.776,2.776,0,0,1-.225,1.51,1.522,1.522,0,0,1-.243.342.617.617,0,0,1-.111.094,2.187,2.187,0,0,0,.31-.458,2.82,2.82,0,0,0,.18-1.48c-.031-.318-.1-.664-.159-1.041a4.159,4.159,0,0,1-.042-1.223c.1-.9.968-1.566.986-2.56a8.077,8.077,0,0,0-.083-1.421,5.01,5.01,0,0,1,0-1.35,4.334,4.334,0,0,1,.931-2.067,4.1,4.1,0,0,1,1.169-.99,2.855,2.855,0,0,1,.376-.18A.608.608,0,0,1,271.783,199.4Z" transform="translate(-267.978 -199.396)"/></g><g transform="translate(19.917 3.209)"><path class="g" d="M317.514,206.069s-.013.013-.041.034a1.4,1.4,0,0,1-.13.087,2.061,2.061,0,0,1-.558.228,2.313,2.313,0,0,1-.953.035,2.128,2.128,0,0,1-1.129-.562,2.308,2.308,0,0,1-.676-1.368,2.159,2.159,0,0,1,.056-.862,2.639,2.639,0,0,1,.4-.82,10.782,10.782,0,0,1,1.357-1.385,5.172,5.172,0,0,0,.668-.754,3.628,3.628,0,0,0,.458-.923,5.947,5.947,0,0,0,.258-2.024,14.39,14.39,0,0,0-.2-1.911,18.016,18.016,0,0,0-.819-3.151,18.753,18.753,0,0,0-.861-2.023c-.115-.233-.208-.413-.272-.534a1.256,1.256,0,0,1-.09-.189,1.309,1.309,0,0,1,.113.176c.071.117.171.293.294.524a16.591,16.591,0,0,1,.9,2.015,17.433,17.433,0,0,1,.85,3.163,14.267,14.267,0,0,1,.208,1.927,6.025,6.025,0,0,1-.262,2.068,3.726,3.726,0,0,1-.474.955,5.235,5.235,0,0,1-.685.772,10.9,10.9,0,0,0-1.348,1.363,2.536,2.536,0,0,0-.392.781,2.06,2.06,0,0,0-.06.819,2.226,2.226,0,0,0,.634,1.316,2.07,2.07,0,0,0,1.079.556,2.316,2.316,0,0,0,.929-.013A2.7,2.7,0,0,0,317.514,206.069Z" transform="translate(-314.007 -189.947)"/></g><g transform="translate(2.544 2.44)"><path class="h" d="M243.229,200.375a2.164,2.164,0,0,0,.789-.392,3.153,3.153,0,0,0,1.045-2.11,12.084,12.084,0,0,0,.042-1.677,7.358,7.358,0,0,1,.151-1.937,3.583,3.583,0,0,1,.4-.984,2.345,2.345,0,0,1,.775-.795,10.727,10.727,0,0,1,2.206-.642,2.323,2.323,0,0,0,.94-.614,5.724,5.724,0,0,0,.665-.9,5.017,5.017,0,0,1,1.368-1.652,2.335,2.335,0,0,1,.95-.346,5.241,5.241,0,0,1,.946-.041,9.7,9.7,0,0,0,1.675-.013,5,5,0,0,0,2.227-.89,5.515,5.515,0,0,0,.512-.417l.125-.119a.213.213,0,0,1,.046-.038,3.511,3.511,0,0,1-.654.613,4.925,4.925,0,0,1-2.244.939,9.543,9.543,0,0,1-1.69.029,3.117,3.117,0,0,0-1.831.38,4.952,4.952,0,0,0-1.326,1.62,5.8,5.8,0,0,1-.678.918,2.449,2.449,0,0,1-.989.648,10.991,10.991,0,0,0-2.183.628,2.692,2.692,0,0,0-1.121,1.7,7.321,7.321,0,0,0-.159,1.907,11.851,11.851,0,0,1-.059,1.69,3.166,3.166,0,0,1-1.1,2.137,1.823,1.823,0,0,1-.592.306,1.291,1.291,0,0,1-.169.039A.206.206,0,0,1,243.229,200.375Z" transform="translate(-243.229 -186.812)"/></g><g transform="translate(5.003 1.868)"><path class="h" d="M253.248,188.451a2.958,2.958,0,0,0,.485.13,2.393,2.393,0,0,0,1.325-.218,5.548,5.548,0,0,0,1.586-1.248c.27-.274.551-.569.871-.847a4.006,4.006,0,0,1,1.106-.709,3.6,3.6,0,0,1,1.293-.238,10.866,10.866,0,0,1,1.215.067c.384.037.748.075,1.087.078a4.72,4.72,0,0,0,.94-.077,2.6,2.6,0,0,0,1.233-.543,4.348,4.348,0,0,0,.347-.363.508.508,0,0,1-.066.114.855.855,0,0,1-.1.127,1.227,1.227,0,0,1-.151.159,2.555,2.555,0,0,1-1.248.594,4.671,4.671,0,0,1-.958.094c-.347,0-.714-.033-1.1-.067a11.161,11.161,0,0,0-1.2-.059,3.514,3.514,0,0,0-1.248.231,6.275,6.275,0,0,0-1.941,1.52,5.482,5.482,0,0,1-1.633,1.248,2.362,2.362,0,0,1-1.37.185,1.612,1.612,0,0,1-.362-.114A.517.517,0,0,1,253.248,188.451Z" transform="translate(-253.248 -184.483)"/></g><g transform="translate(18.141 2.4)"><path class="h" d="M311.4,196.968a2,2,0,0,0,.121-.467,2.03,2.03,0,0,0-.35-1.24,8.249,8.249,0,0,0-1.347-1.427,3.58,3.58,0,0,1-.714-.943,3.3,3.3,0,0,1-.3-1.234c-.057-.872.092-1.686.073-2.425a2.918,2.918,0,0,0-.54-1.831,1.819,1.819,0,0,0-1.078-.692,2.155,2.155,0,0,0-.482-.012.486.486,0,0,1,.123-.033,1.263,1.263,0,0,1,.367,0,1.827,1.827,0,0,1,1.14.684,2.973,2.973,0,0,1,.588,1.885c.025.753-.12,1.569-.063,2.418a3.213,3.213,0,0,0,.289,1.188,3.507,3.507,0,0,0,.685.915,7.908,7.908,0,0,1,1.34,1.463,2.02,2.02,0,0,1,.322,1.293,1.215,1.215,0,0,1-.1.352A.462.462,0,0,1,311.4,196.968Z" transform="translate(-306.774 -186.651)"/></g><g transform="translate(0 1.184)"><path class="g" d="M233.9,194.7a.942.942,0,0,1-.157-.086,1.79,1.79,0,0,1-.382-.344,2.226,2.226,0,0,1-.471-1.791,2.136,2.136,0,0,1,.21-.6,2.326,2.326,0,0,1,.432-.536,5.487,5.487,0,0,1,1.277-.786,5.014,5.014,0,0,0,1.364-.869,3.216,3.216,0,0,0,.772-1.528c.149-.581.25-1.17.441-1.715a7.42,7.42,0,0,1,.712-1.495,7.744,7.744,0,0,1,1.867-2.073,7.154,7.154,0,0,1,1.623-.953,4.591,4.591,0,0,1,.48-.179.942.942,0,0,1,.172-.049c.005.014-.23.088-.631.274a7.635,7.635,0,0,0-1.587.979,7.805,7.805,0,0,0-1.822,2.063,7.394,7.394,0,0,0-.694,1.474c-.186.535-.285,1.116-.436,1.707a3.323,3.323,0,0,1-.807,1.584,5.064,5.064,0,0,1-1.4.886,5.473,5.473,0,0,0-1.258.759,2.25,2.25,0,0,0-.418.505,2.074,2.074,0,0,0-.207.568,2.275,2.275,0,0,0,.058,1.039,2.086,2.086,0,0,0,.363.7A2.517,2.517,0,0,0,233.9,194.7Z" transform="translate(-232.864 -181.697)"/></g><g transform="translate(20.735 2.894)"><path class="g" d="M320.06,198.713c-.011-.01.1-.117.261-.349a2.981,2.981,0,0,0,.435-1.088,4.1,4.1,0,0,0-.06-1.733,6.949,6.949,0,0,0-.88-1.951c-.4-.65-.84-1.24-1.208-1.8a10.21,10.21,0,0,1-.869-1.551,5.155,5.155,0,0,1-.354-1.146,3.086,3.086,0,0,1-.04-.324.376.376,0,0,1,0-.114c.012,0,.028.154.09.428a5.8,5.8,0,0,0,.388,1.119,10.932,10.932,0,0,0,.884,1.522c.371.551.81,1.14,1.219,1.8a6.86,6.86,0,0,1,.885,1.99,4.08,4.08,0,0,1,.034,1.779,2.848,2.848,0,0,1-.483,1.1,2.025,2.025,0,0,1-.216.246C320.092,198.69,320.063,198.716,320.06,198.713Z" transform="translate(-317.341 -188.66)"/></g></g><g transform="translate(0 43.9)"><g transform="translate(0 3.105)"><path class="g" d="M160.447,368.536l-2.016,3.507s-10.018-3.665-15.882-2.6c-2.23.406-4.616,5.465-1.367,8.713,3.17,3.169,8.838,7.65,19.473,9.1.265.036,4.621.971,4.353.94s6.107.977,6.107.977l1.5-5.659,11.878,1.864c7-.478,10.426-7.963,6.21-10.372-3.932-2.248-11.326-2.428-11.326-2.428l-2.68-4.2Z" transform="translate(-139.594 -368.378)"/></g><g transform="translate(9.855 6.548)"><path class="h" d="M201.645,399.966l.289-1.764c.094-.565.211-1.253.361-2.044.075-.4.16-.817.26-1.261.051-.222.106-.449.17-.681.033-.116.068-.232.11-.35a1.053,1.053,0,0,1,.18-.349l.018.086c-2.529-.9-5.689-2.083-9.058-3.5-2.071-.881-4.025-1.771-5.745-2.7a18.651,18.651,0,0,1-2.356-1.461c-.7-.516-1.322-1.032-1.9-1.481a10.312,10.312,0,0,0-2.988-1.751,4.673,4.673,0,0,0-.523-.155,3.062,3.062,0,0,0-.391-.085l-.242-.044a.042.042,0,1,1,0-.013l.245.032a2.763,2.763,0,0,1,.4.073,4.414,4.414,0,0,1,.53.144,7.083,7.083,0,0,1,1.375.612,14.452,14.452,0,0,1,1.652,1.115c.589.445,1.214.957,1.912,1.467a18.8,18.8,0,0,0,2.35,1.443c1.717.918,3.67,1.8,5.739,2.683,3.365,1.419,6.521,2.613,9.042,3.525l.07.025-.053.06a1.021,1.021,0,0,0-.156.309c-.042.113-.077.228-.11.342-.066.229-.121.455-.174.675-.1.442-.191.862-.27,1.256-.157.789-.282,1.475-.384,2.038l-.242,1.3c-.029.149-.053.263-.072.339A.858.858,0,0,1,201.645,399.966Z" transform="translate(-179.743 -382.406)"/></g><g transform="translate(24.698 10.074)"><path class="h" d="M264.321,397.115a.236.236,0,0,1-.064-.006l-.185-.029c-.163-.022-.4-.082-.71-.112a13.759,13.759,0,0,0-2.635-.093,19.572,19.572,0,0,0-3.857.636c-.712.191-1.453.415-2.212.678s-1.532.566-2.324.882a21.461,21.461,0,0,1-2.37.782c-.777.215-1.537.382-2.263.523-1.453.283-2.775.458-3.884.593s-2.01.227-2.632.29l-.716.07-.187.015a.236.236,0,0,1-.064,0,.233.233,0,0,1,.063-.014l.185-.028.714-.094,2.626-.33c1.107-.147,2.426-.331,3.873-.619.724-.143,1.48-.313,2.253-.528a21.764,21.764,0,0,0,2.356-.78c.792-.315,1.57-.619,2.331-.881s1.507-.485,2.223-.673a19.1,19.1,0,0,1,3.882-.612,12.929,12.929,0,0,1,2.646.134c.311.038.546.107.708.136l.182.042A.238.238,0,0,1,264.321,397.115Z" transform="translate(-240.218 -396.77)"/></g><g transform="translate(20.853 7.313)"><path class="g" d="M234.2,386.592c.008.084-.532.219-1.421.3a18.582,18.582,0,0,1-6.9-.74c-.852-.27-1.35-.516-1.325-.6.056-.179,2.16.381,4.81.656C232.008,386.507,234.183,386.405,234.2,386.592Z" transform="translate(-224.55 -385.524)"/></g><g transform="translate(31.012 7.386)"><path class="h" d="M274.821,385.824a2.494,2.494,0,0,1-.392.1c-.128.026-.282.066-.459.12s-.381.105-.6.184a14.666,14.666,0,0,0-1.516.6c-.555.263-1.154.578-1.763.942a27.935,27.935,0,0,0-2.974,2.091c-.364.29-.655.53-.855.7a2.451,2.451,0,0,1-.32.249,2.473,2.473,0,0,1,.287-.287c.19-.179.472-.431.831-.731a23.819,23.819,0,0,1,2.965-2.131,19,19,0,0,1,1.78-.939,13.082,13.082,0,0,1,1.538-.581c.222-.074.429-.123.609-.167a4.438,4.438,0,0,1,.466-.1A2.445,2.445,0,0,1,274.821,385.824Z" transform="translate(-265.942 -385.822)"/></g><g transform="translate(24.245 10.286)"><path class="h" d="M242.884,399.73a2.87,2.87,0,0,1-.7-.2,15.037,15.037,0,0,1-1.607-.726l-1.558-.816a5.307,5.307,0,0,1-.641-.348,3.369,3.369,0,0,1,.68.267c.411.187.966.471,1.577.784s1.169.582,1.583.755S242.889,399.71,242.884,399.73Z" transform="translate(-238.373 -397.638)"/></g><g transform="translate(29.602 3.679)"><path class="h" d="M260.434,370.717c.019,0-.015.368-.052.96s-.07,1.41-.053,2.314.082,1.72.143,2.31.108.954.089.957a1.021,1.021,0,0,1-.064-.251c-.034-.163-.073-.4-.115-.7a19.847,19.847,0,0,1-.09-4.642c.03-.3.061-.535.088-.7A1.02,1.02,0,0,1,260.434,370.717Z" transform="translate(-260.197 -370.717)"/></g><g transform="translate(30.59 3.936)"><path class="h" d="M264.585,371.872c.006.011-.042.039-.1.112a.7.7,0,0,0-.156.362.675.675,0,0,0,.154.537.632.632,0,0,0,1.047-.388.675.675,0,0,0-.233-.508.7.7,0,0,0-.354-.172c-.095-.014-.15,0-.152-.017a.252.252,0,0,1,.156-.033.683.683,0,0,1,.409.153.751.751,0,0,1,.293.58.74.74,0,0,1-1.252.464.751.751,0,0,1-.156-.631.682.682,0,0,1,.211-.382C264.525,371.881,264.583,371.867,264.585,371.872Z" transform="translate(-264.22 -371.765)"/></g><g transform="translate(27.047)"><path class="g" d="M256.744,355.729a1.453,1.453,0,0,1-.191.25,7.108,7.108,0,0,1-.59.623,9.349,9.349,0,0,1-.981.813A9.695,9.695,0,0,1,252.2,358.8a9.362,9.362,0,0,1-1.24.294,7.125,7.125,0,0,1-.853.1,1.467,1.467,0,0,1-.315,0c0-.024.445-.049,1.151-.187a10.639,10.639,0,0,0,1.221-.317,10.41,10.41,0,0,0,2.754-1.373,10.543,10.543,0,0,0,.988-.783C256.437,356.056,256.726,355.713,256.744,355.729Z" transform="translate(-249.788 -355.729)"/></g><g transform="translate(36.589 2.684)"><path class="g" d="M290.557,366.7c0,.038-.443.039-.963.169s-.913.331-.932.3a2.555,2.555,0,0,1,1.895-.466Z" transform="translate(-288.661 -366.663)"/></g><g class="l" transform="translate(27.81 0.178)"><path d="M253.269,359.613a9.393,9.393,0,0,0,5.471-3.161,2.221,2.221,0,0,1-.537,2.253,3.622,3.622,0,0,0,2.037.005,1.757,1.757,0,0,1,1.844.606,71.915,71.915,0,0,1-9.186.262" transform="translate(-252.897 -356.452)"/></g></g><g transform="translate(15.241 41.398)"><path class="g" d="M208.535,346.563a3.237,3.237,0,0,0-2.4-.913,3.679,3.679,0,0,0-1.6.43,6.975,6.975,0,0,0-2.189,2.111,6.727,6.727,0,0,0-.482.8,1.949,1.949,0,0,1-.17.3,1.653,1.653,0,0,1,.125-.322,5.363,5.363,0,0,1,.452-.828c.226-.331.521-.7.861-1.1a4.773,4.773,0,0,1,1.343-1.071,3.706,3.706,0,0,1,1.661-.434,3.368,3.368,0,0,1,1.379.261,2.68,2.68,0,0,1,.8.509,1.6,1.6,0,0,1,.176.188C208.521,346.535,208.538,346.56,208.535,346.563Z" transform="translate(-201.688 -345.532)"/></g><g transform="translate(14.381 18.886)"><g transform="translate(10.705)"><path class="j" d="M245.227,253.815l-3.428.729,1.714,6.413,6.067,1.3,4.163-2.954.571-3.535-3.569-1.35Z" transform="translate(-241.799 -253.815)"/></g><g transform="translate(1.839 0.464)"><path class="h" d="M215.559,255.707s2.319,6.735,6.6,6.113,3.928-4.988,3.928-4.988,4.473,1.363,5.856,2.815.572,4.6.572,4.6l-1.16,5.7-2.523,10.919s.965,2.978-1.5,3.714l-.779-1.222-14.793.418s-3.164,3.648-4.15,2.389a18.464,18.464,0,0,1-1.936-3.71l6.79-25.948Z" transform="translate(-205.679 -255.707)"/></g><g transform="translate(24.489 3.544)"><path class="h" d="M300.4,268.252c.12.069,10.5,7.617,10.5,7.617s-.815,6.206,4.164,5.218c0,0-2.013,5.191-4.738,4.1-.774-.31-10.345-6.366-10.345-6.366l-2.034-4.332Z" transform="translate(-297.955 -268.252)"/></g><g transform="translate(0 0.797)"><path class="h" d="M209.9,257.063s-.235.006-.631.044c-2.033.2-9.534,1.749-10.228,7.042-.363,2.769-.467,10.867-.861,14.261,0,0,.628,4.719.861,5.593.415,1.555,7.94-.935,7.94-.935L207,268.085l2.669-11.016" transform="translate(-198.185 -257.063)"/></g><g transform="translate(6.952 14.399)"><path class="g" d="M226.53,312.477a.45.45,0,0,1,.012.122,3.079,3.079,0,0,0,.024.347,5.013,5.013,0,0,0,.317,1.233c.192.505.484,1.08.777,1.738a7.935,7.935,0,0,1,.392,1.064,6.385,6.385,0,0,1,.2,1.2,14.5,14.5,0,0,1-.06,2.342c-.062.715-.121,1.361-.211,1.9a8.205,8.205,0,0,1-.3,1.255c-.049.144-.09.255-.122.329a.444.444,0,0,1-.054.11c-.01,0,.047-.162.129-.453a9.8,9.8,0,0,0,.255-1.254c.077-.535.127-1.179.183-1.894a15.269,15.269,0,0,0,.05-2.322,6.416,6.416,0,0,0-.2-1.179,8.041,8.041,0,0,0-.379-1.05c-.284-.656-.57-1.239-.753-1.754a4.611,4.611,0,0,1-.281-1.26,2.194,2.194,0,0,1,0-.351A.44.44,0,0,1,226.53,312.477Z" transform="translate(-226.509 -312.477)"/></g><g transform="translate(7.3 12.51)"><path class="g" d="M227.937,304.784c.021,0,.039.381.125.989a13.07,13.07,0,0,0,.548,2.332c.076.221.153.437.236.641a.934.934,0,0,0,.061.14l.088.136c.057.092.111.183.158.277a2.328,2.328,0,0,1,.277,1.062,1.871,1.871,0,0,1-.146.725.984.984,0,0,1-.135.234,2.533,2.533,0,0,0,.191-.957,2.327,2.327,0,0,0-.291-1.009c-.046-.089-.1-.176-.156-.265l-.089-.135a.993.993,0,0,1-.073-.16c-.085-.206-.164-.423-.241-.647a11.048,11.048,0,0,1-.516-2.361c-.033-.308-.042-.559-.047-.731A1.106,1.106,0,0,1,227.937,304.784Z" transform="translate(-227.925 -304.784)"/></g><g transform="translate(4.231 5.507)"><path class="g" d="M218.81,281c-.02.007-.131-.306-.353-.791a10.889,10.889,0,0,0-2.4-3.37c-.386-.368-.645-.576-.632-.592a.825.825,0,0,1,.2.126c.123.087.293.223.5.4a9.288,9.288,0,0,1,2.422,3.4,6.318,6.318,0,0,1,.216.6A.821.821,0,0,1,218.81,281Z" transform="translate(-215.424 -276.25)"/></g><g transform="translate(28.449 5.862)"><path class="g" d="M314.533,277.7a3.023,3.023,0,0,1-.051.595c-.044.365-.106.869-.165,1.426s-.1,1.063-.133,1.43a3,3,0,0,1-.073.592,2.591,2.591,0,0,1-.017-.6c.009-.369.038-.878.1-1.438s.135-1.064.2-1.427A2.568,2.568,0,0,1,314.533,277.7Z" transform="translate(-314.09 -277.699)"/></g><g transform="translate(27.148 12.159)"><path class="g" d="M312.666,303.359c0,.024-.324.054-.826.2a3.9,3.9,0,0,0-1.73,1.014,4.709,4.709,0,0,0-.66.9,6.706,6.706,0,0,0-.38.834l-.12.333-.078.256a.818.818,0,0,1-.082.216.794.794,0,0,1,.034-.228l.057-.264.1-.343a5.782,5.782,0,0,1,.362-.861,4.49,4.49,0,0,1,.672-.93,3.725,3.725,0,0,1,1.8-1.012,3.121,3.121,0,0,1,.351-.071,2.51,2.51,0,0,1,.268-.034A.793.793,0,0,1,312.666,303.359Z" transform="translate(-308.788 -303.354)"/></g><g transform="translate(36.71 11.105)"><path class="g" d="M348.94,306.95a1.556,1.556,0,0,1-.166-.275c-.051-.09-.11-.2-.17-.337s-.136-.284-.2-.458a9.036,9.036,0,0,1-.4-1.24,9.4,9.4,0,0,1-.213-3.17,9.061,9.061,0,0,1,.226-1.281c.04-.181.094-.34.136-.481a3.756,3.756,0,0,1,.123-.356,1.561,1.561,0,0,1,.128-.295c.024.008-.14.435-.3,1.152a10.2,10.2,0,0,0-.2,1.272,10.037,10.037,0,0,0,.211,3.132,10.209,10.209,0,0,0,.365,1.234C348.743,306.537,348.962,306.939,348.94,306.95Z" transform="translate(-347.749 -299.058)"/></g><g transform="translate(34.907 11.118)"><path class="g" d="M340.7,305.145a1.144,1.144,0,0,1-.1-.262,4.837,4.837,0,0,1-.154-.746,5.852,5.852,0,0,1,.231-2.494,5.636,5.636,0,0,1,1.255-2.169,1.081,1.081,0,0,1,.675-.363.471.471,0,0,1,.209.04c.042.024.063.039.06.042a.75.75,0,0,0-.266-.033,1.083,1.083,0,0,0-.613.376,5.98,5.98,0,0,0-1.2,2.144,6.225,6.225,0,0,0-.264,2.445C340.6,304.759,340.72,305.139,340.7,305.145Z" transform="translate(-340.4 -299.111)"/></g><g transform="translate(13.283 15.931)"><path class="g" d="M257.342,318.72a1.326,1.326,0,0,1-.061.291,2.816,2.816,0,0,1-.1.334c-.046.128-.091.277-.163.433a6.927,6.927,0,0,1-.561,1.066,7.289,7.289,0,0,1-2.053,2.1,6.939,6.939,0,0,1-1.053.585c-.154.076-.3.124-.429.173a2.823,2.823,0,0,1-.332.108,1.312,1.312,0,0,1-.29.067c-.008-.025.4-.136,1.012-.43a7.713,7.713,0,0,0,1.025-.6,7.7,7.7,0,0,0,2.021-2.068,7.714,7.714,0,0,0,.577-1.038C257.216,319.124,257.318,318.712,257.342,318.72Z" transform="translate(-252.301 -318.72)"/></g><g class="l" transform="translate(7.434 12.597)"><path d="M230.862,310.9l-1.415-5.165c-.069-.252-.184-.548-.441-.594a.484.484,0,0,0-.5.421,2.787,2.787,0,0,0-.013.755,5.921,5.921,0,0,0,.722,2.752c1.018,1.693.347,2.515.347,2.515a23.254,23.254,0,0,1-.734,6.993l.605,2.555c.575-1.9,1.888-3.484,2.109-5.456A12.864,12.864,0,0,0,230.862,310.9Z" transform="translate(-228.472 -305.138)"/></g><g class="l" transform="translate(27.519 14.078)"><path d="M310.3,311.835c1.681.875,3.176,2.081,4.815,3.016a7.658,7.658,0,0,0-3.016-3.37,1.9,1.9,0,0,0-1.139-.3c-.4.056-.681.279-.621.674" transform="translate(-310.3 -311.169)"/></g><g class="l" transform="translate(34.882 10.94)"><path d="M342.573,298.491c-.574-.014-1.008.508-1.289,1.009a7.753,7.753,0,0,0-.928,4.683c.035.29.142.639.429.7a.5.5,0,0,0,.508-.3,1.4,1.4,0,0,0,.1-.622,20.256,20.256,0,0,1,.073-2.948,4.346,4.346,0,0,1,1.234-2.618" transform="translate(-340.301 -298.388)"/></g><g transform="translate(11.192 12.336)"><path class="a" d="M243.782,304.625a.26.26,0,0,1,.057-.007l.171-.011.665-.035,2.514-.116,8.9-.378.058,0v.058c.073,2.995.157,6.439.247,10.087,0,.123.006.245.009.365v.065h-.065a87.456,87.456,0,0,0-10.96.819l-.048.007-.013-.047a39.205,39.205,0,0,1-1.307-7.9c-.058-.965-.069-1.725-.069-2.242,0-.259.006-.457.008-.591l0-.151a.226.226,0,0,1,0-.051.223.223,0,0,1,0,.051l0,.151q0,.209.008.59c.011.517.032,1.275.1,2.238a40.268,40.268,0,0,0,1.349,7.871l-.061-.04a85.358,85.358,0,0,1,10.974-.837l-.063.066c0-.12-.006-.243-.009-.365-.084-3.648-.164-7.093-.233-10.087l.059.055-8.9.332-2.516.084-.665.018-.171,0A.291.291,0,0,1,243.782,304.625Z" transform="translate(-243.782 -304.075)"/></g><g transform="translate(13.178 12.898)"><path class="a" d="M253.123,313.792c-.035.006-.342-1.653-.685-3.7s-.594-3.72-.559-3.726.342,1.652.686,3.7S253.158,313.786,253.123,313.792Z" transform="translate(-251.875 -306.362)"/></g><g transform="translate(14.365 20.797)"><path class="a" d="M257.142,341.24a14.6,14.6,0,0,1-.421-2.7,14.608,14.608,0,0,1,.421,2.7Z" transform="translate(-256.711 -338.545)"/></g><g transform="translate(16.282 12.694)"><path class="a" d="M265.147,311.523a.866.866,0,0,1-.069-.228c-.037-.148-.083-.365-.134-.633-.1-.537-.219-1.283-.3-2.113s-.116-1.586-.121-2.132c0-.273,0-.494.006-.647a.858.858,0,0,1,.023-.237,7.216,7.216,0,0,1,.062.881c.028.544.076,1.295.158,2.122s.185,1.572.264,2.111A7.257,7.257,0,0,1,265.147,311.523Z" transform="translate(-264.52 -305.533)"/></g><g transform="translate(16.191 19.68)"><path class="a" d="M264.588,337.477a24.188,24.188,0,0,1-.431-3.484,24.175,24.175,0,0,1,.431,3.484Z" transform="translate(-264.148 -333.993)"/></g><g transform="translate(18.221 12.694)"><path class="a" d="M273.6,315.8a2.5,2.5,0,0,1-.05-.4l-.1-1.1c-.081-.932-.2-2.219-.363-3.637s-.339-2.7-.473-3.625c-.064-.447-.117-.816-.157-1.1a2.454,2.454,0,0,1-.043-.4,2.506,2.506,0,0,1,.092.4c.052.257.119.63.2,1.091.156.923.346,2.2.51,3.624s.269,2.71.326,3.645c.029.468.048.846.055,1.108A2.465,2.465,0,0,1,273.6,315.8Z" transform="translate(-272.421 -305.531)"/></g><g transform="translate(21.264 12.634)"><path class="a" d="M285.317,315.751a2.558,2.558,0,0,1-.017-.412c0-.287-.006-.665-.01-1.123-.009-.948-.035-2.257-.1-3.7s-.168-2.751-.249-3.7c-.039-.456-.072-.833-.1-1.119a2.556,2.556,0,0,1-.022-.412,2.528,2.528,0,0,1,.071.406c.038.263.085.644.137,1.116.1.943.217,2.251.287,3.7s.08,2.759.065,3.708c-.007.474-.018.859-.031,1.124A2.549,2.549,0,0,1,285.317,315.751Z" transform="translate(-284.817 -305.288)"/></g><g class="l" transform="translate(13.405 16.336)"><path d="M252.872,325.144a2.067,2.067,0,0,0,1.293.315,4.123,4.123,0,0,0,1.3-.343,3.935,3.935,0,0,0,1.485-.978,3.44,3.44,0,0,0,.75-1.74,10.251,10.251,0,0,0,.063-1.915.143.143,0,0,0-.018-.08.1.1,0,0,0-.139,0,.293.293,0,0,0-.075.135,7.115,7.115,0,0,1-4.736,4.476" transform="translate(-252.8 -320.372)"/></g></g><g transform="translate(15.822 41.549)"><path class="j" d="M214.571,365.152l-1.5-2.813L209.7,346.554s-3.1-1.781-5.642,2.124c-.1.157,3.494,11.462,4.5,14.607l.141,3.008a27.987,27.987,0,0,0,0,3.873,1.426,1.426,0,0,0,.623.49.862.862,0,0,0,.89.979s.089.979.846.846a1.447,1.447,0,0,0,1.024-.623s0,1.246.668,1.113.777-.668.9-.846a13.675,13.675,0,0,0,.264-2l-.012-3.016,1.739,1.408c.5.25,1.237.56,1.656.187Z" transform="translate(-204.055 -346.149)"/><g transform="translate(9.794 20.807)"><path class="k" d="M244.008,430.919a5.46,5.46,0,0,1,.1,1.624c-.02.418-.038.8-.055,1.146a1.99,1.99,0,0,1-.043.475,7.376,7.376,0,0,1-.029-1.626C244.022,431.645,243.975,430.924,244.008,430.919Z" transform="translate(-243.958 -430.919)"/></g><g transform="translate(7.883 22.907)"><path class="k" d="M236.217,439.476a17.469,17.469,0,0,1,.04,2.983,17.469,17.469,0,0,1-.04-2.983Z" transform="translate(-236.17 -439.476)"/></g><g transform="translate(6.117 23.454)"><path class="k" d="M229.185,441.706a4.065,4.065,0,0,1-.2,2.064,9.471,9.471,0,0,1,.106-1.031A9.336,9.336,0,0,1,229.185,441.706Z" transform="translate(-228.978 -441.706)"/></g><g transform="translate(5.132 23.107)"><path class="k" d="M225.122,440.291a3.589,3.589,0,0,1-.133,1.342,3.59,3.59,0,0,1,.133-1.342Z" transform="translate(-224.963 -440.291)"/></g></g></g></g><g transform="translate(645.716 1128.066)"><g transform="translate(0 0)"><g transform="translate(0.054 0.05)"><path class="a" d="M171.79,127.626l-2.258-3.98a10.666,10.666,0,1,0-2.554,2.841l0,0Z" transform="translate(-149.816 -107.425)"/></g><path class="g" d="M171.624,127.473l-4.824-1.1a.032.032,0,0,1-.018-.05l0,0,.045.044a10.9,10.9,0,0,1-2.19,1.32,10.68,10.68,0,0,1-2.92.834,9.577,9.577,0,0,1-1.686.085c-.29-.016-.585-.024-.883-.049l-.9-.136a10.742,10.742,0,0,1-6.654-4.272,10.615,10.615,0,0,1-1.8-4.113,10.855,10.855,0,0,1,.126-4.737,10.5,10.5,0,0,1,2.282-4.379l.435-.478c.143-.161.313-.294.468-.441s.308-.3.483-.421l.511-.382a4.514,4.514,0,0,1,.529-.35l.54-.328.566-.275a4.986,4.986,0,0,1,.571-.254,10.866,10.866,0,0,1,4.773-.734,10.507,10.507,0,0,1,4.381,1.295,10.806,10.806,0,0,1,5.054,6.219,11.514,11.514,0,0,1,.463,3.463,10.6,10.6,0,0,1-.521,2.99,10.791,10.791,0,0,1-1.068,2.292v-.031l2.232,4-2.285-3.965a.032.032,0,0,1,0-.031,10.8,10.8,0,0,0,1.048-2.283,10.56,10.56,0,0,0,.5-2.969,11.455,11.455,0,0,0-.47-3.432,10.712,10.712,0,0,0-5.016-6.146,10.4,10.4,0,0,0-4.333-1.275,10.753,10.753,0,0,0-4.717.728,4.91,4.91,0,0,0-.564.251l-.559.271-.534.324a4.384,4.384,0,0,0-.523.346l-.505.378c-.172.122-.317.278-.477.416s-.322.277-.463.436l-.43.473a10.386,10.386,0,0,0-2.256,4.327A10.74,10.74,0,0,0,149.92,120a10.511,10.511,0,0,0,1.774,4.069,10.651,10.651,0,0,0,6.578,4.241l.891.137c.3.026.588.033.875.051a9.5,9.5,0,0,0,1.672-.079,10.627,10.627,0,0,0,2.9-.815,10.908,10.908,0,0,0,2.183-1.3.032.032,0,0,1,.045.005.032.032,0,0,1,0,.039l0,0-.018-.05Z" transform="translate(-149.597 -107.222)"/></g><g transform="translate(5.505 7.097)"><g transform="translate(0.076 1.417)"><path class="f" d="M174.327,142.066a1.542,1.542,0,0,0-.53-.136,1.59,1.59,0,0,0-1.462.54c1.153.668,2.72,1.554,3.842,2.194l1.416-.809C176.574,143.291,175.292,142.585,174.327,142.066Z" transform="translate(-172.335 -141.913)"/><g class="l"><path d="M174.327,142.066a1.542,1.542,0,0,0-.53-.136,1.59,1.59,0,0,0-1.462.54c1.153.668,2.72,1.554,3.842,2.194l1.416-.809C176.574,143.291,175.292,142.585,174.327,142.066Z" transform="translate(-172.335 -141.913)"/></g></g><g transform="translate(0)"><path class="f" d="M178.43,141.8c-.036-.03-.043-.038-.052-.043-.352-.2-.726-.593-1.083-.585-.136,0-.283.12-.634.318-.585.33-1.568.906-2.157,1.231a2.2,2.2,0,0,1-1.686.3,2.412,2.412,0,0,1-.793-.479l6.4-3.712c-.034-.095-.067-.187-.1-.279a1.832,1.832,0,1,1,1.532,1.237.846.846,0,0,0-.426.086c-.244.116-.472.266-.762.434.493.222.828.574,1.4.52a1.729,1.729,0,0,1,1.743,1.27,1.833,1.833,0,1,1-3.489-.041C178.359,141.975,178.394,141.892,178.43,141.8Zm1.635-2.949a.875.875,0,0,0,.885-.894.89.89,0,0,0-.879-.875.9.9,0,0,0-.892.9A.893.893,0,0,0,180.065,138.85Zm-.01,4.683a.891.891,0,0,0,.9-.859.874.874,0,0,0-.868-.91.893.893,0,0,0-.9.853A.906.906,0,0,0,180.055,143.533Z" transform="translate(-172.025 -136.138)"/></g><g transform="translate(4.76 3.665)"><path class="g" d="M192.315,151.542c-.022.007-.013-.167-.192-.3a.376.376,0,0,0-.347-.041.361.361,0,0,0,0,.673.376.376,0,0,0,.347-.041c.179-.129.17-.3.192-.3s.02.038.011.108a.416.416,0,0,1-.148.26.459.459,0,0,1-.442.08.473.473,0,0,1,0-.895.459.459,0,0,1,.442.08.416.416,0,0,1,.148.26C192.335,151.5,192.322,151.542,192.315,151.542Z" transform="translate(-191.416 -151.07)"/></g><g transform="translate(3.789 3.827)"><path class="g" d="M190.9,151.729a.9.9,0,0,1-.13.087l-.364.22-1.211.711-1.218.7-.372.206a.911.911,0,0,1-.14.069.947.947,0,0,1,.13-.087l.364-.221,1.211-.711,1.218-.7.372-.206A.951.951,0,0,1,190.9,151.729Z" transform="translate(-187.463 -151.729)"/></g><g transform="translate(0 2.845)"><path class="g" d="M178.184,147.731a.4.4,0,0,1-.06.041l-.176.109-.652.395c-.552.332-1.315.789-2.17,1.272l-2.188,1.242-.666.371-.182.1a.385.385,0,0,1-.065.031.378.378,0,0,1,.06-.04l.178-.107.658-.385,2.18-1.255c.855-.483,1.621-.935,2.177-1.259l.661-.381.181-.1A.4.4,0,0,1,178.184,147.731Z" transform="translate(-172.025 -147.73)"/></g></g></g><g transform="translate(696.612 1133.148)"><g transform="translate(0 18.226)"><path class="f" d="M358.271,202.184l.466.852.852.466-.852.466-.466.852-.466-.852-.852-.466.852-.466Z" transform="translate(-356.953 -202.184)"/></g><g transform="translate(4.43 6.241)"><path class="f" d="M375,153.675l.484-.032.391-.288.032.484.288.391-.484.032-.391.288-.032-.484Z" transform="translate(-375 -153.355)"/></g><g transform="translate(82.939 44.972)"><path class="f" d="M694.861,311.473l.484-.032.391-.288.032.484.288.391-.484.032-.391.288-.032-.484Z" transform="translate(-694.861 -311.153)"/></g><g transform="translate(27.637 20.74)"><path class="f" d="M469.551,212.746l.484-.032.391-.288.032.484.288.391-.484.032-.391.288-.032-.484Z" transform="translate(-469.551 -212.426)"/></g><g transform="translate(30.586 0)"><path class="f" d="M481.566,128.249l.484-.032.391-.288.032.484.288.391-.484.032-.391.288-.032-.484Z" transform="translate(-481.566 -127.929)"/></g><g transform="translate(15.725 12.013)"><path class="f" d="M421.019,178.05l.737-.424.391-.754.424.737.754.391-.737.424-.391.754-.424-.737Z" transform="translate(-421.019 -176.872)"/></g><g transform="translate(77.59 53.864)"><path class="f" d="M673.066,348.557l.737-.424.391-.754.424.737.755.391-.737.424-.391.754-.424-.737Z" transform="translate(-673.066 -347.378)"/></g><g transform="translate(73.893 40.401)"><path class="f" d="M658,293.707l.737-.424.391-.754.424.737.754.391-.737.424-.391.754-.424-.737Z" transform="translate(-658.003 -292.528)"/></g></g><text class="m" transform="translate(695 1197)"><tspan x="0" y="0">70</tspan></text></g></g></svg>